<?xml version="1.0" encoding="UTF-8"?>
<!DOCTYPE svg PUBLIC "-//W3C//DTD SVG 1.1//EN" "http://www.w3.org/Graphics/SVG/1.1/DTD/svg11.dtd">
<!-- Creator: CorelDRAW -->
<svg xmlns="http://www.w3.org/2000/svg" xml:space="preserve" width="6.82666in" height="6.82666in" style="shape-rendering:geometricPrecision; text-rendering:geometricPrecision; image-rendering:optimizeQuality; fill-rule:evenodd; clip-rule:evenodd"
viewBox="0 0 6.82666 6.82666"
 xmlns:xlink="http://www.w3.org/1999/xlink">
 <defs>
  <style type="text/css">
   <![CDATA[
    .fil7 {fill:none}
    .fil5 {fill:#E8E9E9}
    .fil2 {fill:#1A191A;fill-rule:nonzero}
    .fil6 {fill:#202020;fill-rule:nonzero}
    .fil4 {fill:#323232;fill-rule:nonzero}
    .fil3 {fill:#414141;fill-rule:nonzero}
    .fil1 {fill:darkgray;fill-rule:nonzero}
    .fil0 {fill:#BEBEBE;fill-rule:nonzero}
   ]]>
  </style>
 </defs>
 <g id="Layer_x0020_1">
  <metadata id="CorelCorpID_0Corel-Layer"/>
  <g id="_520034296">
   <path id="_520036048" class="fil0" d="M2.87954 5.39606c-0.0622362,0 -0.112697,0.0504567 -0.112697,0.112697 0,0.0622362 0.0504606,0.112697 0.112697,0.112697l0.523299 0c0.202961,0 0.345484,-0.0805472 0.442252,-0.198724 0.118547,-0.14478 0.161394,-0.344134 0.161394,-0.513535l0 -0.748335c0,-0.144563 0.0719331,-0.235614 0.163988,-0.274315 0.0362165,-0.0152283 0.0765512,-0.0228346 0.117752,-0.0228346 0.0405315,0 0.0808425,0.00775197 0.117748,0.0232362 0.0920512,0.038626 0.163976,0.129146 0.163976,0.272142l0 0.448114c0,0.0622362 0.0504606,0.112697 0.112697,0.112697 0.0622402,0 0.112697,-0.0504606 0.112697,-0.112697l0 -0.448114c0,-0.248331 -0.132551,-0.408732 -0.302205,-0.479921 -0.064874,-0.0272244 -0.135008,-0.0408504 -0.204913,-0.0408504 -0.0692441,0 -0.139362,0.0137677 -0.204917,0.0413268 -0.169657,0.0713228 -0.302217,0.231913 -0.302217,0.481217l0 0.748335c0,0.126433 -0.0292913,0.271945 -0.110327,0.370906 -0.0564646,0.0689567 -0.142327,0.115961 -0.267925,0.115961l-0.523299 0z"/>
   <path id="_520035184" class="fil1" d="M2.84287 5.61534c0.0114961,0.00395669 0.0238346,0.0061063 0.0366693,0.0061063l0.523299 0c0.202961,0 0.345484,-0.0805472 0.442252,-0.198724 0.118547,-0.14478 0.161394,-0.344134 0.161394,-0.513535l0 -0.748335c0,-0.144563 0.0719331,-0.235614 0.163988,-0.274315 0.0362165,-0.0152283 0.0765512,-0.0228346 0.117752,-0.0228346 0.0405315,0 0.0808425,0.00775197 0.117748,0.0232362 0.0397441,0.0166772 0.0757283,0.0430394 0.103803,0.0791102 0.0895591,0.060937 0.132504,0.16389 0.132504,0.275913l0 0.448114c0,0.00826772 0.00129921,0.0162323 0.00369685,0.0237087 0.0114961,0.00395276 0.0238346,0.0061063 0.0366693,0.0061063 0.0622402,0 0.112697,-0.0504606 0.112697,-0.112697l0 -0.413654c-0.0140748,-0.177996 -0.106854,-0.326913 -0.278717,-0.399028 -0.0603661,-0.0253346 -0.125854,-0.0381102 -0.191287,-0.0381102 -0.0654921,0 -0.130898,0.0131929 -0.191268,0.0385748 -0.187665,0.0788976 -0.28065,0.249213 -0.28065,0.448756l0 0.748335c0,0.13426 -0.0315236,0.287252 -0.118295,0.39322 -0.0746024,0.0910984 -0.179429,0.128858 -0.295169,0.128858l-0.523303 0c-0.0427992,0 -0.0774803,0.0346811 -0.0774803,0.0774843 0,0.00826772 0.00129528,0.0162323 0.00369685,0.0237087z"/>
   <path id="_520034848" class="fil2" d="M1.85627 5.74867c-0.0619961,0.00315748 -0.109689,0.0559843 -0.106531,0.11798 0.00315748,0.0619961 0.0559843,0.109689 0.11798,0.106535l0.153461 -0.00816535 -0.00572441 -0.11226 0.00598819 0.112535c0.0250157,-0.00133071 0.0476811,-0.0107244 0.0656339,-0.0255236l0.395067 -0.267693c0.0512992,-0.0347677 0.0647008,-0.104535 0.029937,-0.155835 -0.0347638,-0.0512992 -0.104535,-0.0647008 -0.155835,-0.029937l-0.377594 0.255854 -0.122382 0.00650787z"/>
   <path id="_520035112" class="fil2" d="M3.89135 5.97318c0.0619961,0.00315354 0.114823,-0.0445394 0.11798,-0.106535 0.00315748,-0.0619961 -0.0445354,-0.114823 -0.106531,-0.11798l-0.122382 -0.00650787 -0.377594 -0.255854c-0.0512992,-0.0347638 -0.121071,-0.0213622 -0.155835,0.029937 -0.0347638,0.0512992 -0.0213622,0.121067 0.029937,0.155835l0.395067 0.267693c0.0179528,0.0147992 0.0406181,0.0241929 0.0656339,0.0255236l0.00598819 -0.112535 -0.00572441 0.11226 0.153461 0.00816535z"/>
   <path id="_520035496" class="fil3" d="M2.42876 2.35331l0.901555 0c0.0622402,0 0.112697,0.0504567 0.112697,0.112697l0 3.17029c0,0.0622362 -0.0504567,0.112697 -0.112697,0.112697l-0.901555 0c-0.0622402,0 -0.112697,-0.0504606 -0.112697,-0.112697l0 -3.17029c0,-0.0622402 0.0504567,-0.112697 0.112697,-0.112697z"/>
   <path id="_520035448" class="fil2" d="M2.99223 1.01704c0,-0.0622402 -0.0504567,-0.112697 -0.112697,-0.112697 -0.0622402,0 -0.112697,0.0504567 -0.112697,0.112697l0 1.44896c0,0.0622362 0.0504567,0.112697 0.112697,0.112697 0.0622402,0 0.112697,-0.0504606 0.112697,-0.112697l0 -1.44896z"/>
   <path id="_520035040" class="fil4" d="M5.02072 5.19993l-0.676165 0c-0.0311142,0 -0.0563465,-0.0252283 -0.0563465,-0.0563465l0 -0.2255c0,-0.0311142 0.0252323,-0.0563465 0.0563465,-0.0563465l0.676165 0c0.0311181,0 0.0563504,0.0252323 0.0563504,0.0563465l0 0.2255c0,0.0311181 -0.0252323,0.0563465 -0.0563504,0.0563465z"/>
   <path id="_520035016" class="fil4" d="M4.51355 4.91809l0 -0.235244c0,-0.0311142 0.0252323,-0.0563465 0.0563504,-0.0563465l0.225496 0c0.0311181,0 0.0563504,0.0252323 0.0563504,0.0563465l0 0.235244c0,0.0311181 -0.0252323,0.0563504 -0.0563504,0.0563504l-0.225496 0c-0.0311181,0 -0.0563504,-0.0252323 -0.0563504,-0.0563504z"/>
   <path id="_520035328" class="fil4" d="M2.3232 2.35331c-0.0622402,0 -0.112697,0.0504567 -0.112697,0.112697 0,0.0622402 0.0504567,0.112697 0.112697,0.112697l1.11266 0c0.0622402,0 0.112697,-0.0504567 0.112697,-0.112697 0,-0.0622402 -0.0504567,-0.112697 -0.112697,-0.112697l-1.11266 0z"/>
   <path id="_520035256" class="fil2" d="M2.05326 0.853335l0.0870945 0c0.0237717,0 0.0456732,0.00801575 0.0631457,0.0214882 0.00791339,0.0050748 0.0166811,0.00920472 0.0261102,0.0121929 0.010248,0.00324409 0.0212638,0.005 0.0327835,0.005l1.23428 0c0.0115197,0 0.0225394,-0.00175591 0.0327835,-0.005 0.0109252,-0.00346457 0.0209567,-0.00845276 0.0298031,-0.0146732l-9.44882e-005 -0.000169291c0.0183386,-0.0128937 0.0394134,-0.0189961 0.0602402,-0.0188386l0.0863937 0c0.0571811,0 0.103535,0.0463543 0.103535,0.103531l0 0.330996c0,0.0571772 -0.0463543,0.103535 -0.103535,0.103535l-0.0870866 0c-0.0237717,0 -0.0456732,-0.00801969 -0.0631457,-0.0214921 -0.00790945,-0.0050748 -0.0166772,-0.00920079 -0.0261102,-0.012189 -0.0102441,-0.00324409 -0.0212638,-0.00500394 -0.0327835,-0.00500394l-1.23428 0c-0.0115197,0 -0.0225354,0.00175984 -0.0327835,0.00500394 -0.0109252,0.00346063 -0.0209567,0.00845276 -0.0298031,0.0146693l8.66142e-005 0.000173228c-0.0183386,0.0128937 -0.0394134,0.0189921 -0.0602441,0.0188386l-0.0863898 0c-0.0571811,0 -0.103535,-0.0463583 -0.103535,-0.103535l0 -0.330996c0,-0.0571772 0.0463543,-0.103531 0.103535,-0.103531z"/>
   <rect id="_520034632" class="fil5" x="2.55342" y="2.74901" width="0.652232" height="2.80252"/>
   <path id="_520034752" class="fil6" d="M2.90279 2.93163c0,-0.0194488 -0.0157677,-0.0352205 -0.0352205,-0.0352205 -0.0194488,0 -0.0352165,0.0157717 -0.0352165,0.0352205l0 2.46443c0,0.0194488 0.0157677,0.0352165 0.0352165,0.0352165 0.0194528,0 0.0352205,-0.0157677 0.0352205,-0.0352165l0 -2.46443z"/>
  </g>
 </g>
 <rect class="fil7" width="6.82666" height="6.82666"/>
</svg>
