<?xml version="1.0" encoding="UTF-8"?>
<!DOCTYPE svg PUBLIC "-//W3C//DTD SVG 1.1//EN" "http://www.w3.org/Graphics/SVG/1.1/DTD/svg11.dtd">
<!-- Creator: CorelDRAW -->
<svg xmlns="http://www.w3.org/2000/svg" xml:space="preserve" width="6.82666in" height="6.82666in" style="shape-rendering:geometricPrecision; text-rendering:geometricPrecision; image-rendering:optimizeQuality; fill-rule:evenodd; clip-rule:evenodd"
viewBox="0 0 6.82666 6.82666"
 xmlns:xlink="http://www.w3.org/1999/xlink">
 <defs>
  <style type="text/css">
   <![CDATA[
    .fil5 {fill:none}
    .fil9 {fill:#939393}
    .fil8 {fill:#9B9B9C}
    .fil11 {fill:#9E9E9E}
    .fil6 {fill:#B6B6B6}
    .fil0 {fill:#CDCDCD}
    .fil10 {fill:#DCDDDD}
    .fil1 {fill:#2D2D2D;fill-rule:nonzero}
    .fil4 {fill:#3A3A3A;fill-rule:nonzero}
    .fil3 {fill:#9B9B9C;fill-rule:nonzero}
    .fil2 {fill:#B3B4B4;fill-rule:nonzero}
    .fil7 {fill:#CBCBCC;fill-rule:nonzero}
   ]]>
  </style>
 </defs>
 <g id="Layer_x0020_1">
  <metadata id="CorelCorpID_0Corel-Layer"/>
  <path class="fil0" d="M3.76816 5.46495c0.822449,0 1.58658,0.0290394 2.22088,0.0787835l0 0.417728 -5.12615 0 0 -0.349823c0.726047,-0.0902598 1.75894,-0.146689 2.90526,-0.146689z"/>
  <g id="_339722864">
   <path id="_339724256" class="fil1" d="M4.46875 4.8254c-0.0208504,0.00961811 -0.0299606,0.0343268 -0.0203425,0.0551772 0.00961811,0.0208504 0.0343268,0.0299606 0.0551772,0.0203425l1.45139 -0.67361c0.0208504,-0.00961811 0.0299606,-0.0343268 0.0203425,-0.0551772 -0.00961811,-0.0208504 -0.0343268,-0.0299606 -0.0551772,-0.0203425l-1.45139 0.67361z"/>
   <path id="_339723776" class="fil1" d="M5.29963 4.81992c0.00762205,0.0216614 -0.00376378,0.0454094 -0.0254213,0.0530315 -0.0216614,0.00762205 -0.0454094,-0.00376378 -0.0530315,-0.0254213l0.0556772 -0.326555c-0.00762598,-0.0216575 0.00375984,-0.0454055 0.0254173,-0.0530276 0.0216614,-0.00762598 0.0454094,0.00375984 0.0530315,0.0254173l-0.0556732 0.326555z"/>
   <g>
    <path id="_339723824" class="fil2" d="M5.75329 4.2248c0.0635906,-0.028752 0.0918307,-0.103626 0.0630787,-0.167217 -0.0287559,-0.0635906 -0.103626,-0.0918307 -0.167217,-0.0630748l-1.17791 0.537465c-0.0635906,0.028752 -0.0918307,0.103626 -0.0630787,0.167217 0.0287559,0.0635906 0.103626,0.0918307 0.167217,0.0630748l1.17791 -0.537465z"/>
    <path id="_339723704" class="fil3" d="M5.75329 4.2248c0.0291024,-0.0131575 0.0507953,-0.0359803 0.0630157,-0.0629567l-0.0850669 -0.174945c-0.0265,-0.00650394 -0.0552953,-0.00450394 -0.0820827,0.00761024l-0.131252 0.0598858 0.110555 0.227366 0.124831 -0.0569606zm-0.402311 -0.0942402l-0.201461 0.0919252 0.110551 0.227362 0.201465 -0.0919213 -0.110555 -0.227366zm-0.368386 0.168091l-0.201457 0.0919213 0.110551 0.22737 0.201461 -0.0919252 -0.110555 -0.227366zm-0.368382 0.168087l-0.142969 0.0652362c-0.0212126,0.00959055 -0.0384803,0.024315 -0.0510236,0.0420394l0.0969331 0.19935c0.0194016,0.000964567 0.039311,-0.00254331 0.0582283,-0.0110984l0.149386 -0.0681614 -0.110555 -0.227366z"/>
   </g>
   <path id="_339723656" class="fil3" d="M4.29806 4.84072c0.0699606,0 0.126677,-0.0567165 0.126677,-0.126673 0,-0.0699606 -0.0567165,-0.126677 -0.126677,-0.126677 -1.09712,0 -2.19424,0 -3.29136,0 -0.0699567,0 -0.126677,0.0567165 -0.126677,0.126677 0,0.0699567 0.0567205,0.126673 0.126677,0.126673 1.09712,0 2.19424,0 3.29136,0z"/>
   <path id="_339723008" class="fil4" d="M1.21765 5.46392c-0.0327953,0.0614882 -0.0095315,0.137921 0.0519567,0.170713 0.0614843,0.0327953 0.137917,0.0095315 0.170713,-0.0519567l0.252075 -0.472177 3.54465 0 0.319189 0.482571c0.0385315,0.0582087 0.116961,0.0741575 0.175169,0.035626 0.0582087,-0.0385276 0.0741575,-0.116961 0.035626,-0.175165l-0.352059 -0.532276c-0.0217953,-0.0382874 -0.0629646,-0.0641024 -0.110161,-0.0641024l-3.6854 0c-0.0460827,-0.00084252 -0.0909724,0.0235709 -0.114169,0.0670157l0.111748 0.0596575 -0.111335 -0.059378 -0.288008 0.539472z"/>
   <path id="_339723464" class="fil2" d="M4.16298 4.58737l-0.221374 0 0 0.25335 0.221374 0 0 -0.25335zm-0.404799 0l-0.221374 0 0 0.25335 0.221374 0 0 -0.25335zm-0.404799 0l-0.221374 0 0 0.25335 0.221374 0 0 -0.25335zm-0.404799 0l-0.221374 0 0 0.25335 0.221374 0 0 -0.25335zm-0.404799 0l-0.221374 0 0 0.25335 0.221374 0 0 -0.25335zm-0.404799 0l-0.221374 0 0 0.25335 0.221374 0 0 -0.25335zm-0.404799 0l-0.221374 0 0 0.25335 0.221374 0 0 -0.25335zm-0.404799 0l-0.221374 0 0 0.25335 0.221374 0 0 -0.25335z"/>
   <line id="_339723344" class="fil5" x1="4.48617" y1="4.86316" x2="5.93756" y2= "4.18955" />
  </g>
  <path class="fil6" d="M4.10797 5.87993l0.144142 -0.059874 -2.00249 -4.70178 -0.144142 0.059874c0.450378,1.08426 1.57407,3.67037 2.00249,4.70178z"/>
  <polygon class="fil7" points="2.06902,1.06307 2.02761,0.79478 2.18823,1.01356 "/>
  <path class="fil8" d="M1.8948 3.18813c-0.252902,-0.823165 -0.204079,-1.51474 0.146461,-2.07472 0.0192008,-0.0306732 0.0393071,-0.0609528 0.0603189,-0.0908386 -0.0278268,0.011815 -0.0552598,0.0241732 -0.0823031,0.0370472 -0.285524,0.135945 -0.52724,0.329898 -0.716803,0.561941 -0.218996,0.268075 -0.368406,0.586732 -0.43539,0.925331l-0.000582677 0.0029685 -0.0175827 0.102512 -0.000358268 0.00242126c-0.0187008,0.129268 -0.025622,0.260276 -0.0200512,0.391311 0.00548425,0.128835 0.0229331,0.25861 0.0530197,0.387752l0.0025315 -9.05512e-005c0.0177283,-0.195531 0.140571,-0.374898 0.334476,-0.455445 0.249248,-0.103531 0.531323,-0.00865748 0.67078,0.212035l0.00548425 -0.00222441z"/>
  <path class="fil9" d="M2.81385 2.68966l-0.695402 -1.67417c-0.0056378,0.00233858 -0.0112638,0.00470079 -0.0168701,0.00708268 -0.0210118,0.0298858 -0.0411181,0.0601654 -0.0603189,0.0908386 -0.350539,0.55998 -0.399362,1.25155 -0.146461,2.07472l0.000866142 -0.000350394c-0.0490354,-0.249677 0.0824449,-0.507598 0.326504,-0.608976 0.143488,-0.0596024 0.297866,-0.0534606 0.42965,0.00459055 0.0596654,0.0262795 0.114697,0.0632047 0.161992,0.109476 1.1811e-005,-0.00106693 2.3622e-005,-0.0021378 3.93701e-005,-0.00320866z"/>
  <path class="fil10" d="M3.81744 2.38949c-0.404988,-0.760531 -0.929807,-1.21407 -1.57445,-1.36061 -0.0349016,-0.00793307 -0.0701535,-0.0149685 -0.10576,-0.0211024 -0.00626378,0.00253543 -0.0125276,0.0051063 -0.0187992,0.00771654l0.695417 1.67417c0.000988189,-0.066937 0.0143465,-0.132677 0.0387402,-0.193996 0.0525394,-0.132075 0.15628,-0.243642 0.297925,-0.302476 0.244067,-0.101382 0.519598,-0.0125118 0.661894,0.198437l0.0050315 -0.0021378z"/>
  <path class="fil11" d="M4.14184 1.76404c0.194331,-0.0807205 0.408622,-0.0408268 0.55972,0.085248l0.00335433 -0.00312992c-0.0705236,-0.112898 -0.150189,-0.216949 -0.237433,-0.311559 -0.0889134,-0.0964291 -0.186634,-0.183988 -0.291429,-0.261976l-0.00197244 -0.00145669 -0.0850394 -0.0598858 -0.00251181 -0.0016811c-0.287173,-0.191488 -0.618382,-0.310508 -0.962854,-0.344524 -0.297764,-0.0294134 -0.605323,0.00484252 -0.902748,0.110854 -0.0279961,0.00997638 -0.0558976,0.0205906 -0.0836969,0.0318504 0.0356063,0.00613386 0.0708583,0.0131693 0.10576,0.0211024 0.644642,0.146539 1.16946,0.600075 1.57445,1.36061l0.00126772 -0.00053937c-0.0579646,-0.254551 0.073878,-0.52137 0.323134,-0.624909z"/>
  <rect class="fil5" width="6.82666" height="6.82666"/>
 </g>
</svg>
