<?xml version="1.0" encoding="UTF-8"?>
<!DOCTYPE svg PUBLIC "-//W3C//DTD SVG 1.1//EN" "http://www.w3.org/Graphics/SVG/1.1/DTD/svg11.dtd">
<!-- Creator: CorelDRAW -->
<svg xmlns="http://www.w3.org/2000/svg" xml:space="preserve" width="6.82666in" height="6.82666in" style="shape-rendering:geometricPrecision; text-rendering:geometricPrecision; image-rendering:optimizeQuality; fill-rule:evenodd; clip-rule:evenodd"
viewBox="0 0 6.82666 6.82666"
 xmlns:xlink="http://www.w3.org/1999/xlink">
 <defs>
  <style type="text/css">
   <![CDATA[
    .fil7 {fill:none}
    .fil3 {fill:#565656}
    .fil5 {fill:#5C5C5C}
    .fil4 {fill:#676767}
    .fil2 {fill:#565656;fill-rule:nonzero}
    .fil6 {fill:#6A6A6A;fill-rule:nonzero}
    .fil0 {fill:#7E7E7E;fill-rule:nonzero}
    .fil1 {fill:#909090;fill-rule:nonzero}
   ]]>
  </style>
 </defs>
 <g id="Layer_x0020_1">
  <metadata id="CorelCorpID_0Corel-Layer"/>
  <path class="fil0" d="M3.52 1.06909c0.605567,0.0270945 1.15143,0.283665 1.55267,0.684906 0.40124,0.401236 0.657811,0.947102 0.684906,1.55267l-0.854693 0c-0.0261024,-0.369874 -0.18687,-0.702559 -0.433598,-0.949283 -0.246724,-0.246728 -0.579409,-0.407496 -0.949283,-0.433598l0 -0.854693zm2.23757 2.45091c-0.0270945,0.605567 -0.283665,1.15143 -0.684906,1.55267 -0.401236,0.40124 -0.947102,0.657811 -1.55267,0.684906l0 -0.854693c0.369874,-0.0261024 0.702559,-0.18687 0.949283,-0.433598 0.246728,-0.246724 0.407496,-0.579409 0.433598,-0.949283l0.854693 0zm-2.45091 2.23757c-0.605567,-0.0270945 -1.15143,-0.283665 -1.55267,-0.684906 -0.40124,-0.401236 -0.657811,-0.947102 -0.684906,-1.55267l0.854693 0c0.0261024,0.369874 0.18687,0.702559 0.433598,0.949283 0.246724,0.246728 0.579409,0.407496 0.949283,0.433598l0 0.854693zm-2.23757 -2.45091c0.0270945,-0.605567 0.283665,-1.15143 0.684906,-1.55267 0.401236,-0.40124 0.947102,-0.657811 1.55267,-0.684906l0 0.854693c-0.369874,0.0261024 -0.702559,0.18687 -0.949283,0.433598 -0.246728,0.246724 -0.407496,0.579409 -0.433598,0.949283l-0.854693 0z"/>
  <path class="fil1" d="M5.30766 3.30666l-0.404776 0c-0.0261024,-0.369874 -0.18687,-0.702559 -0.433598,-0.949283 -0.246724,-0.246728 -0.579409,-0.407496 -0.949283,-0.433598l0 -0.404776c0.962933,0.053378 1.73428,0.82472 1.78766,1.78766zm0 0.213339c-0.053378,0.962933 -0.82472,1.73428 -1.78766,1.78766l0 -0.404776c0.369874,-0.0261024 0.702559,-0.18687 0.949283,-0.433598 0.246728,-0.246724 0.407496,-0.579409 0.433598,-0.949283l0.404776 0zm-2.001 1.78766c-0.962933,-0.053378 -1.73428,-0.82472 -1.78766,-1.78766l0.404776 0c0.0261024,0.369874 0.18687,0.702559 0.433598,0.949283 0.246724,0.246728 0.579409,0.407496 0.949283,0.433598l0 0.404776zm-1.78766 -2.001c0.053378,-0.962933 0.82472,-1.73428 1.78766,-1.78766l0 0.404776c-0.369874,0.0261024 -0.702559,0.18687 -0.949283,0.433598 -0.246728,0.246724 -0.407496,0.579409 -0.433598,0.949283l-0.404776 0z"/>
  <path class="fil2" d="M3.41333 0.691197c0.387039,0 0.712752,0.209535 1.02342,0.409402 0.0820906,0.052811 0.163134,0.104949 0.240543,0.150291 0.0835079,0.0489173 0.174272,0.0966732 0.265618,0.14474 0.317004,0.166803 0.64113,0.33735 0.820614,0.643752 0.184984,0.315791 0.172677,0.700531 0.160295,1.08759 -0.00297638,0.0929921 -0.00595669,0.18615 -0.00595669,0.286354 0,0.100205 0.00298031,0.193358 0.00595669,0.28635 0.0123819,0.387063 0.024689,0.771807 -0.160295,1.0876 -0.17948,0.306394 -0.503602,0.476945 -0.820606,0.643748 -0.0913543,0.0480669 -0.182122,0.0958307 -0.265626,0.144744 -0.0774055,0.0453425 -0.158441,0.0974764 -0.240531,0.150287 -0.310673,0.199866 -0.636378,0.409406 -1.02343,0.409406 -0.387039,0 -0.712752,-0.209535 -1.02342,-0.409402 -0.0820906,-0.052811 -0.163134,-0.104949 -0.240543,-0.150291 -0.0835079,-0.0489173 -0.174272,-0.0966732 -0.265618,-0.14474 -0.317004,-0.166803 -0.64113,-0.33735 -0.820614,-0.643752 -0.184984,-0.315791 -0.172677,-0.700531 -0.160295,-1.08759 0.00297638,-0.0929921 0.00595669,-0.18615 0.00595669,-0.286354 0,-0.100205 -0.00298031,-0.193358 -0.00595669,-0.28635 -0.0123819,-0.387063 -0.024689,-0.771807 0.160295,-1.0876 0.17948,-0.306394 0.503602,-0.476945 0.820606,-0.643748 0.0913543,-0.0480669 0.182122,-0.0958307 0.265626,-0.144744 0.0774055,-0.0453425 0.158441,-0.0974764 0.240531,-0.150287 0.310673,-0.199866 0.636378,-0.409406 1.02343,-0.409406zm0.965925 0.498984c-0.297705,-0.191524 -0.609815,-0.392315 -0.965925,-0.392315 -0.356114,0 -0.668228,0.200795 -0.965937,0.392319 -0.0811417,0.0522008 -0.161232,0.103728 -0.24428,0.152374 -0.0886063,0.0519016 -0.178909,0.0994213 -0.269791,0.14724 -0.303846,0.159878 -0.614512,0.32335 -0.77852,0.603331 -0.169425,0.289228 -0.157602,0.658764 -0.145713,1.03052 0.00318504,0.0995079 0.00637402,0.199161 0.00637402,0.289681 0,0.0905197 -0.00318898,0.190177 -0.00637402,0.289685 -0.0118898,0.371756 -0.0237126,0.741287 0.145713,1.03052 0.164012,0.279988 0.474681,0.443457 0.778528,0.603335 0.090878,0.0478189 0.181169,0.0953307 0.269783,0.147236 0.0830551,0.0486496 0.16315,0.100181 0.244291,0.152378 0.297705,0.191524 0.609815,0.392315 0.965925,0.392315 0.356114,0 0.668228,-0.200795 0.965937,-0.392319 0.0811417,-0.0522008 0.161232,-0.103728 0.24428,-0.152374 0.0886063,-0.0519016 0.178909,-0.0994213 0.269791,-0.14724 0.303846,-0.159878 0.614512,-0.32335 0.77852,-0.603331 0.169425,-0.289228 0.157602,-0.658764 0.145713,-1.03052 -0.00318504,-0.0995079 -0.00637402,-0.199161 -0.00637402,-0.289681 0,-0.0905197 0.00318898,-0.190177 0.00637402,-0.289685 0.0118898,-0.371756 0.0237126,-0.741287 -0.145713,-1.03052 -0.164012,-0.279988 -0.474681,-0.443457 -0.778528,-0.603335 -0.090878,-0.0478189 -0.181169,-0.0953307 -0.269783,-0.147236 -0.0830551,-0.0486496 -0.16315,-0.100181 -0.244291,-0.152378z"/>
  <path class="fil3" d="M3.13867 4.79379l0.558335 0 0 1.275 -0.558335 0 0 -1.275zm-2.38058 -1.10557l0 -0.558335 1.275 0 0 0.558335 -1.275 0zm2.38058 -2.93891l0.558335 0 0 1.275 -0.558335 0 0 -1.275zm1.6639 2.93891l0 -0.558335 1.275 0 0 0.558335 -1.275 0z"/>
  <path class="fil4" d="M3.13867 4.79379l0.558335 0 0 0.487366c-0.0925354,0.0139331 -0.187248,0.0212047 -0.283669,0.0212047 -0.0933031,0 -0.184984,-0.00687795 -0.274665,-0.0199449l0 -0.488626zm0.274665 -3.26949c0.0964213,0 0.191134,0.00727165 0.283669,0.0212047l0 0.478811 -0.558335 0 0 -0.480071c0.0896772,-0.0130669 0.181362,-0.0199449 0.274665,-0.0199449zm1.86786 1.60559c0.0139134,0.0924646 0.0211732,0.187102 0.0211732,0.283445 0,0.093378 -0.00688976,0.185142 -0.0199764,0.27489l-0.479819 0 0 -0.558335 0.478622 0zm-3.73691 0.558335c-0.0130866,-0.089748 -0.0199764,-0.181512 -0.0199764,-0.27489 0,-0.0963425 0.00725984,-0.190984 0.0211732,-0.283445l0.487618 0 0 0.558335 -0.488815 0z"/>
  <g id="_510993304">
   <path id="_510994600" class="fil5" d="M4.22863 4.25743c0.00313386,-0.0014252 0.0655039,-0.0289409 0.0612165,-0.0329252l-0.496961 -0.460256 -0.0539213 0.0396811 0.489665 0.4535z"/>
   <path id="_510994576" class="fil5" d="M3.02292 3.09511l0.0378661 -0.0514016 -0.461185 -0.497961 -0.0298346 0.058126 0.453685 0.489866c-0.000181102,0.000456693 -0.000358268,0.000913386 -0.000531496,0.00137008z"/>
   <path id="_510993928" class="fil6" d="M3.77978 3.7702c0.00853937,-0.00865354 0.0175866,-0.0187244 0.0277402,-0.0300315 0.00552362,-0.00614567 0.011311,-0.0125945 0.0190945,-0.0211575l0.0307795 -0.0338622 -0.000102362 -9.05512e-005c0.0170866,-0.0187992 0.0453504,-0.0213858 0.0654646,-0.00684252 0.0935945,0.0585591 0.180654,0.123244 0.26063,0.194543 0.0807362,0.0719764 0.154161,0.150697 0.219701,0.236673l-0.0391654 0.0298898 0.0392913 -0.0299567c0.0165433,0.0217008 0.0123622,0.0527047 -0.00933858,0.069252 -0.00423228,0.00322835 -0.00882283,0.00566142 -0.0135906,0.00733465l-0.101764 0.046252c-0.000543307,-0.000566929 -0.0011063,-0.00111811 -0.00169291,-0.00166142l-0.497047 -0.460343z"/>
   <path id="_510993712" class="fil6" d="M2.59426 2.54859l0.0482677 -0.106205 -0.000169291 -7.87402e-005c0.0112913,-0.0248425 0.0405827,-0.0358307 0.0654252,-0.0245394 0.00496063,0.00225591 0.00937008,0.00522835 0.0131575,0.00874016 0.0825315,0.0665157 0.159441,0.139528 0.230685,0.219051 0.072122,0.0805 0.138209,0.167331 0.198236,0.260508l4.72441e-005 -1.1811e-005c0.0139646,0.0216732 0.00882677,0.0501575 -0.011126,0.0657047l-0.0311299 0.0282953c-0.00856299,0.0077874 -0.0150118,0.0135709 -0.0211575,0.0190945 -0.0114724,0.0102953 -0.0216654,0.0194567 -0.0303976,0.0281024l-0.461839 -0.498661z"/>
   <path id="_510993136" class="fil0" d="M3.84131 4.40434c-0.30089,-0.181016 -0.565185,-0.385362 -0.799406,-0.619583 -0.234976,-0.234976 -0.439882,-0.500213 -0.621331,-0.802307l0.0421732 -0.0255236 -0.0423583 0.0254449c-0.00949606,-0.015811 -0.00911417,-0.0348031 -0.000645669,-0.0497913l0.152457 -0.335457 0.454138 0.49035c-0.016374,0.0409488 0.00910236,0.0924764 0.100402,0.221512 0.0518622,0.0732992 0.112835,0.144984 0.179394,0.211543 0.0665591,0.0665591 0.138244,0.127528 0.211543,0.17939 0.129587,0.0916929 0.181,0.116996 0.222035,0.100193l0.490331 0.454118 -0.339839 0.154449 -0.0204724 -0.0447638 0.0204409 0.0449843c-0.0165157,0.00750787 -0.0350039,0.00516142 -0.0488622,-0.00455906z"/>
   <path id="_510993592" class="fil5" d="M2.95163 2.64556c-0.0712441,-0.0795236 -0.148154,-0.152535 -0.230685,-0.219051 -0.0037874,-0.00351181 -0.00819685,-0.00648425 -0.0131575,-0.00874016 -0.000622047,-0.000283465 -0.00124409,-0.000551181 -0.00187008,-0.000807087 0.0361654,0.0595591 0.083563,0.126106 0.140319,0.195299 0.102732,0.125256 0.214583,0.232913 0.307528,0.301008 -0.00106693,-0.00246457 -0.00234646,-0.00487795 -0.00385039,-0.0072126l-4.72441e-005 1.1811e-005c-0.0600276,-0.0931772 -0.126114,-0.180008 -0.198236,-0.260508z"/>
   <path id="_510993160" class="fil5" d="M4.18194 3.8723c-0.0799685,-0.0707441 -0.164811,-0.134366 -0.254484,-0.190882 -0.00416929,-0.00305118 -0.0088937,-0.00549606 -0.0140827,-0.00716142 -0.000649606,-0.000208661 -0.00129921,-0.000405512 -0.00194882,-0.000586614 0.042815,0.0549764 0.0715157,0.0904094 0.161972,0.177752 0.0904606,0.0873425 0.232858,0.205551 0.333063,0.262437 -0.00134646,-0.00233071 -0.00289764,-0.0045748 -0.00466142,-0.00672047l-4.72441e-005 1.5748e-005c-0.0689331,-0.0861457 -0.136787,-0.163996 -0.219811,-0.234854z"/>
  </g>
 </g>
 <rect class="fil7" width="6.82666" height="6.82666"/>
</svg>
