<?xml version="1.0" encoding="UTF-8"?>
<!DOCTYPE svg PUBLIC "-//W3C//DTD SVG 1.1//EN" "http://www.w3.org/Graphics/SVG/1.1/DTD/svg11.dtd">
<!-- Creator: CorelDRAW -->
<svg xmlns="http://www.w3.org/2000/svg" xml:space="preserve" width="2048px" height="2048px" style="shape-rendering:geometricPrecision; text-rendering:geometricPrecision; image-rendering:optimizeQuality; fill-rule:evenodd; clip-rule:evenodd"
viewBox="0 0 2048 2048"
 xmlns:xlink="http://www.w3.org/1999/xlink">
 <defs>
  <style type="text/css">
   <![CDATA[
    .fil5 {fill:none}
    .fil0 {fill:#6A6A6A;fill-rule:nonzero}
    .fil3 {fill:#7E7E7E;fill-rule:nonzero}
    .fil2 {fill:#919191;fill-rule:nonzero}
    .fil4 {fill:#9D9D9D;fill-rule:nonzero}
    .fil1 {fill:#C4C4C4;fill-rule:nonzero}
   ]]>
  </style>
 </defs>
 <g id="Layer_x0020_1">
  <metadata id="CorelCorpID_0Corel-Layer"/>
  <g id="_423720704">
   <polygon id="_423721640" class="fil0" points="847.349,1253.53 594.234,1506.64 571.609,1484.02 824.724,1230.9 "/>
   <polygon id="_423721616" class="fil0" points="1458.61,612.011 1238.96,831.666 1216.33,809.04 1435.99,589.386 "/>
   <polygon id="_423721496" class="fil0" points="618.124,691.687 801.188,842.286 780.94,866.91 597.876,716.311 "/>
   <polygon id="_423721544" class="fil0" points="1203.2,1246.24 1393.77,1428.44 1371.77,1451.56 1181.2,1269.37 "/>
   <path id="_423722096" class="fil1" d="M1245.66 802.339c-56.7248,-56.7248 -135.095,-91.8107 -221.662,-91.8107 -86.5678,0 -164.938,35.0859 -221.662,91.8107 -56.7248,56.7248 -91.8107,135.095 -91.8107,221.662 0,86.5678 35.0859,164.938 91.8107,221.662 56.7248,56.7248 135.095,91.8107 221.662,91.8107 86.5678,0 164.938,-35.0859 221.661,-91.8119 56.726,-56.7237 91.8119,-135.093 91.8119,-221.661 0,-86.5678 -35.0859,-164.938 -91.8107,-221.662z"/>
   <path id="_423721136" class="fil2" d="M1382.77 1408l260.002 0c16.9358,0 32.3988,6.96378 43.6855,18.189l0.0011811 -0.0011811 0.0625985 0.0625985 0.0625985 0.0625985 -0.0011811 0.0011811c11.2264,11.2878 18.189,26.7496 18.189,43.6855l0 260.002c0,16.9358 -6.96378,32.3988 -18.189,43.6855l0.0011811 0.0011811 -0.0625985 0.0625985 -0.0625985 0.0625985 -0.0011811 -0.0011811c-11.2866,11.2252 -26.7496,18.189 -43.6855,18.189l-260.002 0c-16.9358,0 -32.3977,-6.9626 -43.6855,-18.189l-0.0011811 0.0011811 -0.0625985 -0.0625985 -0.0625985 -0.0625985 0.0011811 -0.0011811c-11.2252,-11.2866 -18.189,-26.7496 -18.189,-43.6855l0 -260.002c0,-16.9358 6.9626,-32.3977 18.189,-43.6855l-0.0011811 -0.0011811 0.0625985 -0.0625985 0.0625985 -0.0625985 0.0011811 0.0011811c11.2878,-11.2264 26.7496,-18.189 43.6855,-18.189z"/>
   <path id="_423721040" class="fil2" d="M1470 287.999l260.002 0c16.9358,0 32.3988,6.96378 43.6855,18.189l0.0011811 -0.0011811 0.0625985 0.0625985 0.0625985 0.0625985 -0.0011811 0.0011811c11.2264,11.2878 18.189,26.7496 18.189,43.6855l0 260.002c0,16.9358 -6.96378,32.3988 -18.189,43.6855l0.0011811 0.0011811 -0.0625985 0.0625985 -0.0625985 0.0625985 -0.0011811 -0.0011811c-11.2866,11.2252 -26.7496,18.189 -43.6855,18.189l-260.002 0c-16.9358,0 -32.3977,-6.9626 -43.6855,-18.189l-0.0011811 0.0011811 -0.0625985 -0.0625985 -0.0625985 -0.0625985 0.0011811 -0.0011811c-11.2252,-11.2866 -18.189,-26.7496 -18.189,-43.6855l0 -260.002c0,-16.9358 6.9626,-32.3977 18.189,-43.6855l-0.0011811 -0.0011811 0.0625985 -0.0625985 0.0625985 -0.0625985 0.0011811 0.0011811c11.2878,-11.2264 26.7496,-18.189 43.6855,-18.189z"/>
   <path id="_423720944" class="fil3" d="M362.713 1410.19l260.002 0c16.9358,0 32.3988,6.96378 43.6855,18.189l0.0011811 -0.0011811 0.0625985 0.0625985 0.0625985 0.0625985 -0.0011811 0.0011811c11.2264,11.2878 18.189,26.7496 18.189,43.6855l0 260.002c0,16.9358 -6.96378,32.3988 -18.189,43.6855l0.0011811 0.0011811 -0.0625985 0.0625985 -0.0625985 0.0625985 -0.0011811 -0.0011811c-11.2866,11.2252 -26.7496,18.189 -43.6855,18.189l-260.002 0c-16.9358,0 -32.3977,-6.9626 -43.6855,-18.189l-0.0011811 0.0011811 -0.0625985 -0.0625985 -0.0625985 -0.0625985 0.0011811 -0.0011811c-11.2252,-11.2866 -18.189,-26.7496 -18.189,-43.6855l0 -260.002c0,-16.9358 6.9626,-32.3977 18.189,-43.6855l-0.0011811 -0.0011811 0.0625985 -0.0625985 0.0625985 -0.0625985 0.0011811 0.0011811c11.2878,-11.2264 26.7496,-18.189 43.6855,-18.189z"/>
   <path id="_423720728" class="fil3" d="M350 351.997l260.002 0c16.9358,0 32.3988,6.96378 43.6855,18.189l0.0011811 -0.0011811 0.0625985 0.0625985 0.0625985 0.0625985 -0.0011811 0.0011811c11.2264,11.2878 18.189,26.7496 18.189,43.6855l0 260.002c0,16.9358 -6.96378,32.3988 -18.189,43.6855l0.0011811 0.0011811 -0.0625985 0.0625985 -0.0625985 0.0625985 -0.0011811 -0.0011811c-11.2866,11.2252 -26.7496,18.189 -43.6855,18.189l-260.002 0c-16.9358,0 -32.3977,-6.9626 -43.6855,-18.189l-0.0011811 0.0011811 -0.0625985 -0.0625985 -0.0625985 -0.0625985 0.0011811 -0.0011811c-11.2252,-11.2866 -18.189,-26.7496 -18.189,-43.6855l0 -260.002c0,-16.9358 6.9626,-32.3977 18.189,-43.6855l-0.0011811 -0.0011811 0.0625985 -0.0625985 0.0625985 -0.0625985 0.0011811 0.0011811c11.2878,-11.2264 26.7496,-18.189 43.6855,-18.189z"/>
   <path id="_423720896" class="fil4" d="M1051.74 1146.77c12.665,-2.32677 22.9158,-8.18623 30.8433,-17.4886 7.9252,-9.39213 11.889,-20.3339 11.889,-32.9988 0,-11.2866 -3.35906,-20.9351 -9.99331,-29.1213 -6.63426,-8.18386 -17.5748,-14.4721 -32.739,-18.7807l0 98.3894zm-36.5303 -268.546c-9.99331,3.3626 -17.8335,9.13347 -23.7792,17.1473 -5.85827,8.09764 -8.78741,17.0563 -8.78741,26.7933 0,8.87363 2.67284,17.2299 8.01379,24.8126 5.42599,7.6689 13.6122,13.8697 24.5528,18.6083l0 -87.3615zm0 265.015l0 -105.713c-32.9977,-9.47717 -57.2067,-23.6929 -72.6296,-42.8185 -15.3343,-19.1268 -23.0882,-42.3012 -23.0882,-69.5268 0,-27.5693 8.70237,-50.7449 26.1059,-69.528 17.4886,-18.7807 40.6642,-29.55 69.6119,-32.4803l0 -24.9851 36.5303 0 0 24.9851c26.7933,3.27284 48.0733,12.3189 63.926,27.3981 15.7689,15.0756 25.8473,35.237 30.2398,60.4796l-63.8386 8.35749c-3.87756,-19.9028 -13.9583,-33.3414 -30.3272,-40.4067l0 98.6481c40.4067,10.9406 67.976,25.1587 82.5367,42.5611 14.6469,17.4024 21.9697,39.7158 21.9697,67.0276 0,30.4134 -9.21851,56.0871 -27.5693,76.9359 -18.4382,20.9362 -44.1118,33.6862 -76.9371,38.4248l0 47.2146 -36.5303 0 0 -46.0075c-29.1201,-3.5315 -52.813,-14.387 -70.9902,-32.5666 -18.1784,-18.0921 -29.7236,-43.7658 -34.8071,-76.9371l65.9091 -7.06418c2.67047,13.441 7.75276,25.0725 15.163,34.8083 7.32284,9.73347 15.5941,16.7977 24.7252,21.1937z"/>
  </g>
 </g>
 <rect class="fil5" width="2048" height="2048"/>
</svg>
