<?xml version="1.0" encoding="UTF-8"?>
<!DOCTYPE svg PUBLIC "-//W3C//DTD SVG 1.1//EN" "http://www.w3.org/Graphics/SVG/1.1/DTD/svg11.dtd">
<!-- Creator: CorelDRAW -->
<svg xmlns="http://www.w3.org/2000/svg" xml:space="preserve" width="6.82666in" height="6.82666in" style="shape-rendering:geometricPrecision; text-rendering:geometricPrecision; image-rendering:optimizeQuality; fill-rule:evenodd; clip-rule:evenodd"
viewBox="0 0 6.82666 6.82666"
 xmlns:xlink="http://www.w3.org/1999/xlink">
 <defs>
  <style type="text/css">
   <![CDATA[
    .fil4 {fill:none}
    .fil1 {fill:#6B6B6B}
    .fil0 {fill:#858585}
    .fil3 {fill:white}
    .fil2 {fill:#6B6B6B;fill-rule:nonzero}
   ]]>
  </style>
 </defs>
 <g id="Layer_x0020_1">
  <metadata id="CorelCorpID_0Corel-Layer"/>
  <g id="_561521096">
   <polygon id="_561529112" class="fil0" points="5.89333,1.84 0.933331,1.84 0.853331,1.84 0.853331,1.92 0.853331,4.90667 0.853331,4.98667 0.933331,4.98667 5.89333,4.98667 5.97333,4.98667 5.97333,4.90667 5.97333,1.92 5.97333,1.84 "/>
   <polygon id="_561522680" class="fil1" points="1.02,2.00666 1.02,4.82 5.80667,4.82 5.80667,2.00666 "/>
   <path id="_561520976" class="fil0" d="M1.20208 2.80879l0 1.20908 0 0.0708071c0.0529213,-0.0286339 0.113516,-0.0448976 0.177909,-0.0448976 0.20678,0 0.374406,0.167626 0.374406,0.374406 0,0.0660984 -0.0171496,0.128177 -0.0472087,0.182079l1.70615 0 1.69494 0c-0.0300591,-0.0539016 -0.0472087,-0.11598 -0.0472087,-0.182079 0,-0.20678 0.167626,-0.374406 0.374406,-0.374406 0.0689921,0 0.133614,0.0186811 0.189118,0.0512323l0 -0.0771417 0 -1.20908 0 -0.0739173c-0.0542323,0.0305591 -0.116831,0.0480118 -0.183516,0.0480118 -0.20678,0 -0.374406,-0.167626 -0.374406,-0.374406 0,-0.0660984 0.0171535,-0.128181 0.0472126,-0.182083l-1.70054 0 -1.70055 0c0.0300591,0.0539016 0.0472126,0.115984 0.0472126,0.182083 0,0.20678 -0.167626,0.374406 -0.374406,0.374406 -0.066685,0 -0.12928,-0.0174528 -0.183512,-0.0480079l0 0.0739134z"/>
   <path id="_561521360" class="fil2" d="M1.92001 3.17333c0.0662598,0 0.126264,0.0268701 0.169701,0.0702992 0.0434291,0.0434291 0.0702992,0.103433 0.0702992,0.169701 0,0.0662677 -0.0268701,0.126272 -0.0702992,0.169701 -0.043437,0.0434291 -0.103441,0.0702992 -0.169701,0.0702992 -0.0662677,0 -0.126272,-0.0268701 -0.169701,-0.0702992 -0.0434291,-0.0434291 -0.0702992,-0.103433 -0.0702992,-0.169701 0,-0.0662677 0.0268701,-0.126272 0.0702992,-0.169701 0.0434291,-0.0434291 0.103433,-0.0702992 0.169701,-0.0702992z"/>
   <path id="_561521072" class="fil2" d="M4.90665 3.17333c0.0662677,0 0.126272,0.0268701 0.169701,0.0702992 0.0434291,0.0434291 0.0702992,0.103433 0.0702992,0.169701 0,0.0662677 -0.0268701,0.126272 -0.0702992,0.169701 -0.0434291,0.0434291 -0.103433,0.0702992 -0.169701,0.0702992 -0.0662598,0 -0.126264,-0.0268701 -0.169701,-0.0702992 -0.0434291,-0.0434291 -0.0702992,-0.103433 -0.0702992,-0.169701 0,-0.0662677 0.0268701,-0.126272 0.0702992,-0.169701 0.043437,-0.0434291 0.103441,-0.0702992 0.169701,-0.0702992z"/>
   <path id="_561520928" class="fil1" d="M4.31439 3.41333c0,-0.248815 -0.100862,-0.474087 -0.263917,-0.637146 -0.163059,-0.163055 -0.388331,-0.263917 -0.637146,-0.263917 -0.248815,0 -0.474087,0.100862 -0.637146,0.263917 -0.163055,0.163059 -0.263917,0.388331 -0.263917,0.637146 0,0.248815 0.100862,0.474087 0.263917,0.637146 0.163059,0.163055 0.388331,0.263917 0.637146,0.263917 0.248815,0 0.474087,-0.100862 0.637146,-0.263917 0.163055,-0.163059 0.263917,-0.388331 0.263917,-0.637146z"/>
   <path id="_561521576" class="fil1" d="M3.38954 3.25514l0 -0.236583c-0.027063,0.00910236 -0.0482992,0.0247283 -0.0643937,0.0464331 -0.0158701,0.0219291 -0.0237992,0.0461929 -0.0237992,0.0725591 0,0.0240354 0.00722835,0.0466614 0.0216969,0.0671969 0.0146969,0.0207638 0.0368622,0.037563 0.0664961,0.0503937z"/>
   <path id="_561521264" class="fil1" d="M3.57712 3.53022c-0.0179606,-0.0221654 -0.0475945,-0.0392008 -0.0886614,-0.0508661l0 0.266453c0.0342992,-0.00629921 0.0620669,-0.0221654 0.0835315,-0.0473622 0.0214606,-0.0254331 0.0321969,-0.0550669 0.0321969,-0.0893622 0,-0.030563 -0.00910236,-0.0566969 -0.0270669,-0.0788622z"/>
   <path id="_561520856" class="fil3" d="M3.20101 2.95743c-0.047126,0.0508622 -0.0706929,0.113626 -0.0706929,0.188287 0,0.0737283 0.0209961,0.136492 0.0625276,0.188291 0.0417638,0.0517953 0.107327,0.0902953 0.196689,0.115957l0 0.286287c-0.0247323,-0.0119016 -0.0471299,-0.0310354 -0.0669646,-0.0574016 -0.020063,-0.0263622 -0.0338307,-0.0578583 -0.041063,-0.0942598l-0.178488 0.0191339c0.0137677,0.0898268 0.0450276,0.159358 0.0942598,0.208354 0.0492323,0.0492283 0.113394,0.078626 0.192256,0.0881929l0 0.124591 0.0989252 0 0 -0.127854c0.0888976,-0.0128346 0.158425,-0.0473661 0.208354,-0.104063 0.0496969,-0.0564646 0.0746614,-0.125992 0.0746614,-0.208354 0,-0.0739606 -0.0198307,-0.134394 -0.0594961,-0.181524 -0.0394291,-0.0471299 -0.114091,-0.085626 -0.22352,-0.11526l0 -0.267146c0.0443307,0.019126 0.0716299,0.0555276 0.0821299,0.109425l0.17289 -0.0226299c-0.0118976,-0.0683661 -0.0391969,-0.122965 -0.0818976,-0.163795 -0.0429252,-0.0408307 -0.100555,-0.0653268 -0.173122,-0.0741929l0 -0.0676614 -0.0989252 0 0 0.0676614c-0.0783937,0.00793307 -0.141157,0.0370984 -0.188524,0.0879606zm0.188524 0.0611299l0 0.236583c-0.0296339,-0.0128307 -0.0517992,-0.0296299 -0.0664961,-0.0503937 -0.0144685,-0.0205354 -0.0216969,-0.0431614 -0.0216969,-0.0671969 0,-0.0263661 0.00792913,-0.0506299 0.0237992,-0.0725591 0.0160945,-0.0217047 0.0373307,-0.0373307 0.0643937,-0.0464331zm0.0989252 0.460803c0.0410669,0.0116654 0.0707008,0.0287008 0.0886614,0.0508661 0.0179646,0.0221654 0.0270669,0.0482992 0.0270669,0.0788622 0,0.0342953 -0.0107362,0.0639291 -0.0321969,0.0893622 -0.0214646,0.0251969 -0.0492323,0.041063 -0.0835315,0.0473622l0 -0.266453z"/>
  </g>
 </g>
 <rect class="fil4" width="6.82666" height="6.82666"/>
</svg>
