<?xml version="1.0" encoding="UTF-8"?>
<!DOCTYPE svg PUBLIC "-//W3C//DTD SVG 1.1//EN" "http://www.w3.org/Graphics/SVG/1.1/DTD/svg11.dtd">
<!-- Creator: CorelDRAW -->
<svg xmlns="http://www.w3.org/2000/svg" xml:space="preserve" width="6.82666in" height="6.82666in" style="shape-rendering:geometricPrecision; text-rendering:geometricPrecision; image-rendering:optimizeQuality; fill-rule:evenodd; clip-rule:evenodd"
viewBox="0 0 6.82666 6.82666"
 xmlns:xlink="http://www.w3.org/1999/xlink">
 <defs>
  <style type="text/css">
   <![CDATA[
    .fil7 {fill:none}
    .fil5 {fill:#3C3C3C}
    .fil0 {fill:#5E5E5E}
    .fil6 {fill:#6A6A6A}
    .fil4 {fill:#757575}
    .fil1 {fill:#D8D8D8}
    .fil3 {fill:#757575;fill-rule:nonzero}
    .fil2 {fill:#7E7E7E;fill-rule:nonzero}
   ]]>
  </style>
 </defs>
 <g id="Layer_x0020_1">
  <metadata id="CorelCorpID_0Corel-Layer"/>
  <polygon class="fil0" points="4.74667,0.970673 5.43999,0.970673 5.54666,0.970673 5.54666,1.07734 5.54666,5.89866 5.54666,6.00533 5.43999,6.00533 1.38667,6.00533 1.28,6.00533 1.28,5.89866 1.28,1.07734 1.28,0.970673 1.38667,0.970673 2.08,0.970673 "/>
  <path class="fil1" d="M5.04 1.47734l0 4.06177 -3.25333 0 0 -4.06177c1.03104,0 2.2223,0 3.25333,0z"/>
  <path class="fil2" d="M2.18666 1.28804l0 -0.360039c0,-0.0589094 0.0477598,-0.106669 0.106669,-0.106669l2.24 0c0.0589094,0 0.106669,0.0477598 0.106669,0.106669l0 0.360039c0,0.0752756 -0.0307244,0.143634 -0.0802087,0.193126 -0.0494882,0.0494882 -0.117854,0.0802087 -0.193126,0.0802087l-1.90667 0c-0.0752677,0 -0.14363,-0.0307244 -0.193122,-0.0802165 -0.0494882,-0.0494882 -0.0802126,-0.11785 -0.0802126,-0.193118z"/>
  <path class="fil3" d="M4.63998 1.29113c-0.000830709,0.0740551 -0.0313819,0.14122 -0.080189,0.190031 -0.0494882,0.0494882 -0.117854,0.0802087 -0.193126,0.0802087l-1.90667 0c-0.0752677,0 -0.14363,-0.0307244 -0.193122,-0.0802165 -0.048811,-0.048811 -0.0793622,-0.115976 -0.0801929,-0.190024l2.4533 0z"/>
  <rect class="fil4" x="2.44354" y="1.00572" width="1.93958" height="0.156248" rx="0.078126" ry="0.078126"/>
  <path class="fil5" d="M2.15822 2.13829l0 0.313339 0.313339 0 0 -0.313339 -0.313339 0zm-0.00333071 -0.0833307l0.32 0c0.0441811,0 0.08,0.0358189 0.08,0.08l0 0.32c0,0.0441811 -0.0358189,0.08 -0.08,0.08l-0.32 0c-0.0441811,0 -0.08,-0.0358189 -0.08,-0.08l0 -0.32c0,-0.0441811 0.0358189,-0.08 0.08,-0.08z"/>
  <path class="fil5" d="M2.15822 2.99163l0 0.313339 0.313339 0 0 -0.313339 -0.313339 0zm-0.00333071 -0.0833307l0.32 0c0.0441811,0 0.08,0.0358189 0.08,0.08l0 0.32c0,0.0441811 -0.0358189,0.08 -0.08,0.08l-0.32 0c-0.0441811,0 -0.08,-0.0358189 -0.08,-0.08l0 -0.32c0,-0.0441811 0.0358189,-0.08 0.08,-0.08z"/>
  <path class="fil5" d="M2.15822 3.84496l0 0.313339 0.313339 0 0 -0.313339 -0.313339 0zm-0.00333071 -0.0833307l0.32 0c0.0441811,0 0.08,0.0358189 0.08,0.08l0 0.32c0,0.0441811 -0.0358189,0.08 -0.08,0.08l-0.32 0c-0.0441811,0 -0.08,-0.0358189 -0.08,-0.08l0 -0.32c0,-0.0441811 0.0358189,-0.08 0.08,-0.08z"/>
  <path class="fil5" d="M2.15822 4.6983l0 0.313339 0.313339 0 0 -0.313339 -0.313339 0zm-0.00333071 -0.0833307l0.32 0c0.0441811,0 0.08,0.0358189 0.08,0.08l0 0.32c0,0.0441811 -0.0358189,0.08 -0.08,0.08l-0.32 0c-0.0441811,0 -0.08,-0.0358189 -0.08,-0.08l0 -0.32c0,-0.0441811 0.0358189,-0.08 0.08,-0.08z"/>
  <g id="_524663552">
   <rect id="_524663576" class="fil6" x="2.78268" y="2.18829" width="0.733335" height="0.106665"/>
   <rect id="_524663312" class="fil6" x="2.78268" y="2.40161" width="1.53333" height="0.106665"/>
  </g>
  <g id="_524662520">
   <rect id="_524663216" class="fil6" x="2.78268" y="3.0683" width="1.61666" height="0.106665"/>
   <rect id="_524663144" class="fil6" x="2.78268" y="3.28162" width="1.9125" height="0.106665"/>
  </g>
  <g id="_524662232">
   <rect id="_524662496" class="fil6" x="2.78268" y="4.13495" width="1.61666" height="0.106665"/>
   <rect id="_524662256" class="fil6" x="2.78268" y="3.92163" width="1.9125" height="0.106665"/>
  </g>
  <g id="_524662736">
   <rect id="_524662592" class="fil6" x="2.78268" y="4.98831" width="1.61666" height="0.106665"/>
   <rect id="_524662808" class="fil6" x="2.78268" y="4.77499" width="1.9125" height="0.106665"/>
  </g>
 </g>
 <rect class="fil7" width="6.82666" height="6.82666"/>
</svg>
