<?xml version="1.0" encoding="UTF-8"?>
<!DOCTYPE svg PUBLIC "-//W3C//DTD SVG 1.1//EN" "http://www.w3.org/Graphics/SVG/1.1/DTD/svg11.dtd">
<!-- Creator: CorelDRAW -->
<svg xmlns="http://www.w3.org/2000/svg" xml:space="preserve" width="6.82666in" height="6.82666in" style="shape-rendering:geometricPrecision; text-rendering:geometricPrecision; image-rendering:optimizeQuality; fill-rule:evenodd; clip-rule:evenodd"
viewBox="0 0 6.82666 6.82666"
 xmlns:xlink="http://www.w3.org/1999/xlink">
 <defs>
  <style type="text/css">
   <![CDATA[
    .fil5 {fill:none}
    .fil4 {fill:#656666}
    .fil1 {fill:#888888}
    .fil0 {fill:#A4A4A4}
    .fil2 {fill:#BCBCBC}
    .fil3 {fill:#656666;fill-rule:nonzero}
   ]]>
  </style>
 </defs>
 <g id="Layer_x0020_1">
  <metadata id="CorelCorpID_0Corel-Layer"/>
  <g id="_573119656">
   <path id="_573120424" class="fil0" d="M1.65977 1.26309l0 4.71023c2.77184,0 3.03713,0 3.09989,0l1.1811e-005 0c0.0932638,0 0.178154,-0.0399764 0.239787,-0.104374 0.0619961,-0.0647795 0.100476,-0.154346 0.100476,-0.253055l0 -0.323366 0 -3.73769c0,-0.0183543 0,-0.0367047 0,-0.0550591l0 -0.0074252 0 -0.242051 0 -0.0395118 0 -3.54331e-005 0 -1.1811e-005c1.1811e-005,-0.098685 0.0384921,-0.18824 0.100476,-0.253008 0.0583819,-0.0609961 0.13763,-0.100091 0.225098,-0.104043 0.0105591,-0.000472441 0.021252,-0.000358268 0.0318465,-0.000330709l4.72441e-005 -3.54331e-005 -3.40729 0c-0.107035,0 -0.204453,0.0458701 -0.275154,0.119748 -0.0710748,0.0742598 -0.115193,0.176917 -0.115193,0.290012z"/>
   <path id="_573120328" class="fil1" d="M5.09994 1.49236l0.831425 7.87402e-006 0 -0.229236c0,-0.113094 -0.044122,-0.215752 -0.115193,-0.290012 -0.0707008,-0.073878 -0.168118,-0.119748 -0.275157,-0.119748l-0.0802677 0c-0.0116969,0 -0.0235472,-0.00019685 -0.0352323,0.000326772 -0.0874685,0.00395276 -0.166717,0.0430472 -0.225098,0.104043 -0.0619961,0.0647795 -0.100476,0.15435 -0.100476,0.253055l0 0.0395472 0 0.242016z"/>
   <path id="_573120088" class="fil2" d="M0.896587 5.32969l-0.0012874 0.233874c0,0.113098 0.0441181,0.215752 0.115193,0.290012 0.0707008,0.0738819 0.168118,0.119748 0.275154,0.119748l3.23227 0c-0.0198425,-0.0145866 -0.0385354,-0.0309882 -0.0558307,-0.049063 -0.0794213,-0.0829803 -0.122681,-0.193673 -0.122681,-0.308366l0 -0.285335 -2.75963 0 0 -0.000870079 -0.683189 0z"/>
   <path id="_573120136" class="fil3" d="M2.17029 3.85643l0.426681 0 0.0533346 0 0 0.0533346 0 0.426681 0 0.0533346 -0.0533346 0 -0.426681 0 -0.0533346 0 0 -0.0533346 0 -0.426681 0 -0.0533346 0.0533346 0zm0.373346 0.106669l-0.320012 0 0 0.320012 0.320012 0 0 -0.320012z"/>
   <polygon id="_573120256" class="fil4" points="2.1738,1.79956 2.36236,1.98812 2.66089,1.6896 2.7363,1.76502 2.40007,2.10124 2.36236,2.13895 2.32465,2.10124 2.09838,1.87497 "/>
   <polygon id="_573119392" class="fil4" points="2.86204,4.28311 4.62362,4.28311 4.62362,4.38978 2.86204,4.38978 "/>
   <path id="_573119944" class="fil3" d="M2.17029 2.71997l0.426681 0 0.0533346 0 0 0.0533346 0 0.426681 0 0.0533346 -0.0533346 0 -0.426681 0 -0.0533346 0 0 -0.0533346 0 -0.426681 0 -0.0533346 0.0533346 0zm0.373346 0.106669l-0.320012 0 0 0.320012 0.320012 0 0 -0.320012z"/>
   <polygon id="_573119920" class="fil4" points="2.86204,3.14665 4.62362,3.14665 4.62362,3.25332 2.86204,3.25332 "/>
   <polygon id="_573119320" class="fil4" points="2.86204,2.01019 4.62362,2.01019 4.62362,2.11686 2.86204,2.11686 "/>
  </g>
 </g>
 <rect class="fil5" width="6.82666" height="6.82666"/>
</svg>
