<?xml version="1.0" encoding="UTF-8"?>
<!DOCTYPE svg PUBLIC "-//W3C//DTD SVG 1.1//EN" "http://www.w3.org/Graphics/SVG/1.1/DTD/svg11.dtd">
<!-- Creator: CorelDRAW -->
<svg xmlns="http://www.w3.org/2000/svg" xml:space="preserve" width="2048px" height="2048px" style="shape-rendering:geometricPrecision; text-rendering:geometricPrecision; image-rendering:optimizeQuality; fill-rule:evenodd; clip-rule:evenodd"
viewBox="0 0 2048 2048"
 xmlns:xlink="http://www.w3.org/1999/xlink">
 <defs>
  <style type="text/css">
   <![CDATA[
    .fil0 {fill:none}
    .fil2 {fill:#5C5C5C}
    .fil1 {fill:#6B6B6B}
    .fil3 {fill:#A5A5A6}
   ]]>
  </style>
 </defs>
 <g id="Layer_x0020_1">
  <metadata id="CorelCorpID_0Corel-Layer"/>
  <g id="_526168584">
   <rect id="_526169352" class="fil0" width="2048" height="2048"/>
   <rect id="_526170480" class="fil0" x="255.999" y="255.999" width="1536" height="1536"/>
  </g>
  <g id="_526170912">
   <path id="_526143264" class="fil1" d="M1488.49 746.813l-1152.97 0c-43.7339,0 -79.5142,35.5784 -79.5142,79.0583l0 513.884c0,43.48 35.7839,79.0583 79.5142,79.0583l217.22 0 129.657 192 61.3926 -192 744.703 0c43.7303,0 79.5142,-35.5748 79.5142,-79.0583l0 -513.884c0,-43.4835 -35.7803,-79.0583 -79.5142,-79.0583z"/>
   <g>
    <path id="_526171200" class="fil2" d="M1289.97 1006.29l-0.00236221 0c-35.2004,0 -63.9993,28.7988 -63.9993,63.9993l0 0.00236221c0,35.2004 28.7988,63.9993 63.9993,63.9993l0.00236221 0c35.2004,0 63.9993,-28.7988 63.9993,-63.9993l0 -0.00236221c0,-35.2004 -28.7988,-63.9993 -63.9993,-63.9993z"/>
    <path id="_526169256" class="fil2" d="M912.002 1006.29l-0.00236221 0c-35.2004,0 -63.9993,28.7988 -63.9993,63.9993l0 0.00236221c0,35.2004 28.7988,63.9993 63.9993,63.9993l0.00236221 0c35.2004,0 63.9993,-28.7988 63.9993,-63.9993l0 -0.00236221c0,-35.2004 -28.7988,-63.9993 -63.9993,-63.9993z"/>
    <path id="_526163112" class="fil2" d="M534.037 1006.29l-0.00236221 0c-35.2004,0 -63.9993,28.7988 -63.9993,63.9993l0 0.00236221c0,35.2004 28.7988,63.9993 63.9993,63.9993l0.00236221 0c35.2004,0 63.9993,-28.7988 63.9993,-63.9993l0 -0.00236221c0,-35.2004 -28.7988,-63.9993 -63.9993,-63.9993z"/>
   </g>
   <g>
    <path id="_526164144" class="fil3" d="M559.515 437.187l1152.97 0c43.7339,0 79.5142,35.5784 79.5142,79.0583l0 513.884c0,43.48 -35.7839,79.0583 -79.5142,79.0583l-217.22 0 -129.657 192 -61.3926 -192 -744.703 0c-43.7303,0 -79.5142,-35.5748 -79.5142,-79.0583l0 -513.884c0,-43.4835 35.7803,-79.0583 79.5142,-79.0583z"/>
    <path id="_526150320" class="fil1" d="M758.036 696.667l0.00236221 0c35.2004,0 63.9993,28.7988 63.9993,63.9993l0 0.00236221c0,35.2004 -28.7988,63.9993 -63.9993,63.9993l-0.00236221 0c-35.2004,0 -63.9993,-28.7988 -63.9993,-63.9993l0 -0.00236221c0,-35.2004 28.7988,-63.9993 63.9993,-63.9993z"/>
    <path id="_526169808" class="fil1" d="M1136 696.667l0.00236221 0c35.2004,0 63.9993,28.7988 63.9993,63.9993l0 0.00236221c0,35.2004 -28.7988,63.9993 -63.9993,63.9993l-0.00236221 0c-35.2004,0 -63.9993,-28.7988 -63.9993,-63.9993l0 -0.00236221c0,-35.2004 28.7988,-63.9993 63.9993,-63.9993z"/>
    <path id="_526148664" class="fil1" d="M1513.96 696.667l0.00236221 0c35.2004,0 63.9993,28.7988 63.9993,63.9993l0 0.00236221c0,35.2004 -28.7988,63.9993 -63.9993,63.9993l-0.00236221 0c-35.2004,0 -63.9993,-28.7988 -63.9993,-63.9993l0 -0.00236221c0,-35.2004 28.7988,-63.9993 63.9993,-63.9993z"/>
   </g>
  </g>
 </g>
</svg>
