<?xml version="1.0" encoding="UTF-8"?>
<!DOCTYPE svg PUBLIC "-//W3C//DTD SVG 1.1//EN" "http://www.w3.org/Graphics/SVG/1.1/DTD/svg11.dtd">
<!-- Creator: CorelDRAW -->
<svg xmlns="http://www.w3.org/2000/svg" xml:space="preserve" width="2048px" height="2048px" style="shape-rendering:geometricPrecision; text-rendering:geometricPrecision; image-rendering:optimizeQuality; fill-rule:evenodd; clip-rule:evenodd"
viewBox="0 0 2048 2048"
 xmlns:xlink="http://www.w3.org/1999/xlink">
 <defs>
  <style type="text/css">
   <![CDATA[
    .fil0 {fill:none}
    .fil3 {fill:#6A6A6A;fill-rule:nonzero}
    .fil2 {fill:#727272;fill-rule:nonzero}
    .fil1 {fill:#838383;fill-rule:nonzero}
    .fil5 {fill:#8A8A8A;fill-rule:nonzero}
    .fil4 {fill:#B4B4B5;fill-rule:nonzero}
    .fil6 {fill:#C6C6C7;fill-rule:nonzero}
   ]]>
  </style>
 </defs>
 <g id="Layer_x0020_1">
  <metadata id="CorelCorpID_0Corel-Layer"/>
  <g id="_345160104">
   <rect id="_345161928" class="fil0" width="2048" height="2048"/>
   <rect id="_345161808" class="fil0" x="255.999" y="255.999" width="1536" height="1536"/>
   <polygon id="_345161712" class="fil1" points="1792,1824 255.999,1824 223.999,1824 223.999,1792 223.999,255.997 288,255.997 288,1760 1792,1760 "/>
   <g>
    <path id="_345161568" class="fil2" d="M592 1248c30.9236,0 58.9241,12.5374 79.1942,32.8075 20.2689,20.2689 32.8063,48.2693 32.8063,79.193 0,30.9236 -12.5374,58.9241 -32.8063,79.1942 -20.2701,20.2689 -48.2705,32.8063 -79.1942,32.8063 -30.9236,0 -58.9241,-12.5374 -79.193,-32.8063 -20.2701,-20.2701 -32.8075,-48.2705 -32.8075,-79.1942 0,-30.9248 12.5374,-58.9252 32.8075,-79.193 20.2677,-20.2701 48.2681,-32.8075 79.193,-32.8075z"/>
    <path id="_345161352" class="fil3" d="M592 1248l0.885827 0.00590552c30.5717,0.237402 58.2319,12.7252 78.3083,32.8016 20.2689,20.2689 32.8063,48.2693 32.8063,79.193 0,30.9236 -12.5374,58.9241 -32.8063,79.1942 -20.2051,20.204 -48.0922,32.7236 -78.8989,32.804l-0.295276 0.00236221 0 -224.001z"/>
   </g>
   <path id="_345161232" class="fil4" d="M1252.58 1216.92l208.584 -361.279 0.687402 0.69567c15.1748,15.1736 33.2977,26.5902 53.0398,33.6922l-205.808 356.47c-16.4929,-14.0551 -35.7945,-24.1122 -56.5028,-29.5784z"/>
   <path id="_345161088" class="fil5" d="M684.414 1249.57l224.993 -129.899 15.8752 -9.16654 15.8752 9.16654 187.381 108.184c-15.1299,15.6272 -26.3634,34.2437 -33.1205,54.4595l-170.136 -98.2288 -202.024 116.639c-7.0819,-15.6744 -16.9961,-30.0992 -29.4378,-42.5422 -3.02126,-3.02126 -6.16063,-5.89371 -9.40631,-8.61261z"/>
   <path id="_345160944" class="fil4" d="M924.747 1110.81l0.53504 -0.309449 0.379134 0.219685 15.4961 8.94686 219.709 126.848c-15.1299,15.6272 -26.3634,34.2437 -33.1205,54.4595l-202.464 -116.893 -0.0472441 0.0271654 -0.487796 0.282284 0 -73.5816z"/>
   <path id="_345160800" class="fil6" d="M656.49 1265.69l252.917 -146.02 15.3402 -8.85709 0 73.5816 -229.413 132.45c-7.0819,-15.6744 -16.9961,-30.1004 -29.4378,-42.5422 -3.02008,-3.02126 -6.16063,-5.89371 -9.40631,-8.61261z"/>
   <g>
    <path id="_345160656" class="fil2" d="M1538.95 673.133c30.9236,0 58.9241,12.5374 79.1942,32.8075 20.2689,20.2689 32.8063,48.2693 32.8063,79.193 0,30.9236 -12.5374,58.9241 -32.8063,79.1942 -20.2701,20.2689 -48.2705,32.8063 -79.1942,32.8063 -30.9236,0 -58.9241,-12.5374 -79.193,-32.8063 -20.2701,-20.2701 -32.8075,-48.2705 -32.8075,-79.1942 0,-30.9248 12.5374,-58.9252 32.8075,-79.193 20.2677,-20.2701 48.2681,-32.8075 79.193,-32.8075z"/>
    <path id="_345160440" class="fil3" d="M1538.95 673.133l0.885827 0.00590552c30.5717,0.237402 58.2319,12.7252 78.3083,32.8016 20.2689,20.2689 32.8063,48.2693 32.8063,79.193 0,30.9236 -12.5374,58.9241 -32.8063,79.1942 -20.2051,20.204 -48.0922,32.7236 -78.8989,32.804l-0.295276 0.00236221 0 -224.001z"/>
   </g>
   <g>
    <path id="_345160320" class="fil2" d="M1232 1216c30.9236,0 58.9241,12.5374 79.1942,32.8075 20.2689,20.2689 32.8063,48.2693 32.8063,79.193 0,30.9236 -12.5374,58.9241 -32.8063,79.1942 -20.2701,20.2689 -48.2705,32.8063 -79.1942,32.8063 -30.9236,0 -58.9241,-12.5374 -79.193,-32.8063 -20.2701,-20.2701 -32.8075,-48.2705 -32.8075,-79.1942 0,-30.9248 12.5374,-58.9252 32.8075,-79.193 20.2677,-20.2701 48.2681,-32.8075 79.193,-32.8075z"/>
    <path id="_345160248" class="fil3" d="M1232 1216l0.885827 0.00590552c30.5717,0.237402 58.2319,12.7252 78.3083,32.8016 20.2689,20.2689 32.8063,48.2693 32.8063,79.193 0,30.9236 -12.5374,58.9241 -32.8063,79.1942 -20.2051,20.204 -48.0922,32.7236 -78.8989,32.804l-0.295276 0.00236221 0 -224.001z"/>
   </g>
  </g>
 </g>
</svg>
