<?xml version="1.0" encoding="UTF-8"?>
<!DOCTYPE svg PUBLIC "-//W3C//DTD SVG 1.1//EN" "http://www.w3.org/Graphics/SVG/1.1/DTD/svg11.dtd">
<!-- Creator: CorelDRAW -->
<svg xmlns="http://www.w3.org/2000/svg" xml:space="preserve" width="6.82666in" height="6.82666in" style="shape-rendering:geometricPrecision; text-rendering:geometricPrecision; image-rendering:optimizeQuality; fill-rule:evenodd; clip-rule:evenodd"
viewBox="0 0 6.82666 6.82666"
 xmlns:xlink="http://www.w3.org/1999/xlink">
 <defs>
  <style type="text/css">
   <![CDATA[
    .fil4 {fill:none}
    .fil1 {fill:#7E7E7E}
    .fil3 {fill:#858585}
    .fil0 {fill:#AFAFAF}
    .fil2 {fill:#B4B4B5}
   ]]>
  </style>
 </defs>
 <g id="Layer_x0020_1">
  <metadata id="CorelCorpID_0Corel-Layer"/>
  <g id="_520381768">
   <path id="_520382344" class="fil0" d="M3.41333 0.853327c0.706909,0 1.34691,0.286543 1.81019,0.749815 0.463272,0.463276 0.749815,1.10328 0.749815,1.81019 0,0.706909 -0.286543,1.34691 -0.749815,1.81019 -0.463276,0.463272 -1.10328,0.749815 -1.81019,0.749815 -0.706909,0 -1.34691,-0.286543 -1.81019,-0.749815 -0.463272,-0.463276 -0.749815,-1.10328 -0.749815,-1.81019 0,-0.706909 0.286543,-1.34691 0.749815,-1.81019 0.463276,-0.463272 1.10328,-0.749815 1.81019,-0.749815z"/>
   <path id="_520382080" class="fil1" d="M3.41333 1.81409c0.117701,0 0.224276,0.0477205 0.301421,0.124866 0.0771457,0.0771457 0.124866,0.183717 0.124866,0.301417 0,0.117701 -0.0477205,0.224276 -0.124866,0.301421 -0.0771457,0.0771457 -0.18372,0.124866 -0.301421,0.124866 -0.117701,0 -0.224276,-0.0477205 -0.301421,-0.124866 -0.0771457,-0.0771457 -0.124866,-0.18372 -0.124866,-0.301421 0,-0.117701 0.0477205,-0.224272 0.124866,-0.301417 0.0771457,-0.0771457 0.18372,-0.124866 0.301421,-0.124866zm-0.331685 1.0659l0.663366 0c0.0589094,0 0.106669,0.0477598 0.106669,0.106669l0 1.91924c0,0.0589094 -0.0477598,0.106669 -0.106669,0.106669l-0.663366 0c-0.0589094,0 -0.106669,-0.0477598 -0.106669,-0.106669l0 -1.91924c0,-0.0589094 0.0477598,-0.106669 0.106669,-0.106669z"/>
  </g>
  <g id="_520380928">
   <path id="_520381888" class="fil2" d="M3.41333 0.853327l7.87402e-006 0 0 5.12001 -7.87402e-006 0c-0.706909,0 -1.34691,-0.286543 -1.81019,-0.749815 -0.463272,-0.463276 -0.749815,-1.10328 -0.749815,-1.81019 0,-0.706909 0.286543,-1.34691 0.749815,-1.81019 0.463276,-0.463272 1.10328,-0.749815 1.81019,-0.749815z"/>
   <path id="_520381936" class="fil3" d="M3.41333 1.81409l7.87402e-006 0 0 0.852571 -7.87402e-006 0c-0.117701,0 -0.224276,-0.0477205 -0.301421,-0.124866 -0.0771457,-0.0771457 -0.124866,-0.18372 -0.124866,-0.301421 0,-0.117701 0.0477205,-0.224272 0.124866,-0.301417 0.0771457,-0.0771457 0.18372,-0.124866 0.301421,-0.124866zm7.87402e-006 1.0659l0 2.13258 -0.331693 0c-0.0589094,0 -0.106669,-0.0477598 -0.106669,-0.106669l0 -1.91924c0,-0.0589094 0.0477598,-0.106669 0.106669,-0.106669l0.331693 0z"/>
  </g>
 </g>
 <rect class="fil4" width="6.82666" height="6.82666"/>
</svg>
