<?xml version="1.0" encoding="UTF-8"?>
<!DOCTYPE svg PUBLIC "-//W3C//DTD SVG 1.1//EN" "http://www.w3.org/Graphics/SVG/1.1/DTD/svg11.dtd">
<!-- Creator: CorelDRAW -->
<svg xmlns="http://www.w3.org/2000/svg" xml:space="preserve" width="6.82666in" height="6.82666in" style="shape-rendering:geometricPrecision; text-rendering:geometricPrecision; image-rendering:optimizeQuality; fill-rule:evenodd; clip-rule:evenodd"
viewBox="0 0 6.82666 6.82666"
 xmlns:xlink="http://www.w3.org/1999/xlink">
 <defs>
  <style type="text/css">
   <![CDATA[
    .fil8 {fill:none}
    .fil7 {fill:#767676}
    .fil1 {fill:#8B8B8B}
    .fil6 {fill:#D4D4D5}
    .fil2 {fill:#E4E5E5}
    .fil0 {fill:#F1F1F2}
    .fil3 {fill:#6E6E6E;fill-rule:nonzero}
    .fil5 {fill:#787878;fill-rule:nonzero}
    .fil4 {fill:#7E7E7E;fill-rule:nonzero}
   ]]>
  </style>
 </defs>
 <g id="Layer_x0020_1">
  <metadata id="CorelCorpID_0Corel-Layer"/>
  <g id="_246460184">
   <g>
    <path id="_246461408" class="fil0" d="M3.60211 1.13959c1.13154,0 2.04884,0.917295 2.04884,2.04884 0,1.13154 -0.917295,2.04884 -2.04884,2.04884 -0.258976,0 -0.506665,-0.0481772 -0.734768,-0.135846l-1.27839 -2.2949c0.178945,-0.949008 1.01214,-1.66693 2.01315,-1.66693z"/>
    <path id="_246460880" class="fil1" d="M3.60211 0.798697c1.31981,0 2.38974,1.06992 2.38974,2.38974 0,1.31981 -1.06992,2.38974 -2.38974,2.38974 -0.17089,0 -0.337531,-0.0180787 -0.49826,-0.0521732l-0.270118 -0.484906c0.236661,0.0982638 0.496157,0.152614 0.768378,0.152614 1.10748,0 2.00527,-0.897787 2.00527,-2.00527 0,-1.10748 -0.897787,-2.00527 -2.00527,-2.00527 -0.998035,0 -1.82564,0.72915 -1.9795,1.68378l-0.270421 -0.485449c0.33098,-0.92272 1.21331,-1.5828 2.24992,-1.5828z"/>
    <path id="_246460592" class="fil2" d="M3.60211 1.30667c1.03927,0 1.88177,0.842496 1.88177,1.88177 0,1.03927 -0.842496,1.88177 -1.88177,1.88177 -0.314335,0 -0.610606,-0.0771811 -0.871071,-0.213461l-0.434539 -0.780067c0.284228,0.416972 0.762921,0.690783 1.30561,0.690783 0.872067,0 1.57902,-0.706957 1.57902,-1.57902 0,-0.872067 -0.706957,-1.57902 -1.57902,-1.57902 -0.872067,0 -1.57902,0.706957 -1.57902,1.57902 0,0.228035 0.0484094,0.444748 0.135413,0.640508l-0.433157 -0.777587c0.0702244,-0.975268 0.883602,-1.74469 1.87677,-1.74469z"/>
   </g>
   <g>
    <path id="_246460496" class="fil3" d="M3.37328 4.43099c0.084248,-0.0242283 0.172327,-0.0251102 0.255201,-0.00486614 0.123417,0.0301496 0.235457,0.107201 0.306315,0.223866l0.345732 0.569248c0.0317992,0.0523583 0.0541772,0.112937 0.0665945,0.175744 0.0172362,0.0871732 0.0148425,0.180031 -0.00861811,0.262031 -0.0204724,0.0715591 -0.0566654,0.135484 -0.109579,0.182791l-0.855646 -1.40881z"/>
    <path id="_246460568" class="fil3" d="M1.45085 1.26573c0.066374,-0.0251457 0.139787,-0.0277874 0.212724,-0.0129606 0.0835827,0.0169882 0.167087,0.0576772 0.236492,0.113161 0.0500079,0.0399803 0.0934488,0.0877638 0.125244,0.140122l0.345736 0.569248c0.0708583,0.116665 0.0875748,0.251614 0.0574252,0.375028 -0.0202441,0.082878 -0.0616378,0.16063 -0.12198,0.224217l-0.855642 -1.40881z"/>
    <path id="_246460304" class="fil4" d="M1.92789 2.92471l1.04884 1.72691 0.276717 -0.168063c0.00514567,-0.00312598 0.0103268,-0.0061378 0.0155433,-0.00905512l0.864724 1.42377c-0.0175,0.00677559 -0.0360669,0.0121772 -0.0557087,0.0160591 -0.049752,0.00983858 -0.0965984,0.0192559 -0.140764,0.0281378 -0.687787,0.138315 -0.789413,0.158744 -1.10851,-0.326031 -0.290098,-0.440756 -0.68487,-1.05405 -0.982984,-1.53735 -0.298669,-0.484197 -0.667535,-1.11324 -0.902469,-1.58006 -0.20787,-0.413047 -0.118665,-0.523906 0.282193,-1.02204 0.028189,-0.0350236 0.0580748,-0.0721732 0.0896732,-0.111693 0.0125039,-0.0156378 0.0258543,-0.029626 0.039937,-0.0420276l0.864724 1.42376c-0.00499213,0.00328346 -0.0100551,0.00649213 -0.0152008,0.00961811l-0.276717 0.168063z"/>
    <path id="_246459560" class="fil5" d="M1.92801 2.92491l1.04852 1.72638c-0.0665394,0.0396299 -0.153504,0.0180984 -0.193783,-0.0482205l-0.901291 -1.48397c-0.0402795,-0.0663189 -0.0192913,-0.153417 0.0465551,-0.194189z"/>
    <polygon id="_246459992" class="fil6" points="2.21216,2.73443 2.30095,2.66541 1.45618,1.2745 1.36069,1.33249 "/>
    <polygon id="_246459728" class="fil6" points="3.27988,4.49243 3.38207,4.44546 4.22683,5.83637 4.13135,5.89436 "/>
   </g>
   <path id="_246459536" class="fil7" d="M3.92967 3.32406l0.250846 -0.594358 0 0.594358 -0.250846 0zm-0.228252 0.225988l0.479098 0 0 0.287 0.244071 0 0 -0.287 0.117516 0 0 -0.225988 -0.117516 0 0 -1.06894 -0.271189 0 -0.45198 1.06894 0 0.225988zm-0.343504 -0.906224c-0.000377953,0.0647835 -0.00942126,0.123165 -0.027122,0.174768 -0.0176969,0.0516024 -0.0414252,0.098685 -0.0704291,0.14124 -0.029378,0.0429449 -0.0613937,0.0836181 -0.0964213,0.122039 -0.0350315,0.0387913 -0.069685,0.0772126 -0.104713,0.116008 -0.0350276,0.0387913 -0.0670433,0.0798504 -0.0964213,0.123161 -0.0290039,0.043315 -0.0523504,0.0911496 -0.0700512,0.143882 -0.0180827,0.0523543 -0.027126,0.111488 -0.0275,0.17778l0 0.194346 0.718642 0 0 -0.225984 -0.470051 0c-0.00113386,-0.00564961 -0.00188583,-0.0112992 -0.00188583,-0.0169488 -0.00038189,-0.00565748 -0.00038189,-0.0113031 -0.00038189,-0.0169449 0.00038189,-0.0369173 0.00979528,-0.0730748 0.0275,-0.108102 0.0177008,-0.0350315 0.0414291,-0.0700591 0.0704331,-0.105465 0.029378,-0.0354055 0.0617756,-0.0719409 0.0967992,-0.109984 0.0350276,-0.0380394 0.0704331,-0.0783386 0.105465,-0.120898 0.0350276,-0.0429409 0.0674173,-0.0892717 0.0964173,-0.138988 0.0293819,-0.0500945 0.0531102,-0.104709 0.070811,-0.163843 0.0177126,-0.0591339 0.027122,-0.124287 0.0275,-0.195106 0,-0.0847441 -0.0139331,-0.156689 -0.041811,-0.215819 -0.027874,-0.0591339 -0.0692992,-0.103957 -0.124291,-0.13522 -0.0549961,-0.0308858 -0.123165,-0.0463228 -0.204524,-0.0466969 -0.0813543,0.000374016 -0.149531,0.015811 -0.204516,0.0466969 -0.0549961,0.0312638 -0.0964291,0.0760866 -0.124299,0.13522 -0.0278701,0.0591299 -0.0418071,0.131075 -0.0418071,0.215819l0 0.153673 0.235028 0 0 -0.169492c0.00038189,-0.056126 0.0120551,-0.0960394 0.0346496,-0.120528 0.0229764,-0.0241063 0.0542402,-0.0361575 0.0941654,-0.0354055 0.0263661,-0.000377953 0.0493425,0.00451969 0.0685472,0.015063 0.0192126,0.0105472 0.0339016,0.0290079 0.0444528,0.0553701 0.0105472,0.0263661 0.015815,0.0632756 0.015815,0.110358z"/>
  </g>
 </g>
 <rect class="fil8" width="6.82666" height="6.82666"/>
</svg>
