<?xml version="1.0" encoding="UTF-8"?>
<!DOCTYPE svg PUBLIC "-//W3C//DTD SVG 1.1//EN" "http://www.w3.org/Graphics/SVG/1.1/DTD/svg11.dtd">
<!-- Creator: CorelDRAW -->
<svg xmlns="http://www.w3.org/2000/svg" xml:space="preserve" width="6.82666in" height="6.82666in" style="shape-rendering:geometricPrecision; text-rendering:geometricPrecision; image-rendering:optimizeQuality; fill-rule:evenodd; clip-rule:evenodd"
viewBox="0 0 6.82666 6.82666"
 xmlns:xlink="http://www.w3.org/1999/xlink">
 <defs>
  <style type="text/css">
   <![CDATA[
    .fil7 {fill:none}
    .fil2 {fill:#2F2F2F}
    .fil0 {fill:#4D4D4D}
    .fil1 {fill:#565656}
    .fil6 {fill:#7E7E7E}
    .fil4 {fill:#8A8A8A}
    .fil3 {fill:#9D9D9D}
    .fil5 {fill:#D4D4D5;fill-rule:nonzero}
   ]]>
  </style>
 </defs>
 <g id="Layer_x0020_1">
  <metadata id="CorelCorpID_0Corel-Layer"/>
  <path class="fil0" d="M1.26293 1.77493l0 3.6639c0,0.147094 0.0601024,0.280748 0.156929,0.377571 0.0968228,0.0968268 0.230476,0.156929 0.377571,0.156929l3.2318 0c0.147094,0 0.280748,-0.0601024 0.377571,-0.156929 0.0968268,-0.0968228 0.156929,-0.230476 0.156929,-0.377571l0 -3.6639 0 -0.387098c0,-0.147094 -0.0601024,-0.280748 -0.156929,-0.377571 -0.0968228,-0.0968268 -0.230476,-0.156929 -0.377571,-0.156929l-3.2318 0c-0.147094,0 -0.280748,0.0601024 -0.377571,0.156929 -0.0968268,0.0968228 -0.156929,0.230476 -0.156929,0.377571l0 0.387098z"/>
  <path class="fil1" d="M1.26293 1.72665l0 3.47194c0,0.13939 0.0601024,0.266039 0.156929,0.357787 0.0968228,0.0917559 0.230476,0.148709 0.377571,0.148709l3.2318 0c0.147094,0 0.280748,-0.0569528 0.377571,-0.148709 0.0968268,-0.091748 0.156929,-0.218398 0.156929,-0.357787l0 -3.47194 0 -0.366819c0,-0.13939 -0.0601024,-0.266035 -0.156929,-0.357787 -0.0968228,-0.0917559 -0.230476,-0.148709 -0.377571,-0.148709l-3.2318 0c-0.147094,0 -0.280748,0.0569528 -0.377571,0.148709 -0.0968268,0.091752 -0.156929,0.218398 -0.156929,0.357787l0 0.366819z"/>
  <g id="_517194792">
   <rect id="_510984688" class="fil2" x="2.702" y="5.75613" width="0.0400194" height="0.172909"/>
   <rect id="_510984664" class="fil2" x="2.78333" y="5.75613" width="0.0400194" height="0.172909"/>
   <rect id="_510985264" class="fil2" x="2.86466" y="5.75613" width="0.0400194" height="0.172909"/>
   <rect id="_510984712" class="fil2" x="2.94599" y="5.75613" width="0.0400194" height="0.172909"/>
   <rect id="_510984760" class="fil2" x="3.02733" y="5.75613" width="0.0400194" height="0.172909"/>
   <rect id="_510984832" class="fil2" x="3.10866" y="5.75613" width="0.0400194" height="0.172909"/>
   <rect id="_517203000" class="fil2" x="3.18999" y="5.75613" width="0.0400194" height="0.172909"/>
   <rect id="_517194960" class="fil2" x="3.27132" y="5.75613" width="0.0400194" height="0.172909"/>
   <rect id="_517195416" class="fil2" x="3.35265" y="5.75613" width="0.0400194" height="0.172909"/>
   <rect id="_517195224" class="fil2" x="3.43398" y="5.75613" width="0.0400194" height="0.172909"/>
   <rect id="_517195152" class="fil2" x="3.51532" y="5.75613" width="0.0400194" height="0.172909"/>
   <rect id="_517195008" class="fil2" x="3.59665" y="5.75613" width="0.0400194" height="0.172909"/>
   <rect id="_517195656" class="fil2" x="3.67798" y="5.75613" width="0.0400194" height="0.172909"/>
   <rect id="_517195128" class="fil2" x="3.75931" y="5.75613" width="0.0400194" height="0.172909"/>
   <rect id="_517194288" class="fil2" x="3.84064" y="5.75613" width="0.0400194" height="0.172909"/>
   <rect id="_517194240" class="fil2" x="3.92197" y="5.75613" width="0.0400194" height="0.172909"/>
   <rect id="_517194336" class="fil2" x="4.00331" y="5.75613" width="0.0400194" height="0.172909"/>
   <rect id="_517194696" class="fil2" x="4.08464" y="5.75613" width="0.0400194" height="0.172909"/>
  </g>
  <path class="fil2" d="M3.23193 4.95497c0.0464449,-0.0464488 0.11061,-0.0751811 0.181472,-0.0751811 0.0708661,0 0.135031,0.0287323 0.18148,0.0751811 0.046437,0.046437 0.0751693,0.110606 0.0751693,0.181469 0,0.0708583 -0.0287323,0.135031 -0.0751693,0.181472 -0.0464488,0.0464409 -0.110618,0.0751772 -0.18148,0.0751772 -0.0708583,0 -0.135028,-0.0287362 -0.181472,-0.0751772 -0.0464409,-0.0464409 -0.0751772,-0.110614 -0.0751772,-0.181472 0,-0.0708622 0.0287362,-0.135031 0.0751772,-0.181469z"/>
  <path class="fil2" d="M2.98029 1.29513c0,-0.0531457 0.0430866,-0.0962323 0.0962323,-0.0962323l0.673614 0c0.0531457,0 0.0962323,0.0430866 0.0962323,0.0962323 0,0.0531457 -0.0430866,0.0962323 -0.0962323,0.0962323l-0.673614 0c-0.0531457,0 -0.0962323,-0.0430866 -0.0962323,-0.0962323z"/>
  <polygon class="fil3" points="5.35893,1.744 5.35893,4.63482 1.46773,4.63482 1.46773,1.744 "/>
  <polygon class="fil4" points="5.35893,1.73983 5.35893,1.85183 1.57174,1.85183 1.57174,4.63482 1.46773,4.63482 1.46773,1.73983 "/>
  <path class="fil5" d="M4.40544 3.49874c-0.0260787,0.0852835 -0.0632835,0.167972 -0.11224,0.246925l0.139646 0.273799 0.0578858 0.1135 -0.126858 -0.0114213 -0.407551 -0.036685c-0.0804567,0.0506811 -0.166654,0.0904803 -0.258031,0.117972 -0.0963031,0.0289724 -0.198079,0.0442874 -0.304657,0.0442874 -0.292,0 -0.556429,-0.118429 -0.747854,-0.30985 -0.191421,-0.191425 -0.30985,-0.455858 -0.30985,-0.747854 0,-0.292 0.118429,-0.556429 0.30985,-0.747854 0.191425,-0.191421 0.455854,-0.30985 0.747854,-0.30985 0.291996,0 0.556429,0.118429 0.747854,0.30985 0.191421,0.191425 0.30985,0.455854 0.30985,0.747854 0,0.104358 -0.0149291,0.208063 -0.0458976,0.309327z"/>
  <g id="_517192848">
   <path id="_517193352" class="fil6" d="M3.41333 2.55039c0.0499764,0 0.0952362,0.0202677 0.127996,0.0530236 0.0327598,0.0327598 0.0530236,0.0780157 0.0530236,0.128 0,0.0499764 -0.0202598,0.0952402 -0.0530236,0.128 -0.0327598,0.032752 -0.0780197,0.0530197 -0.127996,0.0530197 -0.0499843,0 -0.0952441,-0.0202677 -0.128,-0.0530197 -0.0327638,-0.0327598 -0.0530276,-0.0780236 -0.0530276,-0.128 0,-0.0499843 0.0202717,-0.0952402 0.0530276,-0.128 0.0327559,-0.0327559 0.0780197,-0.0530236 0.128,-0.0530236z"/>
   <polygon id="_517193400" class="fil6" points="3.28382,2.96659 3.54284,2.96659 3.59906,2.96659 3.59906,3.02281 3.59906,3.77221 3.59906,3.82843 3.54284,3.82843 3.28382,3.82843 3.2276,3.82843 3.2276,3.77221 3.2276,3.02281 3.2276,2.96659 "/>
  </g>
 </g>
 <rect class="fil7" width="6.82666" height="6.82666"/>
</svg>
