<?xml version="1.0" encoding="UTF-8"?>
<!DOCTYPE svg PUBLIC "-//W3C//DTD SVG 1.1//EN" "http://www.w3.org/Graphics/SVG/1.1/DTD/svg11.dtd">
<!-- Creator: CorelDRAW -->
<svg xmlns="http://www.w3.org/2000/svg" xml:space="preserve" width="6.82666in" height="6.82666in" style="shape-rendering:geometricPrecision; text-rendering:geometricPrecision; image-rendering:optimizeQuality; fill-rule:evenodd; clip-rule:evenodd"
viewBox="0 0 6.82666 6.82666"
 xmlns:xlink="http://www.w3.org/1999/xlink">
 <defs>
  <style type="text/css">
   <![CDATA[
    .fil17 {fill:none}
    .fil2 {fill:#232323}
    .fil10 {fill:#474747}
    .fil4 {fill:#4D4D4D}
    .fil6 {fill:#535353}
    .fil3 {fill:#626263}
    .fil13 {fill:#6F6F6F}
    .fil7 {fill:#8D8E8E}
    .fil1 {fill:#AAAAAA}
    .fil8 {fill:#C4C4C4}
    .fil11 {fill:#C8C8C8}
    .fil9 {fill:#E7E7E7}
    .fil16 {fill:#202020;fill-rule:nonzero}
    .fil14 {fill:#767676;fill-rule:nonzero}
    .fil12 {fill:#8D8E8E;fill-rule:nonzero}
    .fil5 {fill:#959595;fill-rule:nonzero}
    .fil0 {fill:#B9B9B9;fill-rule:nonzero}
    .fil15 {fill:#C5C6C6;fill-rule:nonzero}
   ]]>
  </style>
 </defs>
 <g id="Layer_x0020_1">
  <metadata id="CorelCorpID_0Corel-Layer"/>
  <g id="_535027944">
   <polygon id="_523987488" class="fil0" points="5.66948,0.825756 4.16638,0.825756 4.16638,5.94576 5.66948,5.94576 "/>
   <g>
    <rect id="_523987224" class="fil1" x="1.21583" y="3.18194" width="1.77722" height="0.069685"/>
    <polygon id="_523986456" class="fil2" points="2.74549,5.74507 2.84697,5.72979 2.80004,6.00091 "/>
    <g>
     <rect id="_523987032" class="fil3" x="1.15719" y="3.1449" width="0.129193" height="0.143772" rx="0.0299528" ry="0.0299528"/>
     <path id="_523987008" class="fil4" d="M1.28638 3.25167l0 0.00705512c0,0.0164764 -0.0134764,0.0299528 -0.0299528,0.0299528l-0.0692874 0c-0.0164764,0 -0.0299528,-0.0134764 -0.0299528,-0.0299528l0 -0.00705512 0.129193 0z"/>
     <path id="_523986696" class="fil4" d="M1.28 3.15643c0.00398819,0.00509055 0.00637795,0.0114882 0.00637795,0.0184213l0 0.00709055 -0.129193 0 0 -0.00709055c0,-0.00693307 0.00238976,-0.0133307 0.00637795,-0.0184213l0.116437 0z"/>
    </g>
    <g>
     <g>
      <g>
       <path id="_523986408" class="fil5" d="M1.31069 3.18194c0,-0.00183858 -0.00149606,-0.00333465 -0.00333465,-0.00333465 -0.00183858,0 -0.00333465,0.00149606 -0.00333465,0.00333465l0 0.069685c0,0.00183858 0.00149606,0.00333465 0.00333465,0.00333465 0.00183858,0 0.00333465,-0.00149606 0.00333465,-0.00333465l0 -0.069685z"/>
       <path id="_523986864" class="fil5" d="M1.32875 3.18194c0,-0.00183858 -0.00149606,-0.00333465 -0.00333465,-0.00333465 -0.00183858,0 -0.00333465,0.00149606 -0.00333465,0.00333465l0 0.069685c0,0.00183858 0.00149606,0.00333465 0.00333465,0.00333465 0.00183858,0 0.00333465,-0.00149606 0.00333465,-0.00333465l0 -0.069685z"/>
       <path id="_523986744" class="fil5" d="M1.34681 3.18194c0,-0.00183858 -0.00149606,-0.00333465 -0.00333465,-0.00333465 -0.00183858,0 -0.00333465,0.00149606 -0.00333465,0.00333465l0 0.069685c0,0.00183858 0.00149606,0.00333465 0.00333465,0.00333465 0.00183858,0 0.00333465,-0.00149606 0.00333465,-0.00333465l0 -0.069685z"/>
       <path id="_523985736" class="fil5" d="M1.36487 3.18194c0,-0.00183858 -0.00149606,-0.00333465 -0.00333465,-0.00333465 -0.00183858,0 -0.00333465,0.00149606 -0.00333465,0.00333465l0 0.069685c0,0.00183858 0.00149606,0.00333465 0.00333465,0.00333465 0.00183858,0 0.00333465,-0.00149606 0.00333465,-0.00333465l0 -0.069685z"/>
       <path id="_523985688" class="fil5" d="M1.38293 3.18194c0,-0.00183858 -0.00149606,-0.00333465 -0.00333465,-0.00333465 -0.00183858,0 -0.00333465,0.00149606 -0.00333465,0.00333465l0 0.069685c0,0.00183858 0.00149606,0.00333465 0.00333465,0.00333465 0.00183858,0 0.00333465,-0.00149606 0.00333465,-0.00333465l0 -0.069685z"/>
       <path id="_523986216" class="fil5" d="M1.40098 3.18194c0,-0.00183858 -0.00149606,-0.00333465 -0.00333465,-0.00333465 -0.00183858,0 -0.00333465,0.00149606 -0.00333465,0.00333465l0 0.069685c0,0.00183858 0.00149606,0.00333465 0.00333465,0.00333465 0.00183858,0 0.00333465,-0.00149606 0.00333465,-0.00333465l0 -0.069685z"/>
       <path id="_523985616" class="fil5" d="M1.41904 3.18194c0,-0.00183858 -0.00149606,-0.00333465 -0.00333465,-0.00333465 -0.00183858,0 -0.00333465,0.00149606 -0.00333465,0.00333465l0 0.069685c0,0.00183858 0.00149606,0.00333465 0.00333465,0.00333465 0.00183858,0 0.00333465,-0.00149606 0.00333465,-0.00333465l0 -0.069685z"/>
       <path id="_523985664" class="fil5" d="M1.4371 3.18194c0,-0.00183858 -0.00149606,-0.00333465 -0.00333465,-0.00333465 -0.00183858,0 -0.00333465,0.00149606 -0.00333465,0.00333465l0 0.069685c0,0.00183858 0.00149606,0.00333465 0.00333465,0.00333465 0.00183858,0 0.00333465,-0.00149606 0.00333465,-0.00333465l0 -0.069685z"/>
       <path id="_523986072" class="fil5" d="M1.45516 3.18194c0,-0.00183858 -0.00149606,-0.00333465 -0.00333465,-0.00333465 -0.00183858,0 -0.00333465,0.00149606 -0.00333465,0.00333465l0 0.069685c0,0.00183858 0.00149606,0.00333465 0.00333465,0.00333465 0.00183858,0 0.00333465,-0.00149606 0.00333465,-0.00333465l0 -0.069685z"/>
       <path id="_523985928" class="fil5" d="M1.47322 3.18194c0,-0.00183858 -0.00149606,-0.00333465 -0.00333465,-0.00333465 -0.00183858,0 -0.00333465,0.00149606 -0.00333465,0.00333465l0 0.069685c0,0.00183858 0.00149606,0.00333465 0.00333465,0.00333465 0.00183858,0 0.00333465,-0.00149606 0.00333465,-0.00333465l0 -0.069685z"/>
       <path id="_523985880" class="fil5" d="M1.49128 3.18194c0,-0.00183858 -0.00149606,-0.00333465 -0.00333465,-0.00333465 -0.00183858,0 -0.00333465,0.00149606 -0.00333465,0.00333465l0 0.069685c0,0.00183858 0.00149606,0.00333465 0.00333465,0.00333465 0.00183858,0 0.00333465,-0.00149606 0.00333465,-0.00333465l0 -0.069685z"/>
       <path id="_523985832" class="fil5" d="M1.50934 3.18194c0,-0.00183858 -0.00149606,-0.00333465 -0.00333465,-0.00333465 -0.00183858,0 -0.00333465,0.00149606 -0.00333465,0.00333465l0 0.069685c0,0.00183858 0.00149606,0.00333465 0.00333465,0.00333465 0.00183858,0 0.00333465,-0.00149606 0.00333465,-0.00333465l0 -0.069685z"/>
       <path id="_523986024" class="fil5" d="M1.5274 3.18194c0,-0.00183858 -0.00149606,-0.00333465 -0.00333465,-0.00333465 -0.00183858,0 -0.00333465,0.00149606 -0.00333465,0.00333465l0 0.069685c0,0.00183858 0.00149606,0.00333465 0.00333465,0.00333465 0.00183858,0 0.00333465,-0.00149606 0.00333465,-0.00333465l0 -0.069685z"/>
       <path id="_523986096" class="fil5" d="M1.54546 3.18194c0,-0.00183858 -0.00149606,-0.00333465 -0.00333465,-0.00333465 -0.00183858,0 -0.00333465,0.00149606 -0.00333465,0.00333465l0 0.069685c0,0.00183858 0.00149606,0.00333465 0.00333465,0.00333465 0.00183858,0 0.00333465,-0.00149606 0.00333465,-0.00333465l0 -0.069685z"/>
       <path id="_523984944" class="fil5" d="M1.56352 3.18194c0,-0.00183858 -0.00149606,-0.00333465 -0.00333465,-0.00333465 -0.00183858,0 -0.00333465,0.00149606 -0.00333465,0.00333465l0 0.069685c0,0.00183858 0.00149606,0.00333465 0.00333465,0.00333465 0.00183858,0 0.00333465,-0.00149606 0.00333465,-0.00333465l0 -0.069685z"/>
       <path id="_523985496" class="fil5" d="M1.58157 3.18194c0,-0.00183858 -0.00149606,-0.00333465 -0.00333465,-0.00333465 -0.00183858,0 -0.00333465,0.00149606 -0.00333465,0.00333465l0 0.069685c0,0.00183858 0.00149606,0.00333465 0.00333465,0.00333465 0.00183858,0 0.00333465,-0.00149606 0.00333465,-0.00333465l0 -0.069685z"/>
       <path id="_523985040" class="fil5" d="M1.59963 3.18194c0,-0.00183858 -0.00149606,-0.00333465 -0.00333465,-0.00333465 -0.00183858,0 -0.00333465,0.00149606 -0.00333465,0.00333465l0 0.069685c0,0.00183858 0.00149606,0.00333465 0.00333465,0.00333465 0.00183858,0 0.00333465,-0.00149606 0.00333465,-0.00333465l0 -0.069685z"/>
       <g>
        <path id="_523985448" class="fil5" d="M1.62028 3.18194c0,-0.00183858 -0.00149606,-0.00333465 -0.00333465,-0.00333465 -0.00183858,0 -0.00333465,0.00149606 -0.00333465,0.00333465l0 0.069685c0,0.00183858 0.00149606,0.00333465 0.00333465,0.00333465 0.00183858,0 0.00333465,-0.00149606 0.00333465,-0.00333465l0 -0.069685z"/>
        <path id="_523985136" class="fil5" d="M1.63834 3.18194c0,-0.00183858 -0.00149606,-0.00333465 -0.00333465,-0.00333465 -0.00183858,0 -0.00333465,0.00149606 -0.00333465,0.00333465l0 0.069685c0,0.00183858 0.00149606,0.00333465 0.00333465,0.00333465 0.00183858,0 0.00333465,-0.00149606 0.00333465,-0.00333465l0 -0.069685z"/>
        <path id="_523985400" class="fil5" d="M1.6564 3.18194c0,-0.00183858 -0.00149606,-0.00333465 -0.00333465,-0.00333465 -0.00183858,0 -0.00333465,0.00149606 -0.00333465,0.00333465l0 0.069685c0,0.00183858 0.00149606,0.00333465 0.00333465,0.00333465 0.00183858,0 0.00333465,-0.00149606 0.00333465,-0.00333465l0 -0.069685z"/>
        <path id="_523984968" class="fil5" d="M1.67446 3.18194c0,-0.00183858 -0.00149606,-0.00333465 -0.00333465,-0.00333465 -0.00183858,0 -0.00333465,0.00149606 -0.00333465,0.00333465l0 0.069685c0,0.00183858 0.00149606,0.00333465 0.00333465,0.00333465 0.00183858,0 0.00333465,-0.00149606 0.00333465,-0.00333465l0 -0.069685z"/>
        <path id="_523985208" class="fil5" d="M1.69252 3.18194c0,-0.00183858 -0.00149606,-0.00333465 -0.00333465,-0.00333465 -0.00183858,0 -0.00333465,0.00149606 -0.00333465,0.00333465l0 0.069685c0,0.00183858 0.00149606,0.00333465 0.00333465,0.00333465 0.00183858,0 0.00333465,-0.00149606 0.00333465,-0.00333465l0 -0.069685z"/>
        <path id="_523985256" class="fil5" d="M1.71057 3.18194c0,-0.00183858 -0.00149606,-0.00333465 -0.00333465,-0.00333465 -0.00183858,0 -0.00333465,0.00149606 -0.00333465,0.00333465l0 0.069685c0,0.00183858 0.00149606,0.00333465 0.00333465,0.00333465 0.00183858,0 0.00333465,-0.00149606 0.00333465,-0.00333465l0 -0.069685z"/>
        <path id="_523985112" class="fil5" d="M1.72863 3.18194c0,-0.00183858 -0.00149606,-0.00333465 -0.00333465,-0.00333465 -0.00183858,0 -0.00333465,0.00149606 -0.00333465,0.00333465l0 0.069685c0,0.00183858 0.00149606,0.00333465 0.00333465,0.00333465 0.00183858,0 0.00333465,-0.00149606 0.00333465,-0.00333465l0 -0.069685z"/>
        <path id="_523984440" class="fil5" d="M1.74669 3.18194c0,-0.00183858 -0.00149606,-0.00333465 -0.00333465,-0.00333465 -0.00183858,0 -0.00333465,0.00149606 -0.00333465,0.00333465l0 0.069685c0,0.00183858 0.00149606,0.00333465 0.00333465,0.00333465 0.00183858,0 0.00333465,-0.00149606 0.00333465,-0.00333465l0 -0.069685z"/>
        <path id="_523984224" class="fil5" d="M1.76475 3.18194c0,-0.00183858 -0.00149606,-0.00333465 -0.00333465,-0.00333465 -0.00183858,0 -0.00333465,0.00149606 -0.00333465,0.00333465l0 0.069685c0,0.00183858 0.00149606,0.00333465 0.00333465,0.00333465 0.00183858,0 0.00333465,-0.00149606 0.00333465,-0.00333465l0 -0.069685z"/>
        <path id="_523984080" class="fil5" d="M1.78281 3.18194c0,-0.00183858 -0.00149606,-0.00333465 -0.00333465,-0.00333465 -0.00183858,0 -0.00333465,0.00149606 -0.00333465,0.00333465l0 0.069685c0,0.00183858 0.00149606,0.00333465 0.00333465,0.00333465 0.00183858,0 0.00333465,-0.00149606 0.00333465,-0.00333465l0 -0.069685z"/>
        <path id="_523984752" class="fil5" d="M1.80087 3.18194c0,-0.00183858 -0.00149606,-0.00333465 -0.00333465,-0.00333465 -0.00183858,0 -0.00333465,0.00149606 -0.00333465,0.00333465l0 0.069685c0,0.00183858 0.00149606,0.00333465 0.00333465,0.00333465 0.00183858,0 0.00333465,-0.00149606 0.00333465,-0.00333465l0 -0.069685z"/>
        <path id="_523984008" class="fil5" d="M1.81893 3.18194c0,-0.00183858 -0.00149606,-0.00333465 -0.00333465,-0.00333465 -0.00183858,0 -0.00333465,0.00149606 -0.00333465,0.00333465l0 0.069685c0,0.00183858 0.00149606,0.00333465 0.00333465,0.00333465 0.00183858,0 0.00333465,-0.00149606 0.00333465,-0.00333465l0 -0.069685z"/>
        <path id="_523984704" class="fil5" d="M1.83699 3.18194c0,-0.00183858 -0.00149606,-0.00333465 -0.00333465,-0.00333465 -0.00183858,0 -0.00333465,0.00149606 -0.00333465,0.00333465l0 0.069685c0,0.00183858 0.00149606,0.00333465 0.00333465,0.00333465 0.00183858,0 0.00333465,-0.00149606 0.00333465,-0.00333465l0 -0.069685z"/>
        <path id="_523984632" class="fil5" d="M1.85505 3.18194c0,-0.00183858 -0.00149606,-0.00333465 -0.00333465,-0.00333465 -0.00183858,0 -0.00333465,0.00149606 -0.00333465,0.00333465l0 0.069685c0,0.00183858 0.00149606,0.00333465 0.00333465,0.00333465 0.00183858,0 0.00333465,-0.00149606 0.00333465,-0.00333465l0 -0.069685z"/>
        <path id="_523983840" class="fil5" d="M1.87311 3.18194c0,-0.00183858 -0.00149606,-0.00333465 -0.00333465,-0.00333465 -0.00183858,0 -0.00333465,0.00149606 -0.00333465,0.00333465l0 0.069685c0,0.00183858 0.00149606,0.00333465 0.00333465,0.00333465 0.00183858,0 0.00333465,-0.00149606 0.00333465,-0.00333465l0 -0.069685z"/>
        <path id="_523983672" class="fil5" d="M1.89117 3.18194c0,-0.00183858 -0.00149606,-0.00333465 -0.00333465,-0.00333465 -0.00183858,0 -0.00333465,0.00149606 -0.00333465,0.00333465l0 0.069685c0,0.00183858 0.00149606,0.00333465 0.00333465,0.00333465 0.00183858,0 0.00333465,-0.00149606 0.00333465,-0.00333465l0 -0.069685z"/>
        <path id="_523983576" class="fil5" d="M1.90922 3.18194c0,-0.00183858 -0.00149606,-0.00333465 -0.00333465,-0.00333465 -0.00183858,0 -0.00333465,0.00149606 -0.00333465,0.00333465l0 0.069685c0,0.00183858 0.00149606,0.00333465 0.00333465,0.00333465 0.00183858,0 0.00333465,-0.00149606 0.00333465,-0.00333465l0 -0.069685z"/>
       </g>
      </g>
      <g>
       <path id="_523983744" class="fil5" d="M2.52007 3.18194c0,-0.00183858 0.00149606,-0.00333465 0.00333465,-0.00333465 0.00183858,0 0.00333465,0.00149606 0.00333465,0.00333465l0 0.069685c0,0.00183858 -0.00149606,0.00333465 -0.00333465,0.00333465 -0.00183858,0 -0.00333465,-0.00149606 -0.00333465,-0.00333465l0 -0.069685z"/>
       <path id="_523983456" class="fil5" d="M2.50201 3.18194c0,-0.00183858 0.00149606,-0.00333465 0.00333465,-0.00333465 0.00183858,0 0.00333465,0.00149606 0.00333465,0.00333465l0 0.069685c0,0.00183858 -0.00149606,0.00333465 -0.00333465,0.00333465 -0.00183858,0 -0.00333465,-0.00149606 -0.00333465,-0.00333465l0 -0.069685z"/>
       <path id="_523983408" class="fil5" d="M2.48395 3.18194c0,-0.00183858 0.00149606,-0.00333465 0.00333465,-0.00333465 0.00183858,0 0.00333465,0.00149606 0.00333465,0.00333465l0 0.069685c0,0.00183858 -0.00149606,0.00333465 -0.00333465,0.00333465 -0.00183858,0 -0.00333465,-0.00149606 -0.00333465,-0.00333465l0 -0.069685z"/>
       <path id="_523983384" class="fil5" d="M2.46589 3.18194c0,-0.00183858 0.00149606,-0.00333465 0.00333465,-0.00333465 0.00183858,0 0.00333465,0.00149606 0.00333465,0.00333465l0 0.069685c0,0.00183858 -0.00149606,0.00333465 -0.00333465,0.00333465 -0.00183858,0 -0.00333465,-0.00149606 -0.00333465,-0.00333465l0 -0.069685z"/>
       <path id="_523983816" class="fil5" d="M2.44783 3.18194c0,-0.00183858 0.00149606,-0.00333465 0.00333465,-0.00333465 0.00183858,0 0.00333465,0.00149606 0.00333465,0.00333465l0 0.069685c0,0.00183858 -0.00149606,0.00333465 -0.00333465,0.00333465 -0.00183858,0 -0.00333465,-0.00149606 -0.00333465,-0.00333465l0 -0.069685z"/>
       <path id="_523983792" class="fil5" d="M2.42977 3.18194c0,-0.00183858 0.00149606,-0.00333465 0.00333465,-0.00333465 0.00183858,0 0.00333465,0.00149606 0.00333465,0.00333465l0 0.069685c0,0.00183858 -0.00149606,0.00333465 -0.00333465,0.00333465 -0.00183858,0 -0.00333465,-0.00149606 -0.00333465,-0.00333465l0 -0.069685z"/>
       <path id="_523983360" class="fil5" d="M2.41171 3.18194c0,-0.00183858 0.00149606,-0.00333465 0.00333465,-0.00333465 0.00183858,0 0.00333465,0.00149606 0.00333465,0.00333465l0 0.069685c0,0.00183858 -0.00149606,0.00333465 -0.00333465,0.00333465 -0.00183858,0 -0.00333465,-0.00149606 -0.00333465,-0.00333465l0 -0.069685z"/>
       <path id="_523982688" class="fil5" d="M2.39365 3.18194c0,-0.00183858 0.00149606,-0.00333465 0.00333465,-0.00333465 0.00183858,0 0.00333465,0.00149606 0.00333465,0.00333465l0 0.069685c0,0.00183858 -0.00149606,0.00333465 -0.00333465,0.00333465 -0.00183858,0 -0.00333465,-0.00149606 -0.00333465,-0.00333465l0 -0.069685z"/>
       <path id="_523982832" class="fil5" d="M2.37559 3.18194c0,-0.00183858 0.00149606,-0.00333465 0.00333465,-0.00333465 0.00183858,0 0.00333465,0.00149606 0.00333465,0.00333465l0 0.069685c0,0.00183858 -0.00149606,0.00333465 -0.00333465,0.00333465 -0.00183858,0 -0.00333465,-0.00149606 -0.00333465,-0.00333465l0 -0.069685z"/>
       <path id="_523982520" class="fil5" d="M2.35754 3.18194c0,-0.00183858 0.00149606,-0.00333465 0.00333465,-0.00333465 0.00183858,0 0.00333465,0.00149606 0.00333465,0.00333465l0 0.069685c0,0.00183858 -0.00149606,0.00333465 -0.00333465,0.00333465 -0.00183858,0 -0.00333465,-0.00149606 -0.00333465,-0.00333465l0 -0.069685z"/>
       <path id="_523983000" class="fil5" d="M2.33948 3.18194c0,-0.00183858 0.00149606,-0.00333465 0.00333465,-0.00333465 0.00183858,0 0.00333465,0.00149606 0.00333465,0.00333465l0 0.069685c0,0.00183858 -0.00149606,0.00333465 -0.00333465,0.00333465 -0.00183858,0 -0.00333465,-0.00149606 -0.00333465,-0.00333465l0 -0.069685z"/>
       <path id="_523983168" class="fil5" d="M2.32142 3.18194c0,-0.00183858 0.00149606,-0.00333465 0.00333465,-0.00333465 0.00183858,0 0.00333465,0.00149606 0.00333465,0.00333465l0 0.069685c0,0.00183858 -0.00149606,0.00333465 -0.00333465,0.00333465 -0.00183858,0 -0.00333465,-0.00149606 -0.00333465,-0.00333465l0 -0.069685z"/>
       <path id="_523982472" class="fil5" d="M2.30336 3.18194c0,-0.00183858 0.00149606,-0.00333465 0.00333465,-0.00333465 0.00183858,0 0.00333465,0.00149606 0.00333465,0.00333465l0 0.069685c0,0.00183858 -0.00149606,0.00333465 -0.00333465,0.00333465 -0.00183858,0 -0.00333465,-0.00149606 -0.00333465,-0.00333465l0 -0.069685z"/>
       <path id="_523982712" class="fil5" d="M2.2853 3.18194c0,-0.00183858 0.00149606,-0.00333465 0.00333465,-0.00333465 0.00183858,0 0.00333465,0.00149606 0.00333465,0.00333465l0 0.069685c0,0.00183858 -0.00149606,0.00333465 -0.00333465,0.00333465 -0.00183858,0 -0.00333465,-0.00149606 -0.00333465,-0.00333465l0 -0.069685z"/>
       <path id="_523982880" class="fil5" d="M2.26724 3.18194c0,-0.00183858 0.00149606,-0.00333465 0.00333465,-0.00333465 0.00183858,0 0.00333465,0.00149606 0.00333465,0.00333465l0 0.069685c0,0.00183858 -0.00149606,0.00333465 -0.00333465,0.00333465 -0.00183858,0 -0.00333465,-0.00149606 -0.00333465,-0.00333465l0 -0.069685z"/>
       <path id="_523982568" class="fil5" d="M2.24918 3.18194c0,-0.00183858 0.00149606,-0.00333465 0.00333465,-0.00333465 0.00183858,0 0.00333465,0.00149606 0.00333465,0.00333465l0 0.069685c0,0.00183858 -0.00149606,0.00333465 -0.00333465,0.00333465 -0.00183858,0 -0.00333465,-0.00149606 -0.00333465,-0.00333465l0 -0.069685z"/>
       <path id="_523983024" class="fil5" d="M2.23112 3.18194c0,-0.00183858 0.00149606,-0.00333465 0.00333465,-0.00333465 0.00183858,0 0.00333465,0.00149606 0.00333465,0.00333465l0 0.069685c0,0.00183858 -0.00149606,0.00333465 -0.00333465,0.00333465 -0.00183858,0 -0.00333465,-0.00149606 -0.00333465,-0.00333465l0 -0.069685z"/>
       <g>
        <path id="_523982304" class="fil5" d="M2.21048 3.18194c0,-0.00183858 0.00149606,-0.00333465 0.00333465,-0.00333465 0.00183858,0 0.00333465,0.00149606 0.00333465,0.00333465l0 0.069685c0,0.00183858 -0.00149606,0.00333465 -0.00333465,0.00333465 -0.00183858,0 -0.00333465,-0.00149606 -0.00333465,-0.00333465l0 -0.069685z"/>
        <path id="_523981872" class="fil5" d="M2.19242 3.18194c0,-0.00183858 0.00149606,-0.00333465 0.00333465,-0.00333465 0.00183858,0 0.00333465,0.00149606 0.00333465,0.00333465l0 0.069685c0,0.00183858 -0.00149606,0.00333465 -0.00333465,0.00333465 -0.00183858,0 -0.00333465,-0.00149606 -0.00333465,-0.00333465l0 -0.069685z"/>
        <path id="_523981896" class="fil5" d="M2.17436 3.18194c0,-0.00183858 0.00149606,-0.00333465 0.00333465,-0.00333465 0.00183858,0 0.00333465,0.00149606 0.00333465,0.00333465l0 0.069685c0,0.00183858 -0.00149606,0.00333465 -0.00333465,0.00333465 -0.00183858,0 -0.00333465,-0.00149606 -0.00333465,-0.00333465l0 -0.069685z"/>
        <path id="_523982376" class="fil5" d="M2.1563 3.18194c0,-0.00183858 0.00149606,-0.00333465 0.00333465,-0.00333465 0.00183858,0 0.00333465,0.00149606 0.00333465,0.00333465l0 0.069685c0,0.00183858 -0.00149606,0.00333465 -0.00333465,0.00333465 -0.00183858,0 -0.00333465,-0.00149606 -0.00333465,-0.00333465l0 -0.069685z"/>
        <path id="_523981776" class="fil5" d="M2.13824 3.18194c0,-0.00183858 0.00149606,-0.00333465 0.00333465,-0.00333465 0.00183858,0 0.00333465,0.00149606 0.00333465,0.00333465l0 0.069685c0,0.00183858 -0.00149606,0.00333465 -0.00333465,0.00333465 -0.00183858,0 -0.00333465,-0.00149606 -0.00333465,-0.00333465l0 -0.069685z"/>
        <path id="_523981824" class="fil5" d="M2.12018 3.18194c0,-0.00183858 0.00149606,-0.00333465 0.00333465,-0.00333465 0.00183858,0 0.00333465,0.00149606 0.00333465,0.00333465l0 0.069685c0,0.00183858 -0.00149606,0.00333465 -0.00333465,0.00333465 -0.00183858,0 -0.00333465,-0.00149606 -0.00333465,-0.00333465l0 -0.069685z"/>
        <path id="_523982232" class="fil5" d="M2.10212 3.18194c0,-0.00183858 0.00149606,-0.00333465 0.00333465,-0.00333465 0.00183858,0 0.00333465,0.00149606 0.00333465,0.00333465l0 0.069685c0,0.00183858 -0.00149606,0.00333465 -0.00333465,0.00333465 -0.00183858,0 -0.00333465,-0.00149606 -0.00333465,-0.00333465l0 -0.069685z"/>
        <path id="_523982088" class="fil5" d="M2.08406 3.18194c0,-0.00183858 0.00149606,-0.00333465 0.00333465,-0.00333465 0.00183858,0 0.00333465,0.00149606 0.00333465,0.00333465l0 0.069685c0,0.00183858 -0.00149606,0.00333465 -0.00333465,0.00333465 -0.00183858,0 -0.00333465,-0.00149606 -0.00333465,-0.00333465l0 -0.069685z"/>
        <path id="_523982040" class="fil5" d="M2.066 3.18194c0,-0.00183858 0.00149606,-0.00333465 0.00333465,-0.00333465 0.00183858,0 0.00333465,0.00149606 0.00333465,0.00333465l0 0.069685c0,0.00183858 -0.00149606,0.00333465 -0.00333465,0.00333465 -0.00183858,0 -0.00333465,-0.00149606 -0.00333465,-0.00333465l0 -0.069685z"/>
        <path id="_523981968" class="fil5" d="M2.04794 3.18194c0,-0.00183858 0.00149606,-0.00333465 0.00333465,-0.00333465 0.00183858,0 0.00333465,0.00149606 0.00333465,0.00333465l0 0.069685c0,0.00183858 -0.00149606,0.00333465 -0.00333465,0.00333465 -0.00183858,0 -0.00333465,-0.00149606 -0.00333465,-0.00333465l0 -0.069685z"/>
        <path id="_523982184" class="fil5" d="M2.02989 3.18194c0,-0.00183858 0.00149606,-0.00333465 0.00333465,-0.00333465 0.00183858,0 0.00333465,0.00149606 0.00333465,0.00333465l0 0.069685c0,0.00183858 -0.00149606,0.00333465 -0.00333465,0.00333465 -0.00183858,0 -0.00333465,-0.00149606 -0.00333465,-0.00333465l0 -0.069685z"/>
        <path id="_523981008" class="fil5" d="M2.01183 3.18194c0,-0.00183858 0.00149606,-0.00333465 0.00333465,-0.00333465 0.00183858,0 0.00333465,0.00149606 0.00333465,0.00333465l0 0.069685c0,0.00183858 -0.00149606,0.00333465 -0.00333465,0.00333465 -0.00183858,0 -0.00333465,-0.00149606 -0.00333465,-0.00333465l0 -0.069685z"/>
        <path id="_523981392" class="fil5" d="M1.99377 3.18194c0,-0.00183858 0.00149606,-0.00333465 0.00333465,-0.00333465 0.00183858,0 0.00333465,0.00149606 0.00333465,0.00333465l0 0.069685c0,0.00183858 -0.00149606,0.00333465 -0.00333465,0.00333465 -0.00183858,0 -0.00333465,-0.00149606 -0.00333465,-0.00333465l0 -0.069685z"/>
        <path id="_523981296" class="fil5" d="M1.97571 3.18194c0,-0.00183858 0.00149606,-0.00333465 0.00333465,-0.00333465 0.00183858,0 0.00333465,0.00149606 0.00333465,0.00333465l0 0.069685c0,0.00183858 -0.00149606,0.00333465 -0.00333465,0.00333465 -0.00183858,0 -0.00333465,-0.00149606 -0.00333465,-0.00333465l0 -0.069685z"/>
        <path id="_523981248" class="fil5" d="M1.95765 3.18194c0,-0.00183858 0.00149606,-0.00333465 0.00333465,-0.00333465 0.00183858,0 0.00333465,0.00149606 0.00333465,0.00333465l0 0.069685c0,0.00183858 -0.00149606,0.00333465 -0.00333465,0.00333465 -0.00183858,0 -0.00333465,-0.00149606 -0.00333465,-0.00333465l0 -0.069685z"/>
        <path id="_523981632" class="fil5" d="M1.93959 3.18194c0,-0.00183858 0.00149606,-0.00333465 0.00333465,-0.00333465 0.00183858,0 0.00333465,0.00149606 0.00333465,0.00333465l0 0.069685c0,0.00183858 -0.00149606,0.00333465 -0.00333465,0.00333465 -0.00183858,0 -0.00333465,-0.00149606 -0.00333465,-0.00333465l0 -0.069685z"/>
        <path id="_523981272" class="fil5" d="M1.92153 3.18194c0,-0.00183858 0.00149606,-0.00333465 0.00333465,-0.00333465 0.00183858,0 0.00333465,0.00149606 0.00333465,0.00333465l0 0.069685c0,0.00183858 -0.00149606,0.00333465 -0.00333465,0.00333465 -0.00183858,0 -0.00333465,-0.00149606 -0.00333465,-0.00333465l0 -0.069685z"/>
       </g>
      </g>
     </g>
     <g>
      <path id="_523981200" class="fil5" d="M2.54601 3.18194c0,-0.00183858 -0.00149606,-0.00333465 -0.00333465,-0.00333465 -0.00183858,0 -0.00333465,0.00149606 -0.00333465,0.00333465l0 0.069685c0,0.00183858 0.00149606,0.00333465 0.00333465,0.00333465 0.00183858,0 0.00333465,-0.00149606 0.00333465,-0.00333465l0 -0.069685z"/>
      <path id="_523981176" class="fil5" d="M2.56407 3.18194c0,-0.00183858 -0.00149606,-0.00333465 -0.00333465,-0.00333465 -0.00183858,0 -0.00333465,0.00149606 -0.00333465,0.00333465l0 0.069685c0,0.00183858 0.00149606,0.00333465 0.00333465,0.00333465 0.00183858,0 0.00333465,-0.00149606 0.00333465,-0.00333465l0 -0.069685z"/>
      <path id="_523997136" class="fil5" d="M2.58213 3.18194c0,-0.00183858 -0.00149606,-0.00333465 -0.00333465,-0.00333465 -0.00183858,0 -0.00333465,0.00149606 -0.00333465,0.00333465l0 0.069685c0,0.00183858 0.00149606,0.00333465 0.00333465,0.00333465 0.00183858,0 0.00333465,-0.00149606 0.00333465,-0.00333465l0 -0.069685z"/>
      <path id="_523997064" class="fil5" d="M2.60019 3.18194c0,-0.00183858 -0.00149606,-0.00333465 -0.00333465,-0.00333465 -0.00183858,0 -0.00333465,0.00149606 -0.00333465,0.00333465l0 0.069685c0,0.00183858 0.00149606,0.00333465 0.00333465,0.00333465 0.00183858,0 0.00333465,-0.00149606 0.00333465,-0.00333465l0 -0.069685z"/>
      <path id="_523996752" class="fil5" d="M2.61824 3.18194c0,-0.00183858 -0.00149606,-0.00333465 -0.00333465,-0.00333465 -0.00183858,0 -0.00333465,0.00149606 -0.00333465,0.00333465l0 0.069685c0,0.00183858 0.00149606,0.00333465 0.00333465,0.00333465 0.00183858,0 0.00333465,-0.00149606 0.00333465,-0.00333465l0 -0.069685z"/>
      <path id="_523996368" class="fil5" d="M2.6363 3.18194c0,-0.00183858 -0.00149606,-0.00333465 -0.00333465,-0.00333465 -0.00183858,0 -0.00333465,0.00149606 -0.00333465,0.00333465l0 0.069685c0,0.00183858 0.00149606,0.00333465 0.00333465,0.00333465 0.00183858,0 0.00333465,-0.00149606 0.00333465,-0.00333465l0 -0.069685z"/>
      <path id="_523996608" class="fil5" d="M2.65436 3.18194c0,-0.00183858 -0.00149606,-0.00333465 -0.00333465,-0.00333465 -0.00183858,0 -0.00333465,0.00149606 -0.00333465,0.00333465l0 0.069685c0,0.00183858 0.00149606,0.00333465 0.00333465,0.00333465 0.00183858,0 0.00333465,-0.00149606 0.00333465,-0.00333465l0 -0.069685z"/>
      <path id="_523997040" class="fil5" d="M2.67242 3.18194c0,-0.00183858 -0.00149606,-0.00333465 -0.00333465,-0.00333465 -0.00183858,0 -0.00333465,0.00149606 -0.00333465,0.00333465l0 0.069685c0,0.00183858 0.00149606,0.00333465 0.00333465,0.00333465 0.00183858,0 0.00333465,-0.00149606 0.00333465,-0.00333465l0 -0.069685z"/>
      <path id="_523996632" class="fil5" d="M2.69048 3.18194c0,-0.00183858 -0.00149606,-0.00333465 -0.00333465,-0.00333465 -0.00183858,0 -0.00333465,0.00149606 -0.00333465,0.00333465l0 0.069685c0,0.00183858 0.00149606,0.00333465 0.00333465,0.00333465 0.00183858,0 0.00333465,-0.00149606 0.00333465,-0.00333465l0 -0.069685z"/>
      <path id="_523996584" class="fil5" d="M2.70854 3.18194c0,-0.00183858 -0.00149606,-0.00333465 -0.00333465,-0.00333465 -0.00183858,0 -0.00333465,0.00149606 -0.00333465,0.00333465l0 0.069685c0,0.00183858 0.00149606,0.00333465 0.00333465,0.00333465 0.00183858,0 0.00333465,-0.00149606 0.00333465,-0.00333465l0 -0.069685z"/>
      <path id="_523996968" class="fil5" d="M2.7266 3.18194c0,-0.00183858 -0.00149606,-0.00333465 -0.00333465,-0.00333465 -0.00183858,0 -0.00333465,0.00149606 -0.00333465,0.00333465l0 0.069685c0,0.00183858 0.00149606,0.00333465 0.00333465,0.00333465 0.00183858,0 0.00333465,-0.00149606 0.00333465,-0.00333465l0 -0.069685z"/>
      <path id="_523996560" class="fil5" d="M2.74466 3.18194c0,-0.00183858 -0.00149606,-0.00333465 -0.00333465,-0.00333465 -0.00183858,0 -0.00333465,0.00149606 -0.00333465,0.00333465l0 0.069685c0,0.00183858 0.00149606,0.00333465 0.00333465,0.00333465 0.00183858,0 0.00333465,-0.00149606 0.00333465,-0.00333465l0 -0.069685z"/>
      <path id="_523996416" class="fil5" d="M2.76272 3.18194c0,-0.00183858 -0.00149606,-0.00333465 -0.00333465,-0.00333465 -0.00183858,0 -0.00333465,0.00149606 -0.00333465,0.00333465l0 0.069685c0,0.00183858 0.00149606,0.00333465 0.00333465,0.00333465 0.00183858,0 0.00333465,-0.00149606 0.00333465,-0.00333465l0 -0.069685z"/>
      <path id="_523996344" class="fil5" d="M2.78078 3.18194c0,-0.00183858 -0.00149606,-0.00333465 -0.00333465,-0.00333465 -0.00183858,0 -0.00333465,0.00149606 -0.00333465,0.00333465l0 0.069685c0,0.00183858 0.00149606,0.00333465 0.00333465,0.00333465 0.00183858,0 0.00333465,-0.00149606 0.00333465,-0.00333465l0 -0.069685z"/>
      <path id="_502202184" class="fil5" d="M2.79883 3.18194c0,-0.00183858 -0.00149606,-0.00333465 -0.00333465,-0.00333465 -0.00183858,0 -0.00333465,0.00149606 -0.00333465,0.00333465l0 0.069685c0,0.00183858 0.00149606,0.00333465 0.00333465,0.00333465 0.00183858,0 0.00333465,-0.00149606 0.00333465,-0.00333465l0 -0.069685z"/>
      <path id="_502200720" class="fil5" d="M2.81689 3.18194c0,-0.00183858 -0.00149606,-0.00333465 -0.00333465,-0.00333465 -0.00183858,0 -0.00333465,0.00149606 -0.00333465,0.00333465l0 0.069685c0,0.00183858 0.00149606,0.00333465 0.00333465,0.00333465 0.00183858,0 0.00333465,-0.00149606 0.00333465,-0.00333465l0 -0.069685z"/>
      <path id="_502195872" class="fil5" d="M2.83495 3.18194c0,-0.00183858 -0.00149606,-0.00333465 -0.00333465,-0.00333465 -0.00183858,0 -0.00333465,0.00149606 -0.00333465,0.00333465l0 0.069685c0,0.00183858 0.00149606,0.00333465 0.00333465,0.00333465 0.00183858,0 0.00333465,-0.00149606 0.00333465,-0.00333465l0 -0.069685z"/>
      <path id="_502195776" class="fil5" d="M2.8556 3.18194c0,-0.00183858 -0.00149606,-0.00333465 -0.00333465,-0.00333465 -0.00183858,0 -0.00333465,0.00149606 -0.00333465,0.00333465l0 0.069685c0,0.00183858 0.00149606,0.00333465 0.00333465,0.00333465 0.00183858,0 0.00333465,-0.00149606 0.00333465,-0.00333465l0 -0.069685z"/>
      <path id="_502196424" class="fil5" d="M2.87366 3.18194c0,-0.00183858 -0.00149606,-0.00333465 -0.00333465,-0.00333465 -0.00183858,0 -0.00333465,0.00149606 -0.00333465,0.00333465l0 0.069685c0,0.00183858 0.00149606,0.00333465 0.00333465,0.00333465 0.00183858,0 0.00333465,-0.00149606 0.00333465,-0.00333465l0 -0.069685z"/>
      <path id="_502195968" class="fil5" d="M2.89172 3.18194c0,-0.00183858 -0.00149606,-0.00333465 -0.00333465,-0.00333465 -0.00183858,0 -0.00333465,0.00149606 -0.00333465,0.00333465l0 0.069685c0,0.00183858 0.00149606,0.00333465 0.00333465,0.00333465 0.00183858,0 0.00333465,-0.00149606 0.00333465,-0.00333465l0 -0.069685z"/>
      <path id="_502196112" class="fil5" d="M2.90978 3.18194c0,-0.00183858 -0.00149606,-0.00333465 -0.00333465,-0.00333465 -0.00183858,0 -0.00333465,0.00149606 -0.00333465,0.00333465l0 0.069685c0,0.00183858 0.00149606,0.00333465 0.00333465,0.00333465 0.00183858,0 0.00333465,-0.00149606 0.00333465,-0.00333465l0 -0.069685z"/>
      <path id="_502195800" class="fil5" d="M2.92783 3.18194c0,-0.00183858 -0.00149606,-0.00333465 -0.00333465,-0.00333465 -0.00183858,0 -0.00333465,0.00149606 -0.00333465,0.00333465l0 0.069685c0,0.00183858 0.00149606,0.00333465 0.00333465,0.00333465 0.00183858,0 0.00333465,-0.00149606 0.00333465,-0.00333465l0 -0.069685z"/>
      <path id="_502196280" class="fil5" d="M2.94589 3.18194c0,-0.00183858 -0.00149606,-0.00333465 -0.00333465,-0.00333465 -0.00183858,0 -0.00333465,0.00149606 -0.00333465,0.00333465l0 0.069685c0,0.00183858 0.00149606,0.00333465 0.00333465,0.00333465 0.00183858,0 0.00333465,-0.00149606 0.00333465,-0.00333465l0 -0.069685z"/>
      <path id="_502196184" class="fil5" d="M2.96395 3.18194c0,-0.00183858 -0.00149606,-0.00333465 -0.00333465,-0.00333465 -0.00183858,0 -0.00333465,0.00149606 -0.00333465,0.00333465l0 0.069685c0,0.00183858 0.00149606,0.00333465 0.00333465,0.00333465 0.00183858,0 0.00333465,-0.00149606 0.00333465,-0.00333465l0 -0.069685z"/>
      <path id="_502195680" class="fil5" d="M2.98201 3.18194c0,-0.00183858 -0.00149606,-0.00333465 -0.00333465,-0.00333465 -0.00183858,0 -0.00333465,0.00149606 -0.00333465,0.00333465l0 0.069685c0,0.00183858 0.00149606,0.00333465 0.00333465,0.00333465 0.00183858,0 0.00333465,-0.00149606 0.00333465,-0.00333465l0 -0.069685z"/>
     </g>
    </g>
    <g>
     <g>
      <polygon id="_502195296" class="fil2" points="1.35487,5.73744 1.25392,5.71896 1.29223,5.99143 "/>
      <circle id="_502195200" class="fil6" cx="1.40425" cy="5.37347" r="0.123896"/>
      <polygon id="_502195656" class="fil7" points="1.8929,2.09253 1.97736,2.1092 2.0771,2.35648 1.34887,5.76551 1.25926,5.78659 1.16779,5.5546 "/>
      <circle id="_502195488" class="fil8" cx="1.40426" cy="5.37346" r="0.0347165"/>
     </g>
     <circle id="_502194984" class="fil9" cx="1.77231" cy="3.20424" r="0.0592717"/>
    </g>
    <polygon id="_502195032" class="fil7" points="2.32319,2.08494 2.23824,2.09893 2.13072,2.34293 2.75059,5.77331 2.83949,5.79722 2.93826,5.56824 "/>
    <circle id="_502194264" class="fil10" transform="matrix(-1.24594 -0.0394891 -0.0394891 1.24594 2.70765 5.37971)" r="0.0993898"/>
    <circle id="_502194576" class="fil11" transform="matrix(-0.621484 -0.0196975 -0.0196975 0.621484 2.70765 5.37971)" r="0.0347165"/>
    <g>
     <rect id="_502194816" class="fil3" x="2.95548" y="3.1449" width="0.129193" height="0.143772" rx="0.0299528" ry="0.0299528"/>
     <path id="_502194672" class="fil4" d="M3.08467 3.25167l0 0.00705512c0,0.0164764 -0.0134764,0.0299528 -0.0299528,0.0299528l-0.0692874 0c-0.0164764,0 -0.0299528,-0.0134764 -0.0299528,-0.0299528l0 -0.00705512 0.129193 0z"/>
     <path id="_502194696" class="fil4" d="M3.07829 3.15643c0.00398819,0.00509055 0.00637795,0.0114882 0.00637795,0.0184213l0 0.00709055 -0.129193 0 0 -0.00709055c0,-0.00693307 0.00238976,-0.0133307 0.00637795,-0.0184213l0.116437 0z"/>
    </g>
    <circle id="_502210296" class="fil9" cx="2.40348" cy="3.20424" r="0.0592717"/>
    <ellipse id="_502210320" class="fil4" cx="2.09717" cy="3.19974" rx="0.0425433" ry="0.254677"/>
    <path id="_502209792" class="fil12" d="M2.10427 1.55495c0.113551,0 0.21637,0.0460276 0.290787,0.120445 0.0744134,0.0744173 0.120445,0.177232 0.120445,0.290787 0,0.113551 -0.0460315,0.216366 -0.120445,0.290783 -0.0744173,0.0744173 -0.177236,0.120445 -0.290787,0.120445 -0.113551,0 -0.216366,-0.0460315 -0.290783,-0.120445 -0.0744173,-0.0744173 -0.120445,-0.177232 -0.120445,-0.290783 0,-0.113551 0.0460276,-0.21637 0.120445,-0.290787 0.0744173,-0.0744134 0.177232,-0.120445 0.290783,-0.120445zm0.262504 0.148728c-0.0671772,-0.0671772 -0.159992,-0.108728 -0.262504,-0.108728 -0.102512,0 -0.195327,0.0415551 -0.2625,0.108728 -0.0671772,0.0671772 -0.108728,0.159992 -0.108728,0.262504 0,0.102512 0.0415512,0.195323 0.108728,0.2625 0.0671732,0.0671732 0.159988,0.108728 0.2625,0.108728 0.102512,0 0.195327,-0.0415512 0.262504,-0.108728 0.0671732,-0.0671732 0.108728,-0.159988 0.108728,-0.2625 0,-0.102516 -0.0415551,-0.195331 -0.108728,-0.262504z"/>
    <circle id="_502209576" class="fil9" cx="2.11308" cy="2.29632" r="0.11663"/>
    <path id="_502209696" class="fil7" d="M2.1103 0.849157l3.93701e-006 0c0.0538622,0 0.101075,0.0441772 0.0979291,0.0979291l-0.0397244 0.678039c-0.000531496,0.00912598 -0.00752362,0.0166654 -0.0166654,0.0166654l-0.0924291 0c-0.00914173,0 -0.0162598,-0.00750787 -0.0166654,-0.0166654l-0.030378 -0.678039c-0.00240551,-0.053811 0.0440669,-0.0979291 0.0979291,-0.0979291z"/>
    <path id="_502209552" class="fil13" d="M2.17828 1.45842l-0.00976772 0.166709c-0.000531496,0.00912598 -0.00752362,0.0166654 -0.0166654,0.0166654l-0.0924291 0c-0.00914173,0 -0.0162598,-0.00750787 -0.0166654,-0.0166654l-0.0074685 -0.166709 0.142996 0z"/>
    <path id="_502209864" class="fil14" d="M2.11418 0.912295c1.9685e-005,-0.00274803 -0.00219291,-0.005 -0.00494094,-0.00501969 -0.00274803,-1.9685e-005 -0.005,0.00219291 -0.00501969,0.00494094l-0.00446063 0.524181c-1.9685e-005,0.00274803 0.00219291,0.005 0.00494094,0.00501969 0.00274803,1.9685e-005 0.005,-0.00219291 0.00501969,-0.00494094l0.00446063 -0.524181zm0.065189 -0.00138976c6.29921e-005,-0.00274803 -0.00211417,-0.00503543 -0.0048622,-0.00509843 -0.00274803,-6.29921e-005 -0.00503543,0.00211417 -0.00509843,0.0048622l-0.0131969 0.52565c-6.29921e-005,0.00274803 0.00211417,0.00503543 0.0048622,0.00509843 0.00274803,6.29921e-005 0.00503543,-0.00211417 0.00509843,-0.0048622l0.0131969 -0.52565zm-0.0227126 0c6.29921e-005,-0.00274803 -0.00211417,-0.00503543 -0.0048622,-0.00509843 -0.00274803,-6.29921e-005 -0.00503543,0.00211417 -0.00509843,0.0048622l-0.0131969 0.52565c-6.29921e-005,0.00274803 0.00211417,0.00503543 0.0048622,0.00509843 0.00274803,6.29921e-005 0.00503543,-0.00211417 0.00509843,-0.0048622l0.0131969 -0.52565zm-0.105398 -0.00023622c-6.29921e-005,-0.00274803 -0.00235039,-0.0049252 -0.00509843,-0.0048622 -0.00274803,6.29921e-005 -0.0049252,0.00235039 -0.0048622,0.00509843l0.0131969 0.52565c6.29921e-005,0.00274803 0.00235039,0.0049252 0.00509843,0.0048622 0.00274803,-6.29921e-005 0.0049252,-0.00235039 0.0048622,-0.00509843l-0.0131969 -0.52565zm0.0227126 0c-6.29921e-005,-0.00274803 -0.00235039,-0.0049252 -0.00509843,-0.0048622 -0.00274803,6.29921e-005 -0.0049252,0.00235039 -0.0048622,0.00509843l0.0131969 0.52565c6.29921e-005,0.00274803 0.00235039,0.0049252 0.00509843,0.0048622 0.00274803,-6.29921e-005 0.0049252,-0.00235039 0.0048622,-0.00509843l-0.0131969 -0.52565z"/>
   </g>
   <polygon id="_502209096" class="fil15" points="5.33971,0.825756 4.49614,0.825756 4.49614,5.94576 5.33971,5.94576 "/>
   <g>
    <g>
     <g>
      <path id="_502208976" class="fil16" d="M4.16638 5.17819l0 -0.0201299 0.224567 0c0.00440157,0 0.00797244,0.00450394 0.00797244,0.010063 0,0.00555906 -0.00357087,0.0100669 -0.00797244,0.0100669l-0.224567 0z"/>
      <path id="_502209264" class="fil16" d="M4.16638 5.23705l0 -0.0201299 0.150409 0c0.00294882,0 0.00533858,0.00450394 0.00533858,0.010063 0,0.00555906 -0.00238976,0.0100669 -0.00533858,0.0100669l-0.150409 0z"/>
      <path id="_502208928" class="fil16" d="M4.16638 5.2959l0 -0.0201299 0.150409 0c0.00294882,0 0.00533858,0.00450394 0.00533858,0.010063 0,0.00555906 -0.00238976,0.0100669 -0.00533858,0.0100669l-0.150409 0z"/>
      <path id="_502209312" class="fil16" d="M4.16638 5.35476l0 -0.0201299 0.150409 0c0.00294882,0 0.00533858,0.00450394 0.00533858,0.010063 0,0.00555906 -0.00238976,0.0100669 -0.00533858,0.0100669l-0.150409 0z"/>
      <path id="_502209024" class="fil16" d="M4.16638 5.41361l0 -0.0201299 0.150409 0c0.00294882,0 0.00533858,0.00450787 0.00533858,0.010063 0,0.00555906 -0.00238976,0.0100669 -0.00533858,0.0100669l-0.150409 0z"/>
      <path id="_502209120" class="fil16" d="M4.16638 5.47247l0 -0.0201299 0.150409 0c0.00294882,0 0.00533858,0.00450787 0.00533858,0.010063 0,0.00555906 -0.00238976,0.0100669 -0.00533858,0.0100669l-0.150409 0z"/>
      <path id="_502208952" class="fil16" d="M4.16638 5.53132l0 -0.0201299 0.150409 0c0.00294882,0 0.00533858,0.00450787 0.00533858,0.010063 0,0.00555906 -0.00238976,0.0100669 -0.00533858,0.0100669l-0.150409 0z"/>
     </g>
     <g>
      <path id="_502208904" class="fil16" d="M4.16638 5.59263l0 -0.0201299 0.224567 0c0.00440157,0 0.00797244,0.00450787 0.00797244,0.010063 0,0.00555906 -0.00357087,0.0100669 -0.00797244,0.0100669l-0.224567 0z"/>
      <path id="_502208760" class="fil16" d="M4.16638 5.65148l0 -0.0201299 0.150409 0c0.00294882,0 0.00533858,0.00450787 0.00533858,0.010063 0,0.00555906 -0.00238976,0.0100669 -0.00533858,0.0100669l-0.150409 0z"/>
      <path id="_502208376" class="fil16" d="M4.16638 5.71033l0 -0.0201299 0.150409 0c0.00294882,0 0.00533858,0.00450787 0.00533858,0.010063 0,0.00555906 -0.00238976,0.0100669 -0.00533858,0.0100669l-0.150409 0z"/>
      <path id="_502208040" class="fil16" d="M4.16638 5.76919l0 -0.0201299 0.150409 0c0.00294882,0 0.00533858,0.00450787 0.00533858,0.010063 0,0.00555906 -0.00238976,0.0100669 -0.00533858,0.0100669l-0.150409 0z"/>
      <path id="_502208064" class="fil16" d="M4.16638 5.82805l0 -0.0201299 0.150409 0c0.00294882,0 0.00533858,0.00450787 0.00533858,0.010063 0,0.00555906 -0.00238976,0.0100669 -0.00533858,0.0100669l-0.150409 0z"/>
      <path id="_502208112" class="fil16" d="M4.16638 5.8869l0 -0.0201299 0.150409 0c0.00294882,0 0.00533858,0.00450787 0.00533858,0.010063 0,0.00555906 -0.00238976,0.0100669 -0.00533858,0.0100669l-0.150409 0z"/>
      <path id="_502208352" class="fil16" d="M4.16638 5.94576l0 -0.0201299 0.150409 0c0.00294882,0 0.00533858,0.00450787 0.00533858,0.010063 0,0.00555906 -0.00238976,0.0100669 -0.00533858,0.0100669l-0.150409 0z"/>
     </g>
     <g>
      <g>
       <path id="_502208664" class="fil16" d="M4.16638 4.32919l0 -0.0201299 0.224567 0c0.00440157,0 0.00797244,0.00450787 0.00797244,0.0100669 0,0.00555512 -0.00357087,0.010063 -0.00797244,0.010063l-0.224567 0z"/>
       <path id="_502208184" class="fil16" d="M4.16638 4.38805l0 -0.0201299 0.150409 0c0.00294882,0 0.00533858,0.00450787 0.00533858,0.0100669 0,0.00555512 -0.00238976,0.010063 -0.00533858,0.010063l-0.150409 0z"/>
       <path id="_502208472" class="fil16" d="M4.16638 4.4469l0 -0.0201299 0.150409 0c0.00294882,0 0.00533858,0.00450787 0.00533858,0.0100669 0,0.00555512 -0.00238976,0.010063 -0.00533858,0.010063l-0.150409 0z"/>
       <path id="_502207992" class="fil16" d="M4.16638 4.50576l0 -0.0201299 0.150409 0c0.00294882,0 0.00533858,0.00450787 0.00533858,0.0100669 0,0.00555512 -0.00238976,0.010063 -0.00533858,0.010063l-0.150409 0z"/>
       <path id="_502208568" class="fil16" d="M4.16638 4.56461l0 -0.0201299 0.150409 0c0.00294882,0 0.00533858,0.00450787 0.00533858,0.0100669 0,0.00555906 -0.00238976,0.010063 -0.00533858,0.010063l-0.150409 0z"/>
       <path id="_502207272" class="fil16" d="M4.16638 4.62347l0 -0.0201299 0.150409 0c0.00294882,0 0.00533858,0.00450787 0.00533858,0.0100669 0,0.00555906 -0.00238976,0.010063 -0.00533858,0.010063l-0.150409 0z"/>
       <path id="_502207512" class="fil16" d="M4.16638 4.68232l0 -0.0201299 0.150409 0c0.00294882,0 0.00533858,0.00450787 0.00533858,0.0100669 0,0.00555906 -0.00238976,0.010063 -0.00533858,0.010063l-0.150409 0z"/>
      </g>
      <g>
       <path id="_502207368" class="fil16" d="M4.16638 4.74363l0 -0.0201299 0.224567 0c0.00440157,0 0.00797244,0.00450787 0.00797244,0.0100669 0,0.00555906 -0.00357087,0.010063 -0.00797244,0.010063l-0.224567 0z"/>
       <path id="_502207320" class="fil16" d="M4.16638 4.80248l0 -0.0201299 0.150409 0c0.00294882,0 0.00533858,0.00450787 0.00533858,0.0100669 0,0.00555906 -0.00238976,0.010063 -0.00533858,0.010063l-0.150409 0z"/>
       <path id="_502207392" class="fil16" d="M4.16638 4.86133l0 -0.0201299 0.150409 0c0.00294882,0 0.00533858,0.00450787 0.00533858,0.0100669 0,0.00555906 -0.00238976,0.010063 -0.00533858,0.010063l-0.150409 0z"/>
       <path id="_502207920" class="fil16" d="M4.16638 4.92019l0 -0.0201299 0.150409 0c0.00294882,0 0.00533858,0.00450787 0.00533858,0.0100669 0,0.00555906 -0.00238976,0.010063 -0.00533858,0.010063l-0.150409 0z"/>
       <path id="_502207464" class="fil16" d="M4.16638 4.97905l0 -0.0201299 0.150409 0c0.00294882,0 0.00533858,0.00450394 0.00533858,0.010063 0,0.00555906 -0.00238976,0.0100669 -0.00533858,0.0100669l-0.150409 0z"/>
       <path id="_502207752" class="fil16" d="M4.16638 5.03791l0 -0.0201299 0.150409 0c0.00294882,0 0.00533858,0.00450394 0.00533858,0.010063 0,0.00555906 -0.00238976,0.0100669 -0.00533858,0.0100669l-0.150409 0z"/>
       <path id="_502207656" class="fil16" d="M4.16638 5.09676l0 -0.0201299 0.150409 0c0.00294882,0 0.00533858,0.00450394 0.00533858,0.010063 0,0.00555906 -0.00238976,0.0100669 -0.00533858,0.0100669l-0.150409 0z"/>
      </g>
     </g>
     <g>
      <g>
       <path id="_502206600" class="fil16" d="M4.16638 3.50232l0 -0.0201299 0.224567 0c0.00440157,0 0.00797244,0.00450787 0.00797244,0.010063 0,0.00555906 -0.00357087,0.0100669 -0.00797244,0.0100669l-0.224567 0z"/>
       <path id="_502206552" class="fil16" d="M4.16638 3.56117l0 -0.0201299 0.150409 0c0.00294882,0 0.00533858,0.00450787 0.00533858,0.010063 0,0.00555906 -0.00238976,0.0100669 -0.00533858,0.0100669l-0.150409 0z"/>
       <path id="_502207128" class="fil16" d="M4.16638 3.62003l0 -0.0201299 0.150409 0c0.00294882,0 0.00533858,0.00450787 0.00533858,0.010063 0,0.00555906 -0.00238976,0.0100669 -0.00533858,0.0100669l-0.150409 0z"/>
       <path id="_502206960" class="fil16" d="M4.16638 3.67888l0 -0.0201299 0.150409 0c0.00294882,0 0.00533858,0.00450787 0.00533858,0.010063 0,0.00555906 -0.00238976,0.0100669 -0.00533858,0.0100669l-0.150409 0z"/>
       <path id="_502206768" class="fil16" d="M4.16638 3.73774l0 -0.0201299 0.150409 0c0.00294882,0 0.00533858,0.00450787 0.00533858,0.0100669 0,0.00555512 -0.00238976,0.010063 -0.00533858,0.010063l-0.150409 0z"/>
       <path id="_502206816" class="fil16" d="M4.16638 3.79659l0 -0.0201299 0.150409 0c0.00294882,0 0.00533858,0.00450787 0.00533858,0.0100669 0,0.00555512 -0.00238976,0.010063 -0.00533858,0.010063l-0.150409 0z"/>
       <path id="_502206720" class="fil16" d="M4.16638 3.85545l0 -0.0201299 0.150409 0c0.00294882,0 0.00533858,0.00450787 0.00533858,0.0100669 0,0.00555512 -0.00238976,0.010063 -0.00533858,0.010063l-0.150409 0z"/>
      </g>
      <g>
       <path id="_502206456" class="fil16" d="M4.16638 3.91675l0 -0.0201299 0.224567 0c0.00440157,0 0.00797244,0.00450787 0.00797244,0.010063 0,0.00555906 -0.00357087,0.0100669 -0.00797244,0.0100669l-0.224567 0z"/>
       <path id="_502207032" class="fil16" d="M4.16638 3.97561l0 -0.0201299 0.150409 0c0.00294882,0 0.00533858,0.00450787 0.00533858,0.010063 0,0.00555906 -0.00238976,0.0100669 -0.00533858,0.0100669l-0.150409 0z"/>
       <path id="_502205856" class="fil16" d="M4.16638 4.03446l0 -0.0201299 0.150409 0c0.00294882,0 0.00533858,0.00450787 0.00533858,0.010063 0,0.00555906 -0.00238976,0.0100669 -0.00533858,0.0100669l-0.150409 0z"/>
       <path id="_502205712" class="fil16" d="M4.16638 4.09331l0 -0.0201299 0.150409 0c0.00294882,0 0.00533858,0.00450787 0.00533858,0.010063 0,0.00555906 -0.00238976,0.0100669 -0.00533858,0.0100669l-0.150409 0z"/>
       <path id="_502206192" class="fil16" d="M4.16638 4.15217l0 -0.0201299 0.150409 0c0.00294882,0 0.00533858,0.00450787 0.00533858,0.0100669 0,0.00555512 -0.00238976,0.010063 -0.00533858,0.010063l-0.150409 0z"/>
       <path id="_502206144" class="fil16" d="M4.16638 4.21103l0 -0.0201299 0.150409 0c0.00294882,0 0.00533858,0.00450787 0.00533858,0.0100669 0,0.00555512 -0.00238976,0.010063 -0.00533858,0.010063l-0.150409 0z"/>
       <path id="_502205688" class="fil16" d="M4.16638 4.26988l0 -0.0201299 0.150409 0c0.00294882,0 0.00533858,0.00450787 0.00533858,0.0100669 0,0.00555512 -0.00238976,0.010063 -0.00533858,0.010063l-0.150409 0z"/>
      </g>
      <g>
       <g>
        <path id="_502206384" class="fil16" d="M4.16638 2.65332l0 -0.0201299 0.224567 0c0.00440157,0 0.00797244,0.00450787 0.00797244,0.0100669 0,0.00555906 -0.00357087,0.010063 -0.00797244,0.010063l-0.224567 0z"/>
        <path id="_502205928" class="fil16" d="M4.16638 2.71217l0 -0.0201299 0.150409 0c0.00294882,0 0.00533858,0.00450787 0.00533858,0.0100669 0,0.00555906 -0.00238976,0.010063 -0.00533858,0.010063l-0.150409 0z"/>
        <path id="_502206240" class="fil16" d="M4.16638 2.77103l0 -0.0201299 0.150409 0c0.00294882,0 0.00533858,0.00450787 0.00533858,0.0100669 0,0.00555906 -0.00238976,0.010063 -0.00533858,0.010063l-0.150409 0z"/>
        <path id="_502206120" class="fil16" d="M4.16638 2.82988l0 -0.0201299 0.150409 0c0.00294882,0 0.00533858,0.00450787 0.00533858,0.0100669 0,0.00555906 -0.00238976,0.010063 -0.00533858,0.010063l-0.150409 0z"/>
        <path id="_502205832" class="fil16" d="M4.16638 2.88874l0 -0.0201299 0.150409 0c0.00294882,0 0.00533858,0.00450394 0.00533858,0.010063 0,0.00555906 -0.00238976,0.0100669 -0.00533858,0.0100669l-0.150409 0z"/>
        <path id="_502205376" class="fil16" d="M4.16638 2.9476l0 -0.0201299 0.150409 0c0.00294882,0 0.00533858,0.00450394 0.00533858,0.010063 0,0.00555906 -0.00238976,0.0100669 -0.00533858,0.0100669l-0.150409 0z"/>
        <path id="_502205208" class="fil16" d="M4.16638 3.00645l0 -0.0201299 0.150409 0c0.00294882,0 0.00533858,0.00450394 0.00533858,0.010063 0,0.00555906 -0.00238976,0.0100669 -0.00533858,0.0100669l-0.150409 0z"/>
       </g>
       <g>
        <path id="_502205232" class="fil16" d="M4.16638 3.06776l0 -0.0201299 0.224567 0c0.00440157,0 0.00797244,0.00450394 0.00797244,0.010063 0,0.00555906 -0.00357087,0.0100669 -0.00797244,0.0100669l-0.224567 0z"/>
        <path id="_502205184" class="fil16" d="M4.16638 3.12661l0 -0.0201299 0.150409 0c0.00294882,0 0.00533858,0.00450394 0.00533858,0.010063 0,0.00555906 -0.00238976,0.0100669 -0.00533858,0.0100669l-0.150409 0z"/>
        <path id="_502204944" class="fil16" d="M4.16638 3.18546l0 -0.0201299 0.150409 0c0.00294882,0 0.00533858,0.00450394 0.00533858,0.010063 0,0.00555906 -0.00238976,0.0100669 -0.00533858,0.0100669l-0.150409 0z"/>
        <path id="_502204920" class="fil16" d="M4.16638 3.24432l0 -0.0201299 0.150409 0c0.00294882,0 0.00533858,0.00450394 0.00533858,0.010063 0,0.00555906 -0.00238976,0.0100669 -0.00533858,0.0100669l-0.150409 0z"/>
        <path id="_502204896" class="fil16" d="M4.16638 3.30318l0 -0.0201299 0.150409 0c0.00294882,0 0.00533858,0.00450787 0.00533858,0.010063 0,0.00555906 -0.00238976,0.0100669 -0.00533858,0.0100669l-0.150409 0z"/>
        <path id="_502205136" class="fil16" d="M4.16638 3.36203l0 -0.0201299 0.150409 0c0.00294882,0 0.00533858,0.00450787 0.00533858,0.010063 0,0.00555906 -0.00238976,0.0100669 -0.00533858,0.0100669l-0.150409 0z"/>
        <path id="_502205400" class="fil16" d="M4.16638 3.42089l0 -0.0201299 0.150409 0c0.00294882,0 0.00533858,0.00450787 0.00533858,0.010063 0,0.00555906 -0.00238976,0.0100669 -0.00533858,0.0100669l-0.150409 0z"/>
       </g>
      </g>
     </g>
     <g>
      <g>
       <path id="_502204800" class="fil16" d="M4.16638 1.80893l0 -0.0201299 0.224567 0c0.00440157,0 0.00797244,0.00450787 0.00797244,0.0100669 0,0.00555906 -0.00357087,0.010063 -0.00797244,0.010063l-0.224567 0z"/>
       <path id="_502204728" class="fil16" d="M4.16638 1.86779l0 -0.0201299 0.150409 0c0.00294882,0 0.00533858,0.00450787 0.00533858,0.0100669 0,0.00555906 -0.00238976,0.010063 -0.00533858,0.010063l-0.150409 0z"/>
       <path id="_502204368" class="fil16" d="M4.16638 1.92664l0 -0.0201299 0.150409 0c0.00294882,0 0.00533858,0.00450787 0.00533858,0.0100669 0,0.00555906 -0.00238976,0.010063 -0.00533858,0.010063l-0.150409 0z"/>
       <path id="_502204704" class="fil16" d="M4.16638 1.9855l0 -0.0201299 0.150409 0c0.00294882,0 0.00533858,0.00450787 0.00533858,0.0100669 0,0.00555906 -0.00238976,0.010063 -0.00533858,0.010063l-0.150409 0z"/>
       <path id="_502204464" class="fil16" d="M4.16638 2.04436l0 -0.0201299 0.150409 0c0.00294882,0 0.00533858,0.00450394 0.00533858,0.010063 0,0.00555906 -0.00238976,0.0100669 -0.00533858,0.0100669l-0.150409 0z"/>
       <path id="_502204752" class="fil16" d="M4.16638 2.10321l0 -0.0201299 0.150409 0c0.00294882,0 0.00533858,0.00450394 0.00533858,0.010063 0,0.00555906 -0.00238976,0.0100669 -0.00533858,0.0100669l-0.150409 0z"/>
       <path id="_502204608" class="fil16" d="M4.16638 2.16207l0 -0.0201299 0.150409 0c0.00294882,0 0.00533858,0.00450394 0.00533858,0.010063 0,0.00555906 -0.00238976,0.0100669 -0.00533858,0.0100669l-0.150409 0z"/>
      </g>
      <g>
       <path id="_502204584" class="fil16" d="M4.16638 2.22337l0 -0.0201299 0.224567 0c0.00440157,0 0.00797244,0.00450394 0.00797244,0.010063 0,0.00555906 -0.00357087,0.0100669 -0.00797244,0.0100669l-0.224567 0z"/>
       <path id="_502204152" class="fil16" d="M4.16638 2.28222l0 -0.0201299 0.150409 0c0.00294882,0 0.00533858,0.00450394 0.00533858,0.010063 0,0.00555906 -0.00238976,0.0100669 -0.00533858,0.0100669l-0.150409 0z"/>
       <path id="_502203720" class="fil16" d="M4.16638 2.34108l0 -0.0201299 0.150409 0c0.00294882,0 0.00533858,0.00450394 0.00533858,0.010063 0,0.00555906 -0.00238976,0.0100669 -0.00533858,0.0100669l-0.150409 0z"/>
       <path id="_502203408" class="fil16" d="M4.16638 2.39993l0 -0.0201299 0.150409 0c0.00294882,0 0.00533858,0.00450394 0.00533858,0.010063 0,0.00555906 -0.00238976,0.0100669 -0.00533858,0.0100669l-0.150409 0z"/>
       <path id="_502204080" class="fil16" d="M4.16638 2.45879l0 -0.0201299 0.150409 0c0.00294882,0 0.00533858,0.00450787 0.00533858,0.010063 0,0.00555906 -0.00238976,0.0100669 -0.00533858,0.0100669l-0.150409 0z"/>
       <path id="_502203984" class="fil16" d="M4.16638 2.51765l0 -0.0201299 0.150409 0c0.00294882,0 0.00533858,0.00450787 0.00533858,0.010063 0,0.00555906 -0.00238976,0.0100669 -0.00533858,0.0100669l-0.150409 0z"/>
       <path id="_502203552" class="fil16" d="M4.16638 2.5765l0 -0.0201299 0.150409 0c0.00294882,0 0.00533858,0.00450787 0.00533858,0.010063 0,0.00555906 -0.00238976,0.0100669 -0.00533858,0.0100669l-0.150409 0z"/>
      </g>
      <g>
       <g>
        <path id="_502203576" class="fil16" d="M4.16638 0.959937l0 -0.0201299 0.224567 0c0.00440157,0 0.00797244,0.00450787 0.00797244,0.010063 0,0.00555906 -0.00357087,0.0100669 -0.00797244,0.0100669l-0.224567 0z"/>
        <path id="_502203888" class="fil16" d="M4.16638 1.01879l0 -0.0201299 0.150409 0c0.00294882,0 0.00533858,0.00450787 0.00533858,0.0100669 0,0.00555512 -0.00238976,0.010063 -0.00533858,0.010063l-0.150409 0z"/>
        <path id="_502203816" class="fil16" d="M4.16638 1.07765l0 -0.0201299 0.150409 0c0.00294882,0 0.00533858,0.00450787 0.00533858,0.0100669 0,0.00555512 -0.00238976,0.010063 -0.00533858,0.010063l-0.150409 0z"/>
        <path id="_502203432" class="fil16" d="M4.16638 1.1365l0 -0.0201299 0.150409 0c0.00294882,0 0.00533858,0.00450787 0.00533858,0.0100669 0,0.00555512 -0.00238976,0.010063 -0.00533858,0.010063l-0.150409 0z"/>
        <path id="_502203960" class="fil16" d="M4.16638 1.19536l0 -0.0201299 0.150409 0c0.00294882,0 0.00533858,0.00450787 0.00533858,0.0100669 0,0.00555512 -0.00238976,0.010063 -0.00533858,0.010063l-0.150409 0z"/>
        <path id="_502202712" class="fil16" d="M4.16638 1.25421l0 -0.0201299 0.150409 0c0.00294882,0 0.00533858,0.00450787 0.00533858,0.0100669 0,0.00555512 -0.00238976,0.010063 -0.00533858,0.010063l-0.150409 0z"/>
        <path id="_502202640" class="fil16" d="M4.16638 1.31307l0 -0.0201299 0.150409 0c0.00294882,0 0.00533858,0.00450787 0.00533858,0.0100669 0,0.00555512 -0.00238976,0.010063 -0.00533858,0.010063l-0.150409 0z"/>
       </g>
       <g>
        <path id="_502203144" class="fil16" d="M4.16638 1.37437l0 -0.0201299 0.224567 0c0.00440157,0 0.00797244,0.00450787 0.00797244,0.0100669 0,0.00555512 -0.00357087,0.010063 -0.00797244,0.010063l-0.224567 0z"/>
        <path id="_502202784" class="fil16" d="M4.16638 1.43322l0 -0.0201299 0.150409 0c0.00294882,0 0.00533858,0.00450787 0.00533858,0.0100669 0,0.00555512 -0.00238976,0.010063 -0.00533858,0.010063l-0.150409 0z"/>
        <path id="_502203192" class="fil16" d="M4.16638 1.49208l0 -0.0201299 0.150409 0c0.00294882,0 0.00533858,0.00450787 0.00533858,0.0100669 0,0.00555512 -0.00238976,0.010063 -0.00533858,0.010063l-0.150409 0z"/>
        <path id="_502202592" class="fil16" d="M4.16638 1.55093l0 -0.0201299 0.150409 0c0.00294882,0 0.00533858,0.00450787 0.00533858,0.0100669 0,0.00555512 -0.00238976,0.010063 -0.00533858,0.010063l-0.150409 0z"/>
        <path id="_502203288" class="fil16" d="M4.16638 1.60979l0 -0.0201299 0.150409 0c0.00294882,0 0.00533858,0.00450787 0.00533858,0.0100669 0,0.00555906 -0.00238976,0.010063 -0.00533858,0.010063l-0.150409 0z"/>
        <path id="_502202904" class="fil16" d="M4.16638 1.66865l0 -0.0201299 0.150409 0c0.00294882,0 0.00533858,0.00450787 0.00533858,0.0100669 0,0.00555906 -0.00238976,0.010063 -0.00533858,0.010063l-0.150409 0z"/>
        <path id="_502203000" class="fil16" d="M4.16638 1.7275l0 -0.0201299 0.150409 0c0.00294882,0 0.00533858,0.00450787 0.00533858,0.0100669 0,0.00555906 -0.00238976,0.010063 -0.00533858,0.010063l-0.150409 0z"/>
       </g>
      </g>
     </g>
    </g>
    <path id="_502202112" class="fil16" d="M4.49481 5.57844l0 0.0182441 -0.0544961 0c0.00495276,0.00667717 0.0086063,0.0145236 0.0109606,0.0235709l-0.013122 0c-0.00122835,-0.00474803 -0.00356299,-0.00993307 -0.00700787,-0.0155236 -0.00345669,-0.00558268 -0.00747638,-0.00941732 -0.0120827,-0.0114843l0 -0.0148071 0.075748 0z"/>
    <path id="_502201992" class="fil16" d="M4.48137 5.14274l0.0134331 0 0 0.0639843c-0.0050748,-0.000708661 -0.00988583,-0.00276772 -0.014437,-0.00625197 -0.00454724,-0.00346063 -0.0105748,-0.0103071 -0.0180866,-0.0205079 -0.00606299,-0.00824409 -0.010189,-0.0132795 -0.0123504,-0.0151417 -0.00298031,-0.00250394 -0.00593307,-0.00377165 -0.00885039,-0.00377165 -0.0032126,0 -0.00568898,0.00109055 -0.0074252,0.00328346 -0.00174016,0.00219291 -0.00260236,0.00520866 -0.00260236,0.00906693 0,0.00381496 0.000913386,0.00683071 0.00272441,0.00909055 0.00182677,0.00223622 0.00484646,0.00355118 0.00905906,0.00390157l-0.00143701 0.018185c-0.00795669,-0.00109055 -0.0136654,-0.00448031 -0.0171378,-0.0102008 -0.00346063,-0.00572441 -0.00520472,-0.0128622 -0.00520472,-0.0214449 0,-0.00939764 0.00201969,-0.0167795 0.00602756,-0.0221457 0.00402362,-0.0053622 0.00900787,-0.00804724 0.0149803,-0.00804724 0.00338583,0 0.00662205,0.000771654 0.00969291,0.00230315 0.0030748,0.0015315 0.0062874,0.00397244 0.00964173,0.00729528 0.00223228,0.00222047 0.00544094,0.00620866 0.00962205,0.0119488 0.0041811,0.00576772 0.00697244,0.0094252 0.00834252,0.0109567 0.00137008,0.00152756 0.00270866,0.00279134 0.00400787,0.00374409l0 -0.036248z"/>
    <path id="_502202496" class="fil16" d="M4.47478 4.77305l-0.0016811 -0.0176496c0.00355906,-0.000574803 0.00628346,-0.00208268 0.00816142,-0.00456693 0.00189764,-0.00246063 0.00284646,-0.00545276 0.00284646,-0.00895669 0,-0.00376772 -0.00114173,-0.00693701 -0.00340551,-0.00951181 -0.00226772,-0.00257087 -0.00530315,-0.00385827 -0.00914961,-0.00385827 -0.0036378,0 -0.00651575,0.00122047 -0.00864173,0.00370472 -0.00214173,0.00246063 -0.00319291,0.00547244 -0.00319291,0.00902362 0,0.00232677 0.000350394,0.00511811 0.00107087,0.00838189l-0.0117677 -0.00201969c8.66142e-005,-0.00494488 -0.000755906,-0.00871654 -0.00254724,-0.0113071 -0.00181102,-0.00259449 -0.00419685,-0.00390157 -0.00718504,-0.00390157 -0.00254331,0 -0.00456299,0.000952756 -0.0060748,0.0028622 -0.00150787,0.00190551 -0.00226378,0.00445276 -0.00226378,0.00760236 0,0.00312598 0.000862205,0.0057874 0.00257874,0.00798031 0.00170472,0.00222047 0.0042126,0.00356693 0.0075,0.00403543l-0.00224803 0.0168307c-0.00456693,-0.0011811 -0.00822047,-0.00292913 -0.0109409,-0.00530315 -0.00272441,-0.00234646 -0.00486614,-0.00565354 -0.0064252,-0.00986614 -0.00156299,-0.00423228 -0.00235827,-0.00895669 -0.00235827,-0.014189 0,-0.00898031 0.00226772,-0.0161654 0.00679921,-0.0215709 0.00370866,-0.00445669 0.00788583,-0.00669291 0.0125591,-0.00669291 0.00661811,0 0.0119055,0.00456299 0.0158386,0.0137008 0.000929134,-0.00545669 0.003,-0.00980315 0.00623228,-0.0130866 0.00321654,-0.00325591 0.00711417,-0.00489764 0.0116811,-0.00489764 0.00661811,0 0.0122598,0.00306299 0.0169291,0.00915748 0.00465354,0.00609843 0.00698819,0.0137008 0.00698819,0.0227913 0,0.00862205 -0.00196457,0.0157677 -0.00588189,0.0214409 -0.00393307,0.00567717 -0.00905906,0.00895669 -0.0154213,0.00986614z"/>
    <path id="_502201896" class="fil16" d="M4.49481 4.30963l-0.0151772 0 0 0.0389724 -0.0126614 0 -0.0479094 -0.0413268 0 -0.0153189 0.0478583 0 0 -0.011815 0.0127126 0 0 0.011815 0.0151772 0 0 0.0176732zm-0.0278898 0l-0.0257795 0 0.0257795 0.0218819 0 -0.0218819z"/>
    <path id="_502202520" class="fil16" d="M4.4754 3.9409l-0.00147638 -0.018185c0.00324803,-0.000507874 0.00583071,-0.00205906 0.00772441,-0.00461024 0.00191732,-0.00255118 0.00286614,-0.00549606 0.00286614,-0.00882283 0,-0.00381102 -0.00123228,-0.00704724 -0.00367323,-0.00968898 -0.00245669,-0.0026378 -0.00616142,-0.0039685 -0.0110984,-0.0039685 -0.00461811,0 -0.00809449,0.00130709 -0.0104134,0.00394488 -0.00231496,0.00261811 -0.00347638,0.0060315 -0.00347638,0.0102244 0,0.00523228 0.00184252,0.00992913 0.00551575,0.0141024l-0.00170472 0.0148071 -0.039252 -0.00935433 0 -0.0482677 0.0135236 0 0 0.0344331 0.0128189 0.0028622c-0.00161417,-0.00408268 -0.00242126,-0.00822835 -0.00242126,-0.0124882 0,-0.00809055 0.00233465,-0.0149646 0.00698819,-0.0205709 0.00466929,-0.00562992 0.0107323,-0.00844882 0.0181772,-0.00844882 0.00620079,0 0.011748,0.00225984 0.0166142,0.00680709 0.00665354,0.00620472 0.00997244,0.0147874 0.00997244,0.0257835 0,0.00880315 -0.00185827,0.0159606 -0.00559843,0.0215039 -0.00374409,0.00554331 -0.00876378,0.00887008 -0.0150866,0.00993701z"/>
    <path id="_502202280" class="fil16" d="M4.43785 3.47243l0.00154724 0.0176693c-0.00288189,0.00042126 -0.00500787,0.00155118 -0.0063937,0.00337008 -0.00137402,0.0018189 -0.00205512,0.00418898 -0.00205512,0.00709843 0,0.00383071 0.00136614,0.00709055 0.00412598,0.00977165 0.00274016,0.00266142 0.00844882,0.00432677 0.017122,0.0050315 -0.00425197,-0.00456299 -0.00637402,-0.0101929 -0.00637402,-0.0169567 0,-0.00762598 0.00229921,-0.0141457 0.00690157,-0.0195787 0.00458268,-0.00543307 0.0105197,-0.00815748 0.0177874,-0.00815748 0.00772835,0 0.0139134,0.0028622 0.0185827,0.00857874 0.00465354,0.00569685 0.00698819,0.0130591 0.00698819,0.0220157 0,0.00960236 -0.00294882,0.0175197 -0.00886614,0.0237008 -0.00592126,0.00618898 -0.0156142,0.00929134 -0.0291024,0.00929134 -0.0138189,0 -0.0237795,-0.00321654 -0.0298898,-0.00966535 -0.00611024,-0.00645276 -0.00916929,-0.0148346 -0.00916929,-0.0251417 0,-0.00723228 0.00161811,-0.0132126 0.00481496,-0.0179606 0.00321654,-0.00474409 0.00786614,-0.00775984 0.0139803,-0.00906693zm0.0315394 0.0413701c0.00468898,0 0.00832283,-0.00135039 0.0108701,-0.00407874 0.00256299,-0.00272441 0.00384646,-0.00585433 0.00384646,-0.00935433 0,-0.0033937 -0.00105512,-0.00618898 -0.00314173,-0.00844882 -0.00209055,-0.00225984 -0.0055315,-0.00337008 -0.0102913,-0.00337008 -0.00490157,0 -0.0085,0.00119685 -0.0107835,0.0036378 -0.00228346,0.00241732 -0.0034252,0.00545276 -0.0034252,0.00908661 0,0.00350394 0.00109055,0.00647244 0.00326772,0.00888976 0.00217717,0.00244094 0.00540945,0.0036378 0.00965748,0.0036378z"/>
    <path id="_502202064" class="fil16" d="M4.43383 3.08943l-0.0134213 0 0 -0.0624134 0.0104843 0c0.00401969,0.00514173 0.00978346,0.010374 0.0172992,0.0157205 0.0075,0.0053189 0.0154882,0.00937795 0.023937,0.0121693 0.00846457,0.00279134 0.0160157,0.00416929 0.0226732,0.00412205l0 0.0176102c-0.0104331,-0.000311024 -0.0210591,-0.00301575 -0.0318937,-0.00816142 -0.0108543,-0.00511811 -0.0205315,-0.0119764 -0.0290787,-0.0205512l0 0.0415039z"/>
    <path id="_502201656" class="fil16" d="M4.45411 2.6519c-0.00158268,0.00472047 -0.00375591,0.00815748 -0.00651575,0.0102874 -0.00275591,0.00214961 -0.00579528,0.0032126 -0.00907874,0.0032126 -0.00562205,0 -0.0102717,-0.00245669 -0.0139409,-0.0074252 -0.00367323,-0.0049685 -0.00551969,-0.0120157 -0.00551969,-0.0211496 0,-0.00904724 0.00184646,-0.0160787 0.00551969,-0.021063 0.00366929,-0.00501181 0.0083189,-0.00751575 0.0139409,-0.00751575 0.00349606,0 0.00660236,0.00114961 0.00934252,0.00345669 0.00272441,0.0022874 0.00481102,0.00551969 0.00625197,0.00966535 0.00166929,-0.00527165 0.00412598,-0.00929134 0.00735827,-0.0120354 0.00321654,-0.00275197 0.00693701,-0.00412598 0.0111535,-0.00412598 0.00697244,0 0.012626,0.00279528 0.0169803,0.00840157 0.00435827,0.00561417 0.00653543,0.013063 0.00653543,0.0223701 0,0.00866929 -0.00179134,0.015878 -0.0053937,0.0216378 -0.00426772,0.00681102 -0.0100945,0.0102008 -0.0175079,0.0102008 -0.0040748,0 -0.00781496,-0.00128346 -0.0112402,-0.00383465 -0.00340551,-0.00254724 -0.00604331,-0.00658268 -0.00788583,-0.0120827zm-0.0145591 -0.00376772c0.00288189,0 0.00512992,-0.00101969 0.00672835,-0.00308268 0.00161811,-0.00206299 0.0024252,-0.0047874 0.0024252,-0.00822441 0,-0.00346063 -0.000807087,-0.00623228 -0.00244488,-0.0083189 -0.00163386,-0.00205906 -0.00388189,-0.00310236 -0.00675984,-0.00310236 -0.00272047,0 -0.00488189,0.00101969 -0.00651575,0.00308661 -0.00162992,0.00205906 -0.00244094,0.00476378 -0.00244094,0.00815748 0,0.0035 0.000822835,0.00629528 0.00246063,0.00838189 0.00164961,0.00205906 0.00382677,0.00310236 0.00654724,0.00310236zm0.0322992 0.00168504c0.00398425,0 0.00709449,-0.0012874 0.00932283,-0.00385827 0.00222835,-0.00257087 0.00333858,-0.0057874 0.00333858,-0.00964567 0,-0.00377165 -0.00107087,-0.00689764 -0.00321654,-0.00935433 -0.00214173,-0.00246457 -0.00523228,-0.00370079 -0.0092874,-0.00370079 -0.00352756,0 -0.00637402,0.00125984 -0.00851575,0.00376378 -0.00214567,0.00250787 -0.00321654,0.00570079 -0.00321654,0.00955512 0,0.00445669 0.00123228,0.00778346 0.00365354,0.00996063 0.00243701,0.00219291 0.0050748,0.00327953 0.00792126,0.00327953z"/>
    <path id="_502201296" class="fil16" d="M4.47737 2.24385l-0.00154331 -0.0176693c0.00284252,-0.000440945 0.00495276,-0.0015748 0.00632283,-0.0033937 0.00136614,-0.00181496 0.00205512,-0.00420866 0.00205512,-0.00720079 0,-0.00377165 -0.00137402,-0.00696457 -0.00411417,-0.00960236 -0.00273622,-0.00266142 -0.0084252,-0.00434646 -0.0170866,-0.00507874 0.00423228,0.00459055 0.00633858,0.0103346 0.00633858,0.0172087 0,0.00749213 -0.00229528,0.0139646 -0.00686614,0.0193976 -0.00458268,0.00542913 -0.0105354,0.00815748 -0.017874,0.00815748 -0.00766142,0 -0.0138228,-0.00287795 -0.0185118,-0.00862205 -0.00466929,-0.00572441 -0.00702756,-0.0130394 -0.00702756,-0.0219055 0,-0.00966929 0.0029685,-0.0175866 0.00888976,-0.0237913 0.00591732,-0.00618898 0.0156457,-0.00929134 0.029189,-0.00929134 0.0138031,0 0.0237441,0.00324016 0.0298543,0.00968898 0.00609449,0.00645276 0.00914961,0.0148583 0.00914961,0.0252126 0,0.00744882 -0.00156299,0.0134528 -0.00470472,0.0180472 -0.00314567,0.00458661 -0.00783465,0.00753543 -0.0140709,0.00884252zm-0.0315906 -0.0413268c-0.00467323,0 -0.00829134,0.00135433 -0.0108583,0.00405906 -0.00257874,0.00270472 -0.0038622,0.00585433 -0.0038622,0.00940157 0,0.00336614 0.00105512,0.00618504 0.00316142,0.00840157 0.00211024,0.00224016 0.00556693,0.00334646 0.0103819,0.00334646 0.0048622,0 0.00844488,-0.00121654 0.0107126,-0.00363386 0.00228346,-0.00241732 0.00342126,-0.00545669 0.00342126,-0.00909055 0,-0.00350394 -0.00108661,-0.00647244 -0.00327953,-0.00887008 -0.00220079,-0.00241732 -0.00542913,-0.00361417 -0.00967717,-0.00361417z"/>
    <path id="_502201200" class="fil16" d="M4.49481 1.82239l0 0.0182402 -0.0544961 0c0.00495276,0.00667717 0.0086063,0.0145236 0.0109606,0.0235748l-0.013122 0c-0.00122835,-0.00474803 -0.00356299,-0.00993701 -0.00700787,-0.0155236 -0.00345669,-0.00558661 -0.00747638,-0.00942126 -0.0120827,-0.0114843l0 -0.0148071 0.075748 0zm-0.075748 -0.0581339c0,-0.00924803 0.00261811,-0.0164488 0.00783465,-0.0216417 0.00616535,-0.0061811 0.0164055,-0.00928346 0.0307165,-0.00928346 0.0142598,0 0.0245157,0.00312598 0.0307677,0.00935433 0.00514567,0.00514173 0.00770866,0.0123228 0.00770866,0.0215709 0,0.00924803 -0.00280709,0.0167165 -0.00846063,0.0223898 -0.00564173,0.00567717 -0.0157047,0.00851575 -0.0301732,0.00851575 -0.0142087,0 -0.0244291,-0.00312598 -0.0306654,-0.00935433 -0.00514173,-0.00514173 -0.00772835,-0.0123268 -0.00772835,-0.0215512zm0.0119961 0c0,0.00219685 0.000562992,0.00416929 0.00166929,0.00589764 0.00112205,0.00172835 0.00312992,0.00308268 0.00600787,0.00403543 0.00374016,0.00124409 0.0100236,0.00188189 0.018878,0.00188189 0.00885039,0 0.0149252,-0.000574803 0.0182283,-0.0016811 0.0033189,-0.00113386 0.00551575,-0.00254724 0.00662205,-0.00425984 0.00108661,-0.00172441 0.00164961,-0.00367717 0.00164961,-0.00587402 0,-0.00221654 -0.000562992,-0.00419291 -0.00168504,-0.00592126 -0.0011063,-0.00172441 -0.00311024,-0.00307874 -0.00598819,-0.0040315 -0.00370472,-0.00124409 -0.00997638,-0.00188583 -0.0188268,-0.00188583 -0.00885433,0 -0.0149252,0.00057874 -0.018248,0.0016811 -0.00329921,0.00113386 -0.00551575,0.00255118 -0.0066378,0.00425984 -0.0011063,0.00172835 -0.00166929,0.0036811 -0.00166929,0.00589764z"/>
   </g>
   <g>
    <g>
     <path id="_502201680" class="fil16" d="M5.66948 1.70737l0 0.0201299 -0.152929 0c-0.00299606,0 -0.00542913,-0.00450394 -0.00542913,-0.010063 0,-0.00555906 0.00243307,-0.0100669 0.00542913,-0.0100669l0.152929 0z"/>
     <path id="_502201560" class="fil16" d="M5.66948 1.64851l0 0.0201299 -0.102429 0c-0.00200787,0 -0.00363386,-0.00450394 -0.00363386,-0.010063 0,-0.00555906 0.00162598,-0.0100669 0.00363386,-0.0100669l0.102429 0z"/>
     <path id="_502201536" class="fil16" d="M5.66948 1.58966l0 0.0201299 -0.102429 0c-0.00200787,0 -0.00363386,-0.00450394 -0.00363386,-0.010063 0,-0.00555906 0.00162598,-0.0100669 0.00363386,-0.0100669l0.102429 0z"/>
     <path id="_502201368" class="fil16" d="M5.66948 1.5308l0 0.0201299 -0.102429 0c-0.00200787,0 -0.00363386,-0.00450394 -0.00363386,-0.010063 0,-0.00555906 0.00162598,-0.0100669 0.00363386,-0.0100669l0.102429 0z"/>
     <path id="_502201320" class="fil16" d="M5.66948 1.47194l0 0.0201299 -0.102429 0c-0.00200787,0 -0.00363386,-0.00450787 -0.00363386,-0.010063 0,-0.00555906 0.00162598,-0.0100669 0.00363386,-0.0100669l0.102429 0z"/>
     <path id="_502200696" class="fil16" d="M5.66948 1.41309l0 0.0201299 -0.102429 0c-0.00200787,0 -0.00363386,-0.00450787 -0.00363386,-0.010063 0,-0.00555906 0.00162598,-0.0100669 0.00363386,-0.0100669l0.102429 0z"/>
     <path id="_502200600" class="fil16" d="M5.66948 1.35424l0 0.0201299 -0.102429 0c-0.00200787,0 -0.00363386,-0.00450787 -0.00363386,-0.010063 0,-0.00555906 0.00162598,-0.0100669 0.00363386,-0.0100669l0.102429 0z"/>
    </g>
    <g>
     <path id="_502200384" class="fil16" d="M5.66948 1.29293l0 0.0201299 -0.152929 0c-0.00299606,0 -0.00542913,-0.00450787 -0.00542913,-0.010063 0,-0.00555906 0.00243307,-0.0100669 0.00542913,-0.0100669l0.152929 0z"/>
     <path id="_502200336" class="fil16" d="M5.66948 1.23408l0 0.0201299 -0.102429 0c-0.00200787,0 -0.00363386,-0.00450787 -0.00363386,-0.010063 0,-0.00555906 0.00162598,-0.0100669 0.00363386,-0.0100669l0.102429 0z"/>
     <path id="_502200840" class="fil16" d="M5.66948 1.17522l0 0.0201299 -0.102429 0c-0.00200787,0 -0.00363386,-0.00450787 -0.00363386,-0.010063 0,-0.00555906 0.00162598,-0.0100669 0.00363386,-0.0100669l0.102429 0z"/>
     <path id="_502201032" class="fil16" d="M5.66948 1.11637l0 0.0201299 -0.102429 0c-0.00200787,0 -0.00363386,-0.00450787 -0.00363386,-0.010063 0,-0.00555906 0.00162598,-0.0100669 0.00363386,-0.0100669l0.102429 0z"/>
     <path id="_502200792" class="fil16" d="M5.66948 1.05751l0 0.0201299 -0.102429 0c-0.00200787,0 -0.00363386,-0.00450787 -0.00363386,-0.010063 0,-0.00555906 0.00162598,-0.0100669 0.00363386,-0.0100669l0.102429 0z"/>
     <path id="_502200960" class="fil16" d="M5.66948 0.998657l0 0.0201299 -0.102429 0c-0.00200787,0 -0.00363386,-0.00450787 -0.00363386,-0.010063 0,-0.00555906 0.00162598,-0.0100669 0.00363386,-0.0100669l0.102429 0z"/>
     <path id="_502200576" class="fil16" d="M5.66948 0.939803l0 0.0201299 -0.102429 0c-0.00200787,0 -0.00363386,-0.00450787 -0.00363386,-0.010063 0,-0.00555906 0.00162598,-0.0100669 0.00363386,-0.0100669l0.102429 0z"/>
    </g>
    <g>
     <g>
      <path id="_502200192" class="fil16" d="M5.66948 2.55637l0 0.0201299 -0.152929 0c-0.00299606,0 -0.00542913,-0.00450787 -0.00542913,-0.0100669 0,-0.00555512 0.00243307,-0.010063 0.00542913,-0.010063l0.152929 0z"/>
      <path id="_502200168" class="fil16" d="M5.66948 2.49751l0 0.0201299 -0.102429 0c-0.00200787,0 -0.00363386,-0.00450787 -0.00363386,-0.0100669 0,-0.00555512 0.00162598,-0.010063 0.00363386,-0.010063l0.102429 0z"/>
      <path id="_502200096" class="fil16" d="M5.66948 2.43866l0 0.0201299 -0.102429 0c-0.00200787,0 -0.00363386,-0.00450787 -0.00363386,-0.0100669 0,-0.00555512 0.00162598,-0.010063 0.00363386,-0.010063l0.102429 0z"/>
      <path id="_502200072" class="fil16" d="M5.66948 2.3798l0 0.0201299 -0.102429 0c-0.00200787,0 -0.00363386,-0.00450787 -0.00363386,-0.0100669 0,-0.00555512 0.00162598,-0.010063 0.00363386,-0.010063l0.102429 0z"/>
      <path id="_502199856" class="fil16" d="M5.66948 2.32094l0 0.0201299 -0.102429 0c-0.00200787,0 -0.00363386,-0.00450787 -0.00363386,-0.0100669 0,-0.00555906 0.00162598,-0.010063 0.00363386,-0.010063l0.102429 0z"/>
      <path id="_502200144" class="fil16" d="M5.66948 2.26209l0 0.0201299 -0.102429 0c-0.00200787,0 -0.00363386,-0.00450787 -0.00363386,-0.0100669 0,-0.00555906 0.00162598,-0.010063 0.00363386,-0.010063l0.102429 0z"/>
      <path id="_502199808" class="fil16" d="M5.66948 2.20324l0 0.0201299 -0.102429 0c-0.00200787,0 -0.00363386,-0.00450787 -0.00363386,-0.0100669 0,-0.00555906 0.00162598,-0.010063 0.00363386,-0.010063l0.102429 0z"/>
     </g>
     <g>
      <path id="_502199952" class="fil16" d="M5.66948 2.14193l0 0.0201299 -0.152929 0c-0.00299606,0 -0.00542913,-0.00450787 -0.00542913,-0.0100669 0,-0.00555906 0.00243307,-0.010063 0.00542913,-0.010063l0.152929 0z"/>
      <path id="_502200000" class="fil16" d="M5.66948 2.08308l0 0.0201299 -0.102429 0c-0.00200787,0 -0.00363386,-0.00450787 -0.00363386,-0.0100669 0,-0.00555906 0.00162598,-0.010063 0.00363386,-0.010063l0.102429 0z"/>
      <path id="_502199640" class="fil16" d="M5.66948 2.02422l0 0.0201299 -0.102429 0c-0.00200787,0 -0.00363386,-0.00450787 -0.00363386,-0.0100669 0,-0.00555906 0.00162598,-0.010063 0.00363386,-0.010063l0.102429 0z"/>
      <path id="_502199064" class="fil16" d="M5.66948 1.96537l0 0.0201299 -0.102429 0c-0.00200787,0 -0.00363386,-0.00450787 -0.00363386,-0.0100669 0,-0.00555906 0.00162598,-0.010063 0.00363386,-0.010063l0.102429 0z"/>
      <path id="_502198968" class="fil16" d="M5.66948 1.90651l0 0.0201299 -0.102429 0c-0.00200787,0 -0.00363386,-0.00450394 -0.00363386,-0.010063 0,-0.00555906 0.00162598,-0.0100669 0.00363386,-0.0100669l0.102429 0z"/>
      <path id="_502198872" class="fil16" d="M5.66948 1.84765l0 0.0201299 -0.102429 0c-0.00200787,0 -0.00363386,-0.00450394 -0.00363386,-0.010063 0,-0.00555906 0.00162598,-0.0100669 0.00363386,-0.0100669l0.102429 0z"/>
      <path id="_502199184" class="fil16" d="M5.66948 1.7888l0 0.0201299 -0.102429 0c-0.00200787,0 -0.00363386,-0.00450394 -0.00363386,-0.010063 0,-0.00555906 0.00162598,-0.0100669 0.00363386,-0.0100669l0.102429 0z"/>
     </g>
    </g>
    <g>
     <g>
      <path id="_502199496" class="fil16" d="M5.66948 3.38324l0 0.0201299 -0.152929 0c-0.00299606,0 -0.00542913,-0.00450787 -0.00542913,-0.010063 0,-0.00555906 0.00243307,-0.0100669 0.00542913,-0.0100669l0.152929 0z"/>
      <path id="_502199016" class="fil16" d="M5.66948 3.32439l0 0.0201299 -0.102429 0c-0.00200787,0 -0.00363386,-0.00450787 -0.00363386,-0.010063 0,-0.00555906 0.00162598,-0.0100669 0.00363386,-0.0100669l0.102429 0z"/>
      <path id="_502199280" class="fil16" d="M5.66948 3.26553l0 0.0201299 -0.102429 0c-0.00200787,0 -0.00363386,-0.00450787 -0.00363386,-0.010063 0,-0.00555906 0.00162598,-0.0100669 0.00363386,-0.0100669l0.102429 0z"/>
      <path id="_502198776" class="fil16" d="M5.66948 3.20668l0 0.0201299 -0.102429 0c-0.00200787,0 -0.00363386,-0.00450787 -0.00363386,-0.010063 0,-0.00555906 0.00162598,-0.0100669 0.00363386,-0.0100669l0.102429 0z"/>
      <path id="_502199112" class="fil16" d="M5.66948 3.14782l0 0.0201299 -0.102429 0c-0.00200787,0 -0.00363386,-0.00450787 -0.00363386,-0.0100669 0,-0.00555512 0.00162598,-0.010063 0.00363386,-0.010063l0.102429 0z"/>
      <path id="_502198200" class="fil16" d="M5.66948 3.08896l0 0.0201299 -0.102429 0c-0.00200787,0 -0.00363386,-0.00450787 -0.00363386,-0.0100669 0,-0.00555512 0.00162598,-0.010063 0.00363386,-0.010063l0.102429 0z"/>
      <path id="_502198032" class="fil16" d="M5.66948 3.03011l0 0.0201299 -0.102429 0c-0.00200787,0 -0.00363386,-0.00450787 -0.00363386,-0.0100669 0,-0.00555512 0.00162598,-0.010063 0.00363386,-0.010063l0.102429 0z"/>
     </g>
     <g>
      <path id="_502198536" class="fil16" d="M5.66948 2.96881l0 0.0201299 -0.152929 0c-0.00299606,0 -0.00542913,-0.00450787 -0.00542913,-0.010063 0,-0.00555906 0.00243307,-0.0100669 0.00542913,-0.0100669l0.152929 0z"/>
      <path id="_502197984" class="fil16" d="M5.66948 2.90995l0 0.0201299 -0.102429 0c-0.00200787,0 -0.00363386,-0.00450787 -0.00363386,-0.010063 0,-0.00555906 0.00162598,-0.0100669 0.00363386,-0.0100669l0.102429 0z"/>
      <path id="_502198632" class="fil16" d="M5.66948 2.8511l0 0.0201299 -0.102429 0c-0.00200787,0 -0.00363386,-0.00450787 -0.00363386,-0.010063 0,-0.00555906 0.00162598,-0.0100669 0.00363386,-0.0100669l0.102429 0z"/>
      <path id="_502198272" class="fil16" d="M5.66948 2.79224l0 0.0201299 -0.102429 0c-0.00200787,0 -0.00363386,-0.00450787 -0.00363386,-0.010063 0,-0.00555906 0.00162598,-0.0100669 0.00363386,-0.0100669l0.102429 0z"/>
      <path id="_502198368" class="fil16" d="M5.66948 2.73339l0 0.0201299 -0.102429 0c-0.00200787,0 -0.00363386,-0.00450787 -0.00363386,-0.0100669 0,-0.00555512 0.00162598,-0.010063 0.00363386,-0.010063l0.102429 0z"/>
      <path id="_502198608" class="fil16" d="M5.66948 2.67453l0 0.0201299 -0.102429 0c-0.00200787,0 -0.00363386,-0.00450787 -0.00363386,-0.0100669 0,-0.00555512 0.00162598,-0.010063 0.00363386,-0.010063l0.102429 0z"/>
      <path id="_502198560" class="fil16" d="M5.66948 2.61568l0 0.0201299 -0.102429 0c-0.00200787,0 -0.00363386,-0.00450787 -0.00363386,-0.0100669 0,-0.00555512 0.00162598,-0.010063 0.00363386,-0.010063l0.102429 0z"/>
     </g>
     <g>
      <g>
       <path id="_502197456" class="fil16" d="M5.66948 4.23224l0 0.0201299 -0.152929 0c-0.00299606,0 -0.00542913,-0.00450787 -0.00542913,-0.0100669 0,-0.00555906 0.00243307,-0.010063 0.00542913,-0.010063l0.152929 0z"/>
       <path id="_502197288" class="fil16" d="M5.66948 4.17339l0 0.0201299 -0.102429 0c-0.00200787,0 -0.00363386,-0.00450787 -0.00363386,-0.0100669 0,-0.00555906 0.00162598,-0.010063 0.00363386,-0.010063l0.102429 0z"/>
       <path id="_502197960" class="fil16" d="M5.66948 4.11453l0 0.0201299 -0.102429 0c-0.00200787,0 -0.00363386,-0.00450787 -0.00363386,-0.0100669 0,-0.00555906 0.00162598,-0.010063 0.00363386,-0.010063l0.102429 0z"/>
       <path id="_502197648" class="fil16" d="M5.66948 4.05568l0 0.0201299 -0.102429 0c-0.00200787,0 -0.00363386,-0.00450787 -0.00363386,-0.0100669 0,-0.00555906 0.00162598,-0.010063 0.00363386,-0.010063l0.102429 0z"/>
       <path id="_502197360" class="fil16" d="M5.66948 3.99681l0 0.0201299 -0.102429 0c-0.00200787,0 -0.00363386,-0.00450394 -0.00363386,-0.010063 0,-0.00555906 0.00162598,-0.0100669 0.00363386,-0.0100669l0.102429 0z"/>
       <path id="_502197240" class="fil16" d="M5.66948 3.93796l0 0.0201299 -0.102429 0c-0.00200787,0 -0.00363386,-0.00450394 -0.00363386,-0.010063 0,-0.00555906 0.00162598,-0.0100669 0.00363386,-0.0100669l0.102429 0z"/>
       <path id="_502197384" class="fil16" d="M5.66948 3.87911l0 0.0201299 -0.102429 0c-0.00200787,0 -0.00363386,-0.00450394 -0.00363386,-0.010063 0,-0.00555906 0.00162598,-0.0100669 0.00363386,-0.0100669l0.102429 0z"/>
      </g>
      <g>
       <path id="_502197480" class="fil16" d="M5.66948 3.8178l0 0.0201299 -0.152929 0c-0.00299606,0 -0.00542913,-0.00450394 -0.00542913,-0.010063 0,-0.00555906 0.00243307,-0.0100669 0.00542913,-0.0100669l0.152929 0z"/>
       <path id="_502197792" class="fil16" d="M5.66948 3.75895l0 0.0201299 -0.102429 0c-0.00200787,0 -0.00363386,-0.00450394 -0.00363386,-0.010063 0,-0.00555906 0.00162598,-0.0100669 0.00363386,-0.0100669l0.102429 0z"/>
       <path id="_502197672" class="fil16" d="M5.66948 3.70009l0 0.0201299 -0.102429 0c-0.00200787,0 -0.00363386,-0.00450394 -0.00363386,-0.010063 0,-0.00555906 0.00162598,-0.0100669 0.00363386,-0.0100669l0.102429 0z"/>
       <path id="_502196544" class="fil16" d="M5.66948 3.64124l0 0.0201299 -0.102429 0c-0.00200787,0 -0.00363386,-0.00450394 -0.00363386,-0.010063 0,-0.00555906 0.00162598,-0.0100669 0.00363386,-0.0100669l0.102429 0z"/>
       <path id="_502196520" class="fil16" d="M5.66948 3.58238l0 0.0201299 -0.102429 0c-0.00200787,0 -0.00363386,-0.00450787 -0.00363386,-0.010063 0,-0.00555906 0.00162598,-0.0100669 0.00363386,-0.0100669l0.102429 0z"/>
       <path id="_502196448" class="fil16" d="M5.66948 3.52353l0 0.0201299 -0.102429 0c-0.00200787,0 -0.00363386,-0.00450787 -0.00363386,-0.010063 0,-0.00555906 0.00162598,-0.0100669 0.00363386,-0.0100669l0.102429 0z"/>
       <path id="_502196616" class="fil16" d="M5.66948 3.46467l0 0.0201299 -0.102429 0c-0.00200787,0 -0.00363386,-0.00450787 -0.00363386,-0.010063 0,-0.00555906 0.00162598,-0.0100669 0.00363386,-0.0100669l0.102429 0z"/>
      </g>
     </g>
    </g>
    <g>
     <g>
      <path id="_502197024" class="fil16" d="M5.66948 5.07663l0 0.0201299 -0.152929 0c-0.00299606,0 -0.00542913,-0.00450787 -0.00542913,-0.0100669 0,-0.00555906 0.00243307,-0.010063 0.00542913,-0.010063l0.152929 0z"/>
      <path id="_502196592" class="fil16" d="M5.66948 5.01777l0 0.0201299 -0.102429 0c-0.00200787,0 -0.00363386,-0.00450787 -0.00363386,-0.0100669 0,-0.00555906 0.00162598,-0.010063 0.00363386,-0.010063l0.102429 0z"/>
      <path id="_502196904" class="fil16" d="M5.66948 4.95892l0 0.0201299 -0.102429 0c-0.00200787,0 -0.00363386,-0.00450787 -0.00363386,-0.0100669 0,-0.00555906 0.00162598,-0.010063 0.00363386,-0.010063l0.102429 0z"/>
      <path id="_502196472" class="fil16" d="M5.66948 4.90006l0 0.0201299 -0.102429 0c-0.00200787,0 -0.00363386,-0.00450787 -0.00363386,-0.0100669 0,-0.00555906 0.00162598,-0.010063 0.00363386,-0.010063l0.102429 0z"/>
      <path id="_502197048" class="fil16" d="M5.66948 4.8412l0 0.0201299 -0.102429 0c-0.00200787,0 -0.00363386,-0.00450394 -0.00363386,-0.010063 0,-0.00555906 0.00162598,-0.0100669 0.00363386,-0.0100669l0.102429 0z"/>
      <path id="_535044072" class="fil16" d="M5.66948 4.78235l0 0.0201299 -0.102429 0c-0.00200787,0 -0.00363386,-0.00450394 -0.00363386,-0.010063 0,-0.00555906 0.00162598,-0.0100669 0.00363386,-0.0100669l0.102429 0z"/>
      <path id="_535052280" class="fil16" d="M5.66948 4.72349l0 0.0201299 -0.102429 0c-0.00200787,0 -0.00363386,-0.00450394 -0.00363386,-0.010063 0,-0.00555906 0.00162598,-0.0100669 0.00363386,-0.0100669l0.102429 0z"/>
     </g>
     <g>
      <path id="_535040184" class="fil16" d="M5.66948 4.66219l0 0.0201299 -0.152929 0c-0.00299606,0 -0.00542913,-0.00450394 -0.00542913,-0.010063 0,-0.00555906 0.00243307,-0.0100669 0.00542913,-0.0100669l0.152929 0z"/>
      <path id="_535030272" class="fil16" d="M5.66948 4.60333l0 0.0201299 -0.102429 0c-0.00200787,0 -0.00363386,-0.00450394 -0.00363386,-0.010063 0,-0.00555906 0.00162598,-0.0100669 0.00363386,-0.0100669l0.102429 0z"/>
      <path id="_535029096" class="fil16" d="M5.66948 4.54448l0 0.0201299 -0.102429 0c-0.00200787,0 -0.00363386,-0.00450394 -0.00363386,-0.010063 0,-0.00555906 0.00162598,-0.0100669 0.00363386,-0.0100669l0.102429 0z"/>
      <path id="_535029048" class="fil16" d="M5.66948 4.48563l0 0.0201299 -0.102429 0c-0.00200787,0 -0.00363386,-0.00450394 -0.00363386,-0.010063 0,-0.00555906 0.00162598,-0.0100669 0.00363386,-0.0100669l0.102429 0z"/>
      <path id="_535029024" class="fil16" d="M5.66948 4.42677l0 0.0201299 -0.102429 0c-0.00200787,0 -0.00363386,-0.00450787 -0.00363386,-0.010063 0,-0.00555906 0.00162598,-0.0100669 0.00363386,-0.0100669l0.102429 0z"/>
      <path id="_535029624" class="fil16" d="M5.66948 4.36791l0 0.0201299 -0.102429 0c-0.00200787,0 -0.00363386,-0.00450787 -0.00363386,-0.010063 0,-0.00555906 0.00162598,-0.0100669 0.00363386,-0.0100669l0.102429 0z"/>
      <path id="_535029456" class="fil16" d="M5.66948 4.30906l0 0.0201299 -0.102429 0c-0.00200787,0 -0.00363386,-0.00450787 -0.00363386,-0.010063 0,-0.00555906 0.00162598,-0.0100669 0.00363386,-0.0100669l0.102429 0z"/>
     </g>
     <g>
      <g>
       <path id="_535028976" class="fil16" d="M5.66948 5.92562l0 0.0201299 -0.152929 0c-0.00299606,0 -0.00542913,-0.00450787 -0.00542913,-0.010063 0,-0.00555906 0.00243307,-0.0100669 0.00542913,-0.0100669l0.152929 0z"/>
       <path id="_535029432" class="fil16" d="M5.66948 5.86677l0 0.0201299 -0.102429 0c-0.00200787,0 -0.00363386,-0.00450787 -0.00363386,-0.0100669 0,-0.00555512 0.00162598,-0.010063 0.00363386,-0.010063l0.102429 0z"/>
       <path id="_535029144" class="fil16" d="M5.66948 5.80791l0 0.0201299 -0.102429 0c-0.00200787,0 -0.00363386,-0.00450787 -0.00363386,-0.0100669 0,-0.00555512 0.00162598,-0.010063 0.00363386,-0.010063l0.102429 0z"/>
       <path id="_535029528" class="fil16" d="M5.66948 5.74906l0 0.0201299 -0.102429 0c-0.00200787,0 -0.00363386,-0.00450787 -0.00363386,-0.0100669 0,-0.00555512 0.00162598,-0.010063 0.00363386,-0.010063l0.102429 0z"/>
       <path id="_535029552" class="fil16" d="M5.66948 5.6902l0 0.0201299 -0.102429 0c-0.00200787,0 -0.00363386,-0.00450787 -0.00363386,-0.0100669 0,-0.00555512 0.00162598,-0.010063 0.00363386,-0.010063l0.102429 0z"/>
       <path id="_535028544" class="fil16" d="M5.66948 5.63135l0 0.0201299 -0.102429 0c-0.00200787,0 -0.00363386,-0.00450787 -0.00363386,-0.0100669 0,-0.00555512 0.00162598,-0.010063 0.00363386,-0.010063l0.102429 0z"/>
       <path id="_535028376" class="fil16" d="M5.66948 5.57249l0 0.0201299 -0.102429 0c-0.00200787,0 -0.00363386,-0.00450787 -0.00363386,-0.0100669 0,-0.00555512 0.00162598,-0.010063 0.00363386,-0.010063l0.102429 0z"/>
      </g>
      <g>
       <path id="_535028712" class="fil16" d="M5.66948 5.51119l0 0.0201299 -0.152929 0c-0.00299606,0 -0.00542913,-0.00450787 -0.00542913,-0.0100669 0,-0.00555512 0.00243307,-0.010063 0.00542913,-0.010063l0.152929 0z"/>
       <path id="_535028928" class="fil16" d="M5.66948 5.45233l0 0.0201299 -0.102429 0c-0.00200787,0 -0.00363386,-0.00450787 -0.00363386,-0.0100669 0,-0.00555512 0.00162598,-0.010063 0.00363386,-0.010063l0.102429 0z"/>
       <path id="_535028256" class="fil16" d="M5.66948 5.39348l0 0.0201299 -0.102429 0c-0.00200787,0 -0.00363386,-0.00450787 -0.00363386,-0.0100669 0,-0.00555512 0.00162598,-0.010063 0.00363386,-0.010063l0.102429 0z"/>
       <path id="_535028784" class="fil16" d="M5.66948 5.33463l0 0.0201299 -0.102429 0c-0.00200787,0 -0.00363386,-0.00450787 -0.00363386,-0.0100669 0,-0.00555512 0.00162598,-0.010063 0.00363386,-0.010063l0.102429 0z"/>
       <path id="_535028280" class="fil16" d="M5.66948 5.27577l0 0.0201299 -0.102429 0c-0.00200787,0 -0.00363386,-0.00450787 -0.00363386,-0.0100669 0,-0.00555906 0.00162598,-0.010063 0.00363386,-0.010063l0.102429 0z"/>
       <path id="_535028880" class="fil16" d="M5.66948 5.21691l0 0.0201299 -0.102429 0c-0.00200787,0 -0.00363386,-0.00450787 -0.00363386,-0.0100669 0,-0.00555906 0.00162598,-0.010063 0.00363386,-0.010063l0.102429 0z"/>
       <path id="_535028424" class="fil16" d="M5.66948 5.15806l0 0.0201299 -0.102429 0c-0.00200787,0 -0.00363386,-0.00450787 -0.00363386,-0.0100669 0,-0.00555906 0.00162598,-0.010063 0.00363386,-0.010063l0.102429 0z"/>
      </g>
     </g>
    </g>
   </g>
  </g>
 </g>
 <rect class="fil17" width="6.82666" height="6.82666"/>
</svg>
