<?xml version="1.0" encoding="UTF-8"?>
<!DOCTYPE svg PUBLIC "-//W3C//DTD SVG 1.1//EN" "http://www.w3.org/Graphics/SVG/1.1/DTD/svg11.dtd">
<!-- Creator: CorelDRAW -->
<svg xmlns="http://www.w3.org/2000/svg" xml:space="preserve" width="2048px" height="2048px" style="shape-rendering:geometricPrecision; text-rendering:geometricPrecision; image-rendering:optimizeQuality; fill-rule:evenodd; clip-rule:evenodd"
viewBox="0 0 2048 2048"
 xmlns:xlink="http://www.w3.org/1999/xlink">
 <defs>
  <style type="text/css">
   <![CDATA[
    .fil2 {fill:none}
    .fil3 {fill:#979797}
    .fil1 {fill:#B8B8B8}
    .fil5 {fill:#E0E1E1}
    .fil0 {fill:#ECECEC}
    .fil4 {fill:#FFFFFE}
   ]]>
  </style>
 </defs>
 <g id="Layer_x0020_1">
  <metadata id="CorelCorpID_0Corel-Layer"/>
  <polygon class="fil0" points="864.001,640.001 1440,640.001 1440,962.552 1248,1056 1132.97,1216 864.001,1216 "/>
  <path class="fil1" d="M1623.13 443.19c44.7154,54.2374 72.3922,128.692 72.3922,210.397l-0.125197 0 0.219685 398.24c-61.2922,-42.2646 -134.163,-65.2276 -209.9,-65.2276 -98.5182,0 -192.181,38.8252 -261.855,108.444 -8.01615,8.01024 -15.6201,16.3394 -22.8106,24.9567l-305.049 0 0 64.0016 262.061 0c-27.9213,52.7221 -42.8705,111.858 -42.8705,172.883 0,84.3438 28.415,165.139 80.2725,230.371l-717.461 0c-71.1497,0 -135.351,-34.6796 -181.541,-90.6957 -44.7414,-54.2563 -72.4619,-128.736 -72.4619,-210.522l0 -632.45c0,-81.717 27.6981,-156.175 72.4571,-210.409 46.1658,-55.9382 110.336,-90.5859 181.546,-90.5859l963.755 0c71.1355,0 135.249,34.6524 181.371,90.5977z"/>
  <rect class="fil2" width="2048" height="2048"/>
  <rect class="fil2" x="255.999" y="255.999" width="1536" height="1536"/>
  <path class="fil3" d="M1485.72 1018.6c93.3816,0 177.954,37.8815 239.179,99.1064 61.2249,61.2249 99.1064,145.799 99.1064,239.179 0,93.4016 -37.8709,177.98 -99.0804,239.237 -61.3004,61.35 -145.89,99.2883 -239.205,99.2883 -93.5009,0 -178.133,-37.8803 -239.39,-99.1359 -61.2556,-61.2556 -99.1359,-145.888 -99.1359,-239.39 0,-93.3154 37.9382,-177.905 99.2883,-239.205 61.2567,-61.2095 145.836,-99.0804 239.237,-99.0804z"/>
  <polygon class="fil4" points="1516.93,1184.06 1516.93,1325 1658.33,1325 1658.33,1389 1516.93,1389 1516.93,1529.53 1452.93,1529.53 1452.93,1389 1312.86,1389 1312.86,1325 1452.93,1325 1452.93,1184.06 "/>
  <path class="fil0" d="M592.001 512c48.5965,0 92.5973,19.7008 124.449,51.5516 31.8496,31.8496 51.5516,75.8516 51.5516,124.449 0,48.5965 -19.7008,92.5973 -51.5516,124.449 -31.852,31.8508 -75.8528,51.5516 -124.449,51.5516 -48.5977,0 -92.5997,-19.702 -124.449,-51.5516 -31.8508,-31.852 -51.5516,-75.8528 -51.5516,-124.449 0,-48.5977 19.702,-92.5997 51.5516,-124.449 31.8496,-31.8496 75.8516,-51.5516 124.449,-51.5516zm-138.001 384l276.001 0c28.0819,0 53.5914,11.4673 72.0615,29.9374 18.4736,18.4736 29.9386,43.9807 29.9386,72.0627l0 148.002c0,28.0819 -11.4673,53.5902 -29.9386,72.0615 -18.4713,18.4713 -43.9807,29.9386 -72.0615,29.9386l-276.001 0c-28.0819,0 -53.589,-11.465 -72.0627,-29.9386 -18.4701,-18.4701 -29.9374,-43.9796 -29.9374,-72.0615l0 -148.002c0,-28.0831 11.4662,-53.5914 29.9374,-72.0627 18.4713,-18.4713 43.9796,-29.9374 72.0627,-29.9374z"/>
  <path class="fil5" d="M592.001 896l0.572835 0 137.427 0c28.0819,0 53.5914,11.4673 72.0615,29.9374 18.4736,18.4736 29.9386,43.9807 29.9386,72.0627l0 148.002c0,28.0819 -11.4673,53.5902 -29.9386,72.0615 -18.4713,18.4713 -43.9807,29.9386 -72.0615,29.9386l-137.821 0 -0.179528 0 0 -352.002z"/>
  <path class="fil0" d="M454 896l138.001 0 0 352.002 -138.001 0c-28.0819,0 -53.589,-11.465 -72.0627,-29.9386 -18.4701,-18.4701 -29.9374,-43.9796 -29.9374,-72.0615l0 -148.002c0,-28.0831 11.4662,-53.5914 29.9374,-72.0627 18.4713,-18.4713 43.9796,-29.9374 72.0627,-29.9374z"/>
  <path class="fil0" d="M592.001 864.002c-48.5977,0 -92.5997,-19.702 -124.449,-51.5516 -31.8508,-31.852 -51.5516,-75.8528 -51.5516,-124.449 0,-48.5977 19.702,-92.5997 51.5516,-124.449 31.8496,-31.8496 75.8516,-51.5516 124.449,-51.5516l0 352.002z"/>
  <path class="fil5" d="M592.001 512l1.00276 0.00590552c48.1985,0.269292 91.8142,19.9146 123.447,51.5457 31.8496,31.8496 51.5516,75.8516 51.5516,124.449 0,48.5965 -19.7008,92.5973 -51.5516,124.449 -31.7185,31.7173 -75.4867,51.3839 -123.841,51.5481l-0.608268 0.00354331 0 -352.002z"/>
  <polygon class="fil0" points="1344,736.001 896,736.001 896,671.999 1344,671.999 "/>
  <polygon class="fil0" points="1344,960.002 896,960.002 896,896 1344,896 "/>
 </g>
</svg>
