<?xml version="1.0" encoding="UTF-8"?>
<!DOCTYPE svg PUBLIC "-//W3C//DTD SVG 1.1//EN" "http://www.w3.org/Graphics/SVG/1.1/DTD/svg11.dtd">
<!-- Creator: CorelDRAW -->
<svg xmlns="http://www.w3.org/2000/svg" xml:space="preserve" width="2048px" height="2048px" style="shape-rendering:geometricPrecision; text-rendering:geometricPrecision; image-rendering:optimizeQuality; fill-rule:evenodd; clip-rule:evenodd"
viewBox="0 0 2048 2048"
 xmlns:xlink="http://www.w3.org/1999/xlink">
 <defs>
  <style type="text/css">
   <![CDATA[
    .fil7 {fill:none}
    .fil5 {fill:#2D2D2D}
    .fil3 {fill:#545454}
    .fil1 {fill:#7E7E7E}
    .fil6 {fill:#8E8E8F}
    .fil0 {fill:#A4A4A5}
    .fil4 {fill:#AEAEAF;fill-rule:nonzero}
    .fil2 {fill:#EDEDEE;fill-rule:nonzero}
   ]]>
  </style>
 </defs>
 <g id="Layer_x0020_1">
  <metadata id="CorelCorpID_0Corel-Layer"/>
  <g id="_426674704">
   <path id="_426675880" class="fil0" d="M459.481 318.525l1017.08 0c17.1496,0 32.6681,7.5756 43.8532,19.7776 10.6677,11.6386 17.2914,27.4949 17.2914,44.7567l0 491.327c0,17.2606 -6.62481,33.117 -17.2914,44.7544 -11.1862,12.2032 -26.7071,19.7788 -43.8532,19.7788l-1017.08 0c-17.1473,0 -32.6681,-7.5756 -43.8532,-19.7788 -10.6689,-11.6362 -17.2914,-27.4925 -17.2914,-44.7544l0 -491.327c0,-17.263 6.62245,-33.1181 17.2902,-44.7567 11.1862,-12.202 26.7047,-19.7776 43.8544,-19.7776z"/>
   <path id="_426675256" class="fil1" d="M569.256 626.522l248.343 -248.342 300.839 0 248.343 248.342 -252.743 252.743 -292.04 0 -252.743 -252.743zm907.301 -272.204l-1017.08 0c-3.36851,0 -6.6626,0.794883 -9.73583,2.22992 -2.98229,1.3937 -5.64095,3.36496 -7.83308,5.75552l0 0.0448819c-2.51457,2.7437 -4.51654,6.03071 -5.8441,9.68268 -1.24725,3.43583 -1.93819,7.16575 -1.93819,11.028l0 491.327c0,3.86103 0.690945,7.59095 1.93819,11.0256 1.32992,3.65433 3.33189,6.94016 5.84528,9.6815 2.23819,2.44488 4.9004,4.43032 7.83308,5.80276 3.07087,1.43504 6.36615,2.2311 9.73465,2.2311l1017.08 0c3.36851,0 6.66378,-0.796064 9.73465,-2.2311 2.93268,-1.37244 5.59371,-3.35788 7.83308,-5.80276 2.51339,-2.74252 4.51654,-6.02835 5.8441,-9.6815 1.24843,-3.43465 1.93937,-7.16339 1.93937,-11.0256l0 -491.327c0,-3.86339 -0.690945,-7.59213 -1.93937,-11.0268 -1.32756,-3.65197 -3.32953,-6.93898 -5.8441,-9.68268l0 -0.046063c-2.19331,-2.39173 -4.85197,-4.363 -7.83308,-5.75552 -3.07087,-1.43504 -6.36497,-2.22992 -9.73465,-2.22992zm-42.2929 272.204l-16.8709 -16.8709 -231.473 -231.471 290.437 0 0.245669 0.248032 0.0212599 -0.0200788c0.375591,0.419292 0.709843,1.0063 0.97441,1.73386 0.288189,0.79252 0.447638,1.77402 0.447638,2.91733l0 491.327c0,1.14213 -0.159449,2.12244 -0.447638,2.91614 -0.269292,0.741733 -0.611811,1.33819 -0.996851,1.75866 -0.0744095,0.0814961 -0.147638,0.15 -0.218504,0.204331l-295.348 0 236.455 -236.455 16.774 -16.2886zm-974.587 -248.342l290.44 0 -231.473 231.471 -16.8709 16.8709 16.774 16.2886 236.455 236.455 -295.349 0c-0.0708662,-0.0543308 -0.144095,-0.122835 -0.218504,-0.204331 -0.38504,-0.420473 -0.72756,-1.01693 -0.996851,-1.75866 -0.287008,-0.791339 -0.446457,-1.77284 -0.446457,-2.91614l0 -491.327c0,-1.14449 0.159449,-2.12599 0.446457,-2.91851 0.264567,-0.72756 0.598819,-1.31457 0.97441,-1.73386l0.022441 0.0200788 0.242126 -0.246851z"/>
   <path id="_426675088" class="fil1" d="M1086.13 510.613c-30.2244,-30.2244 -71.9835,-48.9189 -118.109,-48.9189 -46.1256,0 -87.8847,18.6945 -118.109,48.9189 -30.2244,30.2244 -48.9189,71.9835 -48.9189,118.109 0,46.1256 18.6945,87.8847 48.9189,118.109 30.2244,30.2244 71.9835,48.9189 118.109,48.9189 46.1256,0 87.8847,-18.6945 118.109,-48.9189 30.2244,-30.2244 48.9189,-71.9835 48.9189,-118.109 0,-46.1256 -18.6945,-87.8847 -48.9189,-118.109z"/>
   <path id="_426674752" class="fil2" d="M963.262 693.266l0 -57.2209c-17.8618,-5.12953 -30.9662,-12.8244 -39.3142,-23.1768 -8.30079,-10.3536 -12.4973,-22.898 -12.4973,-37.6347 0,-14.9232 4.71024,-27.4677 14.1307,-37.6347 9.46654,-10.1658 22.011,-15.9957 37.6807,-17.5819l0 -13.5236 19.7728 0 0 13.5236c14.5028,1.77284 26.0221,6.66969 34.6028,14.8311 8.53465,8.16024 13.9913,19.0736 16.3689,32.7378l-34.5567 4.52244c-2.09882,-10.7728 -7.55434,-18.0473 -16.415,-21.8717l0 53.3977c21.8717,5.92205 36.7949,13.6169 44.6764,23.0374 7.92757,9.42048 11.8925,21.4984 11.8925,36.2811 0,16.4622 -4.99016,30.3603 -14.9244,41.6457 -9.98032,11.3315 -23.876,18.2339 -41.6445,20.798l0 25.5567 -19.7728 0 0 -24.9024c-15.763,-1.91221 -28.5874,-7.78819 -38.4272,-17.628 -9.83977,-9.79371 -16.089,-23.6906 -18.841,-41.6457l35.6752 -3.82441c1.44685,7.2756 4.19764,13.5709 8.20867,18.841 3.96378,5.27008 8.44135,9.09331 13.3843,11.4721zm0 -143.449c-5.41063,1.8189 -9.65316,4.94292 -12.8717,9.28111 -3.17126,4.38307 -4.7563,9.23268 -4.7563,14.5028 0,4.80355 1.44567,9.32717 4.33701,13.4315 2.9374,4.1504 7.36772,7.50709 13.291,10.0724l0 -47.2878zm19.7728 145.361c6.85512,-1.25906 12.4039,-4.43032 16.6949,-9.46654 4.28977,-5.08347 6.43583,-11.0055 6.43583,-17.8618 0,-6.10867 -1.8189,-11.3315 -5.40945,-15.763 -3.59055,-4.42914 -9.51379,-7.83308 -17.7213,-10.1658l0 53.2571z"/>
  </g>
  <path class="fil3" d="M271.504 705.61l1393.03 0c17.3079,0 31.4681,14.1614 31.4681,31.4681 0,367.587 0,558.003 0,925.178 0,17.3067 -14.1614,31.4681 -31.4681,31.4681l-1393.03 0c-17.3067,0 -31.4681,-14.1591 -31.4681,-31.4681l0 -925.178c0,-17.3079 14.1602,-31.4681 31.4681,-31.4681z"/>
  <path class="fil4" d="M310.035 805.608l-20.0008 0 0 -39.9992 0 -10.0004 10.0004 0 28.2532 0 0 20.0008 -18.2528 0 0 29.9988zm38.2524 -29.9988l0 -20.0008 39.9992 0 0 20.0008 -39.9992 0zm59.9989 0l0 -20.0008 39.9992 0 0 20.0008 -39.9992 0zm59.9989 0l0 -20.0008 39.9992 0 0 20.0008 -39.9992 0zm59.9989 0l0 -20.0008 39.9992 0 0 20.0008 -39.9992 0zm59.9989 0l0 -20.0008 39.9992 0 0 20.0008 -39.9992 0zm59.9989 0l0 -20.0008 39.9992 0 0 20.0008 -39.9992 0zm59.9989 0l0 -20.0008 39.9992 0 0 20.0008 -39.9992 0zm59.9989 0l0 -20.0008 39.9992 0 0 20.0008 -39.9992 0zm59.9989 0l0 -20.0008 39.9992 0 0 20.0008 -39.9992 0zm59.9989 0l0 -20.0008 39.9992 0 0 20.0008 -39.9992 0zm59.9989 0l0 -20.0008 39.9992 0 0 20.0008 -39.9992 0zm59.9989 0l0 -20.0008 39.9992 0 0 20.0008 -39.9992 0zm59.9989 0l0 -20.0008 39.9992 0 0 20.0008 -39.9992 0zm59.9989 0l0 -20.0008 39.9992 0 0 20.0008 -39.9992 0zm59.9989 0l0 -20.0008 39.9992 0 0 20.0008 -39.9992 0zm59.9989 0l0 -20.0008 39.9992 0 0 20.0008 -39.9992 0zm59.9989 0l0 -20.0008 39.9992 0 0 20.0008 -39.9992 0zm59.9989 0l0 -20.0008 39.9992 0 0 20.0008 -39.9992 0zm59.9989 0l0 -20.0008 39.9992 0 0 20.0008 -39.9992 0zm59.9989 0l0 -20.0008 39.9992 0 0 20.0008 -39.9992 0zm59.9989 0l0 -20.0008 39.9992 0 0 20.0008 -39.9992 0zm59.9989 0l0 -20.0008 27.7394 0 10.0004 0 0 10.0004 0 3.39095 0 3.39095 0 3.39095 0 2.08701 -20.0008 0 0 -2.08701 0 -0.172441 -17.739 0zm17.739 22.2591l0 1.65118 0 3.39095 0 3.39095 0 3.39213 0 3.39095 0 3.39095 0 3.39095 0 3.39095 0 3.39095 0 3.39095 0 3.39095 0 3.39095 0 1.04646 20.0008 0 0 -1.04646 0 -3.39095 0 -3.39095 0 -3.39095 0 -3.39095 0 -3.39095 0 -3.39095 0 -3.39095 0 -3.39095 0 -3.39213 0 -3.39095 0 -3.39095 0 -1.65118 -20.0008 0zm0 59.9989l0 2.69173 0 3.39095 0 3.39095 0 3.39213 0 3.39095 0 3.39095 0 3.39095 0 3.39095 0 3.39095 0 3.39095 0 3.39095 0 3.39213 0 0.00472441 20.0008 0 0 -0.00472441 0 -3.39213 0 -3.39095 0 -3.39095 0 -3.39095 0 -3.39095 0 -3.39095 0 -3.39095 0 -3.39095 0 -3.39213 0 -3.39095 0 -3.39095 0 -2.69173 -20.0008 0zm0 59.9989l0 0.341339 0 3.39095 0 3.39095 0 3.39213 0 3.39095 0 3.39095 0 3.39095 0 3.39095 0 3.39095 0 3.39095 0 3.39095 0 3.39095 0 2.3563 20.0008 0 0 -2.3563 0 -3.39095 0 -3.39095 0 -3.39095 0 -3.39095 0 -3.39095 0 -3.39095 0 -3.39095 0 -3.39095 0 -3.39213 0 -3.39095 0 -3.39095 0 -0.341339 -20.0008 0zm0 59.9989l0 1.38189 0 3.39095 0 3.39095 0 3.39213 0 3.39095 0 3.39095 0 3.39095 0 3.39095 0 3.39095 0 3.39095 0 3.39095 0 3.39095 0 1.31575 20.0008 0 0 -1.31575 0 -3.39095 0 -3.39095 0 -3.39095 0 -3.39095 0 -3.39095 0 -3.39095 0 -3.39095 0 -3.39095 0 -3.39213 0 -3.39095 0 -3.39095 0 -1.38189 -20.0008 0zm0 59.9989l0 2.42244 0 3.39095 0 3.39095 0 3.39213 0 3.39095 0 3.39095 0 3.39095 0 3.39095 0 3.39095 0 3.39095 0 3.39095 0 3.39095 0 0.275197 20.0008 0 0 -0.275197 0 -3.39095 0 -3.39095 0 -3.39095 0 -3.39095 0 -3.39095 0 -3.39095 0 -3.39095 0 -3.39095 0 -3.39213 0 -3.39095 0 -3.39095 0 -2.42244 -20.0008 0zm0 59.9989l0 0.0720473 0 3.39095 0 3.39095 0 3.39095 0 3.39213 0 3.39095 0 3.39095 0 3.39095 0 3.39095 0 3.39095 0 3.39095 0 3.39095 0 2.62559 20.0008 0 0 -2.62559 0 -3.39095 0 -3.39095 0 -3.39095 0 -3.39095 0 -3.39095 0 -3.39095 0 -3.39095 0 -3.39213 0 -3.39095 0 -3.39095 0 -3.39095 0 -0.0720473 -20.0008 0zm0 60l0 1.11142 0 3.39095 0 3.39095 0 3.39095 0 3.39213 0 3.39095 0 3.39095 0 3.39095 0 3.39095 0 3.39095 0 3.39095 0 3.39095 0 1.58622 20.0008 0 0 -1.58622 0 -3.39095 0 -3.39095 0 -3.39095 0 -3.39095 0 -3.39095 0 -3.39095 0 -3.39095 0 -3.39213 0 -3.39095 0 -3.39095 0 -3.39095 0 -1.11142 -20.0008 0zm0 59.9989l0 2.15197 0 3.39095 0 3.39095 0 3.39213 0 3.39095 0 3.39095 0 3.39095 0 3.39095 0 3.39095 0 3.39095 0 3.39095 0 3.39095 0 0.544489 20.0008 0 0 -0.544489 0 -3.39095 0 -3.39095 0 -3.39095 0 -3.39095 0 -3.39095 0 -3.39095 0 -3.39095 0 -3.39095 0 -3.39213 0 -3.39095 0 -3.39095 0 -2.15197 -20.0008 0zm0 59.9977l0 3.1937 0 3.39095 0 3.39095 0 3.39213 0 3.39095 0 3.39095 0 3.39095 0 3.39095 0 3.39095 0 3.39095 0 3.39095 0 2.89488 20.0008 0 0 -2.89488 0 -3.39095 0 -3.39095 0 -3.39095 0 -3.39095 0 -3.39095 0 -3.39095 0 -3.39095 0 -3.39213 0 -3.39095 0 -3.39095 0 -3.1937 -20.0008 0zm0 59.9989l0 0.843308 0 3.39095 0 3.39095 0 3.39095 0 3.39213 0 3.39095 0 3.39095 0 3.39095 0 3.39095 0 3.39095 0 3.39095 0 3.39095 0 1.85433 20.0008 0 0 -1.85433 0 -3.39095 0 -3.39095 0 -3.39095 0 -3.39095 0 -3.39095 0 -3.39095 0 -3.39095 0 -3.39213 0 -3.39095 0 -3.39095 0 -3.39095 0 -0.843308 -20.0008 0zm0 59.9989l0 1.88386 0 3.39095 0 3.39095 0 3.39095 0 3.39213 0 3.39095 0 3.39095 0 3.39095 0 3.39095 0 3.39095 0 3.39095 0 3.39095 0 0.81378 20.0008 0 0 -0.81378 0 -3.39095 0 -3.39095 0 -3.39095 0 -3.39095 0 -3.39095 0 -3.39095 0 -3.39095 0 -3.39213 0 -3.39095 0 -3.39095 0 -3.39095 0 -1.88386 -20.0008 0zm0 59.9989l0 2.92441 0 3.39095 0 3.39095 0 3.39095 0 3.39213 0 3.39095 0 3.39095 0 3.39095 0 3.39095 0 3.39095 0 3.39095 0 3.16418 20.0008 0 0 -3.16418 0 -3.39095 0 -3.39095 0 -3.39095 0 -3.39095 0 -3.39095 0 -3.39095 0 -3.39213 0 -3.39095 0 -3.39095 0 -3.39095 0 -2.92441 -20.0008 0zm0 59.9989l0 0.574016 0 3.39095 0 3.39095 0 3.39095 0 3.39213 0 3.39095 0 3.39095 0 3.39095 0 3.39095 0 3.39095 0 3.39095 0 3.39095 0 2.12362 20.0008 0 0 -2.12362 0 -3.39095 0 -3.39095 0 -3.39095 0 -3.39095 0 -3.39095 0 -3.39095 0 -3.39095 0 -3.39213 0 -3.39095 0 -3.39095 0 -3.39095 0 -0.574016 -20.0008 0zm0 59.9989l0 1.61457 0 3.39095 0 3.39095 0 3.39095 0 3.39213 0 3.39095 0 3.39095 0 3.39095 0 3.39095 0 3.39095 0 3.39095 0 3.39095 0 1.08307 20.0008 0 0 -1.08307 0 -3.39095 0 -3.39095 0 -3.39095 0 -3.39095 0 -3.39095 0 -3.39095 0 -3.39095 0 -3.39213 0 -3.39095 0 -3.39095 0 -3.39095 0 -1.61457 -20.0008 0zm5.87363 45.8717l0 20.0008 -39.9992 0 0 -20.0008 39.9992 0zm-59.9989 0l0 20.0008 -39.9992 0 0 -20.0008 39.9992 0zm-59.9989 0l0 20.0008 -39.9992 0 0 -20.0008 39.9992 0zm-59.9989 0l0 20.0008 -39.9992 0 0 -20.0008 39.9992 0zm-59.9989 0l0 20.0008 -39.9992 0 0 -20.0008 39.9992 0zm-59.9989 0l0 20.0008 -39.9992 0 0 -20.0008 39.9992 0zm-59.9989 0l0 20.0008 -39.9992 0 0 -20.0008 39.9992 0zm-59.9989 0l0 20.0008 -39.9992 0 0 -20.0008 39.9992 0zm-59.9989 0l0 20.0008 -39.9992 0 0 -20.0008 39.9992 0zm-59.9989 0l0 20.0008 -39.9992 0 0 -20.0008 39.9992 0zm-59.9989 0l0 20.0008 -39.9992 0 0 -20.0008 39.9992 0zm-59.9989 0l0 20.0008 -39.9992 0 0 -20.0008 39.9992 0zm-59.9989 0l0 20.0008 -39.9992 0 0 -20.0008 39.9992 0zm-59.9989 0l0 20.0008 -39.9992 0 0 -20.0008 39.9992 0zm-59.9989 0l0 20.0008 -39.9992 0 0 -20.0008 39.9992 0zm-59.9989 0l0 20.0008 -39.9992 0 0 -20.0008 39.9992 0zm-59.9989 0l0 20.0008 -39.9992 0 0 -20.0008 39.9992 0zm-59.9989 0l0 20.0008 -39.9992 0 0 -20.0008 39.9992 0zm-59.9989 0l0 20.0008 -39.9992 0 0 -20.0008 39.9992 0zm-59.9989 0l0 20.0008 -39.9992 0 0 -20.0008 39.9992 0zm-59.9989 0l0 20.0008 -39.9992 0 0 -20.0008 39.9992 0zm-59.9989 0l0 20.0008 -39.9992 0 0 -20.0008 39.9992 0zm-59.9989 0l0 20.0008 -11.8665 0 -10.0004 0 0 -10.0004 0 -28.1327 20.0008 0 0 18.1323 1.86614 0zm-1.86614 -38.1319l-20.0008 0 0 -39.9992 20.0008 0 0 39.9992zm0 -59.9989l-20.0008 0 0 -39.9992 20.0008 0 0 39.9992zm0 -59.9989l-20.0008 0 0 -39.9992 20.0008 0 0 39.9992zm0 -59.9989l-20.0008 0 0 -39.9992 20.0008 0 0 39.9992zm0 -59.9989l-20.0008 0 0 -39.9992 20.0008 0 0 39.9992zm0 -59.9989l-20.0008 0 0 -39.9992 20.0008 0 0 39.9992zm0 -59.9989l-20.0008 0 0 -39.9992 20.0008 0 0 39.9992zm0 -59.9989l-20.0008 0 0 -39.9992 20.0008 0 0 39.9992zm0 -59.9989l-20.0008 0 0 -39.9992 20.0008 0 0 39.9992zm0 -59.9989l-20.0008 0 0 -39.9992 20.0008 0 0 39.9992zm0 -59.9989l-20.0008 0 0 -39.9992 20.0008 0 0 39.9992zm0 -59.9989l-20.0008 0 0 -39.9992 20.0008 0 0 39.9992zm0 -59.9989l-20.0008 0 0 -39.9992 20.0008 0 0 39.9992z"/>
  <path class="fil5" d="M1483.65 1046.73l247.018 0 29.3339 0 0 32.0008 0 242.528 0 32.0008 -29.3339 0 -247.018 0c-20.8323,0 -39.7524,-9.27639 -53.4496,-24.2173 -13.6961,-14.9421 -22.1988,-35.5819 -22.1988,-58.3087l0 -141.476c0,-22.7268 8.50276,-43.3677 22.1988,-58.3099 13.6961,-14.941 32.6173,-24.2173 53.4496,-24.2173z"/>
  <path class="fil6" d="M1552.98 1165.05c19.3004,0 34.9465,15.6461 34.9465,34.9465 0,19.3004 -15.6461,34.9465 -34.9465,34.9465 -19.3004,0 -34.9465,-15.6461 -34.9465,-34.9465 0,-19.3004 15.6461,-34.9465 34.9465,-34.9465z"/>
 </g>
 <rect class="fil7" width="2048" height="2048"/>
</svg>
