<?xml version="1.0" encoding="UTF-8"?>
<!DOCTYPE svg PUBLIC "-//W3C//DTD SVG 1.1//EN" "http://www.w3.org/Graphics/SVG/1.1/DTD/svg11.dtd">
<!-- Creator: CorelDRAW -->
<svg xmlns="http://www.w3.org/2000/svg" xml:space="preserve" width="2048px" height="2048px" style="shape-rendering:geometricPrecision; text-rendering:geometricPrecision; image-rendering:optimizeQuality; fill-rule:evenodd; clip-rule:evenodd"
viewBox="0 0 2048 2048"
 xmlns:xlink="http://www.w3.org/1999/xlink">
 <defs>
  <style type="text/css">
   <![CDATA[
    .fil5 {fill:none}
    .fil3 {fill:#7E7E7E}
    .fil1 {fill:#FFFFFE}
    .fil0 {fill:#6A6A6A;fill-rule:nonzero}
    .fil4 {fill:#7E7E7E;fill-rule:nonzero}
    .fil2 {fill:#ABABAB;fill-rule:nonzero}
   ]]>
  </style>
 </defs>
 <g id="Layer_x0020_1">
  <metadata id="CorelCorpID_0Corel-Layer"/>
  <g id="_426668272">
   <polygon id="_426669088" class="fil0" points="1465.41,781.418 1509.08,658.998 1670.24,596.73 1626.58,719.15 "/>
   <polygon id="_426668752" class="fil0" points="1474.34,796.661 1585.51,863.999 1749.79,810.488 1638.62,743.15 "/>
   <circle id="_426667984" class="fil1" cx="819.209" cy="1024" r="496.001"/>
   <path id="_426667912" class="fil2" d="M819.209 502.999c143.864,0 274.118,58.317 368.4,152.601 94.2839,94.2827 152.601,224.536 152.601,368.4 0,143.864 -58.317,274.118 -152.601,368.4 -94.2827,94.2839 -224.536,152.601 -368.4,152.601 -143.864,0 -274.118,-58.317 -368.4,-152.601 -94.2839,-94.2827 -152.601,-224.536 -152.601,-368.4 0,-143.864 58.317,-274.118 152.601,-368.4 94.2827,-94.2839 224.536,-152.601 368.4,-152.601zm333.05 187.951c-85.2308,-85.232 -202.983,-137.95 -333.05,-137.95 -130.067,0 -247.819,52.7185 -333.05,137.95 -85.232,85.2308 -137.95,202.983 -137.95,333.05 0,130.067 52.7185,247.819 137.95,333.05 85.2308,85.232 202.983,137.95 333.05,137.95 130.067,0 247.819,-52.7185 333.05,-137.95 85.232,-85.2308 137.95,-202.983 137.95,-333.05 0,-130.067 -52.7185,-247.819 -137.95,-333.05z"/>
   <circle id="_426668296" class="fil3" cx="819.209" cy="1024" r="320.001"/>
   <circle id="_426668080" class="fil1" cx="819.209" cy="1024" r="160.001"/>
   <path id="_426668224" class="fil4" d="M808.458 994.001c-16.5685,5.93623 -25.1858,24.1819 -19.2496,40.7504 5.93623,16.5685 24.1819,25.1858 40.7504,19.2496l830.304 -298.91c16.5685,-5.93623 25.1858,-24.1819 19.2496,-40.7504 -5.93623,-16.5685 -24.1819,-25.1858 -40.7504,-19.2496l-830.304 298.91z"/>
  </g>
 </g>
 <rect class="fil5" width="2048" height="2048"/>
</svg>
