<?xml version="1.0" encoding="UTF-8"?>
<!DOCTYPE svg PUBLIC "-//W3C//DTD SVG 1.1//EN" "http://www.w3.org/Graphics/SVG/1.1/DTD/svg11.dtd">
<!-- Creator: CorelDRAW -->
<svg xmlns="http://www.w3.org/2000/svg" xml:space="preserve" width="6.82666in" height="6.82666in" style="shape-rendering:geometricPrecision; text-rendering:geometricPrecision; image-rendering:optimizeQuality; fill-rule:evenodd; clip-rule:evenodd"
viewBox="0 0 6.82666 6.82666"
 xmlns:xlink="http://www.w3.org/1999/xlink">
 <defs>
  <style type="text/css">
   <![CDATA[
    .str0 {stroke:#202020;stroke-width:0.00333465;stroke-linecap:round;stroke-linejoin:round}
    .fil13 {fill:none}
    .fil8 {fill:#7E7E7E}
    .fil12 {fill:#858585}
    .fil0 {fill:#8B8B8B}
    .fil1 {fill:#A4A4A5}
    .fil11 {fill:#BFBFBF}
    .fil10 {fill:#CFCFD0}
    .fil6 {fill:#D4D4D5}
    .fil9 {fill:#202020;fill-rule:nonzero}
    .fil5 {fill:#9A9A9A;fill-rule:nonzero}
    .fil7 {fill:#9B9B9C;fill-rule:nonzero}
    .fil3 {fill:#A4A4A5;fill-rule:nonzero}
    .fil2 {fill:#B7B7B7;fill-rule:nonzero}
    .fil4 {fill:#C5C5C5;fill-rule:nonzero}
   ]]>
  </style>
 </defs>
 <g id="Layer_x0020_1">
  <metadata id="CorelCorpID_0Corel-Layer"/>
  <g id="_550853192">
   <rect id="_550853072" class="fil0" x="2.05656" y="3.64906" width="0.663543" height="0.0416693"/>
   <rect id="_550852856" class="fil0" x="4.11073" y="3.64906" width="0.663543" height="0.0416693"/>
  </g>
  <rect class="fil1 str0" x="1.88843" y="1.81441" width="3.05396" height="1.68289"/>
  <path class="fil2" d="M5.10616 3.72241l0.799126 1.216c0.014748,0.0203189 0.0680512,0.0900827 0.0680512,0.12813 0,0.0589094 -0.0477598,0.106669 -0.106669,0.106669l-4.90666 0 0 -3.93701e-006c-0.021748,1.9685e-005 -0.0437008,-0.00658268 -0.0626496,-0.0203346 -0.0476772,-0.0345984 -0.0582795,-0.101303 -0.0236811,-0.14898l0.000122047 9.05512e-005 0.8475 -1.27691c0.019,-0.0293819 0.0520433,-0.0488268 0.0896339,-0.0488268l3.20786 0 0.00111417 0 0 3.93701e-006c0.0329764,2.75591e-005 0.0654843,0.0152835 0.0863307,0.0440157l-7.87402e-005 0.000149606z"/>
  <path class="fil3" d="M5.97293 5.06051c0.000259843,0.00207874 0.000405512,0.00409055 0.000405512,0.00601969 0,0.0589094 -0.0477598,0.106669 -0.106669,0.106669l-4.90666 0 0 -3.93701e-006c-0.021748,1.9685e-005 -0.0437008,-0.00658268 -0.0626496,-0.0203346 -0.0304764,-0.0221181 -0.0458031,-0.0573543 -0.0438583,-0.0923504l5.11943 0z"/>
  <path class="fil4" d="M1.85198 1.65346l3.12688 0c0.0589094,0 0.106669,0.0477598 0.106669,0.106669l0 1.79144c0,0.0589094 -0.0477598,0.106669 -0.106669,0.106669l-3.12688 0c-0.0589094,0 -0.106669,-0.0477598 -0.106669,-0.106669l0 -1.79144c0,-0.0589094 0.0477598,-0.106669 0.106669,-0.106669zm3.02021 0.213339l-2.91354 0 0 1.5781 2.91354 0 0 -1.5781z"/>
  <path class="fil5" d="M1.92583 1.83502l2.97917 0 0 1.64167 -2.97917 0 0 -1.64167zm2.94636 0.0317835l-2.91354 0 0 1.5781 2.91354 0 0 -1.5781z"/>
  <path class="fil6" d="M2.96804 2.20847c-0.114492,0.114484 -0.185307,0.272665 -0.185307,0.447382 0,0.174717 0.070815,0.332898 0.185307,0.447382 0.114484,0.114492 0.272665,0.185307 0.447382,0.185307 0.174717,0 0.332898,-0.070815 0.447382,-0.185307 0.114492,-0.114484 0.185307,-0.272665 0.185307,-0.447382 0,-0.174717 -0.070815,-0.332898 -0.185307,-0.447382 -0.114484,-0.114492 -0.272665,-0.185307 -0.447382,-0.185307 -0.174717,0 -0.332898,0.070815 -0.447382,0.185307z"/>
  <polygon class="fil7" points="4.16815,5.02306 3.95757,4.60649 2.86909,4.60649 2.6585,5.02306 "/>
  <path class="fil8" d="M3.76981 2.59765c-0.0104252,0.0121496 -0.0155984,0.0301772 -0.0155984,0.0540866 0,0.0273583 0.00540551,0.0476575 0.0163031,0.0606732 0.0108189,0.0130906 0.0240669,0.0196732 0.0397441,0.0196732 0.0149724,0 0.0274331,-0.00603543 0.0373898,-0.0180276 0.00995669,-0.0119961 0.0149724,-0.031748 0.0149724,-0.0591063 0,-0.0256299 -0.00517323,-0.0446024 -0.0154449,-0.0569882 -0.0102677,-0.0123858 -0.0229646,-0.0185748 -0.0380945,-0.0185748 -0.0157559,0 -0.0288465,0.00603543 -0.0392717,0.0182638zm-0.372969 -0.0199134c-0.0141102,0 -0.0257126,0.00517323 -0.0348819,0.0154449 -0.00917323,0.010189 -0.0137205,0.0241417 -0.013563,0.0417795l0.0964173 0c-0.000468504,-0.0187362 -0.00525197,-0.0329213 -0.0144252,-0.0426417 -0.00916929,-0.00972047 -0.020378,-0.0145827 -0.0335472,-0.0145827zm-0.367874 -0.13663l0 0.132476 0.133181 0 0 -0.132476 0.0679606 0 0 0.336677 -0.0679606 0 0 -0.147213 -0.133181 0 0 0.147213 -0.0680394 0 0 -0.336677 0.0680394 0zm0.363953 0.087248c0.0362953,0 0.0649055,0.0119921 0.0859134,0.0359803 0.0209291,0.0239843 0.0309646,0.0606693 0.0301024,0.110134l-0.161717 0c0.000472441,0.019126 0.00564567,0.0340197 0.0156024,0.0446024 0.00995276,0.0106614 0.0224173,0.0159921 0.0372323,0.0159921 0.0101142,0 0.0185787,-0.00274409 0.0254764,-0.00823228 0.00689764,-0.00556299 0.0121496,-0.0144213 0.0155984,-0.0266496l0.0643583 0.0107362c-0.00831102,0.0235945 -0.0213228,0.0415472 -0.0391929,0.0538543 -0.0177953,0.0123858 -0.0401378,0.0185 -0.0669449,0.0185 -0.0424094,0 -0.0737638,-0.0137992 -0.0941457,-0.0415472 -0.0160669,-0.022185 -0.0241417,-0.0502441 -0.0241417,-0.0840315 0,-0.0404488 0.0105827,-0.0721181 0.031748,-0.0950039 0.0210866,-0.0228898 0.047815,-0.0343346 0.0801102,-0.0343346zm0.16861 0.249429l0 -0.336677 0.0645157 0 0 0.336677 -0.0645157 0zm0.128795 -0.243866l0.0602008 0 0 0.0358268c0.00775984,-0.0123071 0.0183425,-0.0222638 0.0316693,-0.0298661 0.0133228,-0.00768504 0.0281417,-0.0115236 0.0443661,-0.0115236 0.0282992,0 0.0523622,0.0111299 0.0720394,0.033315 0.019752,0.0221811 0.0296299,0.0531457 0.0296299,0.092811 0,0.0406811 -0.00995669,0.0723504 -0.0297874,0.0949252 -0.0199094,0.0225787 -0.0440551,0.0338661 -0.0723504,0.0338661 -0.0134843,0 -0.0257126,-0.00266535 -0.036689,-0.00799606 -0.0108937,-0.00540945 -0.0224173,-0.0145787 -0.0345669,-0.0275945l0 0.122913 -0.0645118 0 0 -0.336677z"/>
  <g id="_508554248">
   <path id="_550851872" class="fil9" d="M4.9558 3.86796c0,0 0,0 0,0 0.00151181,0.00212205 0.000377953,0.00385039 -0.00528346,0.00385039 -0.0449094,0 -0.0898228,0 -0.13511,0 -0.00566142,0 -0.0135866,-0.00172835 -0.0143425,-0.00391732 -0.00905906,-0.0173228 -0.0173622,-0.0345118 -0.0256654,-0.0517638 -0.00112992,-0.00219291 0.00490945,-0.00405118 0.0101929,-0.00405118 0.0441535,0 0.088311,0 0.132091,0.000133858 0.00528346,0 0.0086811,0.00185827 0.0105669,0.00398031 0.0086811,0.017189 0.0177402,0.0345118 0.0275512,0.0517677z"/>
   <path id="_550851824" class="fil9" d="M5.02147 3.98556c0,0 0,0 0,0 0.00188976,0.00325197 -0.00490551,0.00550787 -0.019248,0.00550787 -0.109449,0 -0.218898,-6.69291e-005 -0.327969,-6.69291e-005 -0.0139646,0 -0.0290591,-0.00232283 -0.0301929,-0.0056378 -0.0116969,-0.0258189 -0.0226417,-0.0517008 -0.0335866,-0.0775866 -0.000377953,-0.00318504 0.0113189,-0.00643701 0.0249055,-0.00630315 0.105677,6.69291e-005 0.212106,6.69291e-005 0.31778,0.000133858 0.0132126,0 0.0234016,0.00311811 0.0249094,0.00643701 0.0139646,0.025815 0.028685,0.0516339 0.0434016,0.0775157z"/>
   <path id="_550851320" class="fil9" d="M5.0845 4.09812c0,0 0,0 0,0 0,0.000200787 0,0.000267717 0,0.000397638 0.000755906,0.000133858 0.000755906,0.000267717 0.000755906,0.000397638 0.0230236,0.0405512 0.0460433,0.0811024 0.0690669,0.12152 0.00264173,0.00517717 0.00264173,0.00935827 -0.00377559,0.00935827 -0.0509488,-6.69291e-005 -0.101524,0 -0.151717,0 -0.00679528,-6.69291e-005 -0.0173622,-0.00424803 -0.019248,-0.00935827 -0.0203819,-0.0387559 -0.0400079,-0.0773819 -0.0600079,-0.116075 -0.0347244,0 -0.0694449,0 -0.104165,0 -0.00566142,0 -0.0154764,-0.00312205 -0.0166063,-0.00630709 -0.0117008,-0.0248189 -0.0230236,-0.0496417 -0.0347244,-0.0744646 -0.00112992,-0.00305118 0.0052874,-0.00570472 0.0109449,-0.00570472 0.038122,0 0.0766142,0 0.11511,0 0.00830315,0 0.0173622,0 0.0267992,0 0.0381181,0 0.0766142,6.69291e-005 0.114732,6.69291e-005 0.00566142,0 0.00905512,0.00272047 0.0109449,0.00583858 0.0143386,0.0247559 0.0279252,0.0495118 0.0418898,0.0743307z"/>
   <path id="_550851656" class="fil9" d="M5.22565 4.34434c0,0 0,0 0,0 0.00226378,0.0033189 -0.0109449,0.00477559 -0.0320787,0.00464567 -0.163043,0 -0.326839,0 -0.490256,0 -0.0203819,0 -0.0411378,-0.0013937 -0.0426496,-0.0047126 -0.0109449,-0.0258189 -0.0207559,-0.0516339 -0.0309449,-0.0775827 -0.00151181,-0.0033189 0.0162283,-0.00723622 0.0366063,-0.00723622 0.15889,0 0.31778,0 0.476669,0 0.0200039,0.000133858 0.0358543,0.00411417 0.0377402,0.00743307 0.0147205,0.0258189 0.029437,0.0516339 0.0449134,0.0774528z"/>
   <path id="_550851536" class="fil9" d="M5.29924 4.47104c0,0 0,0 0,0 0.00113386,0.00185827 -0.000755906,0.00318504 -0.0079252,0.00318504 -0.0547244,0 -0.109827,0 -0.164173,0 -0.00754724,0 -0.0166063,-0.0013937 -0.0173622,-0.00325197 -0.00830315,-0.0145984 -0.0154724,-0.0293976 -0.0233976,-0.0441339 -0.00151181,-0.00185827 0.00679134,-0.00318504 0.0139646,-0.00318504 0.0539685,0 0.107559,0 0.161906,0 0.00679528,0 0.00943701,0.00132677 0.0109449,0.00318504 0.00905906,0.0147362 0.0173622,0.0295354 0.0260433,0.0442008z"/>
   <path id="_550851944" class="fil9" d="M5.01958 4.41748c0,0 0,0 0,0 0.000755906,0.00198819 -0.00112992,0.00311811 -0.00754724,0.00311811 -0.0543465,0 -0.107941,0 -0.161909,0 -0.00716929,0 -0.0158504,-0.00119685 -0.0169843,-0.00318504 -0.00641339,-0.0146024 -0.0128307,-0.0292047 -0.019626,-0.0440709 -0.000751969,-0.00179134 0.00717323,-0.00338189 0.0139646,-0.00338189 0.0528386,0 0.106055,0 0.159646,0 0.00603937,0 0.00905906,0.00159055 0.010189,0.00344882 0.00754724,0.0147992 0.0147205,0.0294016 0.0222677,0.0440709z"/>
   <path id="_550851680" class="fil9" d="M5.04676 4.47097c0,0 0,0 0,0 0.000755906,0.00185827 -0.000755906,0.00325197 -0.0079252,0.00325197 -0.0547244,0 -0.109827,0 -0.164173,0 -0.00754724,0 -0.0166063,-0.0013937 -0.0169843,-0.00318504 -0.00716929,-0.0146654 -0.0132087,-0.0294646 -0.02,-0.0442008 -0.00113386,-0.00192126 0.00641339,-0.00325197 0.0139606,-0.00318504 0.0539724,0 0.107563,-6.69291e-005 0.161909,0 0.00679528,-6.69291e-005 0.00943701,0.00126378 0.0113228,0.00318504 0.00717323,0.0147362 0.0143425,0.0295354 0.0218898,0.0441339z"/>
   <path id="_550851560" class="fil9" d="M4.78748 4.47097c0,0 0,0 0,0 0.000755906,0.00185827 -0.00113386,0.00325197 -0.0079252,0.00325197 -0.0551024,0 -0.109827,0 -0.164551,0 -0.00679528,0 -0.0166063,-0.0013937 -0.0169843,-0.00325197 -0.00566142,-0.0145984 -0.0109449,-0.0293976 -0.0162283,-0.0441339 -0.00113386,-0.00192126 0.00754724,-0.00318504 0.0143425,-0.00325197 0.0539685,6.69291e-005 0.107937,6.69291e-005 0.161909,0 0.00679134,6.69291e-005 0.00943307,0.00133071 0.010189,0.00318898 0.00641732,0.0147992 0.0128307,0.0295984 0.019248,0.0441969z"/>
   <path id="_550851728" class="fil9" d="M4.52744 4.46838c0,0 0,0 0,0 0.00150787,0.0033189 -0.00339764,0.00583858 -0.0105669,0.00583858 -0.0547244,0 -0.109449,0 -0.164929,0 -0.00679134,0 -0.0132087,-0.00265354 -0.0139646,-0.00583858 -0.0079252,-0.025815 -0.0147165,-0.0517677 -0.0226457,-0.0777165 -0.00112992,-0.00318504 0.00415354,-0.00583858 0.0109449,-0.00583858 0.0532165,0 0.107185,0 0.160402,0 0.00641339,0 0.0124528,0.00265354 0.0139646,0.00597244 0.00905512,0.0258819 0.0177362,0.0517677 0.0267953,0.0775827z"/>
   <path id="_550851104" class="fil9" d="M4.27495 4.46838c0,0 0,0 0,0 0.00113386,0.0033189 -0.00414961,0.00583858 -0.0113228,0.00583858 -0.0547244,0 -0.109449,0 -0.164925,0 -0.00641732,0 -0.0128346,-0.00265354 -0.0135866,-0.00590551 -0.0052874,-0.0258819 -0.0109449,-0.0517008 -0.0162323,-0.0776496 -0.000751969,-0.00318504 0.0045315,-0.00597244 0.0117008,-0.00583858 0.0528386,0 0.106051,0 0.159646,0 0.00679134,0 0.0128307,0.00265354 0.0132087,0.00583858 0.00754724,0.0259488 0.0143425,0.0519016 0.0215118,0.0777165z"/>
   <path id="_550850864" class="fil9" d="M4.0153 4.46838c0,0 0,0 0,0 0.00113386,0.0033189 -0.0467992,0.00583858 -0.110205,0.00583858 -0.249843,0 -0.499689,-6.29921e-005 -0.749157,-6.29921e-005 -0.249469,0 -0.498937,0 -0.748402,0 -0.0634055,0 -0.117752,-0.00259055 -0.116622,-0.00584252 0.00943701,-0.0258819 0.0177402,-0.0517638 0.0267953,-0.0776496 0.00113386,-0.00325197 0.0554803,-0.00603937 0.117374,-0.00603937 0.242299,0 0.484976,3.54331e-005 0.728024,6.69291e-005 0.242299,3.14961e-005 0.48535,0 0.728024,0 0.0618976,0.000133858 0.109075,0.00285433 0.109827,0.0061063 0.0045315,0.0258819 0.00981496,0.0517677 0.0143425,0.0775827z"/>
   <path id="_550850840" class="fil9" d="M2.22864 4.46818c0,0 0,0 0,0 -0.00188583,0.0033189 -0.00830315,0.00597638 -0.0154724,0.00597638 -0.0547244,0 -0.109827,0 -0.164551,0 -0.00717323,0 -0.0117008,-0.00265748 -0.00981496,-0.00597638 0.0105669,-0.025815 0.0215118,-0.0517638 0.0320827,-0.0776496 0.00150787,-0.00331496 0.00829921,-0.00597244 0.0150945,-0.00597244 0.0535906,0 0.106807,0 0.160024,6.69291e-005 0.00679134,0 0.0113189,0.00265354 0.010189,0.00597244 -0.00943701,0.0258189 -0.0184921,0.0517677 -0.0275512,0.0775827z"/>
   <path id="_550850576" class="fil9" d="M1.96936 4.46818c0,0 0,0 0,0 -0.00226772,0.0033189 -0.0086811,0.00597638 -0.0154764,0.00597638 -0.0551024,0 -0.109827,0 -0.164173,0 -0.00716929,0 -0.0116969,-0.00265748 -0.00981102,-0.00597638 0.0128307,-0.025815 0.0256614,-0.0517638 0.0384961,-0.0776496 0.00188583,-0.00331496 0.00830315,-0.00597244 0.0154724,-0.00597244 0.0532165,0 0.106429,0 0.160024,0 0.00641339,0 0.0105669,0.00265748 0.00943307,0.00597244 -0.0117008,0.0258858 -0.0230197,0.0518346 -0.0339646,0.0776496z"/>
   <path id="_550851080" class="fil9" d="M1.71763 4.46818c0,0 0,0 0,0 -0.00188976,0.0033189 -0.0086811,0.00597638 -0.0154764,0.00597638 -0.0551024,0 -0.110201,0 -0.164551,0 -0.00754724,0 -0.0109449,-0.00265748 -0.00905512,-0.00597638 0.0147165,-0.025815 0.029437,-0.0517638 0.0445315,-0.0776496 0.00226772,-0.00331496 0.0086811,-0.00597244 0.0158543,-0.00597244 0.0532126,0 0.106429,0 0.16002,0 0.00641732,0 0.0105669,0.00265748 0.00905906,0.00597244 -0.0135866,0.0258858 -0.0271732,0.0518346 -0.0403819,0.0776496z"/>
   <path id="_550851224" class="fil9" d="M1.64403 4.26496c0,0 0,0 0,0 0.00113386,-0.00325197 0.0150984,-0.00603937 0.0256654,-0.00603937 0.0856732,0 0.170591,0 0.25626,0 0.0109449,0 0.0150984,0.0027874 0.0143425,0.00603937 -0.0132087,0.0259528 -0.0249094,0.0519016 -0.0373622,0.0777835 -0.00188583,0.0033189 -0.0086811,0.00590551 -0.0200039,0.00590551 -0.088315,0 -0.176248,0 -0.263807,0 -0.0113228,0 -0.0215157,-0.00258661 -0.0200039,-0.00590551 0.0150945,-0.0258819 0.029815,-0.0518307 0.0449094,-0.0777835z"/>
   <path id="_550850672" class="fil9" d="M1.71083 4.14637c0,0 0,0 0,0 0.00151181,-0.00331496 0.0181142,-0.0069685 0.0324567,-0.0069685 0.11511,0 0.23022,6.69291e-005 0.345331,6.69291e-005 0.0147205,0 0.0215118,0.00364961 0.0203819,0.0069685 -0.0109449,0.0258858 -0.0218898,0.0518346 -0.0332126,0.0776496 -0.00113386,0.00338583 -0.0113228,0.00511024 -0.0256654,0.00511024 -0.118508,0 -0.23739,-0.000129921 -0.355898,-0.000129921 -0.0147165,0 -0.0290591,-0.00166142 -0.0279291,-0.00504724 0.0150984,-0.025815 0.0301929,-0.0517638 0.0445354,-0.0776496z"/>
   <path id="_550851032" class="fil9" d="M1.77763 4.02644c0,0 0,0 0,0 0.00150787,-0.0033189 0.0139646,-0.00663386 0.0233976,-0.00663386 0.0758583,0 0.151343,0.000129921 0.227201,0.000129921 0.010189,0 0.0135866,0.0033189 0.0117008,0.00657087 -0.0120787,0.0259488 -0.0237756,0.0518346 -0.0366102,0.0777835 -0.00112992,0.0033189 -0.00716929,0.00524409 -0.0173583,0.00524409 -0.077748,-6.69291e-005 -0.156248,-6.69291e-005 -0.233618,-6.69291e-005 -0.0105669,0 -0.019626,-0.00199213 -0.0184921,-0.00524409 0.0147165,-0.0259488 0.0290591,-0.0518976 0.0437795,-0.0777835z"/>
   <path id="_550850648" class="fil9" d="M1.96256 3.98403c0,0 0,0 0,0 -0.00150787,0.0033189 -0.0079252,0.00597638 -0.0135866,0.00597638 -0.0471772,-0.000133858 -0.0939764,-0.000133858 -0.140776,-0.000133858 -0.00603543,0 -0.00867717,-0.00265354 -0.00754724,-0.00590551 0.0150984,-0.0258858 0.029063,-0.0517677 0.0434016,-0.0777165 0.00151181,-0.0033189 0.00755118,-0.00603937 0.0135866,-0.00603937 0.0452913,0 0.0905787,6.69291e-005 0.136248,6.69291e-005 0.00566142,0 0.00905512,0.0027874 0.00754724,0.00603937 -0.0132087,0.0259488 -0.0252874,0.0518976 -0.038874,0.0777126z"/>
   <path id="_550851176" class="fil9" d="M1.89387 3.8146c0,0 0,0 0,0 0.00113386,-0.00212598 0.0086811,-0.00405118 0.0147205,-0.00405118 0.0437795,0 0.0875591,0.000133858 0.131717,0.000133858 0.00603543,0 0.00716929,0.00185827 0.00566142,0.00398425 -0.00830315,0.0173189 -0.0166063,0.0345748 -0.0249094,0.0518307 -0.00113386,0.00225591 -0.00415354,0.00391732 -0.00981496,0.00391732 -0.0452874,0 -0.0898228,-6.69291e-005 -0.134732,-6.69291e-005 -0.00603937,0 -0.0120787,-0.00166142 -0.0109449,-0.00391732 0.00981102,-0.0172559 0.0188701,-0.0345748 0.0283031,-0.0518307z"/>
   <path id="_550849760" class="fil9" d="M2.17844 3.9841c0,0 0,0 0,0 -0.00150787,0.0033189 -0.00754724,0.00590945 -0.0135866,0.00590945 -0.0467992,0 -0.0939724,0 -0.14002,0 -0.00641339,0 -0.00943307,-0.00265748 -0.0079252,-0.00597638 0.0124567,-0.025815 0.0249094,-0.0517638 0.0369882,-0.0777126 0.00150787,-0.00325197 0.00754724,-0.00603937 0.0132087,-0.00603937 0.0449094,0 0.0909567,6.29921e-005 0.135866,6.29921e-005 0.00603937,0 0.00943701,0.0027874 0.0079252,0.0061063 -0.0105669,0.0258858 -0.0211339,0.0518346 -0.0324567,0.0776496z"/>
   <path id="_550850216" class="fil9" d="M2.09692 3.81467c0,0 0,0 0,0 0.00150787,-0.00212598 0.00905906,-0.00398425 0.0147205,-0.00398425 0.0437795,6.69291e-005 0.0875591,6.69291e-005 0.131713,6.69291e-005 0.00566142,0 0.00679528,0.00185827 0.00603937,0.00404724 -0.00754724,0.0172559 -0.0139646,0.0345118 -0.0215118,0.0518346 -0.00112992,0.00218898 -0.00377165,0.00391339 -0.00943307,0.00391339 -0.0445354,0 -0.0898268,-0.000129921 -0.134358,-0.000129921 -0.00603937,0 -0.0120787,-0.00166142 -0.0113228,-0.00391732 0.0079252,-0.0172559 0.0158504,-0.0345118 0.0241535,-0.0518307z"/>
   <path id="_550850072" class="fil9" d="M2.3996 3.98423c0,0 0,0 0,0 -0.00112992,0.00325197 -0.00679134,0.00583858 -0.0132087,0.00583858 -0.0464213,0 -0.0932205,0 -0.140772,0 -0.00528346,0 -0.00905906,-0.00265354 -0.0079252,-0.00597244 0.0105669,-0.025815 0.020378,-0.0517638 0.0309449,-0.0776496 0.00151181,-0.0033189 0.00754724,-0.0061063 0.0128346,-0.0061063 0.0460433,0 0.0909528,0.000133858 0.136622,0.000133858 0.00603543,0 0.00981102,0.00272047 0.00867717,0.00603937 -0.00943307,0.0259488 -0.0181142,0.0518346 -0.0271732,0.0777165z"/>
   <path id="_550850048" class="fil9" d="M2.30525 3.8148c0,0 0,0 0,0 0.000755906,-0.00218898 0.0086811,-0.00398031 0.0143425,-0.00398031 0.0437795,0 0.087937,0.000133858 0.131717,0 0.00603543,0 0.00754724,0.0019252 0.00641339,0.00404724 -0.00566142,0.0172559 -0.0117008,0.0345787 -0.0173583,0.0518346 -0.00113386,0.00225591 -0.00301969,0.00391339 -0.00905906,0.00391339 -0.0449134,0 -0.0898228,-6.69291e-005 -0.135114,-6.69291e-005 -0.00566142,0 -0.0124528,-0.00172441 -0.0113228,-0.00384646 0.00679528,-0.0173898 0.0132087,-0.0346457 0.0203819,-0.0519016z"/>
   <path id="_550850168" class="fil9" d="M2.61548 3.98423c0,0 0,0 0,0 -0.000755906,0.00325197 -0.00641732,0.00597244 -0.0124567,0.00597244 -0.0471772,0 -0.0935984,0 -0.140772,0 -0.00566142,0 -0.00943701,-0.00272047 -0.0086811,-0.00597244 0.0086811,-0.0258819 0.0169803,-0.0517677 0.0252835,-0.0777165 0.00113386,-0.0033189 0.00679528,-0.00603937 0.0124567,-0.00603937 0.0452874,6.69291e-005 0.0909567,6.69291e-005 0.136622,6.69291e-005 0.00566142,0 0.00943701,0.0027874 0.0086811,0.00603937 -0.00717323,0.0259488 -0.0139646,0.0518976 -0.0211339,0.0776496z"/>
   <path id="_550850024" class="fil9" d="M2.5083 3.81493c0,0 0,0 0,0 0.00112992,-0.00212205 0.0086811,-0.00398031 0.0143386,-0.00398031 0.0437795,0 0.087937,0 0.131717,6.69291e-005 0.00566142,0 0.00755118,0.00185827 0.00679528,0.00404724 -0.00490551,0.017189 -0.00905906,0.0344449 -0.0139646,0.0517008 -0.000377953,0.00225591 -0.00301969,0.00398031 -0.00830315,0.00398031 -0.0452874,0 -0.0902008,0 -0.135492,-0.000133858 -0.00528346,0 -0.0124528,-0.00165748 -0.0116969,-0.00391339 0.00566142,-0.0172559 0.0109449,-0.0345787 0.0166063,-0.0517677z"/>
   <path id="_550850288" class="fil9" d="M2.83702 3.9843c0,0 0,0 0,0 -0.00113386,0.0033189 -0.00641732,0.00597244 -0.0124567,0.00597244 -0.0471772,0 -0.0943504,0 -0.140398,0 -0.00641339,-6.69291e-005 -0.0105669,-0.00265354 -0.00943307,-0.00597244 0.00679134,-0.0258189 0.0128307,-0.0517677 0.019248,-0.0777165 0.00112992,-0.00325197 0.00679134,-0.00603937 0.0120748,-0.00603937 0.0452913,0.000133858 0.0909567,0.000133858 0.136248,0.000133858 0.00603543,0 0.0105669,0.00272047 0.00981102,0.00603937 -0.00566142,0.0258819 -0.010189,0.0518307 -0.0150945,0.0775827z"/>
   <path id="_550849976" class="fil9" d="M2.717 3.81506c0,0 0,0 0,0 0.000755906,-0.00218898 0.00830315,-0.00404724 0.0135866,-0.00404724 0.0437795,0 0.0875591,0 0.132094,0.000129921 0.00566142,0 0.00754724,0.00185827 0.00679528,0.00398425 -0.00339764,0.0172559 -0.00679528,0.0344449 -0.00981496,0.0517638 -0.000751969,0.00219291 -0.00264173,0.00391732 -0.00830315,0.00391732 -0.0456654,0 -0.0905787,0 -0.13511,-6.69291e-005 -0.00566142,0 -0.0128346,-0.00172441 -0.0117008,-0.00385039 0.00414961,-0.0173189 0.0079252,-0.0345748 0.0124528,-0.0518307z"/>
   <path id="_550850432" class="fil9" d="M3.05215 3.98437c0,0 0,0 0,0 0,0.0033189 -0.00528346,0.00597244 -0.0113228,0.00597244 -0.0467992,0 -0.0935984,0 -0.140772,-6.69291e-005 -0.00566142,0 -0.0101929,-0.00258661 -0.00981496,-0.00590551 0.00528346,-0.0258189 0.00943701,-0.0517677 0.0139646,-0.0776496 0.000755906,-0.0033189 0.00603937,-0.00603937 0.0117008,-0.00603937 0.0449094,0 0.0909567,6.69291e-005 0.136244,6.69291e-005 0.00603937,0 0.010189,0.00272047 0.00981102,0.00603937 -0.0033937,0.0259488 -0.00603543,0.0518307 -0.00981102,0.0775827z"/>
   <path id="_550850240" class="fil9" d="M2.92005 3.81513c0,0 0,0 0,0 0.000377953,-0.00212598 0.00754724,-0.00398425 0.0135866,-0.00398425 0.0441575,0 0.087937,6.69291e-005 0.132094,6.69291e-005 0.00566142,0 0.0079252,0.00185827 0.00716929,0.00398425 -0.00226378,0.0173189 -0.00452756,0.0345748 -0.00641339,0.0518307 -0.000377953,0.00218898 -0.00226378,0.00385039 -0.0079252,0.00385039 -0.0452913,0 -0.0898268,0 -0.135114,-6.69291e-005 -0.00566142,0 -0.0128307,-0.00172441 -0.0120787,-0.00385039 0.00301969,-0.0172559 0.00566142,-0.0345748 0.0086811,-0.0518307z"/>
   <path id="_550850192" class="fil9" d="M3.27369 3.9845c0,0 0,0 0,0 0,0.00325197 -0.00566142,0.00597638 -0.0113228,0.00597638 -0.0471772,0 -0.0939764,-0.000133858 -0.140772,-0.000133858 -0.00566142,0 -0.0101929,-0.00259055 -0.00943701,-0.00584252 0.00226378,-0.0258819 0.00490551,-0.0517638 0.00754724,-0.0777126 0.000377953,-0.0033189 0.00528346,-0.00603937 0.0109449,-0.00597638 0.0452913,0 0.0905787,0 0.136248,0 0.00565748,0 0.010189,0.0027874 0.010189,0.00617323 -0.00151181,0.0258189 -0.00226378,0.0517677 -0.00339764,0.0775157z"/>
   <path id="_550849064" class="fil9" d="M3.12876 3.8152c0,0 0,0 0,0 0.000377953,-0.00212598 0.00754724,-0.00391732 0.0128307,-0.00398425 0.0437795,6.69291e-005 0.087937,6.69291e-005 0.132094,6.69291e-005 0.00528346,0 0.00754724,0.00185827 0.00754724,0.00404724 -0.00112992,0.0172559 -0.00188583,0.0345118 -0.00264173,0.0518346 0,0.00212205 -0.00188583,0.00391339 -0.00830315,0.00385039 -0.0445315,0 -0.0898228,0 -0.13398,0 -0.00603937,0 -0.0128307,-0.00179528 -0.0124528,-0.00398425 0.00112992,-0.0172559 0.00301969,-0.0345118 0.00490551,-0.0518307z"/>
   <path id="_550849016" class="fil9" d="M3.48881 3.98456c0,0 0,0 0,0 0.000377953,0.0033189 -0.00414961,0.00597244 -0.0105669,0.00597244 -0.0464213,0 -0.0939724,-6.29921e-005 -0.14002,-6.29921e-005 -0.00641339,0 -0.0109449,-0.00259055 -0.0109449,-0.00590945 0.000755906,-0.025815 0.00151181,-0.0517638 0.00226772,-0.0775827 0,-0.0033189 0.00490551,-0.00603937 0.0109449,-0.00603937 0.0449094,0 0.0902008,0 0.136244,0 0.00528346,0 0.00981102,0.00272047 0.00981102,0.00603937 0.00113386,0.0258858 0.00226378,0.0518346 0.00226378,0.0775827z"/>
   <path id="_550849352" class="fil9" d="M3.33181 3.81539c0,0 0,0 0,0 0,-0.00225591 0.00716929,-0.00398031 0.0132087,-0.00398031 0.0430236,0 0.0875591,6.69291e-005 0.131339,6.69291e-005 0.00566142,0 0.0079252,0.00185827 0.0079252,0.00391339 0.000377953,0.0172559 0.000755906,0.0345787 0.00188583,0.0518346 -0.000374016,0.00225591 -0.00264173,0.00391339 -0.0079252,0.00391339 -0.0452874,0 -0.0898228,-6.69291e-005 -0.13511,-6.69291e-005 -0.00528346,0 -0.0128346,-0.00172441 -0.0124567,-0.00391339 0,-0.0173228 0.000377953,-0.0345787 0.00113386,-0.0517677z"/>
   <path id="_550849208" class="fil9" d="M3.71035 3.98463c0,0 0,0 0,0 0.000755906,0.0033189 -0.00414961,0.00597244 -0.010189,0.00597244 -0.0464213,0 -0.0935984,0 -0.14002,-6.69291e-005 -0.00641339,0 -0.0113228,-0.00265354 -0.0116969,-0.00597244 -0.00113386,-0.025748 -0.00264173,-0.0516969 -0.00377559,-0.0775827 0,-0.0033189 0.00452756,-0.00603937 0.010189,-0.00603937 0.0456693,6.69291e-005 0.0909567,6.69291e-005 0.136622,6.69291e-005 0.00566142,0 0.0105709,0.0027874 0.0109449,0.00603937 0.00264173,0.0259488 0.00528346,0.0517677 0.0079252,0.0775827z"/>
   <path id="_550849256" class="fil9" d="M3.54014 3.81539c0,0 0,0 0,0 0,-0.00205512 0.00679134,-0.00391339 0.0128307,-0.00391339 0.0437795,0 0.087937,0 0.132094,6.29921e-005 0.00528346,-6.29921e-005 0.00754724,0.00185827 0.0079252,0.00405118 0.00150787,0.017189 0.00301969,0.0344449 0.00528346,0.0517638 0,0.00219291 -0.00226378,0.00378346 -0.00754724,0.00378346 -0.0449134,0 -0.0898268,0 -0.134358,0 -0.00603937,0 -0.0139646,-0.00165748 -0.0135866,-0.00391339 -0.00113386,-0.0172559 -0.00188976,-0.0345787 -0.00264173,-0.0518346z"/>
   <path id="_550849424" class="fil9" d="M3.92585 3.98476c0,0 0,0 0,0 0.00112992,0.00325197 -0.00339764,0.00597244 -0.00905906,0.00597244 -0.0471772,-0.000133858 -0.0939764,-0.000133858 -0.140776,-0.000133858 -0.00641339,0 -0.0109449,-0.00265354 -0.0116969,-0.00597244 -0.00301969,-0.025748 -0.00603937,-0.0516339 -0.00943701,-0.0774488 -0.000377953,-0.0033189 0.00377559,-0.0061063 0.00943701,-0.0061063 0.0456654,0 0.0909567,0 0.136244,0.000133858 0.00603937,0 0.0109449,0.00265354 0.0113228,0.00597244 0.00490551,0.0258819 0.00943307,0.0518307 0.0139646,0.0775827z"/>
   <path id="_550849568" class="fil9" d="M3.74356 3.81559c0,0 0,0 0,0 -0.000377953,-0.00219291 0.00641732,-0.00405118 0.0120787,-0.00405118 0.0437795,0 0.0875591,0 0.132094,0.000133858 0.00566142,0 0.0079252,0.00185827 0.00830315,0.00398425 0.00264173,0.017252 0.00603543,0.0344409 0.00905512,0.0517638 0.000377953,0.00218898 -0.00112992,0.00391732 -0.00716929,0.00391732 -0.0449134,-6.69291e-005 -0.0898228,-6.69291e-005 -0.134358,-6.69291e-005 -0.00603937,0 -0.0132087,-0.00172441 -0.0135866,-0.00391732 -0.00264173,-0.0172559 -0.00452756,-0.0345079 -0.00641732,-0.0517638z"/>
   <path id="_550849304" class="fil9" d="M4.14739 3.98483c0,0 0,0 0,0 0.00112992,0.0033189 -0.00301969,0.00597244 -0.00905906,0.00597244 -0.0467992,0 -0.0939764,-6.69291e-005 -0.140772,-6.69291e-005 -0.00603937,0 -0.0113228,-0.00272047 -0.0120787,-0.00597244 -0.00490551,-0.025752 -0.010189,-0.0517008 -0.0158504,-0.0775827 -0.000377953,-0.00325197 0.00377165,-0.00597244 0.00943307,-0.00597244 0.0456693,0 0.0909567,0 0.136622,0 0.00566142,0 0.0109449,0.0027874 0.0117008,0.00603937 0.00641732,0.0258819 0.0139646,0.0517638 0.0200039,0.0775827z"/>
   <path id="_550849136" class="fil9" d="M3.95189 3.81566c0,0 0,0 0,0 -0.000377953,-0.00212598 0.00641732,-0.00398425 0.0117008,-0.00398425 0.0437795,0 0.088315,6.69291e-005 0.132094,6.69291e-005 0.00566142,0 0.0079252,0.00185827 0.00905512,0.00398031 0.00415354,0.017189 0.0079252,0.0345118 0.0124567,0.0517677 0.000755906,0.00225591 -0.000755906,0.00391732 -0.00641732,0.00391732 -0.0445354,0 -0.0902008,-6.69291e-005 -0.134736,-6.69291e-005 -0.00603543,0 -0.0135866,-0.00172835 -0.0135866,-0.00391732 -0.00377165,-0.0173228 -0.00754724,-0.0345118 -0.0105669,-0.0517638z"/>
   <path id="_550849328" class="fil9" d="M4.36327 3.9849c0,0 0,0 0,0 0.00150787,0.00331496 -0.00264173,0.00590551 -0.0086811,0.00590551 -0.0471772,0 -0.0935984,0 -0.14115,0 -0.00528346,0 -0.0113228,-0.00265354 -0.0124567,-0.00597244 -0.00679134,-0.0258189 -0.0139646,-0.0517008 -0.0211339,-0.0775197 -0.00113386,-0.00331496 0.00301969,-0.00610236 0.0086811,-0.00610236 0.0456654,6.29921e-005 0.0909567,6.29921e-005 0.137,0.000129921 0.00528346,-6.69291e-005 0.0109449,0.0027874 0.0120748,0.0061063 0.0086811,0.0258189 0.0173622,0.0516339 0.0256654,0.0774528z"/>
   <path id="_550848608" class="fil9" d="M4.15531 3.81572c0,0 0,0 0,0 -0.00113386,-0.00212205 0.00603937,-0.00398031 0.0113228,-0.00398031 0.0437795,6.69291e-005 0.087937,6.69291e-005 0.132091,6.69291e-005 0.00566142,0 0.00830315,0.00185827 0.00905906,0.00404724 0.00566142,0.017189 0.0109449,0.0344449 0.0169843,0.0517677 0.000377953,0.00218898 -0.00113386,0.00391339 -0.00679528,0.00391339 -0.0449094,0 -0.0898228,0 -0.134732,-0.000129921 -0.00566142,0 -0.0139646,-0.00166142 -0.0143425,-0.00391732 -0.00452756,-0.017189 -0.00981102,-0.0345787 -0.0135866,-0.0517677z"/>
   <path id="_550848440" class="fil9" d="M4.58405 3.98503c0,0 0,0 0,0 0.00151181,0.00325197 -0.00226378,0.00597244 -0.0079252,0.00597244 -0.0471772,-0.000129921 -0.0939764,-0.000129921 -0.140772,-0.000129921 -0.00566142,0 -0.0117008,-0.00265748 -0.0128346,-0.00597244 -0.00905512,-0.025752 -0.0184921,-0.0516339 -0.0275512,-0.0774528 -0.000751969,-0.0033189 0.00301969,-0.0061063 0.00830315,-0.0061063 0.0456693,0 0.0913346,0 0.136248,0 0.00603543,0 0.0116969,0.00285433 0.0132087,0.00617323 0.010189,0.0258189 0.0211339,0.0516339 0.0313228,0.0775157z"/>
   <path id="_550848872" class="fil9" d="M4.68293 4.22375c0,0 0,0 0,0 0.00151181,0.0033189 -0.00301969,0.00597244 -0.00981102,0.00590551 -0.0505748,6.69291e-005 -0.101524,6.69291e-005 -0.152098,0 -0.00566142,6.69291e-005 -0.0120748,-0.00258661 -0.0132087,-0.00590551 -0.00943307,-0.0259488 -0.0184921,-0.0518346 -0.0283071,-0.0776496 -0.000751969,-0.0033189 0.00339764,-0.00597244 0.00943701,-0.00597244 0.048685,0 0.0985039,0 0.147945,6.69291e-005 0.00566142,0 0.0124528,0.00265354 0.0135866,0.00597244 0.0105669,0.025815 0.0215118,0.0516339 0.0324567,0.0775827z"/>
   <path id="_550848824" class="fil9" d="M4.6116 4.34302c0,0 0,0 0,0 0.00113386,0.00331496 -0.00339764,0.00597244 -0.010189,0.00597244 -0.0528386,0 -0.105673,0 -0.157756,0 -0.00679528,-6.69291e-005 -0.0128346,-0.00265748 -0.0143425,-0.00597244 -0.00830315,-0.0258858 -0.0166063,-0.0517677 -0.0249094,-0.0775866 -0.00113386,-0.00331496 0.00339764,-0.00597244 0.00943307,-0.00603937 0.0513307,6.69291e-005 0.102657,0 0.153606,0 0.00679528,0 0.0128346,0.00272441 0.0143425,0.00603937 0.00981102,0.0258189 0.019626,0.0517008 0.029815,0.0775866z"/>
   <path id="_550848200" class="fil9" d="M4.50404 4.10429c0,0 0,0 0,0 0.00113386,0.0033189 -0.00264173,0.00590551 -0.00943307,0.00590551 -0.048685,0 -0.097374,0 -0.146437,0 -0.00603543,0 -0.0116969,-0.00272047 -0.0132087,-0.00597244 -0.00754724,-0.025752 -0.0154724,-0.0517008 -0.0241535,-0.0775157 -0.000755906,-0.0033189 0.00377559,-0.00597244 0.00943701,-0.00597244 0.0475512,0 0.0951063,0 0.142283,6.29921e-005 0.00641339,0 0.0116969,0.00259055 0.0128307,0.00590945 0.00943701,0.0258819 0.019626,0.0517638 0.0286811,0.0775827z"/>
   <path id="_550848536" class="fil9" d="M4.44366 4.22369c0,0 0,0 0,0 0.000751969,0.00325197 -0.00377559,0.00597244 -0.00981496,0.00597244 -0.0513268,0 -0.101902,0 -0.152472,0 -0.00679528,-0.000129921 -0.0124567,-0.00272047 -0.0135866,-0.0061063 -0.00717323,-0.025815 -0.0147205,-0.0517638 -0.0215118,-0.0775827 -0.00113386,-0.00325197 0.0033937,-0.00597244 0.00905512,-0.00597244 0.0498189,0.000133858 0.0988819,0.000133858 0.147945,0.000133858 0.00679528,0 0.0128346,0.00265354 0.0139646,0.00597244 0.00905906,0.025815 0.0173622,0.0516339 0.0264213,0.0775827z"/>
   <path id="_550848728" class="fil9" d="M4.36289 4.34302c0,0 0,0 0,0 0.000377953,0.00331496 -0.00414961,0.00590551 -0.0105669,0.00590551 -0.0528386,6.69291e-005 -0.105673,6.69291e-005 -0.158512,6.69291e-005 -0.00641732,-6.69291e-005 -0.0128307,-0.00265748 -0.0132087,-0.00597244 -0.00679528,-0.0258858 -0.0132126,-0.0518346 -0.019248,-0.0776496 -0.00113386,-0.0033189 0.00377165,-0.00597638 0.010189,-0.00597638 0.0513268,0 0.102654,0 0.153984,0 0.00641339,0 0.0124528,0.00265748 0.0135866,0.00597638 0.0079252,0.0258819 0.0158504,0.0517638 0.0237756,0.0776496z"/>
   <path id="_550848920" class="fil9" d="M4.27873 4.10422c0,0 0,0 0,0 0.00188583,0.00325197 -0.00264173,0.00597244 -0.00905906,0.00597244 -0.048685,-0.000133858 -0.097748,-0.000133858 -0.146433,-0.000133858 -0.00603937,0 -0.0117008,-0.00258661 -0.0128346,-0.00583858 -0.00566142,-0.0258819 -0.0120748,-0.0517008 -0.0181142,-0.0776496 -0.000755906,-0.00325197 0.00377559,-0.00590551 0.00981102,-0.00590551 0.0471772,0 0.0951102,6.69291e-005 0.142283,6.69291e-005 0.00603937,0 0.0109449,0.00265354 0.0120787,0.00597244 0.0079252,0.025815 0.0154724,0.0517638 0.0222677,0.0775157z"/>
   <path id="_550848320" class="fil9" d="M4.20966 4.22369c0,0 0,0 0,0 0.000755906,0.00318504 -0.00377559,0.00584252 -0.010189,0.00584252 -0.0509528,0 -0.101524,0.000129921 -0.15285,0 -0.00603937,0 -0.0113228,-0.00265748 -0.0124567,-0.00597638 -0.00528346,-0.025815 -0.0109449,-0.0517638 -0.0158504,-0.0775827 -0.00113386,-0.00338189 0.00377559,-0.00597244 0.00943307,-0.00597244 0.0501969,0 0.0992598,0 0.148323,0 0.00641732,0 0.0120787,0.00272047 0.0132087,0.00597244 0.00679528,0.0259488 0.0135906,0.0517677 0.0203819,0.0777165z"/>
   <path id="_550848272" class="fil9" d="M4.11946 4.34295c0,0 0,0 0,0 0.00113386,0.00338189 -0.00377559,0.00603937 -0.0105669,0.00597244 -0.0528386,0 -0.105677,0 -0.158512,0 -0.00641732,0 -0.0124567,-0.00265354 -0.0132087,-0.00597244 -0.0045315,-0.0259488 -0.0086811,-0.0517677 -0.0128346,-0.0775827 -0.000751969,-0.0033189 0.00377559,-0.00603937 0.0105669,-0.00603937 0.0513307,0 0.102657,6.29921e-005 0.154362,0 0.00603937,6.29921e-005 0.0120787,0.00265354 0.0132087,0.00603937 0.00566142,0.025815 0.0113228,0.0517638 0.0169843,0.0775827z"/>
   <path id="_550848656" class="fil9" d="M4.04851 4.10409c0,0 0,0 0,0 0.00150787,0.00338583 -0.00377559,0.00597244 -0.00981496,0.00597244 -0.048685,0 -0.0973701,0 -0.146433,-6.29921e-005 -0.00603937,0 -0.0113228,-0.00259055 -0.0124528,-0.00590945 -0.00339764,-0.025815 -0.00830315,-0.0517638 -0.0117008,-0.0775827 -0.000755906,-0.00325197 0.00414961,-0.00597244 0.010189,-0.00597244 0.0471772,0.000133858 0.0947283,0.000133858 0.141906,0.000133858 0.00603937,0 0.0109449,0.00258661 0.0120787,0.00590551 0.00528346,0.0258819 0.0113228,0.0517677 0.0162283,0.0775157z"/>
   <path id="_550847912" class="fil9" d="M3.97001 4.22355c0,0 0,0 0,0 0.000374016,0.0033189 -0.0045315,0.00597638 -0.0105709,0.00597638 -0.0505709,0 -0.101898,0 -0.152094,0 -0.00716929,0 -0.0120787,-0.00265748 -0.0124528,-0.00597638 -0.00377559,-0.0258819 -0.00641732,-0.0517638 -0.0101929,-0.0776496 -0.000377953,-0.00331496 0.00377559,-0.00597244 0.0105669,-0.00597244 0.048689,0 0.0981299,0 0.147945,6.69291e-005 0.00603937,0 0.0113228,0.00259055 0.0124567,0.00597244 0.00452756,0.0258189 0.00981102,0.0517677 0.0143425,0.0775827z"/>
   <path id="_550847672" class="fil9" d="M3.87037 4.34295c0,0 0,0 0,0 0.000755906,0.0033189 -0.00414961,0.00597244 -0.0113228,0.00597244 -0.0524606,0 -0.105295,0 -0.157756,0 -0.00717323,0 -0.0128346,-0.00265354 -0.0132087,-0.00597244 -0.00226772,-0.0259488 -0.0045315,-0.0518346 -0.00679528,-0.0776496 -0.000755906,-0.0033189 0.00452756,-0.00597244 0.0113228,-0.00597244 0.0509488,0 0.102654,0 0.153984,0 0.00641339,0 0.0116969,0.00265354 0.0128307,0.00597244 0.00339764,0.0258819 0.00716929,0.0517008 0.0109449,0.0776496z"/>
   <path id="_550847456" class="fil9" d="M3.82433 4.10409c0,0 0,0 0,0 0.000755906,0.0033189 -0.00415354,0.00590945 -0.0105669,0.00590945 -0.048689,0 -0.097752,0 -0.146437,0 -0.00603937,0 -0.0113228,-0.00265748 -0.0120748,-0.00597638 -0.00151181,-0.025815 -0.00415354,-0.0516969 -0.00603937,-0.0775827 -0.000755906,-0.0033189 0.00414961,-0.00597244 0.010189,-0.00597244 0.0471772,0 0.0951063,6.69291e-005 0.142283,6.69291e-005 0.00603937,0 0.0113228,0.00272047 0.0117008,0.00597244 0.00339764,0.0258189 0.00754724,0.0517677 0.0109449,0.0775827z"/>
   <path id="_550848128" class="fil9" d="M3.73677 4.22355c0,0 0,0 0,0 0,0.00325197 -0.00490551,0.00597638 -0.0117008,0.00590945 -0.0505709,6.69291e-005 -0.101524,0 -0.152094,0 -0.00679528,0 -0.0117008,-0.00265748 -0.0120787,-0.00597244 -0.00113386,-0.0259528 -0.00301969,-0.0517677 -0.00414961,-0.0777165 -0.000377953,-0.00325197 0.00452756,-0.00590945 0.0109449,-0.00590945 0.0494409,6.69291e-005 0.0985039,6.69291e-005 0.147945,6.69291e-005 0.00603543,0 0.0116969,0.00265748 0.0120748,0.00597244 0.00264173,0.0258189 0.00566142,0.0517677 0.00905906,0.0776496z"/>
   <path id="_550847792" class="fil9" d="M3.6277 4.34295c0,0 0,0 0,0 0.000377953,0.0033189 -0.00490945,0.00597244 -0.0117008,0.00597244 -0.0528386,-6.69291e-005 -0.105673,-6.69291e-005 -0.158512,-6.69291e-005 -0.00641732,0 -0.0120787,-0.00258661 -0.0124567,-0.00597244 0,-0.0258819 -0.000374016,-0.0517677 -0.000374016,-0.0775827 0,-0.0033189 0.00490551,-0.0061063 0.0113189,-0.0061063 0.0513307,0 0.103035,0.000133858 0.153984,0.000133858 0.00679528,0 0.0117008,0.00265354 0.0124567,0.00597244 0.00150787,0.025815 0.0033937,0.0517008 0.00528346,0.0776496z"/>
   <path id="_550847888" class="fil9" d="M3.59335 4.10402c0,0 0,0 0,0 0.000755906,0.0033189 -0.00452756,0.00590945 -0.0105669,0.00590945 -0.048685,0 -0.097748,0 -0.146433,0 -0.00566142,0 -0.0105709,-0.00272047 -0.0109449,-0.00597244 0.000374016,-0.0258858 -0.000755906,-0.0517008 -0.000755906,-0.0776496 0,-0.00325197 0.00490551,-0.00584252 0.0109449,-0.00584252 0.0475512,0 0.0943504,0 0.141906,0 0.00566142,0 0.0113228,0.00265354 0.0113228,0.00597244 0.00150787,0.0258858 0.00377165,0.0517677 0.00452756,0.0775827z"/>
   <path id="_550847648" class="fil9" d="M3.49636 4.22349c0,0 0,0 0,0 0,0.00331496 -0.00528346,0.00597244 -0.0117008,0.00597244 -0.0505748,0 -0.101524,0 -0.152094,0 -0.00603937,0 -0.0109449,-0.00265748 -0.0109449,-0.00597244 0.000374016,-0.0259528 0.00112992,-0.0518346 0.00150787,-0.0777165 0.000377953,-0.00325197 0.00528346,-0.00590945 0.0113228,-0.00590945 0.048685,0 0.0988819,0 0.147945,0 0.00603937,0 0.0109449,0.00265748 0.0116969,0.00590945 0.000755906,0.0259488 0.00151181,0.0517638 0.00226772,0.0777165z"/>
   <path id="_550847936" class="fil9" d="M3.37861 4.34288c0,0 0,0 0,0 0,0.00325197 -0.00528346,0.00597244 -0.0120787,0.00597244 -0.0528386,0 -0.106051,0 -0.158134,0 -0.00679528,0 -0.0120787,-0.00272047 -0.0117008,-0.00597244 0.00151181,-0.0259488 0.00301969,-0.0517677 0.00528346,-0.0777165 0,-0.0033189 0.00528346,-0.00597244 0.0120787,-0.00597244 0.0505709,0 0.101902,0 0.153606,0 0.00641339,0 0.0116969,0.00265354 0.0116969,0.00597244 -0.000374016,0.0259488 -0.000751969,0.0517677 -0.000751969,0.0777165z"/>
   <path id="_550848032" class="fil9" d="M3.36879 4.10396c0,0 0,0 0,0 0.000377953,0.00325197 -0.00452756,0.00597244 -0.0109449,0.00597244 -0.049063,0 -0.097748,-0.000133858 -0.146055,-0.000133858 -0.00641732,0 -0.0113228,-0.00258661 -0.0117008,-0.00583858 0.00264173,-0.0258858 0.00414961,-0.0517677 0.00566142,-0.0776496 0.000377953,-0.00325197 0.00528346,-0.00590945 0.0113228,-0.00590945 0.0475512,0 0.0943504,0 0.141906,0 0.00566142,0 0.0109449,0.00265748 0.0109449,0.00590945 0,0.0259488 -0.000377953,0.0517638 -0.00113386,0.0776496z"/>
   <path id="_550847768" class="fil9" d="M3.26274 4.22349c0,0 0,0 0,0 0,0.00331496 -0.00566142,0.00597244 -0.0120787,0.00597244 -0.0505709,-6.69291e-005 -0.101146,-6.69291e-005 -0.152094,-6.69291e-005 -0.00603937,0 -0.0117008,-0.00272047 -0.0105669,-0.00597244 0.00226378,-0.0259488 0.00452756,-0.0517677 0.00754724,-0.0777165 0,-0.0033189 0.00566142,-0.00597244 0.0117008,-0.00597244 0.049063,0 0.0985039,0 0.147567,0 0.00603937,0 0.0117008,0.0027874 0.0113228,0.00603937 -0.00113386,0.0258819 -0.00226378,0.0517638 -0.00339764,0.0777165z"/>
   <path id="_550847360" class="fil9" d="M3.13555 4.34288c0,0 0,0 0,0 0,0.00325197 -0.00565748,0.00597244 -0.0124528,0.00597244 -0.0528386,0 -0.105295,0 -0.158134,0 -0.00679528,0 -0.0117008,-0.00272047 -0.0113228,-0.00597244 0.00377559,-0.0259488 0.00716929,-0.0519016 0.0113228,-0.0777165 0.000377953,-0.0033189 0.00566142,-0.00597244 0.0124528,-0.00597244 0.0505748,0 0.10228,0 0.153606,0 0.00641732,0 0.0113228,0.00265354 0.0113228,0.00597244 -0.00226378,0.025815 -0.00490551,0.0517677 -0.00679528,0.0777165z"/>
   <path id="_550847072" class="fil9" d="M3.13857 4.10396c0,0 0,0 0,0 0.000377953,0.00325197 -0.00528346,0.00583858 -0.0116969,0.00583858 -0.048689,0 -0.098126,0 -0.146437,0 -0.00566142,0 -0.010189,-0.00265354 -0.0105669,-0.00597244 0.00415354,-0.0258189 0.0079252,-0.0517677 0.0113228,-0.0775827 0.000755906,-0.0033189 0.00566142,-0.00597244 0.0120748,-0.00597244 0.0471772,0 0.0943543,0 0.141909,0.000129921 0.00603543,-0.000129921 0.0109449,0.00252362 0.010189,0.00584252 -0.00188583,0.0259488 -0.00377559,0.0518307 -0.00679528,0.0777165z"/>
   <path id="_550847000" class="fil9" d="M3.02346 4.22342c0,0 0,0 0,0 -0.000374016,0.00325197 -0.00641339,0.00597244 -0.0124528,0.00597244 -0.0505748,0 -0.101902,0 -0.152472,0 -0.00679528,0 -0.0113228,-0.00272047 -0.0105669,-0.00597244 0.00452756,-0.0259488 0.00905512,-0.0519016 0.0139606,-0.0777835 0.000755906,-0.0033189 0.00566142,-0.00597244 0.0120787,-0.00597244 0.0494409,0 0.0988819,6.69291e-005 0.147945,6.69291e-005 0.00641732,0 0.0113228,0.00265354 0.0109449,0.00597244 -0.00339764,0.025815 -0.00679528,0.0517677 -0.00943701,0.0777165z"/>
   <path id="_550846856" class="fil9" d="M2.88684 4.34288c0,0 0,0 0,0 -0.000374016,0.00325197 -0.00641339,0.00597244 -0.0132087,0.00597244 -0.0528346,0 -0.105673,-0.000133858 -0.158512,-0.000133858 -0.00641732,0 -0.0109449,-0.00265354 -0.0105669,-0.00597244 0.00566142,-0.0258819 0.0113228,-0.0517677 0.0173622,-0.0776496 0.000374016,-0.0033189 0.00641339,-0.00597244 0.0132087,-0.00597244 0.0505709,0 0.101902,0 0.153228,0 0.00679134,0 0.0117008,0.00265354 0.0113228,0.00597244 -0.0045315,0.0258819 -0.00830315,0.0518346 -0.0128346,0.0777835z"/>
   <path id="_550847264" class="fil9" d="M2.91326 4.10383c0,0 0,0 0,0 0.000377953,0.0033189 -0.0045315,0.00590551 -0.0113228,0.00590551 -0.049063,0 -0.097748,0 -0.146437,0 -0.00603543,0 -0.010189,-0.00265354 -0.010189,-0.00597244 0.00641732,-0.025815 0.0117008,-0.0517008 0.0173622,-0.0775827 0.000751969,-0.0033189 0.00603937,-0.00597244 0.0120748,-0.00597244 0.0471772,0 0.0943543,0 0.142283,0 0.00566142,0 0.0101929,0.00272047 0.00943701,0.00603937 -0.00452756,0.025815 -0.0079252,0.0517638 -0.0132087,0.0775827z"/>
   <path id="_550847288" class="fil9" d="M2.78985 4.22329c0,0 0,0 0,0 -0.000755906,0.0033189 -0.00679528,0.00597244 -0.0135866,0.00597244 -0.0509528,0 -0.101524,0 -0.152098,0 -0.00603543,0 -0.0109449,-0.00265354 -0.00981102,-0.00597244 0.00603937,-0.0258819 0.0128307,-0.0518346 0.019626,-0.0776496 0.000751969,-0.0033189 0.00641339,-0.00597244 0.0124528,-0.00597244 0.0494409,0 0.0985039,0 0.147567,0 0.00717323,0 0.0117008,0.00265354 0.0109449,0.00597244 -0.00490551,0.0258819 -0.010189,0.0517677 -0.0150945,0.0776496z"/>
   <path id="_550846928" class="fil9" d="M2.64341 4.34275c0,0 0,0 0,0 -0.000377953,0.0033189 -0.00641339,0.00597244 -0.0132087,0.00597244 -0.0528386,0 -0.105673,0 -0.158134,0 -0.00679528,0 -0.0109449,-0.00265354 -0.0105669,-0.00597244 0.00754724,-0.0258819 0.0154724,-0.0518307 0.0233976,-0.0776496 0.00113386,-0.0033189 0.00717323,-0.00597244 0.0135866,-0.00597244 0.0509528,0 0.101902,0 0.153606,0 0.00641732,0 0.0109449,0.00265354 0.010189,0.00597244 -0.00641339,0.0258819 -0.0124528,0.0517677 -0.0188701,0.0776496z"/>
   <path id="_550846736" class="fil9" d="M2.68342 4.10376c0,0 0,0 0,0 0,0.0033189 -0.00603937,0.00597244 -0.0120787,0.00597244 -0.0494409,0 -0.098126,-6.69291e-005 -0.146811,-6.69291e-005 -0.00566142,0 -0.00981496,-0.00272047 -0.00981496,-0.00597244 0.00830315,-0.0258819 0.0154764,-0.0517008 0.0234016,-0.0776496 0.00112992,-0.00325197 0.00679134,-0.00590551 0.0124528,-0.00590551 0.0475551,0 0.0951063,0 0.142661,6.69291e-005 0.00566142,0 0.00981496,0.00265354 0.00943701,0.00597244 -0.00641732,0.025815 -0.0120787,0.0517677 -0.019248,0.0775827z"/>
   <path id="_550847192" class="fil9" d="M2.54981 4.22329c0,0 0,0 0,0 -0.000755906,0.0033189 -0.00679528,0.00597244 -0.0132126,0.00597244 -0.0505709,0 -0.101898,0 -0.152472,0 -0.00679134,-6.69291e-005 -0.0109449,-0.00272047 -0.00943307,-0.00603937 0.00829921,-0.025815 0.0169803,-0.0517677 0.0256614,-0.0777165 0.00113386,-0.00325197 0.00641732,-0.00590551 0.0132087,-0.00590551 0.049063,0 0.098126,0 0.147945,0 0.00566142,0 0.0105669,0.00265354 0.00943701,0.00590551 -0.00679528,0.0259488 -0.0139646,0.0519016 -0.0211339,0.0777835z"/>
   <path id="_550847384" class="fil9" d="M2.39507 4.34275c0,0 0,0 0,0 -0.00113386,0.0033189 -0.00754724,0.00597244 -0.0143425,0.00597244 -0.0524606,0 -0.105295,0 -0.158134,0 -0.00716929,0 -0.0113228,-0.00265354 -0.010189,-0.00597244 0.00981102,-0.0258819 0.019626,-0.0518307 0.029437,-0.0777835 0.00113386,-0.00325197 0.00754724,-0.00590551 0.0139646,-0.00590551 0.0513268,0 0.102654,0 0.153984,0 0.00641339,0 0.0113228,0.00265354 0.00981102,0.00590551 -0.00830315,0.0259528 -0.0166063,0.0519016 -0.0245315,0.0777835z"/>
   <path id="_550846784" class="fil9" d="M2.45848 4.10369c0,0 0,0 0,0 -0.000377953,0.00325197 -0.00603937,0.00597244 -0.0124567,0.00597244 -0.048685,0 -0.0973701,0 -0.146433,0 -0.00603937,0 -0.010189,-0.00272047 -0.00943701,-0.00597244 0.0101929,-0.0258819 0.019626,-0.0517638 0.029063,-0.0777165 0.00150787,-0.0033189 0.00716929,-0.00597244 0.0128307,-0.00597244 0.0475551,0 0.0951063,0.000133858 0.142661,0.000133858 0.00566142,0 0.00981102,0.00265354 0.00905906,0.00590551 -0.0086811,0.0259488 -0.0162283,0.0517677 -0.0252874,0.0776496z"/>
   <path id="_520367200" class="fil9" d="M2.22826 4.10369c0,0 0,0 0,0 -0.000755906,0.00325197 -0.00679528,0.00584252 -0.0128307,0.00584252 -0.0494409,0 -0.098126,0 -0.146437,0 -0.00641339,0 -0.00981102,-0.00265748 -0.00943307,-0.00597638 0.0128307,-0.025815 0.0245315,-0.0517638 0.0354764,-0.0776496 0.00150787,-0.00331496 0.00754724,-0.00597244 0.0135866,-0.00597244 0.0471732,0 0.0947283,6.69291e-005 0.141906,6.69291e-005 0.00641732,0 0.010189,0.00265354 0.00830315,0.00597244 -0.00943701,0.0259528 -0.019626,0.0518346 -0.0305709,0.0777165z"/>
   <path id="_520368736" class="fil9" d="M2.15202 4.34275c0,0 0,0 0,0 -0.00113386,0.0033189 -0.0079252,0.00597244 -0.0143425,0.00597244 -0.0528386,-6.69291e-005 -0.105673,-6.69291e-005 -0.158512,-6.69291e-005 -0.00641732,0 -0.0105669,-0.00265354 -0.00981102,-0.00597244 0.0116969,-0.0259488 0.0237756,-0.0518307 0.0358543,-0.0777165 0.00150787,-0.00325197 0.0079252,-0.00590551 0.0139606,-0.00590551 0.0517087,0 0.103035,0 0.153984,0 0.00679528,0 0.0109449,0.00265354 0.00981496,0.00590551 -0.0105709,0.0259528 -0.0207598,0.0519016 -0.0309488,0.0777835z"/>
   <path id="_508553672" class="fil9" d="M2.3162 4.22322c0,0 0,0 0,0 -0.00113386,0.0033189 -0.00717323,0.00597244 -0.0139646,0.00597244 -0.0505748,0 -0.101524,0 -0.152472,0 -0.00641732,0 -0.0105669,-0.00265354 -0.0086811,-0.00597244 0.010189,-0.0259488 0.0207559,-0.0518307 0.0313228,-0.0777835 0.00151181,-0.00331496 0.00679528,-0.00597244 0.0135866,-0.00597244 0.0490669,0 0.0985039,0.000133858 0.147945,0.000133858 0.00641732,0 0.0109449,0.00265354 0.00943701,0.00590551 -0.00905906,0.0259488 -0.0181142,0.0517677 -0.0271732,0.0777165z"/>
   <path id="_508547288" class="fil9" d="M4.92259 4.22375c0,0 0,0 0,0 0.00150787,0.00338583 -0.00264173,0.00597244 -0.0086811,0.00603937 -0.0513307,-6.69291e-005 -0.101902,-6.69291e-005 -0.152098,-6.69291e-005 -0.00716929,-6.69291e-005 -0.0128307,-0.00265354 -0.0143386,-0.00597244 -0.0113228,-0.0259488 -0.0226457,-0.0517677 -0.0339685,-0.0775827 -0.00151181,-0.0033189 0.00188583,-0.00597244 0.0086811,-0.00597244 0.049063,0 0.0985039,0 0.147567,0 0.00641339,0 0.0128307,0.00265354 0.0143425,0.00597244 0.0128307,0.025815 0.0256614,0.0517677 0.0384961,0.0775827z"/>
   <path id="_508539512" class="fil9" d="M4.73388 4.10436c0,0 0,0 0,0 0.00188976,0.0033189 -0.00264173,0.00590551 -0.00867717,0.00590551 -0.048689,0 -0.097374,0 -0.146059,-6.69291e-005 -0.00641732,0 -0.0117008,-0.00258661 -0.0135866,-0.00590551 -0.00943701,-0.0258189 -0.0200039,-0.0517008 -0.0301929,-0.0775827 -0.00113386,-0.00318504 0.00301969,-0.00590945 0.00943701,-0.00590945 0.0464213,0 0.0943504,0 0.141528,0.000133858 0.00603937,0 0.0117008,0.00265354 0.0132087,0.00584252 0.0113228,0.025815 0.0233976,0.0517638 0.0343425,0.0775827z"/>
   <path id="_508554488" class="fil9" d="M4.36365 3.81586c0,0 0,0 0,0 -0.00113386,-0.00205512 0.00566142,-0.00391339 0.0109449,-0.00391339 0.0441575,0 0.087937,0 0.132094,0 0.00565748,0 0.00829921,0.00185827 0.00981102,0.00398031 0.00641732,0.0172559 0.0128307,0.0345787 0.020378,0.0518307 0.000377953,0.00212598 -0.000751969,0.00385039 -0.00641339,0.00385039 -0.0449134,-6.69291e-005 -0.0898228,-6.69291e-005 -0.134736,-6.69291e-005 -0.00566142,0 -0.0135866,-0.00172441 -0.0143425,-0.00384646 -0.00603937,-0.0173228 -0.0116969,-0.0345787 -0.0177362,-0.0518346z"/>
   <path id="_508554296" class="fil9" d="M4.57235 3.81599c0,0 0,0 0,0 -0.00113386,-0.00212598 0.00490551,-0.00398425 0.0105669,-0.00404724 0.0437795,6.29921e-005 0.0875591,6.29921e-005 0.131717,6.29921e-005 0.00603543,0 0.00829921,0.00185827 0.010189,0.00411811 0.00754724,0.017189 0.0158504,0.034378 0.0241535,0.0516299 0.000755906,0.00225984 0,0.00391732 -0.00566142,0.00391732 -0.0452874,0 -0.0898228,0 -0.134736,-6.69291e-005 -0.00603937,0 -0.0139646,-0.00172441 -0.0147165,-0.00391339 -0.00755118,-0.017189 -0.0143425,-0.0345118 -0.0215118,-0.0517008z"/>
  </g>
  <rect class="fil10" x="5.2567" y="5.08552" width="0.0555486" height="0.0625"/>
  <rect class="fil11" x="5.37892" y="5.08552" width="0.0555486" height="0.0625"/>
  <rect class="fil12" x="5.50115" y="5.08552" width="0.0555486" height="0.0625"/>
 </g>
 <rect class="fil13" width="6.82666" height="6.82666"/>
</svg>
