<?xml version="1.0" encoding="UTF-8"?>
<!DOCTYPE svg PUBLIC "-//W3C//DTD SVG 1.1//EN" "http://www.w3.org/Graphics/SVG/1.1/DTD/svg11.dtd">
<!-- Creator: CorelDRAW -->
<svg xmlns="http://www.w3.org/2000/svg" xml:space="preserve" width="6.82666in" height="6.82666in" style="shape-rendering:geometricPrecision; text-rendering:geometricPrecision; image-rendering:optimizeQuality; fill-rule:evenodd; clip-rule:evenodd"
viewBox="0 0 6.82666 6.82666"
 xmlns:xlink="http://www.w3.org/1999/xlink">
 <defs>
  <style type="text/css">
   <![CDATA[
    .fil5 {fill:none}
    .fil4 {fill:#2D2D2D}
    .fil1 {fill:#B0B0B0}
    .fil2 {fill:#C5C6C6}
    .fil3 {fill:#8C8D8D;fill-rule:nonzero}
    .fil0 {fill:#AEAEAF;fill-rule:nonzero}
   ]]>
  </style>
 </defs>
 <g id="Layer_x0020_1">
  <metadata id="CorelCorpID_0Corel-Layer"/>
  <path class="fil0" d="M0.865602 4.08361c0.0219646,-0.0539843 0.209157,-0.525429 0.209094,-0.525488 0.0184803,-0.0451929 0.0644331,-0.070878 0.110669,-0.0656496l0.0380315 0.000877953c0.52652,0.0119803 1.58723,0.0362165 2.18993,0.564894 0.602697,-0.528677 1.66341,-0.552913 2.18993,-0.564894 0.0635709,-0.0014685 0.128524,-0.00525984 0.15224,0.0747795 0.0712323,0.174453 0.138142,0.350622 0.209429,0.524972 0.00783071,0.0273858 0.0299882,0.102976 -0.0578937,0.138909 -0.0214567,0.00877165 -0.0441102,0.0100394 -0.0650591,0.00503937 -0.234291,-0.0447323 -0.624394,-0.0176142 -1.0339,0.0812598 -0.553453,0.133634 -0.798701,0.37965 -1.19742,0.506709 -0.121858,0.0388268 -0.272634,0.038878 -0.394654,0 -0.400508,-0.127606 -0.648634,-0.374201 -1.19742,-0.506709 -0.411933,-0.0994567 -0.804252,-0.126323 -1.03807,-0.0804685 -0.110626,0.0259961 -0.153921,-0.0802047 -0.114909,-0.154232z"/>
  <g id="_256414384">
   <path id="_256414360" class="fil1" d="M3.40856 4.85414c-0.066563,-0.000440945 -0.132988,-0.0101378 -0.192555,-0.0291181 -0.400508,-0.127606 -0.648634,-0.374201 -1.19742,-0.506709 -0.411933,-0.0994567 -0.804252,-0.126323 -1.03807,-0.0804685 -0.110626,0.0259961 -0.153921,-0.0802047 -0.114909,-0.154232 0.0219646,-0.0539843 0.209157,-0.525429 0.209094,-0.525488 0.00627165,-0.0153386 0.0157126,-0.0284331 0.027252,-0.0388307l0.261965 -0.59285 0.390941 -0.884748c0.0156063,-0.0413307 0.0560787,-0.0702047 0.102728,-0.0689291 -0.000169291,0.00624409 -0.000204724,0.00774803 -3.93701e-006,0.000374016 0.529343,0.0145315 1.14823,0.0595433 1.55098,0.445256l0 2.43574z"/>
   <path id="_256414744" class="fil2" d="M3.41333 2.42292c0.429425,-0.415902 1.14637,-0.438673 1.51343,-0.448606 0.00296063,-0.000330709 0.00596063,-0.000547244 0.00899213,-0.000629921l1.1811e-005 0.000374016 0.0241732 -0.000661417c0.0445827,-0.00507874 0.0893031,0.0185394 0.10902,0.0615433l-0.000295276 0.000291339 0.681484 1.48628c0.00824409,0.0180472 0.0110157,0.0372008 0.00901181,0.0555906 0.0698701,0.17152 0.135705,0.344642 0.205772,0.516004 0.00783071,0.0273858 0.0299882,0.102976 -0.0578937,0.138909 -0.0214567,0.00877165 -0.0441102,0.0100394 -0.0650591,0.00503937 -0.234291,-0.0447323 -0.624394,-0.0176142 -1.0339,0.0812598 -0.553453,0.133634 -0.798701,0.37965 -1.19742,0.506709 -0.0621693,0.0198071 -0.131858,0.0295157 -0.201417,0.0291181l-0.000681102 0 0 -2.43574 0.00362992 0.00344094 0.00114173 0.00107874z"/>
  </g>
  <path class="fil3" d="M0.865634 4.08191c0.0220118,-0.0541024 0.209622,-0.526594 0.209559,-0.526654 0.0185197,-0.0452913 0.0645748,-0.0710354 0.110913,-0.0657953l0.0381142 0.00088189c0.527689,0.0120079 1.59075,0.0362953 2.19478,0.566146 0.604035,-0.52985 1.6671,-0.554138 2.19478,-0.566146 0.0637126,-0.00147244 0.128807,-0.00527165 0.152579,0.0749449 0.0713898,0.174839 0.138449,0.351398 0.209894,0.526138 0.00784646,0.0274449 0.0300551,0.103205 -0.0580236,0.139217 -0.0215039,0.00879134 -0.0442087,0.0100591 -0.0652008,0.00505118 -0.234811,-0.0448346 -0.62578,-0.0176535 -1.0362,0.081437 -0.554677,0.133933 -0.800469,0.380492 -1.20007,0.507835 -0.122126,0.0389094 -0.273236,0.0389606 -0.395528,0 -0.401394,-0.12789 -0.650071,-0.375031 -1.20007,-0.507835 -0.412846,-0.0996772 -0.806035,-0.126602 -1.04037,-0.0806457 -0.110874,0.0260551 -0.154264,-0.0803819 -0.115165,-0.154575z"/>
  <path class="fil4" d="M1.91576 4.13656c-0.16322,-0.0379291 -1.06053,-0.215059 -1.13541,-0.0309921 -0.0403189,0.0765039 0.0044252,0.18626 0.118756,0.159394 0.241646,-0.0473898 0.647098,-0.019622 1.07282,0.0831654 0.567154,0.136941 0.823587,0.391791 1.2375,0.523669 0.126106,0.0401772 0.281929,0.040126 0.407866,0 0.412063,-0.131311 0.66552,-0.385563 1.2375,-0.523669 0.423217,-0.102185 0.826378,-0.130213 1.06851,-0.0839803 0.0216496,0.00516535 0.045063,0.00385433 0.0672362,-0.00520866 0.0993189,-0.0406102 0.103587,-0.200035 -0.0466654,-0.217665 -0.255256,-0.0299567 -0.632528,0.00225984 -1.03284,0.0952874 -0.594283,0.138106 -0.857622,0.392358 -1.28576,0.523669 -0.130843,0.040126 -0.292744,0.0401811 -0.423764,0 -0.430051,-0.131878 -0.696484,-0.386724 -1.28575,-0.523669z"/>
  <g id="_256412824">
   <path id="_256413952" class="fil3" d="M4.87589 2.24693c0.018811,-0.00166142 0.0327402,-0.0185669 0.0311102,-0.0377559 -0.00162992,-0.019189 -0.0182008,-0.0333976 -0.0370157,-0.0317323 -0.213705,0.0194724 -0.422339,0.0526772 -0.624236,0.104008 -0.202693,0.0515197 -0.398953,0.121303 -0.587181,0.213756 -0.0170354,0.00838583 -0.0241811,0.0292717 -0.0159606,0.0466496 0.00822047,0.017378 0.0286969,0.0246654 0.0457323,0.0162795 0.183819,-0.0902835 0.375598,-0.158461 0.573768,-0.208835 0.198961,-0.0505787 0.404067,-0.0832559 0.613783,-0.10237z"/>
   <path id="_256413616" class="fil3" d="M4.97182 2.56486c0.0199134,-0.00166535 0.0346575,-0.0185709 0.0329331,-0.0377598 -0.00172441,-0.019185 -0.0192717,-0.0333937 -0.039185,-0.0317323 -0.22624,0.0194724 -0.447114,0.0526811 -0.660854,0.104008 -0.214583,0.0515236 -0.422354,0.121307 -0.621622,0.213756 -0.0180354,0.00838583 -0.0255984,0.0292756 -0.0168976,0.0466496 0.00870079,0.017378 0.0303819,0.0246654 0.0484134,0.0162835 0.194602,-0.0902835 0.39763,-0.158465 0.607425,-0.208835 0.21063,-0.0505827 0.427768,-0.0832598 0.649787,-0.10237z"/>
   <path id="_256413568" class="fil3" d="M5.16948 3.20071c0.0219961,-0.00166142 0.0382835,-0.0185669 0.036374,-0.0377559 -0.00190551,-0.019189 -0.0212835,-0.0333976 -0.0432795,-0.0317323 -0.24989,0.0194724 -0.49385,0.0526811 -0.729933,0.104008 -0.237012,0.0515197 -0.466496,0.121307 -0.686598,0.213756 -0.0199173,0.00838583 -0.0282717,0.0292717 -0.0186614,0.0466496 0.00961024,0.017378 0.0335551,0.0246654 0.0534764,0.0162795 0.214941,-0.0902835 0.439193,-0.158461 0.670913,-0.208835 0.23265,-0.0505787 0.472484,-0.0832559 0.717709,-0.10237z"/>
   <g>
    <path id="_256413520" class="fil3" d="M5.05953 2.88278c0.0206102,-0.00166142 0.0358661,-0.0185669 0.0340827,-0.0377559 -0.0017874,-0.019189 -0.0199409,-0.0333976 -0.0405512,-0.0317362 -0.234126,0.0194764 -0.462693,0.0526811 -0.683878,0.104008 -0.222059,0.0515236 -0.437071,0.121307 -0.643283,0.21376 -0.0186614,0.00838189 -0.0264882,0.0292717 -0.0174843,0.0466496 0.00900394,0.017374 0.0314409,0.0246654 0.0501024,0.0162795 0.201378,-0.0902835 0.411484,-0.158465 0.628583,-0.208835 0.217972,-0.0505787 0.442677,-0.0832559 0.672429,-0.10237z"/>
    <g>
     <path id="_256413496" class="fil3" d="M1.94888 2.24693c-0.018811,-0.00166142 -0.0327402,-0.0185669 -0.0311102,-0.0377559 0.00162992,-0.019189 0.0182008,-0.0333976 0.0370157,-0.0317323 0.213705,0.0194724 0.422339,0.0526772 0.624236,0.104008 0.202693,0.0515197 0.398953,0.121303 0.587181,0.213756 0.0170354,0.00838583 0.0241811,0.0292717 0.0159606,0.0466496 -0.00822047,0.017378 -0.0286969,0.0246654 -0.0457323,0.0162795 -0.183819,-0.0902835 -0.375598,-0.158461 -0.573768,-0.208835 -0.198961,-0.0505787 -0.404067,-0.0832559 -0.613783,-0.10237z"/>
     <path id="_256413688" class="fil3" d="M1.85295 2.56486c-0.0199134,-0.00166535 -0.0346575,-0.0185709 -0.0329331,-0.0377598 0.00172441,-0.019185 0.0192717,-0.0333937 0.039185,-0.0317323 0.22624,0.0194724 0.447114,0.0526811 0.660854,0.104008 0.214583,0.0515236 0.422354,0.121307 0.621622,0.213756 0.0180354,0.00838583 0.0255984,0.0292756 0.0168976,0.0466496 -0.00870079,0.017378 -0.0303819,0.0246654 -0.0484134,0.0162835 -0.194602,-0.0902835 -0.39763,-0.158465 -0.607425,-0.208835 -0.21063,-0.0505827 -0.427768,-0.0832598 -0.649787,-0.10237z"/>
     <path id="_256413016" class="fil3" d="M1.76524 2.88278c-0.0206102,-0.00166142 -0.0358661,-0.0185669 -0.0340827,-0.0377559 0.0017874,-0.019189 0.0199409,-0.0333976 0.0405512,-0.0317362 0.234126,0.0194764 0.462693,0.0526811 0.683878,0.104008 0.222059,0.0515236 0.437071,0.121307 0.643283,0.21376 0.0186614,0.00838189 0.0264882,0.0292717 0.0174843,0.0466496 -0.00900394,0.017374 -0.0314409,0.0246654 -0.0501024,0.0162795 -0.201378,-0.0902835 -0.411484,-0.158465 -0.628583,-0.208835 -0.217972,-0.0505787 -0.442677,-0.0832559 -0.672429,-0.10237z"/>
     <path id="_256412896" class="fil3" d="M1.6553 3.20071c-0.0219961,-0.00166142 -0.0382835,-0.0185669 -0.036374,-0.0377559 0.00190551,-0.019189 0.0212835,-0.0333976 0.0432795,-0.0317323 0.24989,0.0194724 0.49385,0.0526811 0.729933,0.104008 0.237012,0.0515197 0.466496,0.121307 0.686598,0.213756 0.0199173,0.00838583 0.0282717,0.0292717 0.0186614,0.0466496 -0.00961024,0.017378 -0.0335551,0.0246654 -0.0534764,0.0162795 -0.214941,-0.0902835 -0.439193,-0.158461 -0.670913,-0.208835 -0.23265,-0.0505787 -0.472484,-0.0832559 -0.717709,-0.10237z"/>
    </g>
   </g>
  </g>
 </g>
 <rect class="fil5" width="6.82666" height="6.82666"/>
</svg>
