<?xml version="1.0" encoding="UTF-8"?>
<!DOCTYPE svg PUBLIC "-//W3C//DTD SVG 1.1//EN" "http://www.w3.org/Graphics/SVG/1.1/DTD/svg11.dtd">
<!-- Creator: CorelDRAW -->
<svg xmlns="http://www.w3.org/2000/svg" xml:space="preserve" width="6.82666in" height="6.82666in" style="shape-rendering:geometricPrecision; text-rendering:geometricPrecision; image-rendering:optimizeQuality; fill-rule:evenodd; clip-rule:evenodd"
viewBox="0 0 6.82666 6.82666"
 xmlns:xlink="http://www.w3.org/1999/xlink">
 <defs>
  <style type="text/css">
   <![CDATA[
    .fil3 {fill:none}
    .fil0 {fill:#868686}
    .fil2 {fill:white}
    .fil1 {fill:white;fill-rule:nonzero}
   ]]>
  </style>
 </defs>
 <g id="Layer_x0020_1">
  <metadata id="CorelCorpID_0Corel-Layer"/>
  <polygon class="fil0" points="3.41333,0.853331 3.87318,1.49335 4.62056,1.15089 4.7303,1.9313 5.55123,1.97539 5.28573,2.71741 5.99213,3.13795 5.41221,3.6716 5.84226,4.37225 5.08077,4.57526 5.13596,5.39552 4.36734,5.22139 4.03501,5.97333 3.43535,5.46196 2.79165,5.97333 2.49833,5.24187 1.6907,5.39552 1.77092,4.61152 0.984398,4.37225 1.41976,3.71533 0.834531,3.13795 1.52531,2.7586 1.27543,1.97539 2.06338,1.96052 2.2061,1.15089 2.91071,1.5039 "/>
  <g id="_561544400">
   <path id="_561544688" class="fil1" d="M2.71083 4.48441l1.13142 -2.18 -3.54331e-005 -0.000141732c0.00697638,-0.0134449 0.0207559,-0.0210591 0.0349409,-0.0208307l0.205732 0c0.0213307,0 0.038626,0.0172953 0.038626,0.038626 0,0.00737795 -0.0020748,0.0142677 -0.00566142,0.0201339l-1.12759 2.18004 -0.034248 -0.0176535 0.0343071 0.0177441c-0.00696457,0.0134724 -0.0207598,0.0211102 -0.0349606,0.0208819l-0.209591 0c-0.0213307,0 -0.038626,-0.0172953 -0.038626,-0.038626 0,-0.00739764 0.00207874,-0.0143071 0.00568504,-0.0201772z"/>
   <path id="_561545408" class="fil2" d="M2.84685 2.48328c0.0303425,0.0156339 0.0576575,0.0385787 0.0817953,0.0688898 0.000767717,0.000818898 0.00150787,0.00167323 0.0022126,0.0025748l-3.93701e-005 3.14961e-005c0.0247283,0.0314764 0.0430512,0.0736063 0.0549646,0.126311 0.0113189,0.0500787 0.0169803,0.109811 0.0169803,0.179134 0,0.0748504 -0.00559449,0.138654 -0.0167165,0.191378 -0.0117638,0.0557756 -0.0299961,0.0996535 -0.0546024,0.131618 -0.0244646,0.0317756 -0.0525118,0.0558583 -0.0840551,0.0721575 -0.0320866,0.0165787 -0.0671378,0.0249055 -0.105071,0.0249055 -0.0372283,0 -0.0718268,-0.00821654 -0.10372,-0.0246535 -0.030685,-0.015815 -0.0582244,-0.0389921 -0.0825315,-0.0695315 -0.000535433,-0.000610236 -0.00105512,-0.00124016 -0.00155512,-0.00188976l9.05512e-005 -6.69291e-005c-0.0244606,-0.0317913 -0.042626,-0.0738858 -0.0544134,-0.126268 -0.0112244,-0.0498622 -0.0168701,-0.109157 -0.0168701,-0.177878 0,-0.0753819 0.00548819,-0.139602 0.0165157,-0.192657 0.011622,-0.0558858 0.0297047,-0.099815 0.0543189,-0.131783 0.0245236,-0.0318543 0.0524134,-0.0559409 0.0836614,-0.072185 0.0318543,-0.016563 0.0666929,-0.0248819 0.104504,-0.0248819 0.0375118,0 0.0724094,0.00824409 0.104531,0.0247953zm-0.555827 0.155236c-0.0196811,0.0666299 -0.0295236,0.138626 -0.0295236,0.215917 0,0.0977677 0.0109213,0.183728 0.0328228,0.257882 0.0220197,0.0745472 0.0552047,0.137039 0.0996142,0.187472 0.000704724,0.000948819 0.00145276,0.00187795 0.00225591,0.00277953l3.14961e-005 -3.14961e-005c0.045311,0.0508031 0.0965748,0.0889173 0.15385,0.11448 0.0573346,0.0255827 0.119945,0.038311 0.187902,0.038311 0.068437,0 0.13178,-0.0129724 0.190016,-0.0389134 0.0580433,-0.0258583 0.110303,-0.0643701 0.156768,-0.115531 0.046874,-0.0513268 0.0820315,-0.113476 0.105402,-0.186374 0.0229291,-0.0715039 0.0344213,-0.152913 0.0344213,-0.244161 0,-0.0937323 -0.0113346,-0.176642 -0.033937,-0.24872 -0.0228268,-0.0727835 -0.057122,-0.134398 -0.102815,-0.184831 -0.000531496,-0.000665354 -0.00108661,-0.00131496 -0.00166929,-0.00195276l-5.90551e-005 5.51181e-005 -4.72441e-005 -5.51181e-005 -7.48031e-005 6.69291e-005c-0.0463071,-0.0504921 -0.0987598,-0.0883543 -0.157354,-0.113579 -0.0586732,-0.0252598 -0.123189,-0.0378898 -0.193539,-0.0378898 -0.0763189,0 -0.144224,0.0142283 -0.203657,0.042748 -0.0600118,0.0287992 -0.110469,0.0716693 -0.151295,0.128669 -0.0395591,0.0552362 -0.0692677,0.116476 -0.0891102,0.183657z"/>
   <path id="_561544544" class="fil2" d="M4.07566 3.37133c-0.076811,0 -0.144858,0.0141575 -0.204268,0.0424094 -0.0588819,0.0279961 -0.108685,0.0696142 -0.149531,0.124768 -0.000901575,0.00100787 -0.00175984,0.0020748 -0.00256693,0.00319685l0.000114173 8.26772e-005c-0.0397165,0.055189 -0.0694646,0.116417 -0.0892441,0.183543 -0.019689,0.0668307 -0.0295354,0.139209 -0.0295354,0.216992 0,0.0972913 0.0109213,0.182894 0.0328228,0.256917 0.0220315,0.0744567 0.0552087,0.137059 0.0995866,0.187917 0.000708661,0.000964567 0.0014685,0.00190157 0.00228346,0.00281496l3.14961e-005 -3.14961e-005c0.0911299,0.102181 0.204874,0.153276 0.341752,0.153276 0.0690197,0 0.132673,-0.0129252 0.191012,-0.0387638 0.057626,-0.0255236 0.109634,-0.0634921 0.156059,-0.113898 0.000610236,-0.000590551 0.00120472,-0.00120079 0.00178346,-0.00184252l-0.000125984 -0.000114173c0.0466732,-0.0516614 0.0816969,-0.113717 0.104933,-0.186346 0.0228858,-0.0715276 0.0343937,-0.152969 0.0343937,-0.244496 0,-0.0937323 -0.0113346,-0.176524 -0.033878,-0.248476 -0.0227913,-0.072752 -0.0569843,-0.134264 -0.102445,-0.184657 -0.00053937,-0.000669291 -0.00110236,-0.00132677 -0.00169291,-0.0019685l-5.51181e-005 5.11811e-005c-0.0464449,-0.050374 -0.0990354,-0.0882047 -0.157831,-0.113484 -0.0587362,-0.0252559 -0.123248,-0.0378898 -0.193598,-0.0378898zm0.111594 0.199673c0.0309764,0.015878 0.0585709,0.0390591 0.0828346,0.0695354 0.000496063,0.000562992 0.000976378,0.00114173 0.00144488,0.00174016l-0.000114173 9.05512e-005c0.0247717,0.0318268 0.0430906,0.0740236 0.0549488,0.126587 0.011311,0.0501378 0.0169685,0.109858 0.0169685,0.179154 0,0.0748504 -0.00559449,0.13865 -0.0167126,0.191374 -0.011437,0.0542047 -0.0289724,0.0971654 -0.0525354,0.128882 -0.000562992,0.000877953 -0.00116535,0.00174409 -0.00181102,0.00259449l-9.05512e-005 -7.08661e-005 -3.93701e-005 4.72441e-005 2.3622e-005 1.5748e-005c-0.024189,0.0317835 -0.0523346,0.0559134 -0.0843622,0.072311 -0.032378,0.0165787 -0.0678583,0.0249055 -0.106362,0.0249055 -0.0372283,0 -0.0717323,-0.00838583 -0.103579,-0.0250787 -0.0310827,-0.0162953 -0.0588858,-0.0402677 -0.0834685,-0.0718346 -0.0247598,-0.0317913 -0.0430827,-0.0738622 -0.0549606,-0.126063 -0.0113268,-0.0497638 -0.0169921,-0.108913 -0.0169921,-0.177311 0,-0.0753819 0.00548819,-0.139602 0.0165157,-0.192657 0.011622,-0.0558819 0.0297087,-0.099811 0.0543189,-0.131783 0.0244606,-0.0317677 0.0524882,-0.0558386 0.0840748,-0.0721339 0.0321654,-0.0165984 0.0673504,-0.0249331 0.105535,-0.0249331 0.0375669,0 0.0723346,0.0082126 0.104362,0.0246299z"/>
  </g>
 </g>
 <rect class="fil3" width="6.82666" height="6.82666"/>
</svg>
