<?xml version="1.0" encoding="UTF-8"?>
<!DOCTYPE svg PUBLIC "-//W3C//DTD SVG 1.1//EN" "http://www.w3.org/Graphics/SVG/1.1/DTD/svg11.dtd">
<!-- Creator: CorelDRAW -->
<svg xmlns="http://www.w3.org/2000/svg" xml:space="preserve" width="6.82666in" height="6.82666in" style="shape-rendering:geometricPrecision; text-rendering:geometricPrecision; image-rendering:optimizeQuality; fill-rule:evenodd; clip-rule:evenodd"
viewBox="0 0 6.82666 6.82666"
 xmlns:xlink="http://www.w3.org/1999/xlink">
 <defs>
  <style type="text/css">
   <![CDATA[
    .fil13 {fill:none}
    .fil6 {fill:#202020}
    .fil11 {fill:#3E3E3E}
    .fil12 {fill:#414141}
    .fil1 {fill:#555555}
    .fil10 {fill:#5A5A5A}
    .fil7 {fill:#6E6E6E}
    .fil4 {fill:#929292}
    .fil2 {fill:lightgrey}
    .fil5 {fill:#D6D6D6}
    .fil3 {fill:#E5E5E6}
    .fil8 {fill:whitesmoke}
    .fil9 {fill:white}
    .fil0 {fill:#888888;fill-rule:nonzero}
   ]]>
  </style>
 </defs>
 <g id="Layer_x0020_1">
  <metadata id="CorelCorpID_0Corel-Layer"/>
  <path class="fil0" d="M4.64348 0.858173l-1.13983 0c-0.084252,0 -0.160783,0.0344055 -0.216209,0.0898307 -0.0554213,0.0554213 -0.0898268,0.131949 -0.0898268,0.216201l0 1.24216c0,0.084252 0.0344055,0.160783 0.0898268,0.216209 0.0554252,0.0554213 0.131957,0.0898268 0.216209,0.0898268l0.0539606 0 0 0.557965 3.93701e-006 0c0,0.0230433 0.0087874,0.0460827 0.0263661,0.0636654 0.0351614,0.0351575 0.0921693,0.0351575 0.127327,0l-3.93701e-006 -7.87402e-006 0.621618 -0.621622 1.33072 0c0.0842441,0 0.16078,-0.0344055 0.216201,-0.0898268 0.0554252,-0.0554252 0.0898307,-0.131957 0.0898307,-0.216209l0 -1.24216c0,-0.084248 -0.0344055,-0.16078 -0.0898268,-0.216205 -0.0554213,-0.0554213 -0.131957,-0.0898268 -0.216205,-0.0898268l-1.02016 0z"/>
  <path class="fil1" d="M5.56733 2.17395l-0.17887 0 -0.0710591 -0.184937 -0.325339 0 -0.0670748 0.184937 -0.174323 0 0.317004 -0.813823 0.173752 0 0.325909 0.813823zm-1.279 -0.103268c0.0401654,0.0287992 0.084126,0.0519173 0.131496,0.0687835l-0.0604449 0.11615c-0.0248228,-0.00738976 -0.0490748,-0.017622 -0.0727598,-0.0305079 -0.00530315,-0.00265354 -0.041685,-0.0267165 -0.109331,-0.0721929 -0.0534331,0.0233071 -0.112362,0.0348661 -0.177165,0.0348661 -0.125059,0 -0.22302,-0.0367598 -0.293886,-0.110469 -0.0708661,-0.0735157 -0.106299,-0.176976 -0.106299,-0.310181 0,-0.133016 0.0354331,-0.236283 0.106488,-0.310181 0.0710551,-0.0737087 0.167504,-0.110657 0.289339,-0.110657 0.120508,0 0.216201,0.0369488 0.286878,0.110657 0.0706732,0.0738976 0.106106,0.177165 0.106106,0.310181 0,0.0702953 -0.00985039,0.132067 -0.0293701,0.185315 -0.0149646,0.0407362 -0.0386535,0.0801496 -0.0710512,0.118236zm-0.13226 -0.0926575c0.0212205,-0.0248228 0.0369488,-0.0547598 0.0475591,-0.0900039 0.0104213,-0.0350551 0.0157283,-0.0754173 0.0157283,-0.12089 0,-0.0941732 -0.0206575,-0.164283 -0.0621496,-0.210705 -0.0414961,-0.0464252 -0.0956929,-0.0697283 -0.162579,-0.0697283 -0.0670748,0 -0.121268,0.0233031 -0.162957,0.0699173 -0.041685,0.0466142 -0.0625236,0.11672 -0.0625236,0.210516 0,0.0949291 0.0208386,0.166177 0.0625236,0.213354 0.041689,0.047185 0.0941732,0.0708701 0.157843,0.0708701 0.023685,0 0.0462323,-0.00398425 0.0672638,-0.011748 -0.0333504,-0.0217913 -0.0672638,-0.0388465 -0.101563,-0.0511614l0.0460472 -0.0937953c0.054,0.0185709 0.105728,0.0462362 0.154807,0.083374zm0.355453 0.209756l0.201614 -0.841488 0.117098 0 -0.203693 0.841488 -0.11502 0zm0.753205 -0.335764l-0.112173 -0.302031 -0.109898 0.302031 0.222071 0z"/>
  <g id="_550437672">
   <path id="_550439640" class="fil2" d="M1.46879 3.28625c0.063252,-0.0208543 0.14376,0.0509449 0.179783,0.160382 0.0360591,0.109409 0.0139803,0.215004 -0.0493228,0.235858 -0.0632598,0.0208268 -0.143768,-0.0509724 -0.179795,-0.160413 -0.0360236,-0.109406 -0.0139449,-0.215008 0.0493346,-0.235827z"/>
   <path id="_550438704" class="fil2" d="M3.31856 3.28625c-0.0632835,-0.0208543 -0.14376,0.0509764 -0.179819,0.160382 -0.0360236,0.109409 -0.0139449,0.215004 0.0493346,0.235827 0.0632756,0.0208583 0.143791,-0.0509409 0.179815,-0.160382 0.0360276,-0.109406 0.0139409,-0.215008 -0.0493307,-0.235827z"/>
   <path id="_550438872" class="fil3" d="M2.04982 4.44833c-0.739799,0.324327 -0.961744,0.497232 -1.04946,0.574882 -0.135193,0.11963 -0.209969,0.565535 -0.289701,0.94415l1.67382 0 1.6738 0c-0.0797323,-0.378614 -0.154516,-0.82452 -0.289701,-0.94415 -0.0877244,-0.0776496 -0.301531,-0.246094 -1.04134,-0.570465l-0.677421 -0.00441732z"/>
   <path id="_550438584" class="fil4" d="M2.04982 4.44833c-0.739831,0.324327 -0.961744,0.497232 -1.04946,0.574882 -0.135193,0.11963 -0.209969,0.565535 -0.289724,0.94415l1.67385 0 1.6738 0c-0.0797323,-0.378614 -0.154516,-0.82452 -0.289701,-0.94415 -0.0877244,-0.0776496 -0.301531,-0.246094 -1.04134,-0.570465l-0.677421 -0.00441732z"/>
   <path id="_550438752" class="fil3" d="M2.74367 3.80181l0 0.820067c-0.197579,0.241984 -0.520854,0.233602 -0.718433,0l0 -0.820067c0,-0.442819 0.718433,-0.442819 0.718433,0z"/>
   <path id="_550438464" class="fil5" d="M2.74367 3.80181l0 0.549051c-0.135913,0.0990866 -0.266929,0.154594 -0.359189,0.154594 -0.0922598,0 -0.223299,-0.0555079 -0.359244,-0.154594l0 -0.549051c0,-0.442819 0.718433,-0.442819 0.718433,0z"/>
   <path id="_550438656" class="fil3" d="M2.38448 2.32949c-1.20565,0 -0.772075,1.45679 -0.693319,1.57274 0.0868386,0.12789 0.498496,0.466843 0.693319,0.466843 0.194768,0 0.606457,-0.338953 0.693287,-0.466843 0.0787559,-0.115953 0.512327,-1.57274 -0.693287,-1.57274z"/>
   <path id="_550438920" class="fil6" d="M2.40266 2.78229c-0.373126,0.00186614 -0.737827,-0.0540276 -0.809012,0.763406 -0.181035,-0.639339 0.0664252,-1.32539 0.779315,-1.31952 0.737854,0.00606693 1.00412,0.685189 0.800327,1.32026 -0.166031,-0.876827 -0.433244,-0.765819 -0.77063,-0.764146z"/>
   <polygon id="_550438776" class="fil7" points="1.99117,4.43956 1.73638,4.57742 2.10581,5.08952 2.3861,4.82363 "/>
   <polygon id="_550438992" class="fil7" points="2.78103,4.43956 3.03582,4.57742 2.66639,5.08952 2.3861,4.82363 "/>
   <path id="_550438896" class="fil8" d="M2.23 4.96661l0.0869961 0.134776c0.0449646,0 0.0899488,0 0.134969,0l0.0869764 -0.134776 -0.152843 -0.146717 -0.156098 0.146717z"/>
   <polygon id="_550438536" class="fil9" points="2.317,5.10139 2.19311,5.96736 2.57582,5.96736 2.45197,5.10139 "/>
   <path id="_550438008" class="fil10" d="M1.39276 5.96736l0.0573504 0c-0.00256299,-0.254894 -0.00256299,-0.438606 -0.00256299,-0.438606 0,0 -0.0253819,0.190917 -0.0547874,0.438606z"/>
   <path id="_550438272" class="fil10" d="M3.37616 5.96736l-0.0573504 0c0.00256299,-0.254894 0.00258661,-0.438606 0.00258661,-0.438606 0,0 0.0253898,0.190917 0.0547638,0.438606z"/>
   <g>
    <path id="_550437912" class="fil11" d="M2.77393 3.28535c0.219059,-0.0148701 0.339024,0.0255669 0.361469,0.0339528 0.0270472,0.0101417 0.0208307,0.0833071 -0.0020748,0.0978819 -0.0229016,0.0145866 -0.0416181,0.0728819 -0.0957795,0.14576 -0.034815,0.0468583 -0.156717,0.0666929 -0.263614,0.0719921l0 -0.0204646c0.0873858,-0.00403937 0.178917,-0.0196732 0.218736,-0.0470748 0.0808071,-0.0556417 0.0885039,-0.174059 0.0291457,-0.229177 -0.031126,-0.0289449 -0.139626,-0.0370079 -0.247882,-0.0318504l0 -0.0210197zm-0.778933 0l0 0 0.00917717 0.00065748c0.224886,0.0166496 0.272791,0.0603819 0.295693,0.0583071 0.0267913,-0.00243307 0.0557362,-0.00609449 0.0830827,-0.00609449 0.0273425,0 0.0583031,0.00355512 0.0861339,0.00609449 0.0229016,0.0020748 0.0707795,-0.0416575 0.295665,-0.0583071l0.0091811 -0.00065748 0 0.0210197 -0.00111811 6.69291e-005c-0.10865,0.00527165 -0.250358,0.0304685 -0.278189,0.0927283 -0.0278031,0.062248 0.0251654,0.173524 0.102,0.201323 0.0348701,0.0126378 0.104654,0.0173071 0.177307,0.0139843l0 0.0204646c-0.0594252,0.00293307 -0.114169,0.00138583 -0.146811,-0.00252756 -0.0916024,-0.0109646 -0.160134,-0.121512 -0.17261,-0.154846 -0.0280945,-0.0748465 -0.111996,-0.0748465 -0.140067,0 -0.0125,0.0333346 -0.0810354,0.143882 -0.172634,0.154846 -0.0326457,0.00391339 -0.0873898,0.00546063 -0.146811,0.00252756l0 -0.0204646c0.0726772,0.00332283 0.142465,-0.00134646 0.177343,-0.0139843 0.0767953,-0.0277992 0.129803,-0.139075 0.101961,-0.201323 -0.0277992,-0.0622598 -0.169539,-0.0874567 -0.278157,-0.0927283l-0.00114567 -6.69291e-005 0 -0.0210197zm-0.361472 0.0339528l0 0c0.0224724,-0.00838583 0.142437,-0.0488228 0.361472,-0.0339528l0 0.0210197c-0.10822,-0.00519291 -0.216732,0.00293307 -0.247886,0.0318504 -0.0593307,0.0551181 -0.0516614,0.173535 0.0291457,0.229177 0.0398189,0.0274016 0.13135,0.0430354 0.21874,0.0470748l0 0.0204646c-0.106902,-0.00529921 -0.228803,-0.0251339 -0.263587,-0.0719921 -0.0541535,-0.072878 -0.0728819,-0.131173 -0.0957835,-0.14576 -0.0229291,-0.0145748 -0.0291496,-0.0877402 -0.00210236,-0.0978819z"/>
    <path id="_550438224" class="fil3" d="M1.74711 3.33822c0.0312598,-0.0290118 0.140421,-0.0370748 0.249031,-0.0317835 0.108618,0.00527165 0.250358,0.0304685 0.278157,0.0927283 0.0278425,0.062248 -0.0251654,0.173524 -0.101961,0.201323 -0.0768622,0.0278425 -0.323173,0.0171181 -0.396083,-0.0330906 -0.0808071,-0.0556417 -0.0884764,-0.174059 -0.0291457,-0.229177z"/>
    <path id="_550437792" class="fil3" d="M3.02181 3.33822c-0.0312205,-0.0290118 -0.140394,-0.0370748 -0.249,-0.0317835 -0.10865,0.00527165 -0.250358,0.0304685 -0.278189,0.0927283 -0.0278031,0.062248 0.0251654,0.173524 0.102,0.201323 0.0768228,0.0278425 0.323134,0.0171181 0.396043,-0.0330906 0.0808071,-0.0556417 0.0885039,-0.174059 0.0291457,-0.229177z"/>
   </g>
   <line id="_550438176" class="fil12" x1="3.7239" y1="3.27534" x2="3.7239" y2= "3.27534" />
  </g>
 </g>
 <rect class="fil13" width="6.82666" height="6.82666"/>
</svg>
