<?xml version="1.0" encoding="UTF-8"?>
<!DOCTYPE svg PUBLIC "-//W3C//DTD SVG 1.1//EN" "http://www.w3.org/Graphics/SVG/1.1/DTD/svg11.dtd">
<!-- Creator: CorelDRAW -->
<svg xmlns="http://www.w3.org/2000/svg" xml:space="preserve" width="2048px" height="2048px" style="shape-rendering:geometricPrecision; text-rendering:geometricPrecision; image-rendering:optimizeQuality; fill-rule:evenodd; clip-rule:evenodd"
viewBox="0 0 2048 2048"
 xmlns:xlink="http://www.w3.org/1999/xlink">
 <defs>
  <style type="text/css">
   <![CDATA[
    .fil47 {fill:none}
    .fil41 {fill:#181818}
    .fil1 {fill:#1B1B1B}
    .fil2 {fill:#1D1D1D}
    .fil25 {fill:#202020}
    .fil3 {fill:#242424}
    .fil19 {fill:#2D2D2D}
    .fil18 {fill:#2F2F2F}
    .fil7 {fill:#313131}
    .fil30 {fill:#3C3C3C}
    .fil27 {fill:#414141}
    .fil24 {fill:#464646}
    .fil23 {fill:#4C4C4C}
    .fil32 {fill:#555555}
    .fil13 {fill:#565656}
    .fil36 {fill:#5B5B5B}
    .fil35 {fill:#5F5F5F}
    .fil26 {fill:#616161}
    .fil4 {fill:#636364}
    .fil45 {fill:#6C6C6C}
    .fil31 {fill:#727272}
    .fil46 {fill:#747474}
    .fil33 {fill:#757575}
    .fil34 {fill:#7E7E7E}
    .fil37 {fill:#8C8D8D}
    .fil39 {fill:#919191}
    .fil44 {fill:#A7A7A7}
    .fil15 {fill:#ABABAB}
    .fil42 {fill:#AEAEAF}
    .fil14 {fill:#B3B4B4}
    .fil16 {fill:#B5B5B6}
    .fil21 {fill:#B6B6B6}
    .fil43 {fill:#B8B8B8}
    .fil11 {fill:#B9BABA}
    .fil0 {fill:#BEBEBE}
    .fil10 {fill:#BFBFBF}
    .fil20 {fill:#C5C5C5}
    .fil12 {fill:#CACACA}
    .fil6 {fill:#D4D4D5}
    .fil8 {fill:#D5D5D6}
    .fil9 {fill:#D9D9DA}
    .fil40 {fill:#DCDDDD}
    .fil17 {fill:#DDDDDE}
    .fil5 {fill:#E1E1E2}
    .fil29 {fill:#F8F8F9}
    .fil28 {fill:white}
    .fil22 {fill:#414141;fill-rule:nonzero}
    .fil38 {fill:#BCBCBC;fill-rule:nonzero}
   ]]>
  </style>
 </defs>
 <g id="Layer_x0020_1">
  <metadata id="CorelCorpID_0Corel-Layer"/>
  <g id="_500569136">
   <g>
    <path id="_500579240" class="fil0" d="M1630.7 1561.39c-4.87678,1.14331 -9.75237,2.29134 -14.6209,3.45355 -21.4028,5.08937 -33.9142,5.47914 -55.741,7.85197l0.56693 40.8355c7.41969,22.3748 22.1634,28.4067 44.5311,20.9929 22.376,-7.42678 34.4315,-11.8618 30.4961,-33.2551 0,0 -1.77756,-16.6406 -5.23229,-39.8788z"/>
    <path id="_500578640" class="fil1" d="M1648.37 1590.14c0,0 6.27402,19.7646 22.0276,42.9721 5.3752,7.91575 6.84449,21.6555 10.2201,28.5024 13.8662,3.00945 18.2599,35.2819 15.8882,40.9252 -2.05512,9.45001 -48.9225,18.8008 -78.4453,8.40827 -20.5429,-7.22717 -37.2343,-0.370866 -60.339,6.48189 -22.0524,6.54567 -49.9465,13.0913 -92.6068,7.38426 -41.9752,-5.61615 -33.3614,-45.5989 -19.4622,-56.2548 19.448,-8.58308 40.8744,-9.33544 57.2162,-11.889 50.863,-7.92166 21.9343,-35.3894 51.3307,-52.9241 25.0973,14.4473 47.0055,22.1917 62.0209,17.9209 22.8662,-6.49725 20.224,-31.0925 32.1496,-31.5272z"/>
    <path id="_500578544" class="fil2" d="M1626.03 1689.98c21.6189,7.61339 51.3166,5.98937 70.6123,1.0063 -1.48701,-11.5488 -6.53741,-27.313 -16.0252,-29.3729 -3.37559,-6.84686 -4.84489,-20.5866 -10.2201,-28.5024 -15.7536,-23.2075 -22.0288,-42.9721 -22.0288,-42.9721 -11.9244,0.434646 -9.28229,25.0299 -32.1484,31.5272 -15.0154,4.27087 -36.9237,-3.47362 -62.0209,-17.9209 -29.3965,17.5347 -0.467717,45.0024 -51.3307,52.9241 -16.3417,2.55355 -37.7681,3.30591 -57.2162,11.889 -7.56379,5.8004 -13.5413,20.276 -10.676,33.1807 4.3252,1.90394 9.463,3.34843 15.5256,4.16103 48.9579,6.54449 80.9705,-0.966142 106.28,-8.47796 26.5122,-7.86969 45.6697,-15.7394 69.2481,-7.44213z"/>
    <path id="_500578352" class="fil3" d="M1683.4 1662.7c-0.884646,-0.484252 -1.80591,-0.874016 -2.78032,-1.08307 -3.37559,-6.84686 -4.84489,-20.5866 -10.2201,-28.5024 -15.7536,-23.2075 -22.0288,-42.9721 -22.0288,-42.9721 -11.9244,0.434646 -9.28229,25.0299 -32.1484,31.5272 -15.0154,4.27087 -36.9237,-3.47362 -62.0209,-17.9209 -29.3965,17.5347 -15.0602,45.0024 -65.9268,52.9241 -16.3465,2.55355 -23.1721,3.30591 -42.6201,11.889 -1.87677,1.45512 -3.65433,3.42638 -5.22402,5.76497 4.41142,2.59016 10.0099,4.52363 17.0681,5.46851 42.6579,5.70355 70.552,-0.836221 92.6079,-7.38308 23.1059,-6.8563 39.7949,-13.7138 60.3402,-6.48189 23.9764,8.4319 59.3918,3.8563 72.9532,-3.23032z"/>
    <path id="_500578256" class="fil4" d="M1498.56 1654.6c0.0141732,-0.00590552 0.0283465,-0.00826772 0.0437008,-0.011811 -0.0129921,0.0011811 -0.0307087,0.00708662 -0.0448819,0.011811l0.0011811 0zm0.0767717 -0.0212599c6.85158,-1.75748 12.1547,-3.98859 16.4102,-6.54922 0.00354331,0.00236221 0.00826772,0.0106299 0.0106299,0.011811 -4.25433,2.55945 -9.5693,4.78465 -16.4209,6.53859l0 -0.0011811zm26.002 -14.5099l-2.87599 -1.23898 2.86418 1.23307c1.28504,-1.46811 2.43898,-2.97402 3.50788,-4.51654 -1.06063,1.54606 -2.21339,3.05906 -3.49607,4.52244z"/>
    <path id="_500578304" class="fil4" d="M1514.2 1641.63c0.996851,-2.0563 3.06142,-3.2811 5.23229,-3.28701 -2.17087,0.00590552 -4.23544,1.23071 -5.23229,3.28701l0 0zm7.51772 -2.82638c-0.0236221,-0.0106299 -0.0496063,-0.0212599 -0.0755906,-0.0318898 0.0271654,0.00944883 0.0519685,0.0212599 0.0755906,0.0330709l0 -0.0011811zm-2.25591 -0.461811c-0.00354331,0 -0.00708662,0.0011811 -0.0129921,0.0011811l0.0011811 -0.0011811c0.00472441,0 0.00826772,0.0011811 0.011811,0.0011811l0 -0.0011811zm7.74804 -11.3882c0.881103,-1.97599 2.82047,-3.16299 4.8626,-3.1689 -2.04095,0.0106299 -3.9815,1.19291 -4.86378,3.1689l0.0011811 0zm6.91654 -2.76614c-0.00708662,-0.0011811 -0.0106299,-0.00472441 -0.0188977,-0.00826772 0.00826772,0.00354331 0.011811,0.00708662 0.0188977,0.00826772zm-2.01969 -0.402756c-0.00236221,0 -0.00590552,0 -0.00944883,0l0.0011811 0c0.00236221,0 0.00590552,0 0.00826772,0z"/>
    <path id="_500578064" class="fil5" d="M1536.72 1612.29c0.869292,-2.00669 2.81929,-3.21733 4.87914,-3.22323 -2.05866,0.00590552 -4.00985,1.21654 -4.88032,3.22323l0.0011811 0zm4.90985 -3.22323c-0.00354331,0 -0.00472441,0 -0.00826772,0l0 0c0.00354331,0 0.00472441,0 0.00826772,0z"/>
    <path id="_500578424" class="fil5" d="M1629.9 1657.74c0.00236221,-0.00708662 0.00472441,-0.0153543 0.00590552,-0.0248032 -0.0011811,0.00944883 -0.00354331,0.0177165 -0.00590552,0.0248032zm0.00944883 -0.0248032c0.0425197,-0.205512 0.0944883,-0.412205 0.161811,-0.615355 0.938977,-2.95866 3.8941,-4.72914 6.87284,-4.27914 -2.97756,-0.448819 -5.93504,1.32047 -6.87284,4.27914 -0.0673229,0.20315 -0.119291,0.409843 -0.161811,0.615355z"/>
    <path id="_500578184" class="fil5" d="M1650.82 1624.12c0.0437008,-0.295276 0.111024,-0.592914 0.206693,-0.887009 0.861024,-2.71063 3.56575,-4.32638 6.29646,-3.90827 -2.73071,-0.418111 -5.43544,1.19764 -6.29646,3.90827 -0.0921261,0.296457 -0.162992,0.590552 -0.207874,0.889371 -0.011811,0.0838583 -0.0212599,0.167717 -0.0307087,0.246851 0.0106299,-0.0826772 0.0188977,-0.166536 0.0318898,-0.249213l0 0zm-0.034252 0.257481c0,0.00708662 -0.0011811,0.011811 0,0.0188977 -0.0011811,-0.00708662 0,-0.011811 0,-0.0188977z"/>
   </g>
   <g>
    <path id="_500578160" class="fil6" d="M1540.23 922.72c-17.6374,34.7386 -60.0863,48.6095 -94.8261,30.9697 -34.7351,-17.628 -17.4827,-53.4697 0.151181,-88.2166l84.9379 -234.872c17.6315,-34.7327 60.091,-48.6 94.8261,-30.9626 34.7374,17.6315 48.5989,60.0934 30.9697,94.819l-116.059 228.262z"/>
    <path id="_500578400" class="fil7" d="M1606.7 793.21l49.5898 -98.752c17.6291,-34.7256 3.76772,-77.1875 -30.9697,-94.819 -34.7351,-17.6374 -77.1945,-3.77008 -94.8284,30.9614l-45.9839 122.828 122.192 39.7819z"/>
    <path id="_500577800" class="fil6" d="M1300.44 1057.29c-22.5012,13.0571 -35.9906,1.11142 -49.0418,-21.3898 -13.0606,-22.4847 -20.1166,-28.4953 2.37638,-41.5477l190.521 -118.841c30.2067,-17.5276 56.465,-24.541 73.9961,5.67993 17.5299,30.2162 13.5874,63.3792 -22.9654,86.4426 -45.3036,28.5992 -194.887,89.6564 -194.887,89.6564z"/>
    <g>
     <path id="_500577728" class="fil8" d="M1260.84 994.879c-3.4937,0.701575 -6.87993,1.3748 -10.1209,2.01614 0.0011811,-0.00236221 0.0011811,-0.00236221 0.0011811,-0.00236221 3.24685,-0.638977 6.6189,-1.30984 10.1197,-2.01378l0 0zm-23.648 14.8169l0 0c-0.414567,0.172441 -0.830316,0.334252 -1.25197,0.49252 0.419292,-0.157087 0.837402,-0.320079 1.25197,-0.49252l0 0zm-1.25551 0.491339c-0.0177165,0.00944883 -0.0330709,0.0153543 -0.0543308,0.0212599 0.0188977,-0.00708662 0.0366142,-0.0141732 0.0543308,-0.0212599l0 0zm-0.0696851 0.0271654c-0.0141732,0.00472441 -0.0283465,0.0106299 -0.0425197,0.0177165 0.0129921,-0.00708662 0.0283465,-0.011811 0.0425197,-0.0177165l0 0zm-0.0708662 0.0271654c-0.00826772,0.00236221 -0.0188977,0.00944883 -0.0283465,0.0141732 0.00826772,-0.00708662 0.0177165,-0.0106299 0.0307087,-0.0129921l-0.00236221 -0.0011811zm-0.0637796 0.0259843c-0.00826772,-0.0011811 -0.0165354,0.00236221 -0.0236221,0.00826772 0.00708662,-0.00354331 0.0153543,-0.00944883 0.0236221,-0.00826772l0 0zm-0.0708662 0.0236221c-0.0011811,0.0011811 -0.0011811,0.00236221 -0.00354331,0.00236221 0.00236221,-0.0011811 0.00236221,0 0.00472441,-0.00236221l-0.0011811 0zm-67.9371 14.4378c-1.46693,0.186614 -2.9126,0.334252 -4.32992,0.446457l-14.1827 0.897638 14.1827 -0.897638c1.41614,-0.113386 2.86418,-0.259843 4.32992,-0.446457z"/>
     <path id="_500577608" class="fil6" d="M1190.39 1007.61c0,0 14.289,-13.5921 20.074,-16.5957 35.4177,-18.4583 75.7134,10.076 82.6961,35.3717 10.448,37.8969 -22.148,57.4335 -47.4603,64.4162l-18.0839 4.06772 -37.226 -87.2599z"/>
     <path id="_500577536" class="fil9" d="M1211.28 993.017c0.288189,-2.5004 0.777166,-5.31378 1.16457,-7.38071 -0.386221,2.06929 -0.876379,4.88859 -1.16457,7.38071l0 0z"/>
     <path id="_500577248" class="fil3" d="M1211.28 993.017c0.28937,-2.49213 0.778347,-5.31142 1.16457,-7.38071 0.080315,-0.433465 0.158268,-0.827953 0.226772,-1.18347l-1.39134 8.56418z"/>
     <path id="_500577296" class="fil6" d="M1225.24 1032.86c1.81772,6.5752 -2.03622,13.3866 -8.61851,15.1996l-70.4882 21.8055c-5.41182,1.4941 -11.0032,-1.69252 -12.5043,-7.09489 -1.4941,-5.4189 1.67717,-11.0102 7.09607,-12.515l66.5741 -25.1292 -52.6465 19.7268c-12.5303,3.45 -17.791,-15.5976 -5.25591,-19.0677l55.4044 -23.9126c6.11221,-1.68543 12.4193,1.90276 14.1095,8.01142 1.68425,6.10867 -1.9004,12.4217 -8.0126,14.1047l-0.309449 0.0980316c6.40985,-1.46102 12.8965,2.36339 14.6516,8.77324zm8.85355 23.2063c1.81772,6.58111 -2.04331,13.3902 -8.6256,15.2032l-63.5882 18.0768c-5.42008,1.4941 -11.035,-1.68898 -12.528,-7.11142 -1.5,-5.42126 1.67599,-11.0303 7.10552,-12.5256l62.4355 -22.2792c6.58347,-1.81417 13.389,2.04567 15.2008,8.63623zm13.0713 21.2185c1.72795,6.26693 -1.95118,12.7547 -8.21457,14.4791l-57.9036 12.2327c-4.88859,1.34646 -9.94135,-1.5248 -11.2878,-6.4063 -1.35118,-4.89213 1.5248,-9.95198 6.41221,-11.2996l56.5111 -17.2205c6.27166,-1.72559 12.7559,1.94528 14.4827,8.21457z"/>
     <path id="_500577440" class="fil10" d="M1182.82 1058.52c0,0 2.45551,-1.50709 6.53977,-3.31418 4.07008,-1.82717 9.75001,-3.97559 15.7536,-5.64449 3.0189,-0.797245 6.06497,-1.57441 9.00237,-2.06929 2.91969,-0.542126 5.713,-0.889371 8.09528,-0.972048 1.18583,-0.100394 2.27717,-0.0826772 3.22559,-0.0259843 0.95315,0.0259843 1.76221,0.0602363 2.40236,0.196063 1.28032,0.214961 1.94528,0.366142 1.94528,0.366142 0,0 -0.774804,0.0980316 -2.13425,0.269292 -1.32284,0.174803 -3.17599,0.487796 -5.36457,0.989765 -4.35473,0.957875 -10.0689,2.51339 -15.828,4.12796 -5.76024,1.58622 -11.5772,3.21378 -16.0559,4.32874 -4.45394,1.13386 -7.5815,1.74803 -7.5815,1.74803z"/>
     <path id="_500577176" class="fil10" d="M1172.28 1036.9c0,0 2.57835,-1.35118 6.67323,-2.98583 4.08189,-1.65236 9.66379,-3.62008 15.4004,-5.30552 5.74016,-1.66772 11.589,-3.08859 16.1351,-3.83977 4.50237,-0.864568 7.60394,-0.778347 7.50355,-0.822048 0,0 -0.725197,0.26811 -1.99134,0.733465 -1.2189,0.405118 -2.90079,1.04291 -5.00079,1.80473 -2.06575,0.725197 -4.48111,1.56969 -7.09843,2.42717 -2.61378,0.859843 -5.43544,1.71024 -8.25827,2.56772 -5.66339,1.6441 -11.452,3.12402 -15.8693,4.05473 -4.41496,0.957875 -7.4941,1.36536 -7.4941,1.36536z"/>
     <path id="_500577392" class="fil11" d="M1189.42 1080.31c0,0 4.15276,-0.96378 10.3913,-2.41654 6.16063,-1.4374 14.3705,-3.29882 22.0996,-5.70237 1.96181,-0.576378 3.84213,-1.22835 5.65394,-1.89331 1.7563,-0.720473 3.5504,-1.37362 5.06339,-2.16496 0.437008,-0.21378 0.858662,-0.431103 1.26142,-0.649607 0.209055,-0.111024 0.408662,-0.222047 0.602363,-0.33189l6.4689 -1.75394c-1.2685,1.67362 -3.33307,3.35197 -5.81575,4.73977 -0.0755906,0.0425197 -0.152362,0.090945 -0.232677,0.132284 -0.134646,0.0838583 -0.276378,0.161811 -0.420473,0.240945 -1.64764,0.918898 -3.44173,1.74095 -5.31024,2.48622 -1.85906,0.739371 -3.79134,1.40906 -5.72599,2.01851 -0.162992,0.0543308 -0.338977,0.101575 -0.504331,0.154725 -8.20631,2.47323 -16.6075,3.81733 -22.8827,4.49174 -2.71772,0.295276 -5.03622,0.454725 -6.81969,0.544489 -2.42244,0.122835 -3.82914,0.103937 -3.82914,0.103937z"/>
    </g>
   </g>
   <g>
    <path id="_500577824" class="fil12" d="M662.242 905.364c7.51182,27.6295 36.9626,45.0851 65.7863,38.974 28.8166,-6.09686 22.4421,-37.9311 14.9327,-65.5689l-25.8484 -177.115c-7.51418,-27.626 -36.9603,-45.0768 -65.7839,-38.9717 -28.8225,6.10512 -46.089,33.4536 -38.5843,61.0855l49.4977 181.596z"/>
    <path id="_500576600" class="fil13" d="M613.404 772.338l-23.1012 -84.7465c-8.73662,-32.1662 11.3646,-64.0016 44.9162,-71.1107 33.5563,-7.1067 67.8343,13.2106 76.5816,45.3709l11.2583 77.1402c-36.6733,16.6606 -72.9851,16.6831 -109.655,33.3461z"/>
    <g>
     <path id="_500576864" class="fil12" d="M753.466 1098.17c22.6453,32.9693 20.087,18.0012 41.1733,11.2122 21.078,-6.79134 31.3453,-5.98347 23.2795,-26.4898l-63.1217 -182.814c-10.8366,-27.5398 -27.6319,-43.0453 -55.95,-33.9248 -28.317,9.12048 -43.7528,31.9099 -31.6583,66.3875 14.9906,42.7311 86.2761,165.627 86.2772,165.628z"/>
     <g>
      <path id="_500576408" class="fil12" d="M777.329 1142.8c-4.58741,2.94449 -5.63622,8.99764 -2.35158,13.5284l25.5425 34.2296c3.28701,4.52599 9.67324,5.80985 14.2571,2.87126 4.58386,-2.94331 5.63504,-8.99883 2.34921,-13.5272l-25.5402 -34.2284c-3.29055,-4.52953 -9.66969,-5.81339 -14.2571,-2.87362z"/>
      <path id="_500576576" class="fil12" d="M856.488 1131.29c0,0 -3.0874,-21.9402 -5.34685,-26.9941 -19.5083,-23.928 -60.1595,-33.339 -78.6768,-21.4536 -27.7347,17.7933 -16.3807,47.9055 -3.10512,66.1867l8.5252 11.3693 78.6036 -29.1083z"/>
      <path id="_500576504" class="fil12" d="M816.369 1127.26c-4.81418,3.0874 -5.92087,9.45355 -2.47087,14.2051l26.5335 35.5925c3.45236,4.75985 10.1528,6.10276 14.9669,3.01418 4.82008,-3.09213 5.92914,-9.45001 2.47677,-14.2063l-26.5323 -35.589c-3.45118,-4.75985 -10.1575,-6.10512 -14.974,-3.01654z"/>
      <path id="_500577080" class="fil12" d="M797.733 1136.81c-4.81772,3.08622 -5.92205,9.44646 -2.46969,14.2028l26.5288 35.589c3.45355,4.75748 10.1575,6.10749 14.9717,3.01654 4.82244,-3.08977 5.9256,-9.45001 2.47205,-14.2051l-26.5264 -35.5925c-3.45709,-4.75394 -10.1634,-6.10394 -14.9764,-3.01063z"/>
      <path id="_500576384" class="fil14" d="M817.701 1181.12c0,0 -0.31063,-0.546851 -0.897638,-1.47047 -0.635434,-0.894095 -1.34528,-2.2937 -2.3504,-3.85748 -0.497244,-0.780709 -1.03819,-1.62756 -1.60984,-2.52284 -0.598819,-0.871654 -1.15748,-1.84488 -1.76575,-2.83583 -1.18347,-1.9878 -2.52756,-4.06418 -3.86339,-6.14174 -1.43386,-2.02441 -2.6811,-4.1504 -3.90355,-6.12284 -1.2248,-1.96654 -2.41418,-3.78425 -3.47599,-5.32323 -2.12835,-3.07796 -3.70276,-5.0752 -3.70276,-5.0752 0,-0.0011811 0.895276,2.30433 2.46614,5.67402 0.790158,1.68189 1.75984,3.62835 2.84528,5.68819 1.05354,2.07992 2.28543,4.24134 3.68977,6.3189 1.39843,2.07638 2.78504,4.15866 4.16339,6.0626 1.30866,1.93937 2.81929,3.60118 4.03819,5.03977 2.45551,2.88898 4.36654,4.56615 4.36654,4.56615z"/>
      <path id="_500577104" class="fil14" d="M840.059 1176.26c0,0 -0.910631,-2.22756 -2.55473,-5.4189 -0.80315,-1.60394 -1.83898,-3.42756 -2.82402,-5.43189 -1.00512,-1.99725 -2.15551,-4.08307 -3.29764,-6.16772 -2.34095,-4.15158 -4.85315,-8.21694 -6.87993,-11.2051 -2.00906,-2.99764 -3.54803,-4.91457 -3.54803,-4.91457 0,0 0.80315,2.25 2.30551,5.50158 1.48347,3.25985 3.65788,7.52717 6.00237,11.7095 1.1941,2.07756 2.38583,4.15985 3.57638,6.06851 1.14331,1.93937 2.39764,3.63662 3.47008,5.09646 2.14134,2.91733 3.75,4.76221 3.75,4.76221z"/>
      <path id="_500576768" class="fil15" d="M796.132 1147.77c0,0 0.787796,2.03032 2.18504,5.06693 0.0921261,0.196063 0.185433,0.400394 0.281103,0.608268 0.790158,1.68189 1.75984,3.62835 2.84528,5.68819 0.0968505,0.188977 0.194882,0.381496 0.292914,0.572835 0.986221,1.90158 2.12126,3.85748 3.39685,5.74607 1.39843,2.07638 2.78504,4.15866 4.16339,6.0626 1.30866,1.93937 2.81929,3.60118 4.03819,5.03977 2.40473,2.82638 4.28386,4.4941 4.36181,4.5626 0.00472441,0.00354331 0.00472441,0.00354331 0.00472441,0.00354331 0,0 -0.31063,-0.546851 -0.897638,-1.47047 -0.635434,-0.894095 -1.34528,-2.2937 -2.3504,-3.85748 -0.497244,-0.780709 -1.03819,-1.62756 -1.60984,-2.52284 -0.598819,-0.871654 -1.15748,-1.84488 -1.76575,-2.83583 -1.18347,-1.9878 -2.52756,-4.06418 -3.86339,-6.14174 -1.43386,-2.02441 -2.6811,-4.1504 -3.90355,-6.12284 -1.2248,-1.96654 -2.41418,-3.78425 -3.47599,-5.32323 -0.106299,-0.154725 -0.210236,-0.305906 -0.314173,-0.454725 -1.96654,-2.82047 -3.38859,-4.62048 -3.38859,-4.62166z"/>
      <path id="_500576648" class="fil14" d="M856.488 1131.29c0,0 -0.629528,-1.60866 -1.77874,-3.87166 -1.1315,-2.27835 -2.8063,-5.20985 -4.51181,-8.11064 -0.878741,-1.43032 -1.76221,-2.86654 -2.58662,-4.20827 -0.838583,-1.33583 -1.61929,-2.58425 -2.28898,-3.65315 -0.734646,-1.05827 -1.14803,-1.98071 -1.56614,-2.62205 -0.401575,-0.648426 -0.635434,-1.02047 -0.635434,-1.02047 0,0 0.0448819,0.412205 0.168898,1.14331 0.153543,0.712205 0.26811,1.8248 0.748819,3 0.435827,1.19646 0.925985,2.63386 1.66417,4.04528 0.690945,1.44213 1.5,2.95276 2.37874,4.41496 1.7504,2.93504 3.78662,5.70119 5.45197,7.68898 1.64764,1.99725 2.95276,3.19488 2.95512,3.1937z"/>
      <path id="_500577032" class="fil12" d="M833.183 1116.48c-4.46693,2.86654 -5.49567,8.76969 -2.29134,13.1823l25.0477 33.5445c3.20197,4.41024 9.41812,5.66339 13.8862,2.79213 4.47048,-2.86418 5.49449,-8.76261 2.29488,-13.1776l-19.1114 -26.3162c-3.20315,-4.4126 -15.3555,-12.8882 -19.826,-10.0252z"/>
      <path id="_500575904" class="fil14" d="M857.305 1164.81c0,0 -0.915355,-2.22992 -2.55709,-5.4189 -0.80315,-1.6063 -1.83898,-3.43229 -2.82402,-5.43662 -1.00512,-1.9937 -2.15551,-4.07835 -3.3,-6.16772 -2.33977,-4.14685 -4.84961,-8.21457 -6.88111,-11.2016 -2.01142,-3 -3.54803,-4.91575 -3.54803,-4.91575 0,0 0.805512,2.24764 2.30788,5.5004 1.48583,3.26221 3.65788,7.52835 6.00355,11.7118 1.19882,2.07638 2.38583,4.15748 3.57638,6.06851 1.14449,1.93819 2.39882,3.63425 3.47126,5.09174 2.14134,2.91969 3.75118,4.76811 3.75118,4.76811z"/>
      <path id="_500575784" class="fil10" d="M837.395 1138.37l14.9622 20.0433c0,-0.00236221 -0.00472441,-0.00590552 -0.00708662,-0.011811l-14.798 -19.8236 -0.157087 -0.207874zm18.0106 24.124l0.533859 0.712205 -0.533859 -0.712205c0,0 0,0 0,0z"/>
      <path id="_500576360" class="fil16" d="M837.552 1138.57l14.798 19.8236c-0.473622,-0.664961 -0.967324,-1.37008 -1.44685,-2.11772l-13.3512 -17.7059zm17.8536 23.9162l0.533859 0.712205c0.263386,0.36378 0.553937,0.701575 0.864568,1.01929 -0.33189,-0.396851 -0.81378,-0.986221 -1.39843,-1.7315z"/>
     </g>
    </g>
   </g>
   <path id="_500576192" class="fil17" d="M542.327 505.184l-20.2477 82.8627c-4.99489,2.65866 108.047,35.4697 128.123,42.0591l0.00236221 -0.00472441c13.3488,-35.0244 30.2646,-75.1701 60.2209,-72.319 17.3221,1.65 28.3382,1.62047 34.3595,-15.4323 2.19449,-6.2126 3.2811,-12.7382 2.6504,-19.7492 9.47835,-2.58071 11.3528,-6.53504 8.44016,-13.6665 9.40631,-0.0921261 6.59882,-10.4386 3.45118,-14.2866 1.5815,-4.48465 2.44016,-8.36103 4.38307,-9.79371 7.4504,0.33189 18.4831,2.95748 18.8764,-6.23386 0.151181,-22.4917 -21.9721,-38.726 -17.7839,-56.3504 1.68425,-5.73898 6.47481,-0.63189 5.63977,-30.1973 -0.394488,-13.9807 -0.976772,-25.9051 -6.27993,-37.0276 -3.82087,-8.01615 0.595276,-8.74489 3.27874,-18.0484 2.02559,-7.0193 1.87914,-13.7906 -0.266929,-20.0705 -18.1937,-53.23 -143.32,-74.3327 -196.719,-26.8536 -20.3421,18.0862 -14.6162,39.3697 -21.3662,55.604 -24.9567,60.0166 6.50906,105.195 -6.76182,159.508z"/>
   <path id="_500576168" class="fil6" d="M1674.67 505.422l20.2477 82.6264c4.99489,2.59961 -108.047,36.7276 -128.123,43.5508l-0.00236221 -0.00472441c-13.3488,-34.8697 -30.2646,-74.8182 -60.2209,-71.6174 -17.3221,1.85079 -28.3382,1.95 -34.3595,-15.0319 -2.19449,-6.18662 -3.2811,-9.5752 -2.6504,-16.5945 -9.47835,-2.46969 -11.3528,-6.40276 -8.44016,-13.5685 -9.40631,0.0177165 -6.59882,-10.3618 -3.45118,-14.2465 -1.5815,-4.46457 -2.44016,-11.4567 -4.38307,-12.8669 -7.4504,0.418111 -24.7311,9.94253 -25.1256,0.755906 -0.151181,-22.4894 28.2213,-45.7524 24.0331,-63.3272 -1.68425,-5.7189 -6.47481,-0.5563 -5.63977,-30.1311 0.394488,-13.9866 0.976772,-25.9181 6.27993,-37.102 3.82087,-8.05985 -0.595276,-8.7378 -3.27874,-18.0095 -2.02559,-6.99686 -1.87914,-13.7693 0.266929,-20.074 24.8079,-38.6363 147.829,-65.9044 196.719,-29.1449 20.3421,17.85 14.6162,39.1996 21.3662,55.3559 24.9567,59.726 -6.50906,105.271 6.76182,159.43z"/>
   <path id="_500575952" class="fil18" d="M542.327 505.184l-0.0106299 0.0425197c9.43465,12.3992 22.9075,11.2406 31.2425,7.93347 27.5835,-10.9476 44.8985,-85.0938 45.4796,-90.0024 5.25,-44.3398 32.9256,-28.4516 29.4603,-7.58859l10.6228 1.76457c1.06181,-6.38977 6.47245,-28.5685 10.3583,-33.1004 27.2221,-31.7492 81.8564,-21.2965 93.2635,-35.5725 0.458268,-3.17481 2.94685,-5.59489 4.69725,-11.6646 2.02559,-7.02048 1.87914,-13.7906 -0.266929,-20.0705 -17.6646,-51.6815 -136.129,-73.076 -191.881,-30.8244 -103.61,78.5375 -15.215,146.431 -32.9658,219.083z"/>
   <path id="_500576120" class="fil19" d="M1674.67 505.184l0.0106299 0.0425197c-9.43465,12.3992 -22.9075,11.2406 -31.2425,7.93347 -27.5835,-10.9476 -44.8985,-85.0938 -45.4796,-90.0024 -5.25,-44.3398 -32.9256,-28.4516 -29.4603,-7.58859l-10.6228 1.76457c-1.06181,-6.38977 -6.47245,-28.5685 -10.3583,-33.1004 -27.2221,-31.7492 -81.8564,-21.2965 -93.2635,-35.5725 -0.458268,-3.17481 -2.94685,-5.59489 -4.69725,-11.6646 -2.02559,-7.02048 -1.87914,-13.7906 0.266929,-20.0705 19.8555,-30.3662 134.33,-67.3938 191.881,-30.8244 103.61,78.5375 15.215,146.431 32.9658,219.083z"/>
   <path id="_500576240" class="fil20" d="M632.989 384.963c8.7189,1.44803 20.9185,20.9032 14.5748,41.4331 -2.16614,7.01457 -4.94646,15.0555 -7.89331,22.5662 -5.67638,14.4756 6.25158,29.5536 -15.6732,26.3669 -5.64449,-0.820867 -8.64568,-32.6988 -8.01024,-54.1772 0.635434,-21.4784 8.2819,-37.637 17.002,-36.189z"/>
   <path id="_500575616" class="fil20" d="M1584.01 384.963c-8.7189,1.44803 -20.9185,20.9032 -14.5748,41.4331 2.16614,7.01457 4.94646,15.0555 7.89331,22.5662 5.67638,14.4756 -6.25158,29.5536 15.6732,26.3669 5.64449,-0.820867 8.64568,-32.6988 8.01024,-54.1772 -0.635434,-21.4784 -8.2819,-37.637 -17.002,-36.189z"/>
   <path id="_500575088" class="fil21" d="M636.856 406.631c3.64016,0.604725 8.52284,9.99095 5.61496,20.1284 -2.90788,10.1362 -8.12717,24.6508 -10.4752,24.261 -2.34921,-0.389764 -3.23268,-15.9189 -2.70709,-26.4508 0.52441,-10.5331 3.92717,-18.5433 7.56733,-17.9386z"/>
   <path id="_500575064" class="fil21" d="M1580.14 406.631c-3.64016,0.604725 -8.52284,9.99095 -5.61496,20.1284 2.90788,10.1362 8.12717,24.6508 10.4752,24.261 2.34921,-0.389764 3.23268,-15.9189 2.70709,-26.4508 -0.52441,-10.5331 -3.92717,-18.5433 -7.56733,-17.9386z"/>
   <polygon id="_500575448" class="fil22" points="819.433,814.373 819.642,814.214 819.638,814.205 "/>
   <polygon id="_500575328" class="fil22" points="1397.56,814.373 1397.35,814.214 1397.36,814.205 "/>
   <path id="_500575256" class="fil17" d="M683.097 1564.33c-9.51024,29.5666 6.74646,38.0681 37.0618,52.702 30.3083,14.6162 52.2957,8.78741 66.9201,-21.5292l46.5048 -257.055c14.6244,-30.3177 1.9063,-66.7512 -28.4044,-81.3745 -30.313,-14.6197 -48.9886,3.12402 -72.7323,26.9894 -34.7362,47.0516 -38.1697,281.987 -49.35,280.268z"/>
   <path id="_500574896" class="fil0" d="M697.847 1508.82c6.69449,2.51575 13.3878,5.03859 20.0669,7.58032 29.3693,11.1461 47.0138,14.002 77.4827,21.378l-8.31851 57.7182c-14.6244,30.3166 -36.6107,36.1453 -66.9189,21.5292 -30.3166,-14.6351 -46.5709,-23.1343 -37.0618,-52.7008 0,-0.0011811 5.57953,-23.2358 14.7496,-55.5048z"/>
   <path id="_500575592" class="fil17" d="M707.093 1320.12c32.3681,31.5213 70.1587,57.4311 104.873,35.6622 34.7197,-21.7583 38.8985,-56.8182 17.1343,-91.5497l-129.326 -218.172c-27.5729,-43.9512 -74.178,-29.889 -118.143,-2.31024 -43.9689,27.5658 -55.0241,60.0674 -27.4559,104.026l152.919 172.344z"/>
   <path id="_500574968" class="fil23" d="M505.252 999.705c2.49921,-2.13071 191.097,42.4441 193.703,45.4937l121.58 190.541c15.6638,24.3981 25.5059,44.354 26.4579,65.0327 1.6063,34.8709 -40.9725,223.893 -49.1244,273.228l-113.511 -27.8091 18.2752 -220.795 -78.8741 -98.6103 -132.626 -57.7878c-33.6307,-39.5221 -25.4067,-135.657 14.1189,-169.293z"/>
   <path id="_500575568" class="fil24" d="M1711.74 999.705c-2.49921,-2.13071 -197.348,42.4441 -199.955,45.4937l43.7847 559.531 93.2776 -7.49764 77.0115 -428.234c33.6307,-39.5221 25.4067,-135.657 -14.1189,-169.293z"/>
   <path id="_500575400" class="fil25" d="M674.714 1561.94c0,0 -7.40316,23.3173 -25.989,50.6989 -6.34134,9.33898 -8.0752,25.5496 -12.0579,33.6284 -16.3595,3.5504 -21.5433,41.6256 -18.7453,48.2835 2.42481,11.1496 57.7205,22.1823 92.5513,9.92009 24.2374,-8.52638 43.93,-0.437008 71.1898,7.64882 26.0173,7.72205 58.9276,15.4453 109.26,8.71182 49.5225,-6.62717 39.3603,-53.7993 22.9618,-66.3709 -22.9465,-10.1268 -48.2256,-11.0138 -67.5048,-14.0268 -60.0107,-9.34607 -25.8792,-41.7532 -60.5623,-62.4414 -29.6103,17.0457 -55.4575,26.1827 -73.1729,21.1429 -26.9776,-7.66536 -23.8606,-36.6839 -37.9311,-37.1953z"/>
   <path id="_500575184" class="fil26" d="M701.071 1679.73c-25.5071,8.98229 -60.5457,7.06654 -83.3115,1.18819 1.75512,-13.6264 7.7126,-32.224 18.9071,-34.6548 3.98268,-8.07875 5.71654,-24.2894 12.0579,-33.6284 18.5858,-27.3815 25.9914,-50.6989 25.9914,-50.6989 14.0681,0.511418 10.9512,29.5299 37.9288,37.1953 17.7154,5.03977 43.5626,-4.09725 73.1729,-21.1429 34.6831,20.6882 0.551575,53.0953 60.5623,62.4414 19.2791,3.01299 44.5583,3.9 67.5048,14.0268 8.92324,6.84331 15.9756,23.9221 12.5953,39.1465 -5.10355,2.24646 -11.1638,3.95197 -18.3177,4.90985 -57.7619,7.72087 -95.53,-1.13976 -125.392,-10.0016 -31.2792,-9.28583 -53.8819,-18.5705 -81.6993,-8.7815z"/>
   <path id="_500574632" class="fil27" d="M633.387 1647.54c1.04291,-0.571654 2.13071,-1.0311 3.27992,-1.27677 3.98268,-8.07875 5.71654,-24.2894 12.0579,-33.6284 18.5858,-27.3815 25.9914,-50.6989 25.9914,-50.6989 14.0681,0.511418 10.9512,29.5299 37.9288,37.1953 17.7154,5.03977 43.5626,-4.09725 73.1729,-21.1429 34.6831,20.6882 17.7685,53.0953 77.7827,62.4414 19.2851,3.01299 27.3378,3.9 50.2843,14.0268 2.21339,1.71732 4.31103,4.04292 6.163,6.80079 -5.20512,3.0567 -11.8099,5.33741 -20.1366,6.45237 -50.3292,6.72993 -83.2394,-0.987402 -109.262,-8.71064 -27.261,-8.08938 -46.9512,-16.1788 -71.191,-7.64764 -28.2874,9.94843 -70.0725,4.55079 -86.0717,-3.81142z"/>
   <path id="_500574800" class="fil25" d="M749.705 1629.85c-21.1429,3.97323 -48.6284,9.66379 -70.0902,4.5189 -12.5669,-3.01299 -23.3835,-9.6756 -33.1075,-17.8417 0.677953,-1.38425 1.41378,-2.69292 2.21693,-3.88819 18.5858,-27.3815 25.9914,-50.6989 25.9914,-50.6989 14.0681,0.511418 10.9512,29.5299 37.9288,37.1953 17.4,4.95 42.6473,-3.7878 71.5961,-20.2512 -4.4563,18.6886 -13.4209,46.9902 -34.5355,50.9658z"/>
   <path id="_500574080" class="fil28" d="M797.143 1638.51c1.51063,3.50315 5.56418,5.113 9.0567,3.59646l23.348 -10.0819c3.49488,-1.50945 5.10473,-5.55709 3.59764,-9.05788 -1.51299,-3.4937 -5.56418,-5.10473 -9.06142,-3.58583l-23.3528 10.0713c-3.48307,1.51063 -5.09646,5.57481 -3.58819,9.05788z"/>
   <path id="_500574152" class="fil28" d="M784.759 1619.66c1.37835,3.19607 5.08819,4.67126 8.28072,3.28819l21.3662 -9.22205c3.19843,-1.38425 4.6689,-5.10237 3.29173,-8.28898 -1.38425,-3.19016 -5.08819,-4.66654 -8.2878,-3.29055l-21.3697 9.22796c-3.1937,1.37953 -4.6689,5.08347 -3.2811,8.28544z"/>
   <path id="_500574368" class="fil28" d="M773.499 1602.29c1.38307,3.20197 5.09174,4.67244 8.29134,3.29528l21.3638 -9.22796c3.19725,-1.38898 4.6689,-5.09764 3.28819,-8.2878 -1.38189,-3.19134 -5.08937,-4.67481 -8.28544,-3.2811l-21.3626 9.21615c-3.2067,1.37362 -4.67244,5.08465 -3.29528,8.28544z"/>
   <path id="_500574560" class="fil4" d="M851.459 1637.98c-0.0165354,-0.00590552 -0.034252,-0.00944883 -0.0507874,-0.0141732 0.0141732,0.00236221 0.0354331,0.00944883 0.0519685,0.0141732l-0.0011811 0zm-0.0897638 -0.0248032c-8.08465,-2.07284 -14.341,-4.70552 -19.3618,-7.72678 -0.00472441,0.00354331 -0.00944883,0.0129921 -0.0129921,0.0141732 5.01851,3.0189 11.2902,5.64449 19.3748,7.71379l0 -0.0011811zm-30.6792 -17.1201l3.39331 -1.46102 -3.37796 1.45512c-1.51654,-1.7315 -2.87835,-3.50906 -4.13977,-5.32914 1.25197,1.82362 2.6126,3.60945 4.12441,5.33504z"/>
   <path id="_500574752" class="fil4" d="M833.014 1622.68c-1.17402,-2.42599 -3.61063,-3.87166 -6.17126,-3.87874 2.56063,0.00708662 4.99725,1.45276 6.17126,3.87874l0 0zm-8.8689 -3.33544c0.0283465,-0.011811 0.0578741,-0.0236221 0.0897638,-0.0377953 -0.0330709,0.0129921 -0.0614174,0.0259843 -0.0897638,0.0389764l0 -0.0011811zm2.66221 -0.544489c0.00472441,0 0.00826772,0.0011811 0.0153543,0.0011811l-0.0011811 -0.0011811c-0.00590552,0 -0.00944883,0.0011811 -0.0141732,0.0011811l0 -0.0011811zm-9.14174 -13.435c-1.03937,-2.3315 -3.32717,-3.73229 -5.73662,-3.73937 2.40827,0.0129921 4.69725,1.40788 5.7378,3.73937l-0.0011811 0zm-8.16024 -3.26457c0.00826772,-0.0011811 0.011811,-0.00472441 0.022441,-0.00944883 -0.0106299,0.00472441 -0.0141732,0.00826772 -0.022441,0.00944883zm2.38347 -0.474804c0.00236221,0 0.00708662,0 0.0106299,0l-0.0011811 0c-0.00236221,0 -0.00708662,0 -0.00944883,0z"/>
   <path id="_500574488" class="fil27" d="M780.517 1592.4l15.5681 -6.71457c0,-0.00472441 -0.00236221,-0.00472441 -0.00236221,-0.00708662l-0.0212599 0.00944883c-1.1315,-1.06181 -2.34803,-2.10709 -3.65079,-3.1441l0.00826772 -0.0248032c-1.97599,-1.55906 -4.15748,-3.07087 -6.60119,-4.52835l0 -0.0011811c-0.527953,0.305906 -1.05591,0.608268 -1.57914,0.908268 -0.992127,4.15394 -2.20158,8.7756 -3.72166,13.5024z"/>
   <path id="_500574464" class="fil29" d="M803.467 1642.68c0.910631,0 1.83898,-0.184252 2.73307,-0.572835l23.348 -10.0819c0.967324,-0.414567 1.79173,-1.0311 2.44606,-1.7752 0.00354331,-0.00354331 0.00826772,-0.00944883 0.0129921,-0.0141732 -0.00826772,-0.00236221 -0.0129921,-0.00826772 -0.022441,-0.0141732 1.6937,-1.93465 2.24528,-4.72323 1.16102,-7.25434 -0.0448819,-0.0968505 -0.0838583,-0.187795 -0.131102,-0.27874 -1.17402,-2.42599 -3.61063,-3.87166 -6.17126,-3.87874 -0.00708662,-0.0011811 -0.0153543,0 -0.0200788,0 -0.00708662,-0.0011811 -0.0106299,0 -0.0153543,0 -0.859843,-0.0011811 -1.73032,0.165354 -2.57244,0.505512 -0.0330709,0.0129921 -0.0614174,0.0259843 -0.0897638,0.0389764 -0.022441,0.00944883 -0.0425197,0.0177165 -0.0614174,0.0271654l-0.0011811 0 -3.39331 1.46102 -19.9583 8.61024c-3.48307,1.51063 -5.09646,5.57481 -3.58701,9.05788 1.12205,2.60788 3.65788,4.16929 6.32245,4.16929z"/>
   <path id="_500574416" class="fil29" d="M790.548 1623.47c0.83504,0 1.68189,-0.167717 2.49213,-0.519685l21.3662 -9.22205c0.252756,-0.109843 0.497244,-0.23504 0.729922,-0.373229 -0.00354331,-0.00826772 -0.0106299,-0.0153543 -0.011811,-0.0236221 2.67992,-1.60039 3.84331,-4.94174 2.57362,-7.89213 -0.0129921,-0.0200788 -0.0212599,-0.0448819 -0.0307087,-0.0661418 -1.04055,-2.3315 -3.32835,-3.72638 -5.7378,-3.73937 -0.00708662,0 -0.0165354,0 -0.0295276,0 -0.00354331,0 -0.00826772,0 -0.0106299,0 -0.787796,0 -1.58858,0.151181 -2.36103,0.465355 -0.0106299,0.00472441 -0.0141732,0.00826772 -0.022441,0.00944883 -0.0307087,0.011811 -0.0649607,0.0248032 -0.0956694,0.0401575l-0.68504 0.297638c0,0 0,0.0011811 0,0.0011811l-20.6847 8.92914c-3.1937,1.37953 -4.6689,5.08347 -3.27992,8.28544 1.02756,2.3811 3.34843,3.80788 5.78741,3.80788z"/>
   <path id="_500573816" class="fil5" d="M806.441 1588.07c-1.02638,-2.36693 -3.32717,-3.79488 -5.7567,-3.80315 2.42835,0.00826772 4.73032,1.43622 5.75788,3.80315l-0.0011811 0zm-5.79331 -3.80315c0.00472441,0 0.00590552,0 0.00944883,0l0 0c-0.00354331,0 -0.00472441,0 -0.00944883,0z"/>
   <path id="_500573312" class="fil29" d="M779.294 1606.1c0.832678,0 1.67953,-0.166536 2.49567,-0.516142l21.3638 -9.22796c0.470079,-0.206693 0.907087,-0.464174 1.30394,-0.762993 -0.00708662,-0.00590552 -0.00944883,-0.0129921 -0.0141732,-0.0177165 2.26772,-1.70433 3.17362,-4.78583 1.99843,-7.50709l-0.0011811 0c-1.02638,-2.36693 -3.32717,-3.79488 -5.7567,-3.80315 -0.00826772,0 -0.0177165,0 -0.0271654,0 -0.00354331,0 -0.00472441,0 -0.00826772,0 -0.836221,0 -1.67953,0.168898 -2.49213,0.522048l0 -0.00236221 -2.07166 0.897638 -15.5681 6.71457 -3.72284 1.6063c-3.2067,1.37362 -4.67244,5.08465 -3.29528,8.28662 0.485433,1.12205 1.25551,2.0315 2.18858,2.67992 1.05236,0.732284 2.31378,1.13032 3.60709,1.13032z"/>
   <path id="_500573552" class="fil17" d="M319.088 1608.28c-10.2059,32.1532 7.50001,41.3114 40.4788,57.0579 32.9965,15.7536 45.6048,5.87953 61.3512,-27.1122l89.2253 -234.565c15.7488,-32.9859 13.0169,-69.0721 -19.9701,-84.8103 -32.9965,-15.7571 -18.1914,8.62087 -43.8744,34.6441 -48.9118,49.5685 -127.211,254.785 -127.211,254.785z"/>
   <path id="_500573360" class="fil0" d="M359.567 1665.34c-32.9788,-15.7465 -50.6835,-24.9059 -40.4788,-57.0579 0,0 9.23741,-44.9008 24.0201,-98.0847 10.9654,4.08898 21.6992,8.69292 32.0906,12.8197 26.4284,10.4693 52.6406,21.6792 79.6016,30.7406 3.18071,1.08189 -4.54134,-4.1374 -1.34646,-3.07677l-32.224 84.7359c-15.7453,32.9929 -28.6666,45.6768 -61.663,29.9233z"/>
   <path id="_500573912" class="fil0" d="M1719.63 1664.68c27.5492,-9.66497 42.502,-15.3744 42.5398,-39.737 0,0 3.68859,-33.7229 5.27363,-73.8969 -8.89371,2.36575 -17.7402,5.12717 -26.2276,7.55552 -21.5799,6.15591 -43.174,12.8717 -64.8142,17.9575 -2.55591,0.608268 4.24961,-2.78622 1.6878,-2.19331l3.76181 64.5249c3.78307,25.3146 10.2165,35.4567 37.7788,25.7894z"/>
   <path id="_500573624" class="fil17" d="M441.812 1320.89c-5.93386,48.7382 -38.4343,90.9296 3.2374,106.589 41.6563,15.6697 74.7024,-3.81024 90.3615,-45.4607 106.924,-277.558 84.6414,-156.719 62.465,-387.722l-0.683859 6.82441c-52.7752,-19.8437 -115.208,-49.5095 -135.047,3.24331l-20.3327 316.526z"/>
   <path id="_500573888" class="fil30" d="M317.693 1575.15c0,0 -10.5024,24.4051 -33.515,52.0134 -7.85434,9.41221 -11.4697,26.7461 -16.6311,35.054 -18.0721,2.08465 -27.7453,42.691 -25.4386,50.178 1.43386,12.3201 60.0154,30.1618 98.9765,20.6339 52.9985,-12.9366 80.4308,40.8827 193.305,37.004 54.2351,-1.85906 48.2941,-53.9433 31.9181,-69.2634 -23.7213,-13.4114 -50.9445,-17.0894 -71.4627,-22.4067 -37.1788,-9.61418 -39.0402,-24.2634 -41.0599,-39.9733 -1.44685,-11.276 -2.97756,-23.1 -17.7201,-33.9969 -33.8339,15.2528 -62.7437,22.3689 -81.3568,15.0189 -28.3311,-11.178 -21.8516,-42.2174 -37.0158,-44.2618z"/>
   <path id="_500573648" class="fil19" d="M1777.33 1599.61c0,0 2.20866,20.9339 13.761,45.3603 3.94725,8.32914 2.38819,22.9394 4.4315,30.1725 14.1567,2.93858 11.4874,37.2461 7.6689,43.2969 -4.363,10.1173 -56.6422,20.9823 -85.8591,10.474 -39.7512,-14.2736 -76.03,28.5 -166.832,17.7236 -43.6311,-5.17441 -25.2815,-47.9504 -7.98544,-59.5524 22.774,-9.52796 45.8705,-10.7539 63.9402,-13.7858 32.7343,-5.47914 38.0504,-17.4969 43.7693,-30.3851 4.10433,-9.24922 8.41654,-18.9484 23.237,-26.9941 23.5606,14.9102 45.228,22.7469 62.2749,17.8996 25.9441,-7.36772 28.7292,-33.5303 41.5937,-34.2095z"/>
   <path id="_500573504" class="fil31" d="M333.574 1705.29c-28.5319,6.9756 -66.2044,1.15394 -90.1713,-7.63229 3.34843,-14.5524 11.7768,-34.0158 24.1441,-35.4414 5.1626,-8.30552 8.77678,-25.6418 16.6311,-35.054 23.0126,-27.6083 33.515,-52.0146 33.515,-52.0146 15.1642,2.04567 8.68465,33.0827 37.0158,44.263 18.6118,7.35001 47.5229,0.233858 81.3568,-15.0189 14.7425,10.8969 16.2732,22.7197 17.7201,33.9969 2.01969,15.7099 3.88111,30.3591 41.0599,39.9733 20.5181,5.31733 47.7402,8.9941 71.4627,22.4067 8.91261,8.33032 14.7095,27.5433 9.42993,43.6347 -5.75552,1.90158 -12.4925,3.07914 -20.3185,3.34843 -129.545,4.44685 -161.021,-57.3237 -221.845,-42.4618z"/>
   <path id="_500573936" class="fil32" d="M263.856 1663.25c1.18583,-0.50315 2.41536,-0.881103 3.69095,-1.03583 5.1626,-8.30552 8.77678,-25.6418 16.6311,-35.054 23.0126,-27.6083 33.515,-52.0146 33.515,-52.0146 15.1642,2.04567 8.68465,33.0827 37.0158,44.263 18.6118,7.35001 47.5229,0.233858 81.3568,-15.0189 35.2725,26.0764 13.526,59.2949 77.3859,75.8162 20.5358,5.32205 29.1343,7.14804 52.8567,20.5606 2.20394,2.06339 4.23189,4.80945 5.93268,7.99607 -5.95512,2.73898 -13.3382,4.49528 -22.454,4.813 -112.876,3.87874 -140.308,-49.9489 -193.303,-37.0004 -31.6382,7.7256 -76.2272,-2.58425 -92.628,-13.3252z"/>
   <path id="_500573744" class="fil30" d="M391.474 1656.57c-23.2595,2.02914 -53.5867,5.24528 -76.2355,-2.61732 -13.2555,-4.59685 -24.241,-12.9579 -33.8729,-22.8236 0.875198,-1.42205 1.81654,-2.76378 2.81221,-3.96378 23.0126,-27.6083 33.515,-52.0146 33.515,-52.0146 15.1642,2.04567 8.68465,33.0827 37.0158,44.263 18.2717,7.21064 46.5142,0.454725 79.5485,-14.2228 -6.81142,19.7244 -19.526,49.3465 -42.7831,51.3792z"/>
   <path id="_500573168" class="fil28" d="M441.832 1671.02c1.25787,3.93898 5.46969,6.11339 9.40276,4.8567l26.3114 -8.39292c3.94488,-1.26614 6.11339,-5.46851 4.85315,-9.40985 -1.24725,-3.93307 -5.46142,-6.10985 -9.39213,-4.8567l-26.3244 8.40355c-3.94252,1.25551 -6.10867,5.46142 -4.85079,9.39922z"/>
   <path id="_500573048" class="fil28" d="M430.458 1649.33c1.14803,3.59174 5.00315,5.58426 8.60788,4.42796l24.0815 -7.68071c3.60709,-1.14921 5.59134,-4.99843 4.4374,-8.6067 -1.14331,-3.59882 -4.99607,-5.59843 -8.59371,-4.44922l-24.0945 7.68544c-3.60709,1.15512 -5.59016,5.00906 -4.43859,8.62323z"/>
   <path id="_500572784" class="fil28" d="M420.153 1629.34c1.14449,3.60355 4.99961,5.58544 8.60079,4.43859l24.0933 -7.6878c3.59882,-1.14567 5.57481,-4.99961 4.43504,-8.60434 -1.14685,-3.60118 -4.99961,-5.58898 -8.60906,-4.43622l-24.0827 7.6878c-3.6,1.13858 -5.57835,4.9937 -4.4374,8.60198z"/>
   <path id="_500573024" class="fil25" d="M577.473 1726.16c0.00472441,0.0307087 0.00472441,0.0649607 0.00944883,0.0956694 -0.00354331,-0.0295276 -0.00472441,-0.0649607 -0.00944883,-0.0968505l0 0.0011811zm0.011811 0.127559c0.628347,6.00473 0.173622,12.2669 -1.74685,18.1193 -5.75552,1.90158 -12.4925,3.07914 -20.3185,3.34843 -129.545,4.44685 -161.021,-57.3237 -221.845,-42.4618 -28.5319,6.9756 -66.2044,1.15394 -90.1713,-7.63229 0.629528,-2.74134 1.4374,-5.65276 2.42244,-8.5878l-0.0259843 0.0755906c-0.641339,1.91103 -1.20473,3.80197 -1.68898,5.65276l-0.0484252 0.152362c-1.38189,5.24882 -2.15669,10.076 -2.2748,13.4965 -0.00236221,0.00472441 0,0.00590552 0,0.0106299 -0.00236221,0.0011811 -0.00354331,0.0011811 -0.00354331,0.00472441 -0.0377953,1.18701 0.00236221,2.20394 0.125197,3.01299 0.0496063,0.347244 0.115748,0.655512 0.199606,0.918898l0 0.0011811c0.00354331,0.0448819 0.00944883,0.090945 0.0165354,0.133465l0 0c0.694489,4.64528 9.42048,10.0547 22.1079,14.478 20.5736,7.17993 51.5575,11.7662 75.5646,6.32481 0.0637796,-0.0129921 0.126378,-0.0283465 0.187795,-0.0389764 0.320079,-0.0744095 0.637796,-0.15 0.960237,-0.230315 0.0448819,-0.00944883 0.090945,-0.0188977 0.13937,-0.034252 2.17323,-0.527953 4.30512,-0.950788 6.40158,-1.2626 48.9922,-7.35591 78.6568,41.9847 186.904,38.2666l0 0c0.0578741,-0.00236221 0.115748,-0.00354331 0.17126,-0.00944883 0.034252,0.0011811 0.0673229,0 0.0992127,-0.0011811 0.0188977,-0.00236221 0.0318898,-0.0011811 0.0531496,-0.00472441 24.5091,-0.934253 36.6154,-12.1854 41.0244,-25.6134l0.00826772 -0.022441c1.91457,-5.84528 2.37284,-12.0992 1.73858,-18.0969zm-323.572 -54.1087c-0.00590552,0.00472441 -0.00826772,0.0129921 -0.0106299,0.0165354l-0.00826772 0.0129921c0.00354331,-0.00944883 0.0129921,-0.0200788 0.0188977,-0.0295276l0 0zm-1.77284 2.76378l-0.0295276 0.0401575c-0.114567,0.19252 -0.227953,0.381496 -0.337796,0.576378 -0.357874,0.62126 -0.711024,1.26024 -1.04646,1.90158l-0.0200788 0.0330709c0.459449,-0.869292 0.937796,-1.72205 1.43386,-2.55355l0 0.00236221zm-3.50433 6.84213c-0.611811,1.37835 -1.17638,2.78268 -1.71142,4.19764l-0.0389764 0.109843c0.542126,-1.45394 1.12913,-2.89252 1.7504,-4.30748z"/>
   <path id="_500572880" class="fil25" d="M1526.84 1707.38c-0.0129921,0.0248032 -0.0212599,0.0531496 -0.0330709,0.0779528 0.0106299,-0.0248032 0.0200788,-0.0531496 0.0330709,-0.0791339l0 0.0011811zm-0.0437008 0.103937c-2.06929,4.93583 -3.32362,10.1575 -3.2811,15.137 4.18819,1.96181 9.36261,3.38859 15.6579,4.13622 104.213,12.365 145.845,-36.7299 191.462,-20.3351 21.3969,7.69253 53.5489,5.39174 75.3225,-0.287008 0.199606,-2.31378 0.297638,-4.78111 0.258662,-7.28032l0.00236221 0.0637796c0.0248032,1.62756 -0.00708662,3.23268 -0.0933072,4.8l-0.0011811 0.12874c-0.238583,4.44331 -0.859843,8.49686 -1.65236,11.341 0.0011811,0.00354331 -0.0011811,0.00472441 -0.00236221,0.00826772 0.0011811,0.0011811 0.00236221,0.0011811 0.0011811,0.00354331 -0.276378,0.986221 -0.572835,1.82717 -0.883465,2.48977 -0.129921,0.284646 -0.263386,0.536221 -0.400394,0.747638l0 0.0011811c-0.0153543,0.0377953 -0.0318898,0.0755906 -0.0484252,0.109843l0 0c-1.77047,3.80433 -10.2721,7.70316 -21.7394,10.5201 -18.5977,4.57323 -44.9882,6.3 -63.104,0.180709 -0.0472441,-0.0153543 -0.0944883,-0.0318898 -0.141732,-0.0448819 -0.240945,-0.0826772 -0.479528,-0.166536 -0.721654,-0.255118 -0.034252,-0.0106299 -0.068504,-0.0212599 -0.103937,-0.0377953 -1.6311,-0.583465 -3.25512,-1.07717 -4.87914,-1.47638 -37.9406,-9.37914 -74.8725,29.5335 -161.953,19.2l0 0c-0.046063,-0.00590552 -0.0921261,-0.0106299 -0.137008,-0.0188977 -0.0271654,-0.00236221 -0.0543308,-0.00472441 -0.080315,-0.00826772 -0.0141732,-0.00354331 -0.0259843,-0.00236221 -0.0413386,-0.00708662 -19.6925,-2.41654 -26.6197,-12.5539 -26.7213,-23.9799l0 -0.0200788c-0.0413386,-4.97363 1.20945,-10.1882 3.2811,-15.1169zm277.225 -23.1744c0.00354331,0.00354331 0.00354331,0.0106299 0.00472441,0.0129921l0.00354331 0.011811c-0.0011811,-0.00708662 -0.00590552,-0.0177165 -0.00826772,-0.0248032l0 0zm0.725197 2.40827l0.0129921 0.0354331c0.0437008,0.167717 0.0862205,0.333071 0.125197,0.500788 0.129921,0.538583 0.251575,1.09252 0.357874,1.64646l0.00826772 0.0295276c-0.148819,-0.752363 -0.316536,-1.49055 -0.504331,-2.21339l0 0.0011811zm1.0748 5.9067c0.13937,1.18347 0.233858,2.38583 0.302362,3.59528l0.00354331 0.0933072c-0.0649607,-1.24252 -0.167717,-2.47323 -0.305906,-3.68859z"/>
   <path id="_500572688" class="fil33" d="M577.212 1724.12c-0.220866,-1.47402 -0.506693,-2.93032 -0.850394,-4.35355l-0.0720473 -0.291733c-0.21378,-0.840946 -0.435827,-1.67244 -0.681497,-2.48504l-0.179528 -0.551575c-0.214961,-0.712205 -0.46063,-1.42323 -0.719292,-2.10827l-0.262205 -0.713386c-0.243307,-0.62126 -0.493701,-1.22835 -0.753544,-1.83425l-0.349607 -0.794883c-0.264567,-0.550394 -0.526772,-1.09252 -0.805512,-1.62284l-0.298819 -0.6c-5.9563,2.74016 -13.337,4.49528 -22.4528,4.813 -112.876,3.87874 -140.308,-49.9489 -193.303,-37.0004 -31.6382,7.7256 -76.2272,-2.58425 -92.6304,-13.3264 0.713386,-0.303544 1.44095,-0.558662 2.18622,-0.751182 -0.177165,0.0484252 -0.351969,0.0933072 -0.523229,0.140551l-0.6 0.190158c-0.494882,0.168898 -0.988583,0.361418 -1.47047,0.579922l-0.52441 0.244488c-0.629528,0.31063 -1.23307,0.666142 -1.84134,1.07126l-0.334252 0.252756c-0.504331,0.354331 -0.988583,0.728741 -1.46221,1.12677l-0.542126 0.47126c-0.442914,0.407481 -0.884646,0.840946 -1.32992,1.28976l-0.367323 0.380315c-0.533859,0.583465 -1.06063,1.19528 -1.57559,1.83898l-0.389764 0.509056c-0.39567,0.51378 -0.78189,1.03701 -1.16575,1.58032 -0.00590552,0.00944883 -0.0153543,0.0200788 -0.0212599,0.0259843l-0.409843 0.612993c-0.444095,0.669686 -0.883465,1.35591 -1.30276,2.06693l-0.0389764 0.0578741c-0.496063,0.829134 -0.973229,1.68071 -1.43386,2.55118l-0.277559 0.548032c-0.347244,0.676772 -0.686221,1.35709 -1.01693,2.04921l-0.252756 0.546851c-0.177165,0.381496 -0.349607,0.762993 -0.523229,1.14567 -0.62126,1.41614 -1.20827,2.85473 -1.7504,4.30866l-0.129921 0.362599c-0.311811,0.84567 -0.627166,1.69134 -0.902363,2.54528l-0.0283465 0.0744095c-0.982678,2.93504 -1.79173,5.8441 -2.42244,8.58662 23.9681,8.78623 61.6394,14.6079 90.1713,7.63229 60.8245,-14.8618 92.3009,46.9087 221.845,42.4618 7.82599,-0.269292 14.563,-1.44685 20.3185,-3.34843 1.92047,-5.85237 2.3752,-12.1146 1.74685,-18.1193 -0.0011811,-0.0129921 -0.0011811,-0.0236221 -0.00236221,-0.0318898 -0.00354331,-0.0295276 -0.00472441,-0.0649607 -0.00944883,-0.0968505 -0.0755906,-0.680315 -0.158268,-1.36181 -0.261024,-2.03504zm-6.18426 -17.4662l-0.0200788 -0.0330709c-0.0496063,-0.0779528 -0.100394,-0.159449 -0.148819,-0.239764l-0.0188977 -0.0248032c0.0625985,0.0980316 0.125197,0.198425 0.187795,0.297638l0 0zm-1.5626 -2.30669l-0.0448819 -0.0614174c-0.0496063,-0.0661418 -0.0992127,-0.134646 -0.147638,-0.198425 -0.0366142,-0.0425197 -0.0720473,-0.090945 -0.108662,-0.137008 0.101575,0.131102 0.20315,0.264567 0.302362,0.39567l-0.0011811 0.0011811zm-2.05748 -2.47441c-0.0401575,-0.0472441 -0.0850394,-0.0944883 -0.12874,-0.13937 -0.317717,-0.337796 -0.646063,-0.657875 -0.970867,-0.964961 0.369685,0.347244 0.739371,0.714567 1.09961,1.10433zm-299.861 -39.6567l0 0c-0.154725,0.0200788 -0.308268,0.0389764 -0.462992,0.0673229 0.152362,-0.0259843 0.308268,-0.0472441 0.462992,-0.0673229z"/>
   <path id="_500573288" class="fil3" d="M1527.58 1705.71c0.561024,-1.20709 1.17284,-2.3941 1.82126,-3.55158l0.134646 -0.236221c0.392126,-0.683859 0.787796,-1.35827 1.19882,-2.01496l0.288189 -0.445276c0.360236,-0.575197 0.745276,-1.14921 1.13268,-1.69961l0.399213 -0.574016c0.359055,-0.498426 0.720473,-0.98504 1.08898,-1.46929l0.490158 -0.635434c0.357874,-0.438189 0.712205,-0.870473 1.07599,-1.29213l0.399213 -0.477166c4.13386,2.67047 9.6815,4.62048 17.0126,5.49449 90.8032,10.7764 127.084,-32.0055 166.828,-17.7213 23.7295,8.52402 62.6717,2.96457 78.8008,-4.84134 -0.500788,-0.298819 -1.02638,-0.558662 -1.58268,-0.768898 0.132284,0.0519685 0.262205,0.101575 0.389764,0.151181l0.438189 0.198425c0.359055,0.173622 0.709843,0.366142 1.04528,0.578741l0.362599 0.238583c0.432284,0.298819 0.830316,0.634252 1.22008,1.01102l0.206693 0.232677c0.317717,0.325985 0.614174,0.669686 0.896457,1.0311l0.318898 0.426378c0.255118,0.368504 0.501969,0.757087 0.746457,1.15866l0.200788 0.340158c0.283465,0.519685 0.552756,1.06063 0.804331,1.62874l0.185433 0.448819c0.187795,0.453544 0.366142,0.911812 0.537402,1.38898 0.00236221,0.00708662 0.00708662,0.0177165 0.0106299,0.022441l0.174803 0.536221c0.186614,0.584646 0.366142,1.18228 0.523229,1.8l0.0165354 0.0496063c0.187795,0.721654 0.354331,1.45866 0.504331,2.21221l0.0826772 0.472441c0.106299,0.584646 0.205512,1.17047 0.296457,1.76575l0.0625985 0.470079c0.046063,0.328347 0.0874016,0.656693 0.12874,0.98504 0.138189,1.21654 0.240945,2.44725 0.305906,3.68977l0.0106299 0.309449c0.034252,0.721654 0.0720473,1.44331 0.0744095,2.16969l0.00354331 0.0637796c0.0377953,2.49921 -0.0602363,4.96418 -0.258662,7.27914 -21.7748,5.67874 -53.9256,7.97953 -75.3225,0.287008 -45.6166,-16.3949 -87.2481,32.7 -191.462,20.3351 -6.29528,-0.747638 -11.4697,-2.17441 -15.6579,-4.13622 -0.0425197,-4.97953 1.21181,-10.2012 3.2811,-15.137 0.00472441,-0.0106299 0.00708662,-0.0188977 0.0106299,-0.0259843 0.0106299,-0.0248032 0.0200788,-0.0531496 0.0330709,-0.0791339 0.237402,-0.559843 0.48189,-1.1185 0.740552,-1.67008zm9.56221 -14.0646l0.0248032 -0.0248032c0.0602363,-0.0614174 0.124016,-0.125197 0.184252,-0.188977l0.0212599 -0.0200788c-0.0767717,0.0779528 -0.153543,0.157087 -0.230315,0.233858l0 0zm1.86969 -1.80591l0.0531496 -0.0484252c0.0578741,-0.0519685 0.114567,-0.105118 0.17126,-0.154725 0.0413386,-0.0330709 0.0814961,-0.0708662 0.124016,-0.106299 -0.116929,0.102756 -0.233858,0.205512 -0.348425,0.308268l0 0.0011811zm2.31614 -1.91457c0.0448819,-0.0366142 0.0933072,-0.0720473 0.140551,-0.106299 0.346063,-0.258662 0.69567,-0.501969 1.04055,-0.734646 -0.390945,0.262205 -0.787796,0.542126 -1.1811,0.840946zm254.189 -12.7831l0 0c0.120473,0.0259843 0.240945,0.0531496 0.357874,0.0862205 -0.116929,-0.0318898 -0.237402,-0.0602363 -0.357874,-0.0862205z"/>
   <path id="_500572856" class="fil26" d="M572.241 1708.77l0 0 -0.161811 -0.279921c-0.256299,-0.478347 -0.519685,-0.934253 -0.801969,-1.38898l-0.249213 -0.441733c-0.0625985,-0.0992127 -0.125197,-0.199606 -0.187795,-0.297638l-0.0602363 -0.0862205c-0.283465,-0.452363 -0.587008,-0.86693 -0.884646,-1.30276l-0.429922 -0.620079c-0.0992127,-0.133465 -0.199606,-0.265748 -0.301181,-0.396851 -0.26811,-0.337796 -0.536221,-0.659056 -0.80315,-0.979135l-0.49252 -0.582284c-0.148819,-0.174803 -0.301181,-0.349607 -0.46063,-0.516142 -0.360236,-0.389764 -0.731103,-0.757087 -1.09961,-1.10433l0 0.0011811c-23.7213,-13.4126 -32.3197,-15.2398 -52.8567,-20.5618l0 0.0011811c-2.0563,-0.527953 -4.0252,-1.07835 -5.90552,-1.64528 -0.00944883,-0.0011811 -0.0106299,-0.00472441 -0.0200788,-0.00826772 -0.0366142,-0.00590552 -0.0720473,-0.0200788 -0.10748,-0.0307087 -12.0343,-3.62717 -20.6374,-7.93465 -27.0425,-12.7051 -0.784253,0.732284 -1.73977,1.30866 -2.82992,1.65945l-26.3114 8.39292c-3.93307,1.25669 -8.14489,-0.917717 -9.40158,-4.8567 -0.125197,-0.390945 -0.216142,-0.788977 -0.274016,-1.18228 -0.533859,-3.56457 1.57914,-7.0878 5.12244,-8.21694l22.487 -7.1752c-2.01851,-2.82402 -3.69095,-5.72717 -5.19685,-8.68938 -0.263386,0.119291 -0.539764,0.227953 -0.82441,0.320079l-24.0839 7.6819c-3.60236,1.15512 -7.45749,-0.838583 -8.6067,-4.4315 -0.114567,-0.354331 -0.197244,-0.71693 -0.250394,-1.0748 -0.488977,-3.27284 1.43976,-6.50434 4.69016,-7.54607l23.3162 -7.43623 -0.0011811 -0.00354331 -0.00236221 0.0011811c-1.18228,-2.60669 -2.44961,-5.23701 -3.88937,-7.84253 -0.451181,0.277559 -0.946064,0.500788 -1.47284,0.668504l-24.0945 7.69016c-2.33622,0.741733 -4.78347,0.17126 -6.52323,-1.31339 -7.3063,12.4441 -17.2536,22.9205 -30.7571,24.1004 -23.2571,2.03032 -53.5843,5.24646 -76.2331,-2.61614 -13.2555,-4.59685 -24.241,-12.9579 -33.8729,-22.8236 0.875198,-1.42205 1.81654,-2.76378 2.81221,-3.96378 -7.85434,9.41221 -11.4697,26.7461 -16.6311,35.054l0 0c-0.154725,0.0200788 -0.308268,0.0389764 -0.462992,0.0673229 -0.354331,0.056693 -0.701575,0.132284 -1.0441,0.216142 -0.745276,0.19252 -1.47284,0.447638 -2.18622,0.751182 16.4055,10.7457 60.9934,21.0508 92.6304,13.3264 52.9949,-12.9484 80.4296,40.8768 193.303,37.0004 9.11576,-0.315355 16.4965,-2.07284 22.4528,-4.813l-0.00590552 0.0011811 0.00708662 -0.0011811zm-125.93 -94.9642c-2.79331,-3.2126 -6.11811,-6.35552 -10.2449,-9.40867l-0.00236221 0c-0.22441,0.10748 -0.453544,0.205512 -0.686221,0.309449 -0.379134,0.168898 -0.750001,0.336614 -1.12441,0.499607 -1.51063,4.38071 -3.31536,9.24686 -5.4626,14.1945l17.5205 -5.59489z"/>
   <path id="_500572544" class="fil27" d="M434.259 1605.19c-33.0355,14.6752 -61.278,21.4311 -79.5497,14.2205 -28.3311,-11.178 -21.8516,-42.2174 -37.0158,-44.263l0 0.0011811c0,0 -1.39606,3.2374 -4.27677,8.68938 -4.47402,8.4567 -12.5362,22.2437 -24.5658,37.5485 -0.00236221,0.00354331 -0.0106299,0.0165354 -0.0141732,0.0177165 -0.034252,0.0472441 -0.068504,0.0897638 -0.10748,0.134646 -0.00826772,0.00944883 -0.0141732,0.0165354 -0.0212599,0.0271654 -0.0283465,0.0401575 -0.056693,0.0732284 -0.0885827,0.112205 -0.0106299,0.0141732 -0.0236221,0.0307087 -0.034252,0.046063 -0.0295276,0.0354331 -0.0543308,0.0696851 -0.0814961,0.106299 -0.0283465,0.034252 -0.056693,0.0720473 -0.0850394,0.102756 -0.0177165,0.0248032 -0.0354331,0.0448819 -0.0519685,0.0649607 -0.0259843,0.0377953 -0.0555119,0.0732284 -0.080315,0.10748 -0.00944883,0.00826772 -0.0165354,0.0188977 -0.0248032,0.0248032 -0.0307087,0.0401575 -0.0555119,0.0732284 -0.0838583,0.10748 -0.00944883,0.00944883 -0.0153543,0.0177165 -0.022441,0.0283465 -0.132284,0.165354 -0.262205,0.33189 -0.393307,0.497244l-0.0011811 0c-1.02047,1.2815 -2.06811,2.56772 -3.1441,3.86457 -0.00354331,0.00708662 -0.00590552,0.0106299 -0.0106299,0.0153543 -0.0271654,0.0307087 -0.056693,0.0673229 -0.080315,0.100394 -0.0165354,0.0153543 -0.0271654,0.0295276 -0.0413386,0.046063 -0.0271654,0.0318898 -0.0484252,0.0590552 -0.0720473,0.0874016 -0.0212599,0.0236221 -0.0413386,0.0448819 -0.0578741,0.0661418 -0.0188977,0.0248032 -0.0425197,0.0507874 -0.0625985,0.0744095 -0.0366142,0.0519685 -0.0767717,0.0933072 -0.113386,0.144095l-0.0011811 0.0011811c-0.994489,1.19882 -1.93583,2.54055 -2.81103,3.9626 9.6319,9.86576 20.6197,18.2268 33.8729,22.8236 22.6488,7.8626 52.976,4.64528 76.2331,2.61614 13.5036,-1.17992 23.452,-11.6575 30.7571,-24.1004 -0.94252,-0.800788 -1.67599,-1.86496 -2.07638,-3.12638 -0.115748,-0.35315 -0.194882,-0.712205 -0.249213,-1.06654 -0.487796,-3.26929 1.43976,-6.50788 4.68662,-7.53544l4.2 -1.34173c2.14725,-4.94764 3.95197,-9.81379 5.4626,-14.1945l-0.0011811 0.00236221c0.00354331,-0.00472441 0.00236221,-0.00944883 0.00708662,-0.0129921z"/>
   <path id="_500572616" class="fil5" d="M482.604 1658.84c-0.00236221,-0.00944883 -0.00590552,-0.0188977 -0.00708662,-0.0295276 0.0011811,0.0106299 0.00472441,0.0200788 0.00708662,0.0295276zm-0.011811 -0.0295276c-0.0496063,-0.245669 -0.112205,-0.493701 -0.19252,-0.737008 -1.12677,-3.54685 -4.66654,-5.6693 -8.23701,-5.12953 3.56811,-0.538583 7.1126,1.58268 8.23701,5.12953 0.080315,0.243307 0.142913,0.491339 0.19252,0.737008z"/>
   <path id="_500571824" class="fil29" d="M482.671 1659.24c-0.0188977,-0.133465 -0.0437008,-0.270473 -0.0673229,-0.405118 -0.00236221,-0.00944883 -0.00590552,-0.0188977 -0.00708662,-0.0295276 -0.00472441,0 -0.00472441,-0.0011811 -0.00472441,-0.0011811 -0.0496063,-0.244488 -0.112205,-0.49252 -0.19252,-0.735827 -1.12677,-3.54685 -4.66654,-5.6693 -8.23701,-5.12953 -0.386221,0.0637796 -0.773623,0.151181 -1.15512,0.272835l0 0 -3.83859 1.22835 -22.4858 7.1752c-3.54449,1.12913 -5.65748,4.65237 -5.12363,8.21694 0.0578741,0.393307 0.148819,0.791339 0.274016,1.18228 1.25669,3.93898 5.46851,6.11339 9.40158,4.8567l26.3114 -8.39292c1.09016,-0.350788 2.04567,-0.927166 2.82992,-1.65945 0.00944883,-0.00708662 0.0177165,-0.0153543 0.0283465,-0.0259843 -0.00826772,0 -0.0106299,-0.00236221 -0.0129921,-0.00590552 1.74685,-1.65236 2.6504,-4.0878 2.27953,-6.54686z"/>
   <path id="_500571944" class="fil29" d="M467.836 1638.54c-0.0543308,-0.357874 -0.138189,-0.718111 -0.251575,-1.07244l-0.00236221 -0.0011811c-1.0311,-3.24567 -4.26851,-5.18859 -7.53308,-4.6937 -0.355512,0.0543308 -0.709843,0.137008 -1.05827,0.245669l0 0 -0.778347 0.249213 -23.3162 7.43623c-3.2504,1.04173 -5.17914,4.27323 -4.69016,7.54607 0.0531496,0.361418 0.135827,0.720473 0.250394,1.0748 1.14921,3.5941 5.00433,5.58662 8.60906,4.43032l24.0815 -7.68071c0.284646,-0.0885827 0.561024,-0.200788 0.82441,-0.320079 -0.0011811,-0.00354331 -0.0011811,-0.00354331 0.00472441,-0.00354331 -0.00590552,-0.00590552 -0.0106299,-0.0141732 -0.0165354,-0.0259843 2.74488,-1.28386 4.32284,-4.21063 3.87638,-7.18465z"/>
   <path id="_500572352" class="fil5" d="M457.529 1618.55c-0.0519685,-0.354331 -0.132284,-0.709843 -0.246851,-1.06299 -1.03228,-3.24803 -4.27323,-5.18386 -7.54607,-4.68426 3.27284,-0.499607 6.51378,1.43622 7.54607,4.68426 0.109843,0.355512 0.194882,0.707481 0.248032,1.06654 0.0153543,0.0992127 0.0271654,0.200788 0.0366142,0.295276 -0.011811,-0.0992127 -0.0212599,-0.198425 -0.0377953,-0.298819l0 0zm0.0413386 0.309449c0,0.00826772 0.0011811,0.0129921 0.0011811,0.0212599 0,-0.00826772 -0.0011811,-0.0129921 -0.0011811,-0.0212599z"/>
   <path id="_500572328" class="fil29" d="M457.53 1618.56c-0.0531496,-0.359055 -0.137008,-0.713386 -0.248032,-1.06772 -1.03228,-3.24803 -4.27323,-5.18386 -7.54607,-4.68426 -0.356693,0.0531496 -0.709843,0.135827 -1.06299,0.248032l-2.36221 0.751182 -17.5205 5.59489 -4.2 1.34173c-3.24803,1.02756 -5.17441,4.26615 -4.68662,7.53544 0.0543308,0.354331 0.137008,0.712205 0.249213,1.06654 0.400394,1.26142 1.13386,2.32559 2.07638,3.12638 1.73858,1.48465 4.18701,2.05512 6.52441,1.31221l24.0933 -7.6878c0.526772,-0.168898 1.02284,-0.394488 1.47284,-0.669686 -0.00590552,-0.00826772 -0.00944883,-0.0153543 -0.00944883,-0.0200788 2.23819,-1.3689 3.52205,-3.90709 3.26103,-6.52087 0,-0.00826772 -0.0011811,-0.0129921 -0.0011811,-0.0212599 -0.00236221,-0.00472441 -0.00236221,-0.00708662 -0.00354331,-0.0106299 -0.00944883,-0.0944883 -0.0212599,-0.196063 -0.0366142,-0.294095z"/>
   <path id="_500571848" class="fil34" d="M453.385 992.531c27.0331,-137.68 -6.20079,-215.883 13.7681,-328.555 13.2083,-74.5288 28.6701,-44.1036 58.9831,-95.5501 1.57914,-5.79922 11.5807,22.0677 129.842,36.6 103.019,107.844 50.5914,163.275 46.3737,279.102 -2.98937,82.1209 6.98268,143.615 6.14764,151.406 -85.0146,-10.9665 -173.052,-29.8382 -255.115,-43.0028z"/>
   <path id="_500571992" class="fil27" d="M1763.61 992.531c-27.0331,-137.68 6.20079,-215.883 -13.7681,-328.555 -13.2083,-74.5288 -28.6701,-44.1036 -58.9831,-95.5501 -1.57914,-5.79922 -16.5307,23.2382 -134.791,37.7705 -101.557,113.688 -44.328,167.372 -41.4248,277.931 2.15433,82.1446 -6.98268,143.615 -6.14764,151.406 85.0146,-10.9665 173.052,-29.8382 255.115,-43.0028z"/>
   <path id="_500572280" class="fil35" d="M324.738 1557.76c15.2858,-52.2851 62.5123,-100.448 105.572,-260.705 14.4567,-53.8063 -6.09095,-240.951 23.1461,-305.677 18.1677,-40.2166 96.345,14.2854 132.113,24.1949 86.4178,-11.9398 58.4079,122.666 35.8701,200.071 -21.2729,84.6757 -29.5299,136.233 -72.9721,212.457l-94.6288 166.035c-49.5012,-1.07244 -95.7957,-7.6193 -129.1,-36.3756z"/>
   <path id="_500572448" class="fil36" d="M1781.75 1574.85c-17.0232,-58.2201 -39.926,-271.827 -18.3803,-420.748 4.4504,-30.7654 2.96103,-142.72 0.165354,-162.731 -6.10512,-43.7008 -96.345,14.2854 -132.113,24.1949 -54.5339,-7.53544 -87.3981,-3.30827 -74.6268,54.7016 5.03741,22.8898 28.3158,60.4182 37.7847,88.3867 56.8902,168.043 60.743,417.361 77.7839,447.258 40.1433,-0.869292 82.376,-7.73977 109.387,-31.0618z"/>
   <path id="_500571920" class="fil27" d="M707.64 1060.15c0.63189,-4.60394 0.917717,-34.5803 0.917717,-34.5803l-251.785 -60.4819 -3.97677 27.7536c0,0 171.722,51.5634 254.844,67.3087z"/>
   <path id="_500571968" class="fil19" d="M1509.36 1060.15c-0.63189,-4.60394 -0.917717,-34.5803 -0.917717,-34.5803l251.785 -60.4819 3.97677 27.7536c0,0 -171.722,51.5634 -254.844,67.3087z"/>
   <g>
    <path id="_500572496" class="fil6" d="M1773.3 924.099c9.1193,37.878 -14.1839,75.9745 -52.0642,85.0914 -37.8685,9.12166 -47.9941,-29.3457 -57.1205,-67.2272l-87.7536 -233.834c-9.1193,-37.8697 14.1921,-75.9697 52.0678,-85.0855 37.8733,-9.12166 75.9709,14.1957 85.0867,52.0583l59.7839 248.997z"/>
    <path id="_500571056" class="fil26" d="M1739.86 782.422l-26.3362 -107.32c-9.11576,-37.8626 -47.2134,-61.18 -85.0867,-52.0583 -37.8756,9.11576 -61.1871,47.2158 -52.0713,85.0855l44.7012 123.301 118.793 -49.0087z"/>
    <path id="_500571488" class="fil6" d="M1678.15 1182.08c-8.6504,24.5339 -26.6669,24.1961 -51.1961,15.541 -24.528,-8.63623 -33.7961,-8.6315 -25.1492,-33.1583l67.8709 -214.043c11.615,-32.9362 27.0449,-55.3099 59.993,-43.6878 32.9433,11.6185 51.4607,39.4122 38.6103,80.6776 -15.9177,51.1559 -90.1288,194.671 -90.1288,194.671z"/>
    <g>
     <path id="_500571704" class="fil8" d="M1607.53 1160.28c-2.20394,2.8004 -4.3441,5.50985 -6.39331,8.10001 0,-0.00236221 0,-0.00236221 0,-0.00236221 2.05512,-2.59252 4.18583,-5.29134 6.39331,-8.09764l0 0zm-8.38111 26.6173l0 0c-0.205512,0.399213 -0.415748,0.793701 -0.634252,1.18701 0.217323,-0.390945 0.42874,-0.787796 0.634252,-1.18701l0 0zm-0.637796 1.18937c-0.00708662,0.0177165 -0.0153543,0.0330709 -0.0271654,0.0507874 0.00944883,-0.0177165 0.0177165,-0.034252 0.0271654,-0.0507874l0 0zm-0.0354331 0.0649607c-0.00708662,0.0141732 -0.0141732,0.0271654 -0.0212599,0.0413386 0.00590552,-0.0141732 0.0141732,-0.0259843 0.0212599,-0.0413386l0 0zm-0.0354331 0.0661418c-0.00472441,0.00826772 -0.00944883,0.0200788 -0.0141732,0.0295276 0.00354331,-0.0106299 0.00826772,-0.0200788 0.0153543,-0.0295276l-0.0011811 0zm-0.0318898 0.0614174c-0.00708662,0.00590552 -0.0106299,0.0129921 -0.0141732,0.0212599 0.00354331,-0.00708662 0.00708662,-0.0153543 0.0141732,-0.0212599l0 0zm-0.0389764 0.0637796c0,0.0011811 0,0.00354331 -0.0011811,0.00472441 0.0011811,-0.00354331 0.0011811,-0.0011811 0.00236221,-0.00472441l-0.0011811 0zm-42.3296 55.0654c-0.99567,1.0937 -1.99961,2.1437 -3.00473,3.14882l-10.2106 9.88465 10.2106 -9.88465c1.00276,-1.00394 2.01142,-2.05512 3.00473,-3.14882z"/>
     <path id="_500571392" class="fil6" d="M1562.17 1215.67c0,0 2.05394,-19.6146 4.50709,-25.6536 14.9752,-37.0252 64.1516,-41.4555 85.8768,-26.739 32.5394,22.0583 20.4106,58.0737 5.67993,79.8107l-11.1224 14.8276 -84.9414 -42.2457z"/>
     <path id="_500571440" class="fil9" d="M1568.61 1191.01c-1.40315,-2.08937 -2.85591,-4.54725 -3.90237,-6.37205 1.04764,1.8248 2.50512,4.28859 3.90237,6.37205l0 0z"/>
     <path id="_500571608" class="fil3" d="M1568.61 1191.01c-1.39725,-2.08347 -2.85473,-4.54725 -3.90237,-6.37205 -0.220866,-0.381496 -0.418111,-0.732284 -0.595276,-1.04646l4.49764 7.41851z"/>
     <path id="_500571320" class="fil6" d="M1605.07 1212.28c5.6504,3.82441 7.13504,11.5075 3.30355,17.1579l-39.4902 62.3268c-3.14882,4.64764 -9.47127,5.85 -14.1189,2.71418 -4.65237,-3.15355 -5.86654,-9.46654 -2.72008,-14.1272l34.3559 -62.3162 -27.2622 49.1693c-7.29686,10.7539 -23.6587,-0.327166 -16.3713,-11.1l26.6457 -54.1441c3.55748,-5.24646 10.6843,-6.60945 15.9331,-3.05788 5.24528,3.5563 6.61418,10.6854 3.05551,15.9319l-0.172441 0.275197c3.92953,-5.27008 11.348,-6.56812 16.8414,-2.82992zm21.7937 11.915c5.65276,3.82796 7.13268,11.5146 3.3,17.1638l-36.6591 55.0134c-3.15355,4.65355 -9.49253,5.87481 -14.1473,2.71654 -4.65827,-3.15236 -5.88071,-9.48072 -2.72008,-14.1413l33.0555 -57.4619c3.83268,-5.65158 11.5158,-7.13032 17.1709,-3.29055zm23.713 7.66536c5.38111,3.64725 6.79134,10.9713 3.1441,16.3477l-36.1252 46.8768c-2.84646,4.19646 -8.55473,5.29016 -12.7465,2.44961 -4.20237,-2.84646 -5.29607,-8.563 -2.45197,-12.7595l31.8296 -49.7693c3.65315,-5.38111 10.9689,-6.79607 16.35,-3.14528z"/>
     <path id="_500571584" class="fil10" d="M1589.45 1259.33c0,0 0.890552,-2.74016 2.82638,-6.76418 1.91103,-4.03111 4.84016,-9.35079 8.3256,-14.5169 1.77992,-2.56418 3.59174,-5.13189 5.5063,-7.41497 1.87205,-2.30788 3.77126,-4.38307 5.53111,-5.99174 0.836221,-0.84567 1.67835,-1.54016 2.43662,-2.11299 0.742914,-0.598819 1.38071,-1.09724 1.95591,-1.40906 1.11378,-0.667323 1.71732,-0.983859 1.71732,-0.983859 0,0 -0.525591,0.577559 -1.44803,1.58977 -0.894095,0.990946 -2.10118,2.43189 -3.44055,4.23426 -2.69292,3.55394 -6.03071,8.44489 -9.36497,13.4102 -3.35551,4.9441 -6.72638,9.9567 -9.41103,13.7102 -2.65276,3.75355 -4.63465,6.24922 -4.63465,6.24922z"/>
     <path id="_500571176" class="fil10" d="M1567.4 1249.71c0,0 1.08543,-2.70118 3.13937,-6.60237 2.03504,-3.90591 5.00552,-9.02481 8.27835,-14.0291 3.28465,-4.9937 6.81378,-9.86812 9.78544,-13.389 2.86418,-3.58111 5.28071,-5.52756 5.17678,-5.49449 0,0 -0.377953,0.67441 -1.03937,1.84961 -0.664961,1.09961 -1.53071,2.6752 -2.63386,4.61811 -1.10197,1.89213 -2.39292,4.10197 -3.82796,6.45237 -1.43032,2.3504 -3.02599,4.82835 -4.61811,7.31221 -3.24213,4.9252 -6.68741,9.8067 -9.4441,13.3807 -2.73898,3.5941 -4.81654,5.90197 -4.81654,5.90197z"/>
     <path id="_500571248" class="fil11" d="M1608.61 1271.63c0,0 2.53465,-3.42756 6.3378,-8.58072 3.75709,-5.08937 8.79568,-11.8335 13.1173,-18.6768 1.1185,-1.71142 2.12599,-3.42874 3.07441,-5.11063 0.868111,-1.68662 1.81063,-3.34843 2.44961,-4.93111 0.19252,-0.446457 0.372048,-0.885827 0.536221,-1.31339 0.0874016,-0.219685 0.167717,-0.433465 0.244488,-0.643701l3.78425 -5.53229c0.120473,2.09764 -0.361418,4.71378 -1.35118,7.3819 -0.0295276,0.0814961 -0.056693,0.166536 -0.0897638,0.250394 -0.0496063,0.151181 -0.106299,0.303544 -0.164173,0.455906 -0.657875,1.76929 -1.48937,3.55866 -2.42717,5.33859 -0.935434,1.76929 -1.97244,3.5315 -3.04725,5.25 -0.0885827,0.147638 -0.19252,0.297638 -0.285827,0.445276 -4.63819,7.20709 -10.1587,13.6795 -14.498,18.2646 -1.87559,1.9878 -3.53622,3.61418 -4.83544,4.83898 -1.76339,1.66536 -2.84528,2.56299 -2.84528,2.56299z"/>
    </g>
   </g>
   <path id="_500570456" class="fil37" d="M1509.1 1023.06l15.3685 -5.2252c2.43425,-0.827953 4.42559,0.71693 4.42559,3.43347l0 29.7059c0,2.71654 -1.99134,5.61496 -4.42559,6.44292l-15.3685 5.2252c-2.43425,0.827953 -4.42559,-0.71693 -4.42559,-3.43347l0 -29.7059c0,-2.71654 1.99134,-5.61496 4.42559,-6.44292z"/>
   <path id="_500570888" class="fil37" d="M705.458 1021.75l-15.3685 -5.2252c-2.43425,-0.827953 -4.42559,0.71693 -4.42559,3.43347l0 29.7059c0,2.71654 1.99134,5.61496 4.42559,6.44292l15.3685 5.2252c2.43425,0.827953 4.42559,-0.71693 4.42559,-3.43347l0 -29.7059c0,-2.71654 -1.99134,-5.61496 -4.42559,-6.44292z"/>
   <polygon id="_500570264" class="fil38" points="1196.95,974.865 1314.63,1109.29 1346.02,1145.15 1298.5,1148.94 1066.61,1167.46 1054.66,1168.42 1046.74,1159.38 929.059,1024.95 897.672,989.098 945.19,985.302 1177.08,966.778 1189.03,965.824 "/>
   <path id="_500570240" class="fil17" d="M556.418 930.734c11.485,37.2284 50.9622,58.1032 88.193,46.617 37.2237,-11.4768 26.3044,-49.7268 14.8252,-86.9623l-43.8378 -245.882c-11.4791,-37.2213 -50.9681,-58.0937 -88.193,-46.6087 -37.2272,11.4791 -58.0949,50.9705 -46.6158,88.1859l75.6284 244.65z"/>
   <path id="_500570360" class="fil39" d="M512.896 791.82l-32.1071 -105.736c-11.4791,-37.2154 9.38859,-76.7068 46.6158,-88.1859 37.2248,-11.485 76.7138,9.38741 88.1953,46.6087l24.4677 128.85 -127.172 18.463z"/>
   <path id="_500570648" class="fil17" d="M815.958 1034.05c24.9366,7.4126 35.2465,-7.36654 42.652,-32.3008 7.41969,-24.9225 12.8681,-32.4201 -12.0591,-39.8303l-213.09 -70.8119c-33.4772,-9.94961 -60.6473,-10.6051 -70.5969,22.8851 -9.94961,33.4866 1.66536,64.7989 42.6095,78.6402 50.7496,17.1697 210.484,41.4177 210.484,41.4177z"/>
   <g>
    <path id="_500570984" class="fil40" d="M839.8 964.09c3.56103,-0.138189 7.01103,-0.277559 10.311,-0.414567 -0.0011811,-0.00236221 -0.0011811,-0.00236221 -0.0011811,-0.00236221 -3.30591,0.140551 -6.74174,0.279921 -10.3099,0.416929l0 0zm26.4638 8.85355l0 0c0.444095,0.0696851 0.885827,0.129921 1.33347,0.184252 -0.445276,-0.0531496 -0.889371,-0.114567 -1.33347,-0.184252l0 0zm1.33701 0.183071c0.0188977,0.00472441 0.0354331,0.00590552 0.056693,0.00708662 -0.0200788,-0.00236221 -0.0377953,-0.00472441 -0.056693,-0.00708662l0 0zm0.0732284 0.00944883c0.0153543,0.00236221 0.0307087,0.00472441 0.046063,0.00708662 -0.0141732,-0.00354331 -0.0307087,-0.00354331 -0.046063,-0.00708662l0 0zm0.0755906 0.0106299c0.00826772,0 0.0200788,0.00472441 0.0307087,0.00590552 -0.00944883,-0.00354331 -0.0200788,-0.00590552 -0.0330709,-0.00472441l0.00236221 -0.0011811zm0.068504 0.00944883c0.00708662,-0.00236221 0.0165354,-0.0011811 0.0248032,0.00236221 -0.00708662,-0.00236221 -0.0177165,-0.00472441 -0.0248032,-0.00236221l0 0zm0.0744095 0.00708662c0.0011811,0 0.0011811,0.0011811 0.00354331,0.0011811 -0.00236221,-0.0011811 -0.00236221,0 -0.00472441,-0.0011811l0.0011811 0zm69.4276 -1.90866c1.46929,-0.162992 2.91024,-0.359055 4.31339,-0.582284l13.9973 -2.45551 -13.9973 2.45551c-1.40197,0.222047 -2.84528,0.419292 -4.31339,0.582284z"/>
    <path id="_500570288" class="fil17" d="M911.272 959.929c0,0 -17.0799,-9.85985 -23.4083,-11.4224 -38.7603,-9.63072 -71.2335,27.5634 -72.0863,53.791 -1.2626,39.2906 35.0079,50.6315 61.252,51.4796l18.5327 -0.28937 15.7099 -93.5587z"/>
    <path id="_500570840" class="fil5" d="M887.539 950.65c-0.86693,-2.36339 -2.00315,-4.98307 -2.86418,-6.90119 0.861024,1.92047 1.99961,4.54607 2.86418,6.90119l0 0z"/>
    <path id="_500570576" class="fil41" d="M887.539 950.65c-0.865749,-2.35512 -2.00315,-4.98071 -2.86418,-6.90119 -0.180709,-0.402756 -0.347244,-0.767717 -0.497244,-1.09724l3.36142 7.99843z"/>
    <path id="_500569544" class="fil17" d="M883.322 992.652c-0.22441,6.81969 5.12126,12.535 11.9445,12.7536l73.6382 4.65473c5.61024,0.18189 10.298,-4.22717 10.4894,-9.8315 0.180709,-5.61733 -4.21418,-10.3087 -9.83505,-10.4988l-70.6123 -8.80512 55.8059 6.82205c12.9898,0.412205 13.6335,-19.3382 0.634252,-19.7693l-59.4685 -10.2437c-6.33662,-0.20315 -11.6256,4.76457 -11.8347,11.0988 -0.204331,6.33426 4.76103,11.6291 11.0976,11.8311l0.324803 0.022441c-6.57402,0.0838583 -11.9823,5.32441 -12.1843,11.9658zm-3.16063 24.6366c-0.222047,6.82441 5.12835,12.5374 11.9528,12.7536l66.0544 2.6504c5.61969,0.180709 10.3311,-4.23071 10.5095,-9.85276 0.185433,-5.62205 -4.21772,-10.3287 -9.84686,-10.5083l-65.9197 -7.00512c-6.82441,-0.218504 -12.535,5.13071 -12.75,11.9622zm-7.7256 23.6929c-0.209055,6.49843 4.88859,11.941 11.3823,12.1488l59.1567 -1.69843c5.06811,0.161811 9.30591,-3.81496 9.47009,-8.87599 0.165354,-5.07284 -3.81851,-9.31654 -8.88544,-9.47953l-58.9737 -3.47835c-6.50079,-0.205512 -11.9433,4.88504 -12.15,11.3835z"/>
    <path id="_500570120" class="fil20" d="M930.577 1007.65c0,0 -2.74016,-0.889371 -7.13386,-1.68662 -4.38544,-0.820867 -10.4102,-1.57677 -16.6394,-1.79055 -3.12166,-0.0661418 -6.26339,-0.106299 -9.23505,0.101575 -2.96693,0.158268 -5.7626,0.475985 -8.09764,0.955513 -1.17638,0.179528 -2.23347,0.453544 -3.14173,0.729922 -0.921261,0.249213 -1.69961,0.473622 -2.29016,0.754725 -1.1941,0.510237 -1.80473,0.81378 -1.80473,0.81378 0,0 0.777166,-0.0874016 2.1378,-0.239764 1.32756,-0.140551 3.20197,-0.271654 5.44725,-0.296457 4.45748,-0.090945 10.3772,0.0791339 16.3547,0.298819 5.97166,0.188977 12.0083,0.4063 16.6228,0.438189 4.59567,0.0578741 7.77993,-0.0791339 7.77993,-0.0791339z"/>
    <path id="_500569832" class="fil20" d="M935.748 984.152c0,0 -2.82402,-0.708662 -7.18819,-1.33701 -4.35591,-0.648426 -10.2425,-1.25197 -16.2154,-1.54252 -5.97166,-0.275197 -11.9906,-0.283465 -16.5862,0.0531496 -4.57914,0.216142 -7.57323,1.02756 -7.48583,0.962599 0,0 0.767717,0.0897638 2.10709,0.244488 1.28032,0.108662 3.06496,0.333071 5.28544,0.581103 2.17795,0.220866 4.72441,0.473622 7.4693,0.693308 2.74252,0.223229 5.68465,0.387402 8.63032,0.558662 5.89134,0.26811 11.8654,0.349607 16.3772,0.217323 4.51654,-0.105118 7.60631,-0.431103 7.60631,-0.431103z"/>
    <path id="_500569760" class="fil10" d="M929.276 1030.38c0,0 -4.26142,0.0377953 -10.6665,0.0885827 -6.32599,0.0496063 -14.7437,0.166536 -22.8213,-0.355512 -2.04213,-0.100394 -4.02284,-0.292914 -5.94095,-0.514961 -1.87559,-0.287008 -3.77362,-0.501969 -5.42953,-0.915355 -0.474804,-0.105118 -0.935434,-0.218504 -1.37835,-0.336614 -0.229134,-0.0578741 -0.45,-0.119291 -0.66378,-0.179528l-6.7004 -0.187795c1.62638,1.32992 4.02638,2.47677 6.76654,3.24331 0.0838583,0.0236221 0.168898,0.0531496 0.256299,0.0732284 0.151181,0.0507874 0.308268,0.0933072 0.465355,0.135827 1.81772,0.506693 3.75473,0.884646 5.74607,1.17047 1.98071,0.283465 4.01575,0.479528 6.03898,0.618898 0.17126,0.0141732 0.354331,0.0188977 0.527953,0.0307087 8.55709,0.479528 17.0386,-0.185433 23.2973,-1.00276 2.71063,-0.350788 5.00197,-0.739371 6.75709,-1.07126 2.38347,-0.448819 3.74528,-0.797245 3.74528,-0.797245z"/>
   </g>
   <path id="_500570072" class="fil42" d="M1190.87 1784.35l230.392 -80.7249c1.94764,-0.777166 3.1004,-2.67284 3.1004,-4.71496l0 -254.394c-0.505512,0.285827 -1.0441,0.531496 -1.61339,0.731103l-0.0177165 -0.0366142c-149.571,52.5579 -110.465,38.7945 -231.861,81.4512l0 257.688z"/>
   <path id="_500570024" class="fil43" d="M960.137 1703.63l230.786 80.6906 0 -257.579 -231.406 -81.228c-0.869292,-0.222047 -1.70433,-0.557481 -2.48032,-0.99567l0 254.397c0,2.04213 1.15276,3.9378 3.1004,4.71496z"/>
   <rect id="_500570168" class="fil44" transform="matrix(0.413945 -0.145162 0.413945 0.145162 957.035 1444.77)" width="564.487" height="564.487"/>
   <polygon id="_500569352" class="fil45" points="1061.24,1408.23 1110.58,1390.93 1339.43,1474.56 1290.08,1491.87 "/>
   <polygon id="_500569280" class="fil46" points="1290.36,1491.77 1291.48,1556.74 1297.38,1545.98 1301.15,1554.18 1307.23,1543.09 1311,1551.3 1317.08,1540.21 1320.85,1548.42 1326.93,1537.33 1330.7,1545.54 1336.78,1534.45 1340.55,1542.66 1340.68,1542.44 1340.6,1532.16 1339.46,1474.55 1339.43,1474.56 "/>
  </g>
 </g>
 <rect class="fil47" width="2048" height="2048"/>
</svg>
