<?xml version="1.0" encoding="UTF-8"?>
<!DOCTYPE svg PUBLIC "-//W3C//DTD SVG 1.1//EN" "http://www.w3.org/Graphics/SVG/1.1/DTD/svg11.dtd">
<!-- Creator: CorelDRAW -->
<svg xmlns="http://www.w3.org/2000/svg" xml:space="preserve" width="2048px" height="2048px" style="shape-rendering:geometricPrecision; text-rendering:geometricPrecision; image-rendering:optimizeQuality; fill-rule:evenodd; clip-rule:evenodd"
viewBox="0 0 2048 2048"
 xmlns:xlink="http://www.w3.org/1999/xlink">
 <defs>
  <style type="text/css">
   <![CDATA[
    .fil7 {fill:none}
    .fil3 {fill:#545454}
    .fil6 {fill:#767676;fill-rule:nonzero}
    .fil2 {fill:#7E7E7E;fill-rule:nonzero}
    .fil5 {fill:#8C8D8D;fill-rule:nonzero}
    .fil1 {fill:#979797;fill-rule:nonzero}
    .fil4 {fill:#A1A1A1;fill-rule:nonzero}
    .fil0 {fill:#B4B4B5;fill-rule:nonzero}
   ]]>
  </style>
 </defs>
 <g id="Layer_x0020_1">
  <metadata id="CorelCorpID_0Corel-Layer"/>
  <g id="_576346048">
   <path id="_583833144" class="fil0" d="M320.603 461.482c501.532,0 905.261,0 1406.79,0 16.1858,0 29.3079,13.1209 29.3079,29.3079l0 1072.24c0,36.0473 -14.7248,68.7981 -38.4496,92.5217 -23.7236,23.7248 -56.4745,38.4496 -92.5217,38.4496l-1203.47 0c-36.0473,0 -68.7981,-14.7248 -92.5217,-38.4496 -23.7248,-23.7236 -38.4496,-56.4745 -38.4496,-92.5217l0 -1072.24c0,-16.187 13.1221,-29.3079 29.3079,-29.3079z"/>
   <path id="_576340384" class="fil1" d="M1727.49 461.483c16.1421,0.0507874 29.2134,13.1528 29.2134,29.3067l0 208.957 -127.058 0 -32.1213 0 -1306.23 0 0 -208.957c0,-16.1539 13.0713,-29.2559 29.2134,-29.3067l1277.02 0 32.1213 0 97.845 0z"/>
   <path id="_576362968" class="fil2" d="M1597.52 511.721l32.1213 0 134.425 0c15.4252,0 27.9295,-11.2465 27.9295,-25.1185 0,-13.8732 -12.5043,-25.1197 -27.9295,-25.1197l-134.425 0 -32.1213 0 -1313.6 0c-15.4252,0 -27.9284,11.2465 -27.9284,25.1197 0,13.8721 12.5032,25.1185 27.9284,25.1185l1313.6 0z"/>
   <ellipse id="_576354280" class="fil3" cx="481.801" cy="573.363" rx="44.8205" ry="44.8205"/>
   <ellipse id="_576350344" class="fil3" cx="1024" cy="573.363" rx="44.8205" ry="44.8205"/>
   <ellipse id="_576347632" class="fil3" cx="753.985" cy="573.363" rx="44.8205" ry="44.8205"/>
   <ellipse id="_576347200" class="fil3" cx="1297.29" cy="573.363" rx="44.8205" ry="44.8205"/>
   <ellipse id="_576347440" class="fil3" cx="1565.67" cy="573.363" rx="44.8205" ry="44.8205"/>
   <path id="_576347272" class="fil4" d="M1324.41 383.303c0,-16.187 -13.1232,-29.3091 -29.3079,-29.3091 -16.187,0 -29.3091,13.1221 -29.3091,29.3091l0 174.548c0,16.1858 13.1221,29.3079 29.3091,29.3079 16.1847,0 29.3079,-13.1221 29.3079,-29.3079l0 -174.548zm-813.299 0c0,-16.187 -13.1232,-29.3091 -29.3091,-29.3091 -16.187,0 -29.3103,13.1221 -29.3103,29.3091l0 174.548c0,16.1858 13.1232,29.3079 29.3103,29.3079 16.1858,0 29.3091,-13.1221 29.3091,-29.3079l0 -174.548zm1084.4 0c0,-16.187 -13.1232,-29.3091 -29.3103,-29.3091 -16.1858,0 -29.3091,13.1221 -29.3091,29.3091l0 174.548c0,16.1858 13.1232,29.3079 29.3091,29.3079 16.187,0 29.3103,-13.1221 29.3103,-29.3079l0 -174.548zm-813.303 0c0,-16.187 -13.1221,-29.3091 -29.3091,-29.3091 -16.1847,0 -29.3079,13.1221 -29.3079,29.3091l0 174.548c0,16.1858 13.1232,29.3079 29.3079,29.3079 16.187,0 29.3091,-13.1221 29.3091,-29.3079l0 -174.548zm271.101 0c0,-16.187 -13.1221,-29.3091 -29.3091,-29.3091 -16.187,0 -29.3091,13.1221 -29.3091,29.3091l0 174.548c0,16.1858 13.1221,29.3079 29.3091,29.3079 16.187,0 29.3091,-13.1221 29.3091,-29.3079l0 -174.548z"/>
   <polygon id="_576347128" class="fil5" points="1099.15,793.91 1099.15,924.009 1238.57,924.009 1238.57,793.91 "/>
   <polygon id="_576347248" class="fil6" points="1388.88,793.91 1388.88,924.009 1528.29,924.009 1528.29,793.91 "/>
   <polygon id="_576346624" class="fil6" points="1528.29,1071.31 1388.88,1071.31 1388.88,1201.41 1528.29,1201.41 "/>
   <polygon id="_576346408" class="fil5" points="1238.57,1201.41 1238.57,1071.31 1099.15,1071.31 1099.15,1201.41 "/>
   <polygon id="_576346864" class="fil5" points="948.845,1201.41 948.845,1071.31 809.429,1071.31 809.429,1201.41 "/>
   <polygon id="_576346960" class="fil5" points="659.122,1201.41 659.122,1071.31 519.708,1071.31 519.708,1201.41 "/>
   <polygon id="_576346744" class="fil5" points="659.122,1348.71 519.708,1348.71 519.708,1478.81 659.122,1478.81 "/>
   <polygon id="_576345760" class="fil5" points="809.429,1348.71 809.429,1478.81 948.845,1478.81 948.845,1348.71 "/>
   <polygon id="_576346144" class="fil5" points="1099.15,1348.71 1099.15,1478.81 1238.57,1478.81 1238.57,1348.71 "/>
   <polygon id="_576345880" class="fil6" points="1388.88,1348.71 1388.88,1478.81 1528.29,1478.81 1528.29,1348.71 "/>
   <polygon id="_576346264" class="fil5" points="948.845,924.009 948.845,793.91 809.429,793.91 809.429,924.009 "/>
  </g>
 </g>
 <rect class="fil7" width="2048" height="2048"/>
</svg>
