<?xml version="1.0" encoding="UTF-8"?>
<!DOCTYPE svg PUBLIC "-//W3C//DTD SVG 1.1//EN" "http://www.w3.org/Graphics/SVG/1.1/DTD/svg11.dtd">
<!-- Creator: CorelDRAW -->
<svg xmlns="http://www.w3.org/2000/svg" xml:space="preserve" width="6.82666in" height="6.82666in" style="shape-rendering:geometricPrecision; text-rendering:geometricPrecision; image-rendering:optimizeQuality; fill-rule:evenodd; clip-rule:evenodd"
viewBox="0 0 6.82666 6.82666"
 xmlns:xlink="http://www.w3.org/1999/xlink">
 <defs>
  <style type="text/css">
   <![CDATA[
    .fil3 {fill:none}
    .fil0 {fill:#444444}
    .fil1 {fill:#525252}
    .fil2 {fill:#8A8A8A}
   ]]>
  </style>
 </defs>
 <g id="Layer_x0020_1">
  <metadata id="CorelCorpID_0Corel-Layer"/>
  <path class="fil0" d="M4.37194 1.46205c0.0485197,-0.0309016 0.105598,-0.048811 0.166272,-0.048811 0.0606772,0 0.11776,0.0179094 0.166283,0.048811 0.00727559,0.0046378 0.0143504,0.0095748 0.0212008,0.0147874 0.00685039,-0.0052126 0.0139213,-0.0101496 0.0212047,-0.0147874 0.0485197,-0.0309016 0.105602,-0.048811 0.166276,-0.048811 0.0606772,0 0.117756,0.0179094 0.166272,0.048811 0.00728346,0.0046378 0.0143543,0.00957087 0.0212087,0.0147874 0.00685039,-0.00521654 0.0139213,-0.0101496 0.0212047,-0.0147874 0.0485197,-0.0309016 0.105598,-0.048811 0.166272,-0.048811 0.0606772,0 0.117756,0.0179094 0.166276,0.048811 0.00727953,0.0046378 0.0143543,0.00957087 0.0212047,0.0147874 0.00685039,-0.00521654 0.0139252,-0.0101496 0.0212087,-0.0147874 0.0485197,-0.0309016 0.105598,-0.048811 0.166272,-0.048811 0.0856575,0 0.16322,0.0347323 0.219362,0.090878 0.0561417,0.0561378 0.090874,0.133701 0.090874,0.219362 0,0.00317717 -0.000149606,0.0063189 -0.000429134,0.0094252 0.000275591,0.00307874 0.000425197,0.00619685 0.000425197,0.00934646l0 3.56661 3.93701e-006 0.00114173c0,0.0383622 -0.0209016,0.0718701 -0.0519449,0.0897165l-0.00218504 0.00122047 -0.0022126 0.00116535 -0.00224409 0.00111811 -0.00227559 0.00106299 -0.00230709 0.00100787 -0.00233465 0.000952756 -0.00235827 0.000897638 -0.00238976 0.000838583 -0.00241732 0.000787402 -0.00244094 0.000724409 -0.0024685 0.000669291 -0.00248819 0.000606299 -0.00251575 0.000551181 -0.0025315 0.000484252 -0.00255906 0.000425197 -0.0025748 0.000358268 -0.00259843 0.000295276 -0.00261811 0.000232283 -0.0026378 0.000169291 -0.00264961 9.84252e-005 -0.00266929 3.54331e-005 -0.00266929 -3.54331e-005 -0.00264961 -9.84252e-005 -0.0026378 -0.000169291 -0.00261811 -0.000232283 -0.00259843 -0.000295276 -0.0025748 -0.000358268 -0.00255906 -0.000425197 -0.0025315 -0.000484252 -0.00251575 -0.000551181 -0.00248819 -0.000606299 -0.0024685 -0.000669291 -0.00244094 -0.000724409 -0.00241732 -0.000787402 -0.00238976 -0.000838583 -0.00235827 -0.000897638 -0.00233465 -0.000952756 -0.00230709 -0.00100787 -0.00227559 -0.00106299 -0.00224409 -0.00111811 -0.0022126 -0.00116535 -0.00217717 -0.00122047c-0.0310433,-0.0178504 -0.0519488,-0.0513386 -0.0519488,-0.0897165l0 -0.00133465c-0.000354331,-0.0280354 -0.0118622,-0.0533819 -0.0302717,-0.0717913 -0.0187008,-0.0187087 -0.0445669,-0.0302795 -0.073126,-0.0302795 -0.0209685,0 -0.0400079,0.00575591 -0.0555906,0.0156811 -0.0148661,0.00946457 -0.027185,0.022622 -0.0356614,0.0381732 -0.00935433,0.0237874 -0.0274803,0.0441693 -0.0524646,0.0558346 -0.0517441,0.0241693 -0.113291,0.00181496 -0.137461,-0.0499331l0.000366142 -0.000169291c-0.00844094,-0.0180551 -0.0218976,-0.0332992 -0.0385591,-0.0439055 -0.0155827,-0.0099252 -0.034626,-0.0156811 -0.0555906,-0.0156811 -0.0209646,0 -0.0400039,0.00575591 -0.0555866,0.0156811 -0.0148701,0.00946457 -0.027185,0.022622 -0.0356614,0.0381732 -0.00935827,0.0237874 -0.0274843,0.0441693 -0.0524646,0.0558346 -0.051748,0.0241693 -0.113295,0.00181496 -0.137465,-0.0499331l0.000366142 -0.000169291c-0.00843701,-0.0180551 -0.0218976,-0.0332992 -0.0385551,-0.0439055 -0.0155866,-0.0099252 -0.0346299,-0.0156811 -0.0555906,-0.0156811 -0.0209685,0 -0.0400079,0.00575591 -0.0555945,0.0156811 -0.0148661,0.0094685 -0.0271811,0.022626 -0.0356575,0.0381772 -0.00935433,0.0237874 -0.0274803,0.0441654 -0.0524646,0.0558346 -0.0517441,0.0241693 -0.113291,0.00181496 -0.137461,-0.0499331l0.000366142 -0.000169291c-0.00844094,-0.0180551 -0.0218976,-0.0332992 -0.0385551,-0.0439094 -0.0155866,-0.0099252 -0.0346299,-0.0156811 -0.0555984,-0.0156811 -0.0209646,0 -0.0400039,0.00575591 -0.0555866,0.0156811 -0.0148701,0.00946457 -0.027185,0.022622 -0.0356614,0.0381732 -0.00935827,0.0237874 -0.0274843,0.0441693 -0.0524646,0.0558346 -0.051748,0.0241693 -0.113295,0.00181496 -0.137465,-0.0499331l0.000370079 -0.000169291c-0.00844094,-0.0180551 -0.0218976,-0.0332992 -0.0385591,-0.0439055 -0.0155866,-0.0099252 -0.0346299,-0.0156811 -0.0555906,-0.0156811 -0.0209685,0 -0.0400079,0.00575591 -0.0555945,0.0156811 -0.0148661,0.0094685 -0.0271811,0.022626 -0.0356575,0.0381772 -0.00935433,0.0237874 -0.0274803,0.0441654 -0.0524646,0.0558346 -0.0517441,0.0241693 -0.113291,0.00181496 -0.137461,-0.0499331l0.000366142 -0.000169291c-0.00844094,-0.0180551 -0.0218976,-0.0332992 -0.0385551,-0.0439094 -0.0155866,-0.0099252 -0.0346299,-0.0156811 -0.0555984,-0.0156811 -0.0209646,0 -0.0400039,0.00575591 -0.0555866,0.0156811 -0.0148661,0.00946457 -0.027185,0.022622 -0.0356614,0.0381732 -0.00935827,0.0237874 -0.0274843,0.0441693 -0.0524646,0.0558346 -0.051748,0.0241693 -0.113295,0.00181496 -0.137461,-0.0499331l0.000366142 -0.000169291c-0.00844094,-0.0180551 -0.0218976,-0.0332992 -0.0385591,-0.0439055 -0.0155866,-0.0099252 -0.0346299,-0.0156811 -0.0555906,-0.0156811 -0.0209646,0 -0.0400039,0.00575591 -0.0555906,0.0156811 -0.0148661,0.00946457 -0.027185,0.022622 -0.0356614,0.0381732 -0.00935433,0.0237874 -0.0274803,0.0441693 -0.0524646,0.0558346 -0.0517441,0.0241693 -0.113291,0.00181496 -0.137461,-0.0499331l0.000366142 -0.000169291c-0.00843701,-0.0180551 -0.0218976,-0.0332992 -0.0385591,-0.0439055 -0.0155827,-0.0099252 -0.034622,-0.0156811 -0.0555906,-0.0156811 -0.0209646,0 -0.0400079,0.00575591 -0.0555906,0.0156811 -0.0148622,0.00946457 -0.0271732,0.0226181 -0.0356496,0.0381693 -0.00935433,0.0237835 -0.0274882,0.0441732 -0.0524724,0.0558425 -0.0517441,0.0241693 -0.113295,0.00181496 -0.137461,-0.0499331l0.000366142 -0.000169291c-0.00844094,-0.0180551 -0.0218976,-0.0332992 -0.0385551,-0.0439094 -0.0155866,-0.0099252 -0.0346339,-0.0156811 -0.0555984,-0.0156811 -0.0209606,0 -0.0400039,0.00575591 -0.0555906,0.0156811 -0.0148661,0.00946457 -0.0271811,0.022622 -0.0356614,0.0381732 -0.00935433,0.0237874 -0.0274803,0.0441693 -0.0524606,0.0558346 -0.051748,0.0241693 -0.113295,0.00181496 -0.137465,-0.0499331l0.000366142 -0.000169291c-0.00843701,-0.0180551 -0.0218976,-0.0332992 -0.0385591,-0.0439055 -0.0155827,-0.0099252 -0.034622,-0.0156811 -0.0555866,-0.0156811 -0.0209685,0 -0.0400118,0.00575591 -0.0555945,0.0156811 -0.0148622,0.00946457 -0.0271732,0.0226181 -0.0356496,0.0381693 -0.00935433,0.0237835 -0.0274882,0.0441732 -0.0524724,0.0558425 -0.0517441,0.0241693 -0.113295,0.00181496 -0.137461,-0.0499331l0.000366142 -0.000169291c-0.00844094,-0.0180551 -0.0218976,-0.0332992 -0.0385551,-0.0439094 -0.0155866,-0.0099252 -0.0346299,-0.0156811 -0.0555984,-0.0156811 -0.0209606,0 -0.0400039,0.00575591 -0.0555906,0.0156811 -0.0148661,0.00946457 -0.0271811,0.022622 -0.0356614,0.0381732 -0.00935433,0.0237874 -0.0274803,0.0441693 -0.0524606,0.0558346 -0.051748,0.0241693 -0.113295,0.00181496 -0.137465,-0.0499331l0.000366142 -0.000169291c-0.00843701,-0.0180551 -0.0218976,-0.0332992 -0.0385591,-0.0439055 -0.0155827,-0.0099252 -0.034622,-0.0156811 -0.0555866,-0.0156811 -0.0209685,0 -0.0400118,0.00575591 -0.0555945,0.0156811 -0.0148622,0.00946457 -0.0271732,0.0226181 -0.0356496,0.0381693 -0.00935039,0.0237835 -0.0274882,0.0441732 -0.0524724,0.0558425 -0.0517441,0.0241693 -0.113291,0.00181496 -0.137461,-0.0499331l0.000366142 -0.000169291c-0.00844094,-0.0180551 -0.0218976,-0.0332992 -0.0385551,-0.0439094 -0.0155866,-0.0099252 -0.0346299,-0.0156811 -0.0555984,-0.0156811 -0.0285591,0 -0.0544252,0.0115709 -0.073126,0.0302795 -0.0184094,0.0184094 -0.0299173,0.0437559 -0.0302717,0.0717913l0 0.00133465c0,0.0383622 -0.0209055,0.0718701 -0.0519488,0.0897165l-0.00218504 0.00122047 -0.0022126 0.00116535 -0.00224409 0.00111811 -0.00227559 0.00106299 -0.00230709 0.00100787 -0.00233465 0.000952756 -0.00235827 0.000897638 -0.00238976 0.000838583 -0.00241732 0.000787402 -0.00244094 0.000724409 -0.0024685 0.000669291 -0.00248819 0.000606299 -0.00251575 0.000551181 -0.0025315 0.000484252 -0.00255906 0.000425197 -0.0025748 0.000358268 -0.00259843 0.000295276 -0.00261811 0.000232283 -0.00263386 0.000169291 -0.00265354 9.84252e-005 -0.00266929 3.54331e-005 -0.00266929 -3.54331e-005 -0.00264961 -9.84252e-005 -0.0026378 -0.000169291 -0.00261417 -0.000232283 -0.00260236 -0.000295276 -0.0025748 -0.000358268 -0.00255906 -0.000425197 -0.0025315 -0.000484252 -0.00251575 -0.000551181 -0.00248819 -0.000606299 -0.0024685 -0.000669291 -0.00244094 -0.000724409 -0.00241732 -0.000787402 -0.00238976 -0.000838583 -0.00235827 -0.000897638 -0.00233465 -0.000952756 -0.00230709 -0.00100787 -0.00227559 -0.00106299 -0.00224409 -0.00111811 -0.0022126 -0.00116535 -0.00217717 -0.00122047c-0.0310433,-0.0178465 -0.0519488,-0.0513386 -0.0519488,-0.0897165l7.87402e-006 -0.00114173 0 -3.56661c0,-0.00314961 0.000149606,-0.00626772 0.000425197,-0.00934646 -0.000279528,-0.0031063 -0.000433071,-0.00624803 -0.000433071,-0.0094252 0,-0.0856614 0.0347362,-0.163224 0.090878,-0.219362 0.0561417,-0.0561457 0.133705,-0.090878 0.219362,-0.090878 0.0606732,0 0.11776,0.0179094 0.16628,0.048811 0.00727953,0.0046378 0.0143504,0.0095748 0.0212008,0.0147874 0.00685039,-0.0052126 0.0139252,-0.0101496 0.0212047,-0.0147874 0.0485197,-0.0309016 0.105606,-0.048811 0.16628,-0.048811 0.0606732,0 0.117752,0.0179094 0.166272,0.048811 0.00728346,0.0046378 0.0143543,0.00957087 0.0212047,0.0147874 0.00685433,-0.00521654 0.0139252,-0.0101496 0.0212087,-0.0147874 0.0485157,-0.0309016 0.105594,-0.048811 0.166272,-0.048811 0.0606732,0 0.11776,0.0179094 0.16628,0.048811 0.00727953,0.0046378 0.0143504,0.0095748 0.0212008,0.0147874 0.00685039,-0.0052126 0.0139252,-0.0101496 0.0212047,-0.0147874 0.0485197,-0.0309016 0.105602,-0.048811 0.16628,-0.048811 0.0606732,0 0.117752,0.0179094 0.166272,0.048811 0.00728346,0.0046378 0.0143543,0.00957087 0.0212047,0.0147874 0.00685433,-0.00521654 0.0139252,-0.0101496 0.0212087,-0.0147874 0.0485157,-0.0309016 0.105594,-0.048811 0.166272,-0.048811 0.0606732,0 0.11776,0.0179094 0.16628,0.048811 0.00727953,0.0046378 0.0143504,0.0095748 0.0212008,0.0147874 0.00685039,-0.0052126 0.0139252,-0.0101496 0.0212047,-0.0147874 0.0485197,-0.0309016 0.105602,-0.048811 0.166276,-0.048811 0.0606772,0 0.117752,0.0179094 0.166276,0.048811 0.00728346,0.0046378 0.0143543,0.00957087 0.0212047,0.0147874 0.00685039,-0.00521654 0.0139252,-0.0101496 0.0212087,-0.0147874 0.0485157,-0.0309016 0.105594,-0.048811 0.166272,-0.048811 0.0606772,0 0.117756,0.0179094 0.166272,0.048811 0.00728346,0.0046378 0.0143543,0.00957087 0.0212087,0.0147874 0.00685039,-0.00521654 0.0139213,-0.0101496 0.0212047,-0.0147874 0.0485197,-0.0309016 0.105598,-0.048811 0.166272,-0.048811 0.0606811,0 0.11776,0.0179094 0.166283,0.048811 0.00727559,0.0046378 0.0143504,0.0095748 0.0212008,0.0147874 0.00685039,-0.0052126 0.0139213,-0.0101496 0.0212047,-0.0147874 0.0485197,-0.0309016 0.105602,-0.048811 0.166276,-0.048811 0.0606772,0 0.117756,0.0179094 0.166272,0.048811 0.00728346,0.0046378 0.0143543,0.00957087 0.0212087,0.0147874 0.00685039,-0.00521654 0.0139213,-0.0101496 0.0212047,-0.0147874z"/>
  <g id="_346947720">
   <path id="_346949808" class="fil1" d="M1.23233 5.2322c-0.00411024,-0.00364173 -0.00850787,-0.00696457 -0.0131575,-0.0099252 -0.0155866,-0.0099252 -0.0346299,-0.0156811 -0.0555984,-0.0156811 -0.00941339,0 -0.0185354,0.00125591 -0.0272008,0.00361417l-0.0772165 -0.0247835 0.0732992 -0.229083 -0.0713386 -0.222961c-0.00715748,-0.0174921 -0.00843701,-0.0375 -0.00222835,-0.0569094l0.0793701 0.0253976 -0.0791024 -0.0253898 0.0732992 -0.229083 -0.0713386 -0.222961c-0.00715748,-0.0174921 -0.00843701,-0.0375 -0.00222835,-0.0569094l0.0793701 0.0253976 -0.0791024 -0.0253898 0.0732992 -0.229083 -0.0713386 -0.222961c-0.00715748,-0.0174921 -0.00843701,-0.0375 -0.00222835,-0.0569094l0.0793701 0.0253976 -0.0791024 -0.0253898 0.0732992 -0.229079 -0.0713386 -0.222961c-0.00715748,-0.0174921 -0.00843701,-0.0375 -0.00222835,-0.0569094l0.0793701 0.0253976 -0.0791024 -0.0253898 0.0732992 -0.229083 -0.0713386 -0.222961c-0.00715748,-0.0174921 -0.00843701,-0.0375 -0.00222835,-0.0569094l0.0793701 0.0253976 -0.0791024 -0.0253898 0.0732992 -0.229083 -0.0713386 -0.222961c-0.00715748,-0.0174921 -0.00843701,-0.0375 -0.00222835,-0.0569094l0.0793701 0.0253976 -0.0791024 -0.0253898 0.0732992 -0.229083 -0.0713386 -0.222961c-0.00715748,-0.0174921 -0.00843701,-0.0375 -0.00222835,-0.0569094l0.0793701 0.0253976 -0.0791024 -0.0253898 0.066315 -0.207252c0.0124843,-0.0015315 0.0252008,-0.00232283 0.0381024,-0.00232283 0.0454134,0 0.088815,0.0100315 0.128122,0.0280394l-0.0662087 0.206925 0.0732992 0.229083 -0.0791024 0.0253898 0.0793701 -0.0253976c0.00620866,0.0194094 0.00492913,0.0394173 -0.00222835,0.0569094l-0.0713386 0.222961 0.0732992 0.229083 -0.0791024 0.0253898 0.0793701 -0.0253976c0.00620866,0.0194094 0.00492913,0.0394173 -0.00222835,0.0569094l-0.0713386 0.222961 0.0732992 0.229083 -0.0791024 0.0253898 0.0793701 -0.0253976c0.00620866,0.0194094 0.00492913,0.0394173 -0.00222835,0.0569094l-0.0713386 0.222961 0.0732992 0.229083 -0.0791024 0.0253898 0.0793701 -0.0253976c0.00620866,0.0194094 0.00492913,0.0394134 -0.00222835,0.0569094l-0.0713386 0.222957 0.0732992 0.229083 -0.0791024 0.0253898 0.0793701 -0.0253976c0.00620866,0.0194094 0.00492913,0.0394173 -0.00222835,0.0569094l-0.0713386 0.222961 0.0732992 0.229083 -0.0791024 0.0253898 0.0793701 -0.0253976c0.00620866,0.0194094 0.00492913,0.0394173 -0.00222835,0.0569094l-0.0713386 0.222961 0.0732992 0.229083 -0.0791024 0.0253898 0.0793701 -0.0253976c0.00620866,0.0194094 0.00492913,0.0394173 -0.00222835,0.0569094l-0.0713386 0.222961 0.00684252 0.0213858zm-0.0959606 -0.0219921c-0.017626,0.0047874 -0.0333858,0.014122 -0.0459213,0.0266654 -0.0088189,0.0088189 -0.0160472,0.0192244 -0.0212323,0.0307598l-0.00809843 -0.0253071c-0.00715748,-0.0174921 -0.00843701,-0.0375 -0.00222835,-0.0569094l0.0774803 0.0247913z"/>
   <path id="_346949160" class="fil1" d="M1.66132 5.30329c-0.0120079,-0.00961417 -0.0220551,-0.0220551 -0.0290039,-0.036937l0.000366142 -0.000169291c-0.00843701,-0.0180551 -0.0218976,-0.0332992 -0.0385591,-0.0439055 -0.0155827,-0.0099252 -0.034622,-0.0156811 -0.0555866,-0.0156811 -0.00221654,0 -0.00440945,6.29921e-005 -0.00658268,0.000192913l-0.0665512 -0.0213622 0.0732992 -0.229083 -0.0713386 -0.222961c-0.00715748,-0.0174921 -0.00843701,-0.0375 -0.00222835,-0.0569094l0.0793701 0.0253976 -0.0791024 -0.0253898 0.0732992 -0.229083 -0.0713386 -0.222961c-0.00715748,-0.0174921 -0.00843701,-0.0375 -0.00222835,-0.0569094l0.0793701 0.0253976 -0.0791024 -0.0253898 0.0732992 -0.229083 -0.0713386 -0.222961c-0.00715748,-0.0174921 -0.00843701,-0.0375 -0.00222835,-0.0569094l0.0793701 0.0253976 -0.0791024 -0.0253898 0.0732992 -0.229079 -0.0713386 -0.222961c-0.00715748,-0.0174921 -0.00843701,-0.0375 -0.00222835,-0.0569094l0.0793701 0.0253976 -0.0791024 -0.0253898 0.0732992 -0.229083 -0.0713386 -0.222961c-0.00715748,-0.0174921 -0.00843701,-0.0375 -0.00222835,-0.0569094l0.0793701 0.0253976 -0.0791024 -0.0253898 0.0732992 -0.229083 -0.0713386 -0.222961c-0.00715748,-0.0174921 -0.00843701,-0.0375 -0.00222835,-0.0569094l0.0793701 0.0253976 -0.0791024 -0.0253898 0.0732992 -0.229083 -0.0713386 -0.222961c-0.00715748,-0.0174921 -0.00843701,-0.0375 -0.00222835,-0.0569094l0.0793701 0.0253976 -0.0791024 -0.0253898 0.0670394 -0.209512c0.00202756,-3.93701e-005 0.00405906,-6.29921e-005 0.00609449,-6.29921e-005 0.0560197,0 0.108976,0.0152677 0.154961,0.0419331l-0.0617638 0.193031 0.0732992 0.229083 -0.0791024 0.0253898 0.0793701 -0.0253976c0.00620866,0.0194094 0.00492913,0.0394173 -0.00222835,0.0569094l-0.0713386 0.222961 0.0732992 0.229083 -0.0791024 0.0253898 0.0793701 -0.0253976c0.00620866,0.0194094 0.00492913,0.0394173 -0.00222835,0.0569094l-0.0713386 0.222961 0.0732992 0.229083 -0.0791024 0.0253898 0.0793701 -0.0253976c0.00620866,0.0194094 0.00492913,0.0394173 -0.00222835,0.0569094l-0.0713386 0.222961 0.0732992 0.229083 -0.0791024 0.0253898 0.0793701 -0.0253976c0.00620866,0.0194094 0.00492913,0.0394134 -0.00222835,0.0569094l-0.0713386 0.222957 0.0732992 0.229083 -0.0791024 0.0253898 0.0793701 -0.0253976c0.00620866,0.0194094 0.00492913,0.0394173 -0.00222835,0.0569094l-0.0713386 0.222961 0.0732992 0.229083 -0.0791024 0.0253898 0.0793701 -0.0253976c0.00620866,0.0194094 0.00492913,0.0394173 -0.00222835,0.0569094l-0.0713386 0.222961 0.0732992 0.229083 -0.0791024 0.0253898 0.0793701 -0.0253976c0.00620866,0.0194094 0.00492913,0.0394173 -0.00222835,0.0569094l-0.0713386 0.222961 0.0295866 0.0924724zm-0.129398 -0.0965c-0.0183622,0.00107874 -0.0350512,0.00661417 -0.0489803,0.0154882 -0.00641732,0.00408661 -0.0123543,0.00885827 -0.0177165,0.0142165 -0.00520866,-0.0160354 -0.00561811,-0.0337913 -9.05512e-005,-0.0510748l0.0667874 0.0213701z"/>
   <path id="_346949112" class="fil1" d="M2.07366 5.32233c-0.0282362,-0.00774803 -0.0530197,-0.0273661 -0.066378,-0.0559724l0.000366142 -0.000169291c-0.00844094,-0.0180551 -0.0218976,-0.0332992 -0.0385551,-0.0439094 -0.0155866,-0.0099252 -0.0346299,-0.0156811 -0.0555984,-0.0156811 -0.0167835,0 -0.0323386,0.00368898 -0.045874,0.0102559 -0.000755906,-0.0103268 0.000417323,-0.0209646 0.00376378,-0.0314331l0.0793701 0.0253976 -0.0791024 -0.0253898 0.0732992 -0.229083 -0.0713386 -0.222961c-0.00715748,-0.0174921 -0.00843701,-0.0375 -0.00222835,-0.0569094l0.0793701 0.0253976 -0.0791024 -0.0253898 0.0732992 -0.229083 -0.0713386 -0.222961c-0.00715748,-0.0174921 -0.00843701,-0.0375 -0.00222835,-0.0569094l0.0793701 0.0253976 -0.0791024 -0.0253898 0.0732992 -0.229083 -0.0713386 -0.222961c-0.00715748,-0.0174921 -0.00843701,-0.0375 -0.00222835,-0.0569094l0.0793701 0.0253976 -0.0791024 -0.0253898 0.0732992 -0.229079 -0.0713386 -0.222961c-0.00715748,-0.0174921 -0.00843701,-0.0375 -0.00222835,-0.0569094l0.0793701 0.0253976 -0.0791024 -0.0253898 0.0732992 -0.229083 -0.0713386 -0.222961c-0.00715748,-0.0174921 -0.00843701,-0.0375 -0.00222835,-0.0569094l0.0793701 0.0253976 -0.0791024 -0.0253898 0.0732992 -0.229083 -0.0713386 -0.222961c-0.00715748,-0.0174921 -0.00843701,-0.0375 -0.00222835,-0.0569094l0.0793701 0.0253976 -0.0791024 -0.0253898 0.0732992 -0.229083 -0.0713386 -0.222961c-0.00715748,-0.0174921 -0.00843701,-0.0375 -0.00222835,-0.0569094l0.0793701 0.0253976 -0.0791024 -0.0253898 0.0667362 -0.208563c0.0513661,0.0041811 0.0995591,0.0211614 0.141386,0.0477992 0.0049685,0.00316535 0.00983071,0.0064685 0.0146024,0.00990157l-0.0563937 0.176252 0.0732992 0.229083 -0.0791024 0.0253898 0.0793701 -0.0253976c0.00620866,0.0194094 0.00492913,0.0394173 -0.00222835,0.0569094l-0.0713386 0.222961 0.0732992 0.229083 -0.0791024 0.0253898 0.0793701 -0.0253976c0.00620866,0.0194094 0.00492913,0.0394173 -0.00222835,0.0569094l-0.0713386 0.222961 0.0732992 0.229083 -0.0791024 0.0253898 0.0793701 -0.0253976c0.00620866,0.0194094 0.00492913,0.0394173 -0.00222835,0.0569094l-0.0713386 0.222961 0.0732992 0.229083 -0.0791024 0.0253898 0.0793701 -0.0253976c0.00620866,0.0194094 0.00492913,0.0394134 -0.00222835,0.0569094l-0.0713386 0.222957 0.0732992 0.229083 -0.0791024 0.0253898 0.0793701 -0.0253976c0.00620866,0.0194094 0.00492913,0.0394173 -0.00222835,0.0569094l-0.0713386 0.222961 0.0732992 0.229083 -0.0791024 0.0253898 0.0793701 -0.0253976c0.00620866,0.0194094 0.00492913,0.0394173 -0.00222835,0.0569094l-0.0713386 0.222961 0.0732992 0.229083 -0.0791024 0.0253898 0.0793701 -0.0253976c0.00620866,0.0194094 0.00492913,0.0394173 -0.00222835,0.0569094l-0.0713386 0.222961 0.0356772 0.111512z"/>
   <path id="_346948920" class="fil1" d="M2.48105 5.32589c-0.0407126,0.002 -0.0805,-0.0203268 -0.098815,-0.0595433l0.000366142 -0.000169291c-0.00843701,-0.0180551 -0.0218976,-0.0332992 -0.0385591,-0.0439055 -0.0155827,-0.0099252 -0.034622,-0.0156811 -0.0555866,-0.0156811 -0.0050315,0 -0.00995669,0.000334646 -0.0147441,0.000976378 0.000291339,-0.00735433 0.00156299,-0.0147992 0.00391732,-0.0221535l0.0793701 0.0253976 -0.0791024 -0.0253898 0.0732992 -0.229083 -0.0713386 -0.222961c-0.00715748,-0.0174921 -0.00843701,-0.0375 -0.00222835,-0.0569094l0.0793701 0.0253976 -0.0791024 -0.0253898 0.0732992 -0.229083 -0.0713386 -0.222961c-0.00715748,-0.0174921 -0.00843701,-0.0375 -0.00222835,-0.0569094l0.0793701 0.0253976 -0.0791024 -0.0253898 0.0732992 -0.229083 -0.0713386 -0.222961c-0.00715748,-0.0174921 -0.00843701,-0.0375 -0.00222835,-0.0569094l0.0793701 0.0253976 -0.0791024 -0.0253898 0.0732992 -0.229079 -0.0713386 -0.222961c-0.00715748,-0.0174921 -0.00843701,-0.0375 -0.00222835,-0.0569094l0.0793701 0.0253976 -0.0791024 -0.0253898 0.0732992 -0.229083 -0.0713386 -0.222961c-0.00715748,-0.0174921 -0.00843701,-0.0375 -0.00222835,-0.0569094l0.0793701 0.0253976 -0.0791024 -0.0253898 0.0732992 -0.229083 -0.0713386 -0.222961c-0.00715748,-0.0174921 -0.00843701,-0.0375 -0.00222835,-0.0569094l0.0793701 0.0253976 -0.0791024 -0.0253898 0.0732992 -0.229083 -0.0713386 -0.222961c-0.00715748,-0.0174921 -0.00843701,-0.0375 -0.00222835,-0.0569094l0.0793701 0.0253976 -0.0791024 -0.0253898 0.0654724 -0.204614c0.040122,0.00731102 0.0777874,0.0224685 0.111358,0.0438504 0.00728346,0.0046378 0.0143543,0.00957087 0.0212047,0.0147874 0.00685433,-0.00521654 0.0139252,-0.0101496 0.0212087,-0.0147874 0.00273228,-0.00174016 0.00549213,-0.00343701 0.00827953,-0.00509449l-0.0611929 0.191248 0.0732992 0.229083 -0.0791024 0.0253898 0.0793701 -0.0253976c0.00620866,0.0194094 0.00492913,0.0394173 -0.00222835,0.0569094l-0.0713386 0.222961 0.0732992 0.229083 -0.0791024 0.0253898 0.0793701 -0.0253976c0.00620866,0.0194094 0.00492913,0.0394173 -0.00222835,0.0569094l-0.0713386 0.222961 0.0732992 0.229083 -0.0791024 0.0253898 0.0793701 -0.0253976c0.00620866,0.0194094 0.00492913,0.0394173 -0.00222835,0.0569094l-0.0713386 0.222961 0.0732992 0.229083 -0.0791024 0.0253898 0.0793701 -0.0253976c0.00620866,0.0194094 0.00492913,0.0394134 -0.00222835,0.0569094l-0.0713386 0.222957 0.0732992 0.229083 -0.0791024 0.0253898 0.0793701 -0.0253976c0.00620866,0.0194094 0.00492913,0.0394173 -0.00222835,0.0569094l-0.0713386 0.222961 0.0732992 0.229083 -0.0791024 0.0253898 0.0793701 -0.0253976c0.00620866,0.0194094 0.00492913,0.0394173 -0.00222835,0.0569094l-0.0713386 0.222961 0.0732992 0.229083 -0.0791024 0.0253898 0.0793701 -0.0253976c0.00620866,0.0194094 0.00492913,0.0394173 -0.00222835,0.0569094l-0.0713386 0.222961 0.0368228 0.115079z"/>
   <path id="_346948992" class="fil1" d="M2.88543 5.32007c-0.0496339,0.0176496 -0.105488,-0.00501181 -0.128232,-0.0537165l0.000366142 -0.000169291c-0.00844094,-0.0180551 -0.0218976,-0.0332992 -0.0385551,-0.0439094 -0.011378,-0.00724409 -0.0245984,-0.0122677 -0.039063,-0.0144528 0.000271654,-0.00744094 0.00155118,-0.0149646 0.00392913,-0.0224055l0.0793701 0.0253976 -0.0791024 -0.0253898 0.0732992 -0.229083 -0.0713386 -0.222961c-0.00715748,-0.0174921 -0.00843701,-0.0375 -0.00222835,-0.0569094l0.0793701 0.0253976 -0.0791024 -0.0253898 0.0732992 -0.229083 -0.0713386 -0.222961c-0.00715748,-0.0174921 -0.00843701,-0.0375 -0.00222835,-0.0569094l0.0793701 0.0253976 -0.0791024 -0.0253898 0.0732992 -0.229083 -0.0713386 -0.222961c-0.00715748,-0.0174921 -0.00843701,-0.0375 -0.00222835,-0.0569094l0.0793701 0.0253976 -0.0791024 -0.0253898 0.0732992 -0.229079 -0.0713386 -0.222961c-0.00715748,-0.0174921 -0.00843701,-0.0375 -0.00222835,-0.0569094l0.0793701 0.0253976 -0.0791024 -0.0253898 0.0732992 -0.229083 -0.0713386 -0.222961c-0.00715748,-0.0174921 -0.00843701,-0.0375 -0.00222835,-0.0569094l0.0793701 0.0253976 -0.0791024 -0.0253898 0.0732992 -0.229083 -0.0713386 -0.222961c-0.00715748,-0.0174921 -0.00843701,-0.0375 -0.00222835,-0.0569094l0.0793701 0.0253976 -0.0791024 -0.0253898 0.0732992 -0.229083 -0.0713386 -0.222961c-0.00715748,-0.0174921 -0.00843701,-0.0375 -0.00222835,-0.0569094l0.0793701 0.0253976 -0.0791024 -0.0253898 0.0632992 -0.197823c0.0292795,0.00835039 0.0569291,0.0209331 0.082248,0.0370591 0.00727953,0.0046378 0.0143504,0.0095748 0.0212008,0.0147874 0.00685039,-0.0052126 0.0139252,-0.0101496 0.0212047,-0.0147874 0.0144961,-0.00923228 0.0297559,-0.0172992 0.0456457,-0.0240827l-0.0672677 0.210236 0.0732992 0.229083 -0.0791024 0.0253898 0.0793701 -0.0253976c0.00620866,0.0194094 0.00492913,0.0394173 -0.00222835,0.0569094l-0.0713386 0.222961 0.0732992 0.229083 -0.0791024 0.0253898 0.0793701 -0.0253976c0.00620866,0.0194094 0.00492913,0.0394173 -0.00222835,0.0569094l-0.0713386 0.222961 0.0732992 0.229083 -0.0791024 0.0253898 0.0793701 -0.0253976c0.00620866,0.0194094 0.00492913,0.0394173 -0.00222835,0.0569094l-0.0713386 0.222961 0.0732992 0.229083 -0.0791024 0.0253898 0.0793701 -0.0253976c0.00620866,0.0194094 0.00492913,0.0394134 -0.00222835,0.0569094l-0.0713386 0.222957 0.0732992 0.229083 -0.0791024 0.0253898 0.0793701 -0.0253976c0.00620866,0.0194094 0.00492913,0.0394173 -0.00222835,0.0569094l-0.0713386 0.222961 0.0732992 0.229083 -0.0791024 0.0253898 0.0793701 -0.0253976c0.00620866,0.0194094 0.00492913,0.0394173 -0.00222835,0.0569094l-0.0713386 0.222961 0.0732992 0.229083 -0.0791024 0.0253898 0.0793701 -0.0253976c0.00620866,0.0194094 0.00492913,0.0394173 -0.00222835,0.0569094l-0.0713386 0.222961 0.0349567 0.109256z"/>
   <path id="_346948032" class="fil1" d="M3.28715 5.3059c-0.00538976,0.00395669 -0.0112441,0.00744488 -0.0175315,0.0103819 -0.0517441,0.0241693 -0.113291,0.00181496 -0.137461,-0.0499331l0.000366142 -0.000169291c-0.00843701,-0.0180551 -0.0218976,-0.0332992 -0.0385591,-0.0439055 -0.0024252,-0.00154331 -0.00492913,-0.00298819 -0.00751575,-0.00432283 -0.00092126,-0.0106693 0.000208661,-0.0216969 0.00367717,-0.0325354l0.0793701 0.0253976 -0.0791024 -0.0253898 0.0732992 -0.229083 -0.0713386 -0.222961c-0.00715748,-0.0174921 -0.00843701,-0.0375 -0.00222835,-0.0569094l0.0793701 0.0253976 -0.0791024 -0.0253898 0.0732992 -0.229083 -0.0713386 -0.222961c-0.00715748,-0.0174921 -0.00843701,-0.0375 -0.00222835,-0.0569094l0.0793701 0.0253976 -0.0791024 -0.0253898 0.0732992 -0.229083 -0.0713386 -0.222961c-0.00715748,-0.0174921 -0.00843701,-0.0375 -0.00222835,-0.0569094l0.0793701 0.0253976 -0.0791024 -0.0253898 0.0732992 -0.229079 -0.0713386 -0.222961c-0.00715748,-0.0174921 -0.00843701,-0.0375 -0.00222835,-0.0569094l0.0793701 0.0253976 -0.0791024 -0.0253898 0.0732992 -0.229083 -0.0713386 -0.222961c-0.00715748,-0.0174921 -0.00843701,-0.0375 -0.00222835,-0.0569094l0.0793701 0.0253976 -0.0791024 -0.0253898 0.0732992 -0.229083 -0.0713386 -0.222961c-0.00715748,-0.0174921 -0.00843701,-0.0375 -0.00222835,-0.0569094l0.0793701 0.0253976 -0.0791024 -0.0253898 0.0732992 -0.229083 -0.0713386 -0.222961c-0.00715748,-0.0174921 -0.00843701,-0.0375 -0.00222835,-0.0569094l0.0793701 0.0253976 -0.0791024 -0.0253898 0.0602441 -0.188276c0.0189134,0.00742913 0.0369882,0.0166693 0.0540118,0.0275118 0.00728346,0.0046378 0.0143543,0.00957087 0.0212047,0.0147874 0.00685039,-0.00521654 0.0139252,-0.0101496 0.0212087,-0.0147874 0.0249488,-0.0158898 0.0521614,-0.0283465 0.0809646,-0.0366969l-0.0713031 0.22285 0.0732992 0.229083 -0.0791024 0.0253898 0.0793701 -0.0253976c0.00620866,0.0194094 0.00492913,0.0394173 -0.00222835,0.0569094l-0.0713386 0.222961 0.0732992 0.229083 -0.0791024 0.0253898 0.0793701 -0.0253976c0.00620866,0.0194094 0.00492913,0.0394173 -0.00222835,0.0569094l-0.0713386 0.222961 0.0732992 0.229083 -0.0791024 0.0253898 0.0793701 -0.0253976c0.00620866,0.0194094 0.00492913,0.0394173 -0.00222835,0.0569094l-0.0713386 0.222961 0.0732992 0.229083 -0.0791024 0.0253898 0.0793701 -0.0253976c0.00620866,0.0194094 0.00492913,0.0394134 -0.00222835,0.0569094l-0.0713386 0.222957 0.0732992 0.229083 -0.0791024 0.0253898 0.0793701 -0.0253976c0.00620866,0.0194094 0.00492913,0.0394173 -0.00222835,0.0569094l-0.0713386 0.222961 0.0732992 0.229083 -0.0791024 0.0253898 0.0793701 -0.0253976c0.00620866,0.0194094 0.00492913,0.0394173 -0.00222835,0.0569094l-0.0713386 0.222961 0.0732992 0.229083 -0.0791024 0.0253898 0.0793701 -0.0253976c0.00620866,0.0194094 0.00492913,0.0394173 -0.00222835,0.0569094l-0.0713386 0.222961 0.0304252 0.0950866z"/>
   <path id="_346948104" class="fil1" d="M3.68566 5.28173c-0.010063,0.0144724 -0.0239646,0.0265591 -0.0410827,0.0345551 -0.051748,0.0241693 -0.113295,0.00181496 -0.137461,-0.0499331l0.000366142 -0.000169291c-0.00103543,-0.00222047 -0.00215354,-0.0043937 -0.00333858,-0.00652362l-0.00554331 -0.0173307c-0.00715748,-0.0174921 -0.00843701,-0.0375 -0.00222835,-0.0569094l0.0793701 0.0253976 -0.0791024 -0.0253898 0.0732992 -0.229083 -0.0713386 -0.222961c-0.00715748,-0.0174921 -0.00843701,-0.0375 -0.00222835,-0.0569094l0.0793701 0.0253976 -0.0791024 -0.0253898 0.0732992 -0.229083 -0.0713386 -0.222961c-0.00715748,-0.0174921 -0.00843701,-0.0375 -0.00222835,-0.0569094l0.0793701 0.0253976 -0.0791024 -0.0253898 0.0732992 -0.229083 -0.0713386 -0.222961c-0.00715748,-0.0174921 -0.00843701,-0.0375 -0.00222835,-0.0569094l0.0793701 0.0253976 -0.0791024 -0.0253898 0.0732992 -0.229079 -0.0713386 -0.222961c-0.00715748,-0.0174921 -0.00843701,-0.0375 -0.00222835,-0.0569094l0.0793701 0.0253976 -0.0791024 -0.0253898 0.0732992 -0.229083 -0.0713386 -0.222961c-0.00715748,-0.0174921 -0.00843701,-0.0375 -0.00222835,-0.0569094l0.0793701 0.0253976 -0.0791024 -0.0253898 0.0732992 -0.229083 -0.0713386 -0.222961c-0.00715748,-0.0174921 -0.00843701,-0.0375 -0.00222835,-0.0569094l0.0793701 0.0253976 -0.0791024 -0.0253898 0.0732992 -0.229083 -0.0713386 -0.222961c-0.00715748,-0.0174921 -0.00843701,-0.0375 -0.00222835,-0.0569094l0.0793701 0.0253976 -0.0791024 -0.0253898 0.056311 -0.17598c0.0091378,0.00464567 0.0180315,0.00972441 0.0266535,0.0152165 0.00728346,0.0046378 0.0143543,0.00957087 0.0212087,0.0147874 0.00685039,-0.00521654 0.0139213,-0.0101496 0.0212047,-0.0147874 0.0345039,-0.0219764 0.0733386,-0.037378 0.114717,-0.0444449l-0.000464567 0.00151575 -0.0732992 0.229083 0.0732992 0.229083 -0.0791024 0.0253898 0.0793701 -0.0253976c0.00620866,0.0194094 0.00492913,0.0394173 -0.00222835,0.0569094l-0.0713386 0.222961 0.0732992 0.229083 -0.0791024 0.0253898 0.0793701 -0.0253976c0.00620866,0.0194094 0.00492913,0.0394173 -0.00222835,0.0569094l-0.0713386 0.222961 0.0732992 0.229083 -0.0791024 0.0253898 0.0793701 -0.0253976c0.00620866,0.0194094 0.00492913,0.0394173 -0.00222835,0.0569094l-0.0713386 0.222961 0.0732992 0.229083 -0.0791024 0.0253898 0.0793701 -0.0253976c0.00620866,0.0194094 0.00492913,0.0394134 -0.00222835,0.0569094l-0.0713386 0.222957 0.0732992 0.229083 -0.0791024 0.0253898 0.0793701 -0.0253976c0.00620866,0.0194094 0.00492913,0.0394173 -0.00222835,0.0569094l-0.0713386 0.222961 0.0732992 0.229083 -0.0791024 0.0253898 0.0793701 -0.0253976c0.00620866,0.0194094 0.00492913,0.0394173 -0.00222835,0.0569094l-0.0713386 0.222961 0.0732992 0.229083 -0.0791024 0.0253898 0.0793701 -0.0253976c0.00620866,0.0194094 0.00492913,0.0394173 -0.00222835,0.0569094l-0.0713386 0.222961 0.022689 0.0709134z"/>
   <path id="_346948512" class="fil1" d="M4.08078 5.24694c-0.00325591,0.00425591 -0.00619291,0.00877165 -0.00877559,0.0135079 -0.00935433,0.0237874 -0.0274803,0.0441654 -0.0524646,0.0558346 -0.0303661,0.0141811 -0.0640984,0.0123386 -0.0916811,-0.00205906l-0.0230079 -0.0719016c-0.00715748,-0.0174921 -0.00843701,-0.0375 -0.00222835,-0.0569094l0.0793701 0.0253976 -0.0791024 -0.0253898 0.0732992 -0.229083 -0.0713386 -0.222961c-0.00715748,-0.0174921 -0.00843701,-0.0375 -0.00222835,-0.0569094l0.0793701 0.0253976 -0.0791024 -0.0253898 0.0732992 -0.229083 -0.0713386 -0.222961c-0.00715748,-0.0174921 -0.00843701,-0.0375 -0.00222835,-0.0569094l0.0793701 0.0253976 -0.0791024 -0.0253898 0.0732992 -0.229083 -0.0713386 -0.222961c-0.00715748,-0.0174921 -0.00843701,-0.0375 -0.00222835,-0.0569094l0.0793701 0.0253976 -0.0791024 -0.0253898 0.0732992 -0.229079 -0.0713386 -0.222961c-0.00715748,-0.0174921 -0.00843701,-0.0375 -0.00222835,-0.0569094l0.0793701 0.0253976 -0.0791024 -0.0253898 0.0732992 -0.229083 -0.0713386 -0.222961c-0.00715748,-0.0174921 -0.00843701,-0.0375 -0.00222835,-0.0569094l0.0793701 0.0253976 -0.0791024 -0.0253898 0.0732992 -0.229083 -0.0713386 -0.222961c-0.00715748,-0.0174921 -0.00843701,-0.0375 -0.00222835,-0.0569094l0.0793701 0.0253976 -0.0791024 -0.0253898 0.0732992 -0.229083 -0.0713386 -0.222961c-0.00715748,-0.0174921 -0.00843701,-0.0375 -0.00222835,-0.0569094l0.0793701 0.0253976 -0.0791024 -0.0253898 0.0514803 -0.160894 0.000204724 0.000129921c0.00727559,0.0046378 0.0143504,0.0095748 0.0212008,0.0147874 0.00685039,-0.0052126 0.0139213,-0.0101496 0.0212047,-0.0147874 0.0433583,-0.0276142 0.0935551,-0.0448504 0.147039,-0.0482047 -0.000444882,0.00176378 -0.000937008,0.00351969 -0.0015,0.00527559l-0.0732992 0.229083 0.0732992 0.229083 -0.0791024 0.0253898 0.0793701 -0.0253976c0.00620866,0.0194094 0.00492913,0.0394173 -0.00222835,0.0569094l-0.0713386 0.222961 0.0732992 0.229083 -0.0791024 0.0253898 0.0793701 -0.0253976c0.00620866,0.0194094 0.00492913,0.0394173 -0.00222835,0.0569094l-0.0713386 0.222961 0.0732992 0.229083 -0.0791024 0.0253898 0.0793701 -0.0253976c0.00620866,0.0194094 0.00492913,0.0394173 -0.00222835,0.0569094l-0.0713386 0.222961 0.0732992 0.229083 -0.0791024 0.0253898 0.0793701 -0.0253976c0.00620866,0.0194094 0.00492913,0.0394134 -0.00222835,0.0569094l-0.0713386 0.222957 0.0732992 0.229083 -0.0791024 0.0253898 0.0793701 -0.0253976c0.00620866,0.0194094 0.00492913,0.0394173 -0.00222835,0.0569094l-0.0713386 0.222961 0.0732992 0.229083 -0.0791024 0.0253898 0.0793701 -0.0253976c0.00620866,0.0194094 0.00492913,0.0394173 -0.00222835,0.0569094l-0.0713386 0.222961 0.0732992 0.229083 -0.0791024 0.0253898 0.0793701 -0.0253976c0.00620866,0.0194094 0.00492913,0.0394173 -0.00222835,0.0569094l-0.0713386 0.222961 0.0115591 0.0361299z"/>
   <path id="_346948248" class="fil1" d="M4.37194 1.46205c0.0485197,-0.0309016 0.105598,-0.048811 0.166272,-0.048811 0.00406693,0 0.00811811,8.26772e-005 0.0121496,0.000244094 -0.00046063,0.00188189 -0.000992126,0.00376378 -0.00159449,0.0056378l-0.0732992 0.229083 0.0732992 0.229083 -0.0791024 0.0253898 0.0793701 -0.0253976c0.00620866,0.0194094 0.00492913,0.0394173 -0.00222835,0.0569094l-0.0713386 0.222961 0.0732992 0.229083 -0.0791024 0.0253898 0.0793701 -0.0253976c0.00620866,0.0194094 0.00492913,0.0394173 -0.00222835,0.0569094l-0.0713386 0.222961 0.0732992 0.229083 -0.0791024 0.0253898 0.0793701 -0.0253976c0.00620866,0.0194094 0.00492913,0.0394173 -0.00222835,0.0569094l-0.0713386 0.222961 0.0732992 0.229083 -0.0791024 0.0253898 0.0793701 -0.0253976c0.00620866,0.0194094 0.00492913,0.0394134 -0.00222835,0.0569094l-0.0713386 0.222957 0.0732992 0.229083 -0.0791024 0.0253898 0.0793701 -0.0253976c0.00620866,0.0194094 0.00492913,0.0394173 -0.00222835,0.0569094l-0.0713386 0.222961 0.0732992 0.229083 -0.0791024 0.0253898 0.0793701 -0.0253976c0.00620866,0.0194094 0.00492913,0.0394173 -0.00222835,0.0569094l-0.0713386 0.222961 0.0732992 0.229083 -0.0791024 0.0253898 0.0793701 -0.0253976c0.00620866,0.0194094 0.00492913,0.0394173 -0.00222835,0.0569094l-0.0713386 0.222961 0.00427559 0.0133622c-0.0135787,0.00929134 -0.0248583,0.0217362 -0.0327795,0.0362717 -0.00935827,0.0237874 -0.0274843,0.0441693 -0.0524646,0.0558346 -0.0184331,0.00861024 -0.0381102,0.011311 -0.0568937,0.00888976l-0.0265079 -0.0828465c-0.00715748,-0.0174921 -0.00843701,-0.0375 -0.00222835,-0.0569094l0.0793701 0.0253976 -0.0791024 -0.0253898 0.0732992 -0.229083 -0.0713386 -0.222961c-0.00715748,-0.0174921 -0.00843701,-0.0375 -0.00222835,-0.0569094l0.0793701 0.0253976 -0.0791024 -0.0253898 0.0732992 -0.229083 -0.0713386 -0.222961c-0.00715748,-0.0174921 -0.00843701,-0.0375 -0.00222835,-0.0569094l0.0793701 0.0253976 -0.0791024 -0.0253898 0.0732992 -0.229083 -0.0713386 -0.222961c-0.00715748,-0.0174921 -0.00843701,-0.0375 -0.00222835,-0.0569094l0.0793701 0.0253976 -0.0791024 -0.0253898 0.0732992 -0.229079 -0.0713386 -0.222961c-0.00715748,-0.0174921 -0.00843701,-0.0375 -0.00222835,-0.0569094l0.0793701 0.0253976 -0.0791024 -0.0253898 0.0732992 -0.229083 -0.0713386 -0.222961c-0.00715748,-0.0174921 -0.00843701,-0.0375 -0.00222835,-0.0569094l0.0793701 0.0253976 -0.0791024 -0.0253898 0.0732992 -0.229083 -0.0713386 -0.222961c-0.00715748,-0.0174921 -0.00843701,-0.0375 -0.00222835,-0.0569094l0.0793701 0.0253976 -0.0791024 -0.0253898 0.0732992 -0.229083 -0.0713386 -0.222961c-0.00715748,-0.0174921 -0.00843701,-0.0375 -0.00222835,-0.0569094l0.0793701 0.0253976 -0.0791024 -0.0253898 0.0482953 -0.150933c0.00473622,-0.00340945 0.0095748,-0.00668898 0.0145079,-0.00983071z"/>
   <path id="_346947936" class="fil1" d="M4.77133 1.44798c0.0428268,-0.0221969 0.0910787,-0.0347402 0.141846,-0.0347402 0.0144606,0 0.0287205,0.00101969 0.0427047,0.00298819 -0.000271654,0.000968504 -0.000559055,0.00192913 -0.000866142,0.0028937l-0.0732992 0.229083 0.0732992 0.229083 -0.0791024 0.0253898 0.0793701 -0.0253976c0.00620866,0.0194094 0.00492913,0.0394173 -0.00222835,0.0569094l-0.0713386 0.222961 0.0732992 0.229083 -0.0791024 0.0253898 0.0793701 -0.0253976c0.00620866,0.0194094 0.00492913,0.0394173 -0.00222835,0.0569094l-0.0713386 0.222961 0.0732992 0.229083 -0.0791024 0.0253898 0.0793701 -0.0253976c0.00620866,0.0194094 0.00492913,0.0394173 -0.00222835,0.0569094l-0.0713386 0.222961 0.0732992 0.229083 -0.0791024 0.0253898 0.0793701 -0.0253976c0.00620866,0.0194094 0.00492913,0.0394134 -0.00222835,0.0569094l-0.0713386 0.222957 0.0732992 0.229083 -0.0791024 0.0253898 0.0793701 -0.0253976c0.00620866,0.0194094 0.00492913,0.0394173 -0.00222835,0.0569094l-0.0713386 0.222961 0.0732992 0.229083 -0.0791024 0.0253898 0.0793701 -0.0253976c0.00620866,0.0194094 0.00492913,0.0394173 -0.00222835,0.0569094l-0.0713386 0.222961 0.0732992 0.229083 -0.0791024 0.0253898 0.0793701 -0.0253976c0.00620866,0.0194094 0.00492913,0.0394173 -0.00222835,0.0569094l-0.0713386 0.222961 0.000114173 0.000350394c-0.00874409,0.00266142 -0.0168819,0.00642126 -0.024248,0.0111102 -0.0148661,0.0094685 -0.0271811,0.022626 -0.0356575,0.0381772 -0.00935433,0.0237874 -0.0274803,0.0441654 -0.0524646,0.0558346 -0.00842126,0.00393307 -0.0170984,0.00662598 -0.0258346,0.00816929l-0.0262795 -0.0821299c-0.00715748,-0.0174921 -0.00843701,-0.0375 -0.00222835,-0.0569094l0.0793701 0.0253976 -0.0791024 -0.0253898 0.0732992 -0.229083 -0.0713386 -0.222961c-0.00715748,-0.0174921 -0.00843701,-0.0375 -0.00222835,-0.0569094l0.0793701 0.0253976 -0.0791024 -0.0253898 0.0732992 -0.229083 -0.0713386 -0.222961c-0.00715748,-0.0174921 -0.00843701,-0.0375 -0.00222835,-0.0569094l0.0793701 0.0253976 -0.0791024 -0.0253898 0.0732992 -0.229083 -0.0713386 -0.222961c-0.00715748,-0.0174921 -0.00843701,-0.0375 -0.00222835,-0.0569094l0.0793701 0.0253976 -0.0791024 -0.0253898 0.0732992 -0.229079 -0.0713386 -0.222961c-0.00715748,-0.0174921 -0.00843701,-0.0375 -0.00222835,-0.0569094l0.0793701 0.0253976 -0.0791024 -0.0253898 0.0732992 -0.229083 -0.0713386 -0.222961c-0.00715748,-0.0174921 -0.00843701,-0.0375 -0.00222835,-0.0569094l0.0793701 0.0253976 -0.0791024 -0.0253898 0.0732992 -0.229083 -0.0713386 -0.222961c-0.00715748,-0.0174921 -0.00843701,-0.0375 -0.00222835,-0.0569094l0.0793701 0.0253976 -0.0791024 -0.0253898 0.0732992 -0.229083 -0.0713386 -0.222961c-0.00715748,-0.0174921 -0.00843701,-0.0375 -0.00222835,-0.0569094l0.0793701 0.0253976 -0.0791024 -0.0253898 0.0559449 -0.174835z"/>
   <path id="_346947576" class="fil1" d="M5.18271 1.43195c0.0330748,-0.0121024 0.0685866,-0.0187087 0.105425,-0.0187087 0.0247953,0 0.0489921,0.00299606 0.072248,0.00864173l-0.0724173 0.226323 0.0732992 0.229083 -0.0791024 0.0253898 0.0793701 -0.0253976c0.00620866,0.0194094 0.00492913,0.0394173 -0.00222835,0.0569094l-0.0713386 0.222961 0.0732992 0.229083 -0.0791024 0.0253898 0.0793701 -0.0253976c0.00620866,0.0194094 0.00492913,0.0394173 -0.00222835,0.0569094l-0.0713386 0.222961 0.0732992 0.229083 -0.0791024 0.0253898 0.0793701 -0.0253976c0.00620866,0.0194094 0.00492913,0.0394173 -0.00222835,0.0569094l-0.0713386 0.222961 0.0732992 0.229083 -0.0791024 0.0253898 0.0793701 -0.0253976c0.00620866,0.0194094 0.00492913,0.0394134 -0.00222835,0.0569094l-0.0713386 0.222957 0.0732992 0.229083 -0.0791024 0.0253898 0.0793701 -0.0253976c0.00620866,0.0194094 0.00492913,0.0394173 -0.00222835,0.0569094l-0.0713386 0.222961 0.0732992 0.229083 -0.0791024 0.0253898 0.0793701 -0.0253976c0.00620866,0.0194094 0.00492913,0.0394173 -0.00222835,0.0569094l-0.0713386 0.222961 0.0732992 0.229083 -0.0791024 0.0253898 0.0793701 -0.0253976c0.00620866,0.0194094 0.00492913,0.0394173 -0.00222835,0.0569094l-0.0699921 0.218748 -0.00117717 -7.87402e-006c-0.0209646,0 -0.0400039,0.00575591 -0.0555866,0.0156811 -0.0148701,0.00946457 -0.027185,0.022622 -0.0356614,0.0381732 -0.00904724,0.023 -0.0262953,0.0428189 -0.0500079,0.0546496l-0.0232835 -0.0727717c-0.00715748,-0.0174921 -0.00843701,-0.0375 -0.00222835,-0.0569094l0.0793701 0.0253976 -0.0791024 -0.0253898 0.0732992 -0.229083 -0.0713386 -0.222961c-0.00715748,-0.0174921 -0.00843701,-0.0375 -0.00222835,-0.0569094l0.0793701 0.0253976 -0.0791024 -0.0253898 0.0732992 -0.229083 -0.0713386 -0.222961c-0.00715748,-0.0174921 -0.00843701,-0.0375 -0.00222835,-0.0569094l0.0793701 0.0253976 -0.0791024 -0.0253898 0.0732992 -0.229083 -0.0713386 -0.222961c-0.00715748,-0.0174921 -0.00843701,-0.0375 -0.00222835,-0.0569094l0.0793701 0.0253976 -0.0791024 -0.0253898 0.0732992 -0.229079 -0.0713386 -0.222961c-0.00715748,-0.0174921 -0.00843701,-0.0375 -0.00222835,-0.0569094l0.0793701 0.0253976 -0.0791024 -0.0253898 0.0732992 -0.229083 -0.0713386 -0.222961c-0.00715748,-0.0174921 -0.00843701,-0.0375 -0.00222835,-0.0569094l0.0793701 0.0253976 -0.0791024 -0.0253898 0.0732992 -0.229083 -0.0713386 -0.222961c-0.00715748,-0.0174921 -0.00843701,-0.0375 -0.00222835,-0.0569094l0.0793701 0.0253976 -0.0791024 -0.0253898 0.0732992 -0.229083 -0.0713386 -0.222961c-0.00715748,-0.0174921 -0.00843701,-0.0375 -0.00222835,-0.0569094l0.0793701 0.0253976 -0.0791024 -0.0253898 0.0610748 -0.190866z"/>
   <path id="_346947312" class="fil1" d="M5.59229 1.42154c0.022815,-0.00542126 0.0465236,-0.00829528 0.0708071,-0.00829528 0.0353307,0 0.0692835,0.00591732 0.100925,0.0167992l-0.0698071 0.218165 0.0732992 0.229083 -0.0791024 0.0253898 0.0793701 -0.0253976c0.00620866,0.0194094 0.00492913,0.0394173 -0.00222835,0.0569094l-0.0713386 0.222961 0.0732992 0.229083 -0.0791024 0.0253898 0.0793701 -0.0253976c0.00620866,0.0194094 0.00492913,0.0394173 -0.00222835,0.0569094l-0.0713386 0.222961 0.0732992 0.229083 -0.0791024 0.0253898 0.0793701 -0.0253976c0.00620866,0.0194094 0.00492913,0.0394173 -0.00222835,0.0569094l-0.0713386 0.222961 0.0732992 0.229083 -0.0791024 0.0253898 0.0793701 -0.0253976c0.00620866,0.0194094 0.00492913,0.0394134 -0.00222835,0.0569094l-0.0713386 0.222957 0.0732992 0.229083 -0.0791024 0.0253898 0.0793701 -0.0253976c0.00620866,0.0194094 0.00492913,0.0394173 -0.00222835,0.0569094l-0.0713386 0.222961 0.0732992 0.229083 -0.0791024 0.0253898 0.0793701 -0.0253976c0.00620866,0.0194094 0.00492913,0.0394173 -0.00222835,0.0569094l-0.0713386 0.222961 0.0732992 0.229083 -0.0791024 0.0253898 0.0793701 -0.0253976c0.00620866,0.0194094 0.00492913,0.0394173 -0.00222835,0.0569094l-0.0713386 0.222961 0.000192913 0.000602362c-0.00987795,-0.00313386 -0.0203976,-0.00482283 -0.031311,-0.00482283 -0.0209685,0 -0.0400079,0.00575591 -0.0555906,0.0156811 -0.0148661,0.00946457 -0.027185,0.022622 -0.0356614,0.0381732 -0.00537795,0.0136772 -0.0136575,0.0262323 -0.0244764,0.0366457l-0.0175236 -0.0547677c-0.00715748,-0.0174921 -0.00843701,-0.0375 -0.00222835,-0.0569094l0.0793701 0.0253976 -0.0791024 -0.0253898 0.0732992 -0.229083 -0.0713386 -0.222961c-0.00715748,-0.0174921 -0.00843701,-0.0375 -0.00222835,-0.0569094l0.0793701 0.0253976 -0.0791024 -0.0253898 0.0732992 -0.229083 -0.0713386 -0.222961c-0.00715748,-0.0174921 -0.00843701,-0.0375 -0.00222835,-0.0569094l0.0793701 0.0253976 -0.0791024 -0.0253898 0.0732992 -0.229083 -0.0713386 -0.222961c-0.00715748,-0.0174921 -0.00843701,-0.0375 -0.00222835,-0.0569094l0.0793701 0.0253976 -0.0791024 -0.0253898 0.0732992 -0.229079 -0.0713386 -0.222961c-0.00715748,-0.0174921 -0.00843701,-0.0375 -0.00222835,-0.0569094l0.0793701 0.0253976 -0.0791024 -0.0253898 0.0732992 -0.229083 -0.0713386 -0.222961c-0.00715748,-0.0174921 -0.00843701,-0.0375 -0.00222835,-0.0569094l0.0793701 0.0253976 -0.0791024 -0.0253898 0.0732992 -0.229083 -0.0713386 -0.222961c-0.00715748,-0.0174921 -0.00843701,-0.0375 -0.00222835,-0.0569094l0.0793701 0.0253976 -0.0791024 -0.0253898 0.0732992 -0.229083 -0.0713386 -0.222961c-0.00715748,-0.0174921 -0.00843701,-0.0375 -0.00222835,-0.0569094l0.0793701 0.0253976 -0.0791024 -0.0253898 0.0644055 -0.20128z"/>
  </g>
  <g id="_346947648">
   <path id="_346947216" class="fil2" d="M4.01561 2.25557c-0.144134,0 -0.303173,0.112217 -0.425933,0.26187 -0.125122,0.152528 -0.217087,0.348571 -0.217087,0.503031 0,0.149764 0.0197913,0.23174 0.0410748,0.319937 0.00835039,0.0345984 0.0169724,0.0703071 0.0248543,0.115736 0.0053622,0.0309252 0.0101969,0.0960591 0.0138583,0.170106 0.00423228,0.0855039 0.00680315,0.185571 0.00680315,0.260146 0,0.132709 0.0467874,0.25365 0.122425,0.34189 0.0788031,0.0919331 0.188547,0.148803 0.310539,0.148803 0.122,0 0.231744,-0.0568701 0.310547,-0.148803 0.0756339,-0.0882402 0.122421,-0.209181 0.122421,-0.34189 0,-0.0770079 0.00278346,-0.178055 0.00733071,-0.264831 0.00405118,-0.0773465 0.00925591,-0.144441 0.0148189,-0.175004 0.00689764,-0.0379213 0.0152559,-0.0725394 0.0233661,-0.106157 0.0212874,-0.0881969 0.0410748,-0.170169 0.0410748,-0.319933 0,-0.160606 -0.0255787,-0.376862 -0.0973622,-0.534181 -0.0617953,-0.135437 -0.15713,-0.23072 -0.298732,-0.23072z"/>
   <path id="_346947480" class="fil2" d="M4.89439 2.25557c0.144134,0 0.303173,0.112217 0.425933,0.26187 0.125122,0.152528 0.217087,0.348571 0.217087,0.503031 0,0.149764 -0.0197913,0.23174 -0.0410748,0.319937 -0.00835039,0.0345984 -0.0169724,0.0703071 -0.0248543,0.115736 -0.0053622,0.0309252 -0.0101969,0.0960591 -0.0138583,0.170106 -0.00423228,0.0855039 -0.00680315,0.185571 -0.00680315,0.260146 0,0.132709 -0.0467874,0.25365 -0.122425,0.34189 -0.0788031,0.0919331 -0.188547,0.148803 -0.310539,0.148803 -0.122,0 -0.231744,-0.0568701 -0.310547,-0.148803 -0.0756339,-0.0882402 -0.122421,-0.209181 -0.122421,-0.34189 0,-0.0770079 -0.00278346,-0.178055 -0.00733071,-0.264831 -0.00405118,-0.0773465 -0.00925591,-0.144441 -0.0148189,-0.175004 -0.00689764,-0.0379213 -0.0152559,-0.0725394 -0.0233661,-0.106157 -0.0212874,-0.0881969 -0.0410748,-0.170169 -0.0410748,-0.319933 0,-0.160606 0.0255787,-0.376862 0.0973622,-0.534181 0.0617953,-0.135437 0.15713,-0.23072 0.298732,-0.23072z"/>
  </g>
  <line class="fil0" x1="0.907465" y1="5.40094" x2="0.907465" y2= "5.40094" />
  <line class="fil0" x1="0.909677" y1="5.4021" x2="0.909677" y2= "5.4021" />
  <line class="fil0" x1="0.911921" y1="5.40322" x2="0.911921" y2= "5.40322" />
  <line class="fil0" x1="0.914197" y1="5.40428" x2="0.914197" y2= "5.40428" />
  <line class="fil0" x1="0.916504" y1="5.40529" x2="0.916504" y2= "5.40529" />
  <line class="fil0" x1="0.918839" y1="5.40624" x2="0.918839" y2= "5.40624" />
  <line class="fil0" x1="0.921197" y1="5.40714" x2="0.921197" y2= "5.40714" />
  <line class="fil0" x1="0.923587" y1="5.40798" x2="0.923587" y2= "5.40798" />
  <line class="fil0" x1="0.926004" y1="5.40877" x2="0.926004" y2= "5.40877" />
  <line class="fil0" x1="0.928445" y1="5.40949" x2="0.928445" y2= "5.40949" />
  <line class="fil0" x1="0.930913" y1="5.41016" x2="0.930913" y2= "5.41016" />
  <line class="fil0" x1="0.933402" y1="5.41077" x2="0.933402" y2= "5.41077" />
  <line class="fil0" x1="0.935917" y1="5.41132" x2="0.935917" y2= "5.41132" />
  <line class="fil0" x1="0.938449" y1="5.4118" x2="0.938449" y2= "5.4118" />
  <line class="fil0" x1="0.941008" y1="5.41223" x2="0.941008" y2= "5.41223" />
  <line class="fil0" x1="0.943583" y1="5.41259" x2="0.943583" y2= "5.41259" />
  <line class="fil0" x1="0.948799" y1="5.41311" x2="0.948799" y2= "5.41311" />
  <line class="fil0" x1="0.954087" y1="5.41338" x2="0.954087" y2= "5.41338" />
  <line class="fil0" x1="0.956748" y1="5.41342" x2="0.956748" y2= "5.41342" />
  <line class="fil0" x1="0.959417" y1="5.41338" x2="0.959417" y2= "5.41338" />
  <line class="fil0" x1="0.964705" y1="5.41311" x2="0.964705" y2= "5.41311" />
  <line class="fil0" x1="0.969921" y1="5.41259" x2="0.969921" y2= "5.41259" />
  <line class="fil0" x1="0.972496" y1="5.41223" x2="0.972496" y2= "5.41223" />
  <line class="fil0" x1="0.975055" y1="5.4118" x2="0.975055" y2= "5.4118" />
  <line class="fil0" x1="0.977587" y1="5.41132" x2="0.977587" y2= "5.41132" />
  <line class="fil0" x1="0.980102" y1="5.41077" x2="0.980102" y2= "5.41077" />
  <line class="fil0" x1="0.982591" y1="5.41016" x2="0.982591" y2= "5.41016" />
  <line class="fil0" x1="0.985059" y1="5.40949" x2="0.985059" y2= "5.40949" />
  <line class="fil0" x1="0.9875" y1="5.40877" x2="0.9875" y2= "5.40877" />
  <line class="fil0" x1="0.989917" y1="5.40798" x2="0.989917" y2= "5.40798" />
  <line class="fil0" x1="0.992307" y1="5.40714" x2="0.992307" y2= "5.40714" />
  <line class="fil0" x1="0.994665" y1="5.40624" x2="0.994665" y2= "5.40624" />
  <line class="fil0" x1="0.997" y1="5.40529" x2="0.997" y2= "5.40529" />
  <line class="fil0" x1="0.999307" y1="5.40428" x2="0.999307" y2= "5.40428" />
  <line class="fil0" x1="1.00158" y1="5.40322" x2="1.00158" y2= "5.40322" />
  <line class="fil0" x1="1.00383" y1="5.4021" x2="1.00383" y2= "5.4021" />
  <line class="fil0" x1="1.00604" y1="5.40094" x2="1.00604" y2= "5.40094" />
  <rect class="fil3" width="6.82666" height="6.82666"/>
 </g>
</svg>
