<?xml version="1.0" encoding="UTF-8"?>
<!DOCTYPE svg PUBLIC "-//W3C//DTD SVG 1.1//EN" "http://www.w3.org/Graphics/SVG/1.1/DTD/svg11.dtd">
<!-- Creator: CorelDRAW -->
<svg xmlns="http://www.w3.org/2000/svg" xml:space="preserve" width="6.82666in" height="6.82666in" style="shape-rendering:geometricPrecision; text-rendering:geometricPrecision; image-rendering:optimizeQuality; fill-rule:evenodd; clip-rule:evenodd"
viewBox="0 0 6.82666 6.82666"
 xmlns:xlink="http://www.w3.org/1999/xlink">
 <defs>
  <style type="text/css">
   <![CDATA[
    .fil8 {fill:none}
    .fil2 {fill:#414141}
    .fil7 {fill:#5D5D5D}
    .fil6 {fill:#9A9B9B}
    .fil1 {fill:#1A191A;fill-rule:nonzero}
    .fil5 {fill:#404040;fill-rule:nonzero}
    .fil0 {fill:#414141;fill-rule:nonzero}
    .fil3 {fill:#494949;fill-rule:nonzero}
    .fil4 {fill:#656666;fill-rule:nonzero}
   ]]>
  </style>
 </defs>
 <g id="Layer_x0020_1">
  <metadata id="CorelCorpID_0Corel-Layer"/>
  <g id="_523634064">
   <path id="_523627272" class="fil0" d="M5.97333 3.61639l0 1.04259c0,0.0783071 -0.0294921,0.149421 -0.077,0.200902 -0.0475079,0.0514843 -0.113138,0.0834409 -0.185402,0.0834409l-4.5952 0c-0.0722638,0 -0.137894,-0.0319567 -0.185402,-0.0834409 -0.0475079,-0.0514803 -0.077,-0.122594 -0.077,-0.200902l0 -1.04259 0.656228 0 0 0.33289c0,0.0306417 0.0229252,0.0554843 0.0512008,0.0554843l0.307201 0c0.0282717,0 0.0512008,-0.0248425 0.0512008,-0.0554843l0 -0.33289c1.94387,0 2.77568,0 4.05417,0z"/>
   <path id="_523627632" class="fil1" d="M2.64433 1.73807l1.53799 0c0.095811,0 0.182846,0.039122 0.245878,0.10215 0.0630276,0.0630315 0.102154,0.150067 0.102154,0.245878l0 0.362331c0,0.0679921 -0.0062126,0.148244 -0.102469,0.14822l0 3.93701e-006 -2.02912 0c-0.0910394,0 -0.102469,-0.0747756 -0.102469,-0.1405l0 -0.370055c0,-0.095811 0.039126,-0.182846 0.102154,-0.245878 0.0630315,-0.0630276 0.150067,-0.10215 0.245878,-0.10215zm1.53799 0.347268l-1.53799 0c-0.0392835,0 -0.0750709,0.0161457 -0.101079,0.0421496 -0.026,0.0260079 -0.0421457,0.0617953 -0.0421457,0.101075l0 0.163287 1.82444 0 0 -0.163287c0,-0.0392795 -0.0161457,-0.0750669 -0.0421457,-0.101075 -0.0260079,-0.0260039 -0.0617953,-0.0421496 -0.101079,-0.0421496z"/>
   <path id="_523627128" class="fil0" d="M1.51893 4.88379c0,-0.0565512 -0.0458504,-0.102402 -0.102406,-0.102402 -0.0565512,0 -0.102402,0.0458504 -0.102402,0.102402l0 0.102398c0,0.0565551 0.0458504,0.102402 0.102402,0.102402 0.0565551,0 0.102406,-0.0458465 0.102406,-0.102402l0 -0.102398z"/>
   <path id="_523627368" class="fil0" d="M5.51254 4.88379c0,-0.0565512 -0.0458504,-0.102402 -0.102402,-0.102402 -0.0565551,0 -0.102406,0.0458504 -0.102406,0.102402l0 0.102398c0,0.0565551 0.0458504,0.102402 0.102406,0.102402 0.0565512,0 0.102402,-0.0458465 0.102402,-0.102402l0 -0.102398z"/>
   <path id="_523627440" class="fil2" d="M2.66303 2.07574c0.0581024,0.00727165 0.116205,0.0467244 0.174307,0.0467244 0.0580984,0 0.116197,-0.0394528 0.174299,-0.0467244l-0.348606 0zm1.152 0c0.0581024,0.00727165 0.116201,0.0467244 0.174299,0.0467244 0.0581024,0 0.116205,-0.0394528 0.174307,-0.0467244l-0.348606 0zm-0.384 0c0.0581024,0.00727165 0.116205,0.0467244 0.174303,0.0467244 0.0580984,0 0.116197,-0.0394528 0.174299,-0.0467244l-0.348602 0zm-0.383996 0c0.0581024,0.00727165 0.116201,0.0467244 0.174299,0.0467244 0.0580984,0 0.116201,-0.0394528 0.174303,-0.0467244l-0.348602 0z"/>
   <path id="_523636968" class="fil3" d="M1.11573 2.39185l4.5952 0c0.0722638,0 0.137894,0.0294921 0.185402,0.077 0.0475079,0.0475079 0.077,0.113138 0.077,0.185402l0 0.962134 -0.787161 0 -0.409602 0c-1.84998,0 -2.77339,0 -3.92324,0l0 -0.962134c0,-0.0722638 0.0294921,-0.137894 0.077,-0.185402 0.0475079,-0.0475079 0.113138,-0.077 0.185402,-0.077z"/>
   <path id="_523637640" class="fil4" d="M1.11573 2.39185l4.5952 0c0.0722638,0 0.137894,0.0294921 0.185402,0.077 0.0475079,0.0475079 0.077,0.113138 0.077,0.185402l0 0.356563 -5.12 0 0 -0.356563c0,-0.0722638 0.0294921,-0.137894 0.077,-0.185402 0.0475079,-0.0475079 0.113138,-0.077 0.185402,-0.077z"/>
   <path id="_523636128" class="fil5" d="M5.97333 3.52282l0 1.11611c0,0.0838307 -0.0294921,0.159961 -0.077,0.215071 -0.0475079,0.0551102 -0.113138,0.0893228 -0.185402,0.0893228l-4.5952 0c-0.0722638,0 -0.137894,-0.0342126 -0.185402,-0.0893228 -0.0475079,-0.0551102 -0.077,-0.13124 -0.077,-0.215071l0 -1.11611c1.14985,0 2.07325,0 3.92324,0l0.409602 0 0.787161 0z"/>
   <g>
    <polygon id="_523636704" class="fil0" points="5.08377,3.61639 4.87897,3.61639 4.87897,3.36039 5.08377,3.36039 "/>
    <path id="_523636584" class="fil6" d="M4.88259 3.29334l0.0919528 0 0 0.159012 -0.0919528 0c-0.0175945,0 -0.0319843,-0.0143898 -0.0319843,-0.0319843l0 -0.0950433c0,-0.0175945 0.0143898,-0.0319843 0.0319843,-0.0319843z"/>
    <path id="_523636536" class="fil6" d="M5.17885 3.29334l-0.0919528 0 0 0.159012 0.0919528 0c0.0175945,0 0.0319843,-0.0143898 0.0319843,-0.0319843l0 -0.0950433c0,-0.0175945 -0.0143898,-0.0319843 -0.0319843,-0.0319843z"/>
    <circle id="_523636656" class="fil7" cx="5.14974" cy="3.37285" r="0.023943"/>
    <circle id="_523636224" class="fil7" cx="4.91169" cy="3.37285" r="0.023943"/>
    <path id="_523635576" class="fil6" d="M4.90466 3.4788l0.252118 0c0.0225709,0 0.0410354,0.0184646 0.0410354,0.0410354l0 0.145524c0,0.0179567 -0.011689,0.033315 -0.0278346,0.0388425l-0.015378 0.14122c-0.00243701,0.022374 -0.0154488,0.0410354 -0.034315,0.0410354l-0.173374 0c-0.0188701,0 -0.0310157,-0.018811 -0.034311,-0.0410354l-0.0209606 -0.141157c-0.0162362,-0.00547638 -0.0280157,-0.0208819 -0.0280157,-0.0389055l0 -0.145524c0,-0.0225709 0.0184646,-0.0410354 0.0410354,-0.0410354z"/>
    <circle id="_523635456" class="fil7" cx="5.14974" cy="3.5499" r="0.023943"/>
    <circle id="_523635360" class="fil7" cx="4.91169" cy="3.5499" r="0.023943"/>
    <path id="_523635408" class="fil7" d="M5.09638 3.88646l-0.131319 0 0 -0.253291c0,-0.0112835 0.00923228,-0.0205157 0.0205197,-0.0205157l0.0902795 0c0.0112874,0 0.0205197,0.00923228 0.0205197,0.0205157l0 0.253291z"/>
    <path id="_523635432" class="fil7" d="M5.09638 3.48134l-0.131319 0 0 -0.215878c0,-0.00962205 0.00923228,-0.0174882 0.0205197,-0.0174882l0.0902795 0c0.0112874,0 0.0205197,0.00786614 0.0205197,0.0174882l0 0.215878z"/>
   </g>
   <g>
    <polygon id="_523635024" class="fil0" points="1.84706,3.61639 1.64226,3.61639 1.64226,3.36039 1.84706,3.36039 "/>
    <path id="_523634664" class="fil6" d="M1.64588 3.29334l0.0919528 0 0 0.159012 -0.0919528 0c-0.0175945,0 -0.0319843,-0.0143898 -0.0319843,-0.0319843l0 -0.0950433c0,-0.0175945 0.0143898,-0.0319843 0.0319843,-0.0319843z"/>
    <path id="_523635000" class="fil6" d="M1.94215 3.29334l-0.0919528 0 0 0.159012 0.0919528 0c0.0175945,0 0.0319843,-0.0143898 0.0319843,-0.0319843l0 -0.0950433c0,-0.0175945 -0.0143898,-0.0319843 -0.0319843,-0.0319843z"/>
    <circle id="_523635264" class="fil7" cx="1.91304" cy="3.37285" r="0.023943"/>
    <circle id="_523634832" class="fil7" cx="1.67499" cy="3.37285" r="0.023943"/>
    <path id="_523635240" class="fil6" d="M1.66795 3.4788l0.252118 0c0.0225709,0 0.0410354,0.0184646 0.0410354,0.0410354l0 0.145524c0,0.0179567 -0.011689,0.033315 -0.0278346,0.0388425l-0.015378 0.14122c-0.00243701,0.022374 -0.0154488,0.0410354 -0.034315,0.0410354l-0.173374 0c-0.0188701,0 -0.0310157,-0.018811 -0.034311,-0.0410354l-0.0209606 -0.141157c-0.0162362,-0.00547638 -0.0280157,-0.0208819 -0.0280157,-0.0389055l0 -0.145524c0,-0.0225709 0.0184646,-0.0410354 0.0410354,-0.0410354z"/>
    <circle id="_523635120" class="fil7" cx="1.91304" cy="3.5499" r="0.023943"/>
    <circle id="_523634400" class="fil7" cx="1.67499" cy="3.5499" r="0.023943"/>
    <path id="_523634112" class="fil7" d="M1.85967 3.88646l-0.131319 0 0 -0.253291c0,-0.0112835 0.00923228,-0.0205157 0.0205197,-0.0205157l0.0902795 0c0.0112874,0 0.0205197,0.00923228 0.0205197,0.0205157l0 0.253291z"/>
    <path id="_523634280" class="fil7" d="M1.85967 3.48134l-0.131319 0 0 -0.215878c0,-0.00962205 0.00923228,-0.0174882 0.0205197,-0.0174882l0.0902795 0c0.0112874,0 0.0205197,0.00786614 0.0205197,0.0174882l0 0.215878z"/>
   </g>
  </g>
 </g>
 <rect class="fil8" width="6.82666" height="6.82666"/>
</svg>
