<?xml version="1.0" encoding="UTF-8"?>
<!DOCTYPE svg PUBLIC "-//W3C//DTD SVG 1.1//EN" "http://www.w3.org/Graphics/SVG/1.1/DTD/svg11.dtd">
<!-- Creator: CorelDRAW -->
<svg xmlns="http://www.w3.org/2000/svg" xml:space="preserve" width="6.82666in" height="6.82666in" style="shape-rendering:geometricPrecision; text-rendering:geometricPrecision; image-rendering:optimizeQuality; fill-rule:evenodd; clip-rule:evenodd"
viewBox="0 0 6.82666 6.82666"
 xmlns:xlink="http://www.w3.org/1999/xlink">
 <defs>
  <style type="text/css">
   <![CDATA[
    .fil4 {fill:none}
    .fil3 {fill:#797979}
    .fil1 {fill:#858585;fill-rule:nonzero}
    .fil0 {fill:#959595;fill-rule:nonzero}
    .fil2 {fill:#AAAAAA;fill-rule:nonzero}
   ]]>
  </style>
 </defs>
 <g id="Layer_x0020_1">
  <metadata id="CorelCorpID_0Corel-Layer"/>
  <path class="fil0" d="M3.9308 3.52l0.642724 0 0.771661 0.771661 -7.87402e-006 7.87402e-006c0.0416535,0.0416535 0.109197,0.0416535 0.15085,0 0.0208268,-0.0208268 0.0312402,-0.048126 0.0312402,-0.0754252l3.93701e-006 0 0 -0.696244 0.071752 0c0.103039,0 0.196642,-0.0420827 0.264437,-0.10987 0.0677874,-0.0677874 0.10987,-0.161394 0.10987,-0.264433l0 -0.981335c0,-0.103039 -0.0420827,-0.196646 -0.10987,-0.264433 -0.0677953,-0.0677874 -0.161398,-0.10987 -0.264437,-0.10987l-2.67636 0c-0.103039,0 -0.196642,0.0420827 -0.264437,0.10987 -0.0677874,0.0677874 -0.10987,0.161394 -0.10987,0.264433l0 0.628563 0.213339 0 0.688134 0c0.127819,0 0.249535,0.0507874 0.339862,0.14111 0.0903228,0.0903268 0.14111,0.212043 0.14111,0.339862l0 0.0327638 0 0.213339z"/>
  <path class="fil1" d="M3.9308 3.52l0.498543 0 0 -0.496106c0,-0.103043 -0.0420827,-0.19665 -0.10987,-0.264437 -0.0677874,-0.0677874 -0.161394,-0.10987 -0.264437,-0.10987l-0.339886 0 0 0.223433c0.0265945,0.0176614 0.0515827,0.0380591 0.0745394,0.0610157 0.0903228,0.0903268 0.14111,0.212043 0.14111,0.339862l0 0.0327638 0 0.213339z"/>
  <path class="fil2" d="M1.22763 2.50375l1.41232 0 1.26404 0c0.103043,0 0.19665,0.0420827 0.264437,0.10987 0.0677874,0.0677874 0.10987,0.161394 0.10987,0.264437l0 0.981331c0,0.103039 -0.0420827,0.196646 -0.10987,0.264433 -0.0677874,0.0677874 -0.161394,0.10987 -0.264437,0.10987l-1.65086 0 -0.771661 0.771661 7.87402e-006 7.87402e-006c-0.0416535,0.0416535 -0.109197,0.0416535 -0.15085,0 -0.0208268,-0.0208268 -0.0312402,-0.048126 -0.0312402,-0.0754252l-3.93701e-006 0 0 -0.696244 -0.071752 0c-0.103043,0 -0.19665,-0.0420827 -0.264437,-0.10987 -0.0677874,-0.0677874 -0.10987,-0.161394 -0.10987,-0.264433l0 -0.981331c0,-0.103043 0.0420827,-0.19665 0.10987,-0.264437 0.0677874,-0.0677874 0.161394,-0.10987 0.264437,-0.10987z"/>
  <g id="_246456800">
   <rect id="_246457184" class="fil3" x="1.47415" y="3.04874" width="2.18333" height="0.129165"/>
   <rect id="_246457136" class="fil3" x="1.47415" y="3.30708" width="2.18333" height="0.129165"/>
   <rect id="_246457088" class="fil3" x="1.47415" y="3.56541" width="1.16342" height="0.129165"/>
  </g>
 </g>
 <rect class="fil4" width="6.82666" height="6.82666"/>
</svg>
